<svg xmlns="http://www.w3.org/2000/svg" viewBox="0 0 373.96 400"><defs><style>.cls-1{fill:#fff;}</style></defs><g id="레이어_2" data-name="레이어 2"><g id="레이어_1-2" data-name="레이어 1"><rect class="cls-1" y="317.56" width="9" height="46.44"/><rect class="cls-1" x="9" y="36" width="9" height="9" transform="translate(27 81) rotate(180)"/><rect class="cls-1" x="18" y="27" width="9" height="9" transform="translate(45 63) rotate(180)"/><rect class="cls-1" y="45" width="9" height="263.56" transform="translate(9 353.56) rotate(180)"/><rect class="cls-1" x="364.96" y="164.23" width="9" height="199.77"/><rect class="cls-1" x="364.96" y="45" width="9" height="9" transform="translate(738.92 99) rotate(180)"/><rect class="cls-1" x="27" y="18" width="9" height="9" transform="translate(63 45) rotate(180)"/><rect class="cls-1" x="36" y="9" width="9" height="9" transform="translate(81 27) rotate(180)"/><rect class="cls-1" x="36" y="391" width="9" height="9"/><rect class="cls-1" x="27" y="382" width="9" height="9"/><rect class="cls-1" x="18" y="373" width="9" height="9"/><rect class="cls-1" x="9" y="364" width="9" height="9"/><rect class="cls-1" x="328.96" y="9" width="9" height="9" transform="translate(666.92 27) rotate(-180)"/><rect class="cls-1" x="337.96" y="18" width="9" height="9" transform="translate(684.92 45) rotate(-180)"/><rect class="cls-1" x="346.96" y="27" width="9" height="9" transform="translate(702.92 63) rotate(-180)"/><rect class="cls-1" x="355.96" y="36" width="9" height="9" transform="translate(720.92 81) rotate(-180)"/><rect class="cls-1" x="328.96" y="391" width="9" height="9" transform="translate(666.92 791) rotate(180)"/><rect class="cls-1" x="337.96" y="382" width="9" height="9" transform="translate(684.92 773) rotate(180)"/><rect class="cls-1" x="346.96" y="373" width="9" height="9" transform="translate(702.92 755) rotate(180)"/><rect class="cls-1" x="355.96" y="364" width="9" height="9" transform="translate(720.92 737) rotate(180)"/><rect class="cls-1" x="45" width="9" height="9" transform="translate(99 9) rotate(180)"/><rect class="cls-1" x="54" width="274.95" height="9" transform="translate(382.95 9) rotate(180)"/><rect class="cls-1" x="45" y="391" width="283.96" height="9" transform="translate(373.96 791) rotate(180)"/><rect class="cls-1" x="9" y="308.56" width="9" height="9"/><rect class="cls-1" x="355.96" y="155.23" width="9" height="9"/><rect class="cls-1" x="364.96" y="52.93" width="9" height="102.06"/></g></g></svg>