<svg xmlns="http://www.w3.org/2000/svg" viewBox="0 0 1287 490.5"><defs><style>.cls-1{fill:#fff;}</style></defs><g id="레이어_2" data-name="레이어 2"><g id="레이어_1-2" data-name="레이어 1"><rect class="cls-1" y="54" width="9" height="400.5"/><rect class="cls-1" x="9" y="36" width="9" height="9" transform="translate(27 81) rotate(180)"/><rect class="cls-1" x="18" y="27" width="9" height="9" transform="translate(45 63) rotate(180)"/><rect class="cls-1" y="45" width="9" height="9" transform="translate(9 99) rotate(180)"/><rect class="cls-1" x="1278" y="54" width="9" height="400.5"/><rect class="cls-1" x="1278" y="45" width="9" height="9" transform="translate(2565 99) rotate(180)"/><rect class="cls-1" x="27" y="18" width="9" height="9" transform="translate(63 45) rotate(180)"/><rect class="cls-1" x="36" y="9" width="9" height="9" transform="translate(81 27) rotate(180)"/><rect class="cls-1" x="36" y="481.5" width="9" height="9"/><rect class="cls-1" x="27" y="472.5" width="9" height="9"/><rect class="cls-1" x="18" y="463.5" width="9" height="9"/><rect class="cls-1" x="9" y="454.5" width="9" height="9"/><rect class="cls-1" x="1242" y="9" width="9" height="9" transform="translate(2493 27) rotate(-180)"/><rect class="cls-1" x="1251" y="18" width="9" height="9" transform="translate(2511 45) rotate(-180)"/><rect class="cls-1" x="1260" y="27" width="9" height="9" transform="translate(2529 63) rotate(-180)"/><rect class="cls-1" x="1269" y="36" width="9" height="9" transform="translate(2547 81) rotate(-180)"/><rect class="cls-1" x="1242" y="481.5" width="9" height="9" transform="translate(2493 972) rotate(180)"/><rect class="cls-1" x="1251" y="472.5" width="9" height="9" transform="translate(2511 954) rotate(180)"/><rect class="cls-1" x="1260" y="463.5" width="9" height="9" transform="translate(2529 936) rotate(180)"/><rect class="cls-1" x="1269" y="454.5" width="9" height="9" transform="translate(2547 918) rotate(180)"/><rect class="cls-1" x="45" width="9" height="9" transform="translate(99 9) rotate(180)"/><rect class="cls-1" x="796.5" y="481.5" width="445.5" height="9"/><rect class="cls-1" x="450" y="9" width="9" height="9" transform="translate(909 27) rotate(180)"/><rect class="cls-1" x="54" width="396" height="9" transform="translate(504 9) rotate(180)"/><rect class="cls-1" x="45" y="481.5" width="162" height="9" transform="translate(252 972) rotate(180)"/><rect class="cls-1" x="216" y="481.5" width="571.5" height="9" transform="translate(1003.5 972) rotate(180)"/><rect class="cls-1" x="459" width="783" height="9" transform="translate(1701 9) rotate(180)"/><rect class="cls-1" x="787.5" y="472.5" width="9" height="9"/><rect class="cls-1" x="207" y="472.5" width="9" height="9"/></g></g></svg>