<svg xmlns="http://www.w3.org/2000/svg" viewBox="0 0 253.79 72"><defs><style>.cls-1{fill:#ff615b;}.cls-2{fill:#ffb0ad;}.cls-3{fill:#fff;}.cls-4{fill:#bcc8fa;}.cls-5{fill:#ff3932;}.cls-6{fill:#bf2b26;}</style></defs><g id="레이어_2" data-name="레이어 2"><g id="레이어_1-2" data-name="레이어 1"><rect class="cls-1" x="9.29" y="9.29" width="235.21" height="53.42"/><rect class="cls-2" x="9.29" y="13.69" width="4.65" height="14.18"/><rect class="cls-2" x="239.85" y="13.94" width="4.65" height="4.65"/><rect class="cls-3" x="22.44" y="-0.79" width="4.65" height="24.8" transform="translate(13.15 36.38) rotate(-90)"/><rect class="cls-2" x="136.18" y="-89.73" width="4.65" height="202.69" transform="translate(126.89 150.12) rotate(-90)"/><rect class="cls-4" x="9.29" y="4.65" width="235.21" height="4.65"/><rect class="cls-4" x="-19.74" y="33.68" width="53.42" height="4.65" transform="translate(-29.03 42.97) rotate(-90)"/><rect class="cls-4" x="220.11" y="33.68" width="53.42" height="4.65" transform="translate(210.82 282.82) rotate(-90)"/><rect class="cls-4" x="9.29" y="62.71" width="235.21" height="4.65"/><rect class="cls-4" x="9.29" y="9.29" width="4.65" height="4.65"/><rect class="cls-4" x="9.29" y="58.06" width="4.65" height="4.65"/><rect class="cls-4" x="239.85" y="58.06" width="4.65" height="4.65"/><rect class="cls-4" x="239.85" y="9.29" width="4.65" height="4.65"/><rect class="cls-5" x="9.29" y="4.65" width="235.21" height="4.65"/><rect class="cls-5" x="-19.74" y="33.68" width="53.42" height="4.65" transform="translate(-29.03 42.97) rotate(-90)"/><rect class="cls-5" x="220.11" y="33.68" width="53.42" height="4.65" transform="translate(210.82 282.82) rotate(-90)"/><rect class="cls-5" x="9.29" y="62.71" width="235.21" height="4.65"/><rect class="cls-5" x="9.29" y="9.29" width="4.65" height="4.65"/><rect class="cls-5" x="9.29" y="58.06" width="4.65" height="4.65"/><rect class="cls-5" x="239.85" y="58.06" width="4.65" height="4.65"/><rect class="cls-5" x="239.85" y="9.29" width="4.65" height="4.65"/><rect class="cls-6" x="9.29" width="235.21" height="4.65"/><rect class="cls-6" x="224.76" y="33.68" width="53.42" height="4.65" transform="translate(215.47 287.47) rotate(-90)"/><rect class="cls-6" x="-24.39" y="33.68" width="53.42" height="4.65" transform="translate(-33.68 38.32) rotate(-90)"/><rect class="cls-6" x="244.5" y="4.65" width="4.65" height="4.65"/><rect class="cls-6" x="4.65" y="4.65" width="4.65" height="4.65"/><rect class="cls-6" x="9.29" y="67.35" width="235.21" height="4.65" transform="translate(253.79 139.35) rotate(180)"/><rect class="cls-6" x="4.65" y="60.39" width="4.65" height="4.65" transform="translate(13.94 125.42) rotate(180)"/><rect class="cls-6" x="244.5" y="62.71" width="4.65" height="4.65" transform="translate(493.64 130.06) rotate(180)"/><rect class="cls-3" x="9.29" y="13.94" width="4.65" height="4.65"/><rect class="cls-3" x="51.72" y="9.29" width="4.65" height="4.65"/><rect class="cls-3" x="218.43" y="5.06" width="4.65" height="13.1" transform="translate(209.14 232.36) rotate(-90)"/><path class="cls-3" d="M49.48,29.55V21.81h5.16V27h2.58v7.74h5.16V27H65V21.81h5.16v7.74H67.54v7.74H65V45H62.38v5.16H57.22V45H54.64V37.29H52.06V29.55Z"/><path class="cls-3" d="M72.7,27V21.81h5.16V27Zm0,23.22V29.55h5.16V50.19Z"/><path class="cls-3" d="M80.44,47.61V32.13H83V29.55H95.93v2.58h2.58V42.45H85.6V45H98.51v5.16H83V47.61ZM85.6,37.29h7.75V34.71H85.6Z"/><path class="cls-3" d="M101.09,37.29V29.55h5.16v5.16h2.58v5.16h2.58V29.55h5.16V39.87h2.58V34.71h2.58V29.55h5.16v7.74h-2.58V45h-2.58v5.16h-5.16V45h-5.16v5.16h-5.16V45h-2.58V37.29Z"/><path class="cls-3" d="M142.38,47.61V42.45h5.16V45h7.74V39.87h-5.16V37.29H145V34.71h-2.58V24.39H145V21.81h12.9v2.58h2.58v5.16h-5.16V27h-7.74v5.16h5.16v2.58h5.16v2.58h2.58V47.61h-2.58v2.58H145V47.61Z"/><path class="cls-3" d="M163,27V21.81h5.16V27Zm0,23.22V29.55h5.16V50.19Z"/><path class="cls-3" d="M170.76,34.71V29.55h2.59V24.39h5.16v5.16h5.16v5.16h-5.16V45h5.16v5.16h-7.74V47.61h-2.58V34.71Z"/><path class="cls-3" d="M186.25,47.61V32.13h2.58V29.55h12.9v2.58h2.58V42.45h-12.9V45h12.9v5.16H188.83V47.61Zm5.16-10.32h7.74V34.71h-7.74Z"/></g></g></svg>