<svg xmlns="http://www.w3.org/2000/svg" viewBox="0 0 217.67 72"><defs><style>.cls-1{fill:#6879d1;}.cls-2{fill:#b3bce8;}.cls-3{fill:#fff;}.cls-4{fill:#bcc8fa;}.cls-5{fill:#4258c5;}.cls-6{fill:#324294;}</style></defs><g id="레이어_2" data-name="레이어 2"><g id="레이어_1-2" data-name="레이어 1"><rect class="cls-1" x="9.29" y="9.29" width="199.08" height="53.42"/><rect class="cls-2" x="9.29" y="13.69" width="4.65" height="14.18"/><rect class="cls-2" x="203.73" y="13.94" width="4.65" height="4.65"/><rect class="cls-3" x="22.44" y="-0.79" width="4.65" height="24.8" transform="translate(13.15 36.38) rotate(-90)"/><rect class="cls-2" x="118.12" y="-71.67" width="4.65" height="166.57" transform="translate(108.83 132.06) rotate(-90)"/><rect class="cls-4" x="9.29" y="4.65" width="199.08" height="4.65"/><rect class="cls-4" x="-19.74" y="33.68" width="53.42" height="4.65" transform="translate(-29.03 42.97) rotate(-90)"/><rect class="cls-4" x="183.99" y="33.68" width="53.42" height="4.65" transform="translate(174.7 246.7) rotate(-90)"/><rect class="cls-4" x="9.29" y="62.71" width="199.08" height="4.65"/><rect class="cls-4" x="9.29" y="9.29" width="4.65" height="4.65"/><rect class="cls-4" x="9.29" y="58.06" width="4.65" height="4.65"/><rect class="cls-4" x="203.73" y="58.06" width="4.65" height="4.65"/><rect class="cls-4" x="203.73" y="9.29" width="4.65" height="4.65"/><rect class="cls-5" x="9.29" y="4.65" width="199.08" height="4.65"/><rect class="cls-5" x="-19.74" y="33.68" width="53.42" height="4.65" transform="translate(-29.03 42.97) rotate(-90)"/><rect class="cls-5" x="183.99" y="33.68" width="53.42" height="4.65" transform="translate(174.7 246.7) rotate(-90)"/><rect class="cls-5" x="9.29" y="62.71" width="199.08" height="4.65"/><rect class="cls-5" x="9.29" y="9.29" width="4.65" height="4.65"/><rect class="cls-5" x="9.29" y="58.06" width="4.65" height="4.65"/><rect class="cls-5" x="203.73" y="58.06" width="4.65" height="4.65"/><rect class="cls-5" x="203.73" y="9.29" width="4.65" height="4.65"/><rect class="cls-6" x="9.29" width="199.08" height="4.65"/><rect class="cls-6" x="188.63" y="33.68" width="53.42" height="4.65" transform="translate(179.34 251.34) rotate(-90)"/><rect class="cls-6" x="-24.39" y="33.68" width="53.42" height="4.65" transform="translate(-33.68 38.32) rotate(-90)"/><rect class="cls-6" x="208.37" y="4.65" width="4.65" height="4.65"/><rect class="cls-6" x="4.65" y="4.65" width="4.65" height="4.65"/><rect class="cls-6" x="9.29" y="67.35" width="199.08" height="4.65" transform="translate(217.67 139.35) rotate(180)"/><rect class="cls-6" x="4.65" y="60.39" width="4.65" height="4.65" transform="translate(13.94 125.42) rotate(180)"/><rect class="cls-6" x="208.37" y="62.71" width="4.65" height="4.65" transform="translate(421.39 130.06) rotate(180)"/><rect class="cls-3" x="9.29" y="13.94" width="4.65" height="4.65"/><rect class="cls-3" x="51.72" y="9.29" width="4.65" height="4.65"/><rect class="cls-3" x="96.5" y="9.29" width="23.64" height="4.65"/><rect class="cls-3" x="134.19" y="5.06" width="4.65" height="13.1" transform="translate(124.9 148.12) rotate(-90)"/><path class="cls-3" d="M50.77,50.19V21.81H66.25v2.58h2.58v12.9H66.25v5.16h2.58v7.74H63.67V45H61.09V39.87H55.93V50.19Zm5.16-15.48h7.74V27H55.93Z"/><path class="cls-3" d="M71.41,47.61V32.13H74V29.55H86.9v2.58h2.58V42.45H76.58V45h12.9v5.16H74V47.61Zm5.17-10.32h7.74V34.71H76.58Z"/><path class="cls-3" d="M92.06,37.29V29.55h5.16v5.16H99.8v5.16h2.58V34.71H105V29.55h5.16v7.74h-2.58v5.16H105v5.16h-2.58v2.58H99.8V47.61H97.22V42.45H94.64V37.29Z"/><path class="cls-3" d="M112.7,27V21.81h5.16V27Zm0,23.22V29.55h5.16V50.19Z"/><path class="cls-3" d="M120.45,47.61V32.13H123V29.55h12.9v2.58h2.58V42.45h-12.9V45h12.9v5.16H123V47.61Zm5.16-10.32h7.74V34.71h-7.74Z"/><path class="cls-3" d="M141.09,37.29V29.55h5.16v5.16h2.58v5.16h2.58V29.55h5.16V39.87h2.58V34.71h2.59V29.55h5.16v7.74h-2.58V45h-2.58v5.16h-5.17V45h-5.16v5.16h-5.16V45h-2.58V37.29Z"/></g></g></svg>