<svg xmlns="http://www.w3.org/2000/svg" viewBox="0 0 253.79 72"><defs><style>.cls-1{fill:#ff615b;}.cls-2{fill:#ffb0ad;}.cls-3{fill:#fff;}.cls-4{fill:#bcc8fa;}.cls-5{fill:#ff3932;}.cls-6{fill:#bf2b26;}</style></defs><g id="레이어_2" data-name="레이어 2"><g id="레이어_1-2" data-name="레이어 1"><rect class="cls-1" x="9.29" y="9.29" width="235.21" height="53.42"/><rect class="cls-2" x="9.29" y="13.69" width="4.65" height="14.18"/><rect class="cls-2" x="239.85" y="13.94" width="4.65" height="4.65"/><rect class="cls-3" x="22.44" y="-0.79" width="4.65" height="24.8" transform="translate(13.15 36.38) rotate(-90)"/><rect class="cls-2" x="136.18" y="-89.73" width="4.65" height="202.69" transform="translate(126.89 150.12) rotate(-90)"/><rect class="cls-4" x="9.29" y="4.65" width="235.21" height="4.65"/><rect class="cls-4" x="-19.74" y="33.68" width="53.42" height="4.65" transform="translate(-29.03 42.97) rotate(-90)"/><rect class="cls-4" x="220.11" y="33.68" width="53.42" height="4.65" transform="translate(210.82 282.82) rotate(-90)"/><rect class="cls-4" x="9.29" y="62.71" width="235.21" height="4.65"/><rect class="cls-4" x="9.29" y="9.29" width="4.65" height="4.65"/><rect class="cls-4" x="9.29" y="58.06" width="4.65" height="4.65"/><rect class="cls-4" x="239.85" y="58.06" width="4.65" height="4.65"/><rect class="cls-4" x="239.85" y="9.29" width="4.65" height="4.65"/><rect class="cls-5" x="9.29" y="4.65" width="235.21" height="4.65"/><rect class="cls-5" x="-19.74" y="33.68" width="53.42" height="4.65" transform="translate(-29.03 42.97) rotate(-90)"/><rect class="cls-5" x="220.11" y="33.68" width="53.42" height="4.65" transform="translate(210.82 282.82) rotate(-90)"/><rect class="cls-5" x="9.29" y="62.71" width="235.21" height="4.65"/><rect class="cls-5" x="9.29" y="9.29" width="4.65" height="4.65"/><rect class="cls-5" x="9.29" y="58.06" width="4.65" height="4.65"/><rect class="cls-5" x="239.85" y="58.06" width="4.65" height="4.65"/><rect class="cls-5" x="239.85" y="9.29" width="4.65" height="4.65"/><rect class="cls-6" x="9.29" width="235.21" height="4.65"/><rect class="cls-6" x="224.76" y="33.68" width="53.42" height="4.65" transform="translate(215.47 287.47) rotate(-90)"/><rect class="cls-6" x="-24.39" y="33.68" width="53.42" height="4.65" transform="translate(-33.68 38.32) rotate(-90)"/><rect class="cls-6" x="244.5" y="4.65" width="4.65" height="4.65"/><rect class="cls-6" x="4.65" y="4.65" width="4.65" height="4.65"/><rect class="cls-6" x="9.29" y="67.35" width="235.21" height="4.65" transform="translate(253.79 139.35) rotate(180)"/><rect class="cls-6" x="4.65" y="60.39" width="4.65" height="4.65" transform="translate(13.94 125.42) rotate(180)"/><rect class="cls-6" x="244.5" y="62.71" width="4.65" height="4.65" transform="translate(493.64 130.06) rotate(180)"/><rect class="cls-3" x="9.29" y="13.94" width="4.65" height="4.65"/><rect class="cls-3" x="51.72" y="9.29" width="4.65" height="4.65"/><rect class="cls-3" x="218.43" y="5.06" width="4.65" height="13.1" transform="translate(209.14 232.36) rotate(-90)"/><path class="cls-3" d="M37.86,29.55V21.81H43V27h2.59v7.74h5.16V27h2.58V21.81h5.16v7.74H55.93v7.74H53.35V45H50.77v5.16H45.61V45H43V37.29H40.44V29.55Z"/><path class="cls-3" d="M61.09,27V21.81h5.16V27Zm0,23.22V29.55h5.16V50.19Z"/><path class="cls-3" d="M68.83,47.61V32.13h2.58V29.55H84.32v2.58H86.9V42.45H74V45H86.9v5.16H71.41V47.61ZM74,37.29h7.74V34.71H74Z"/><path class="cls-3" d="M89.48,37.29V29.55h5.16v5.16h2.58v5.16H99.8V29.55H105V39.87h2.58V34.71h2.58V29.55h5.16v7.74H112.7V45h-2.58v5.16H105V45H99.8v5.16H94.64V45H92.06V37.29Z"/><path class="cls-3" d="M130.77,50.19V21.81h15.48v2.58h2.58v12.9h-2.58v2.58H135.93V50.19Zm5.16-15.48h7.74V27h-7.74Z"/><path class="cls-3" d="M151.41,47.61V39.87H154V37.29h7.74V34.71H151.41V29.55h12.9v2.58h2.58V50.19H154V47.61ZM156.57,45h5.16V42.45h-5.16Z"/><path class="cls-3" d="M169.47,50.19V29.55h5.17v2.58h2.58V29.55H185v2.58h2.58V50.19h-5.16V34.71h-5.16v2.58h-2.58v12.9Z"/><path class="cls-3" d="M190.12,47.61V32.13h2.58V29.55h12.9v2.58h2.58V42.45h-12.9V45h12.9v5.16H192.7V47.61Zm5.16-10.32H203V34.71h-7.74Z"/><path class="cls-3" d="M210.76,50.19V21.81h5.17V50.19Z"/></g></g></svg>