<svg xmlns="http://www.w3.org/2000/svg" viewBox="0 0 168.64 72"><defs><style>.cls-1{fill:#6879d1;}.cls-2{fill:#b3bce8;}.cls-3{fill:#fff;}.cls-4{fill:#bcc8fa;}.cls-5{fill:#4258c5;}.cls-6{fill:#324294;}</style></defs><g id="레이어_2" data-name="레이어 2"><g id="레이어_1-2" data-name="레이어 1"><rect class="cls-1" x="9.29" y="9.29" width="150.06" height="53.42"/><rect class="cls-2" x="9.29" y="13.69" width="4.65" height="14.18"/><rect class="cls-2" x="154.71" y="13.94" width="4.65" height="4.65"/><rect class="cls-3" x="22.44" y="-0.79" width="4.65" height="24.8" transform="translate(13.15 36.38) rotate(-90)"/><rect class="cls-2" x="93.61" y="-47.16" width="4.65" height="117.54" transform="translate(84.32 107.55) rotate(-90)"/><rect class="cls-4" x="9.29" y="4.65" width="150.06" height="4.65"/><rect class="cls-4" x="-19.74" y="33.68" width="53.42" height="4.65" transform="translate(-29.03 42.97) rotate(-90)"/><rect class="cls-4" x="134.96" y="33.68" width="53.42" height="4.65" transform="translate(125.67 197.67) rotate(-90)"/><rect class="cls-4" x="9.29" y="62.71" width="150.06" height="4.65"/><rect class="cls-4" x="9.29" y="9.29" width="4.65" height="4.65"/><rect class="cls-4" x="9.29" y="58.06" width="4.65" height="4.65"/><rect class="cls-4" x="154.71" y="58.06" width="4.65" height="4.65"/><rect class="cls-4" x="154.71" y="9.29" width="4.65" height="4.65"/><rect class="cls-5" x="9.29" y="4.65" width="150.06" height="4.65"/><rect class="cls-5" x="-19.74" y="33.68" width="53.42" height="4.65" transform="translate(-29.03 42.97) rotate(-90)"/><rect class="cls-5" x="134.96" y="33.68" width="53.42" height="4.65" transform="translate(125.67 197.67) rotate(-90)"/><rect class="cls-5" x="9.29" y="62.71" width="150.06" height="4.65"/><rect class="cls-5" x="9.29" y="9.29" width="4.65" height="4.65"/><rect class="cls-5" x="9.29" y="58.06" width="4.65" height="4.65"/><rect class="cls-5" x="154.71" y="58.06" width="4.65" height="4.65"/><rect class="cls-5" x="154.71" y="9.29" width="4.65" height="4.65"/><rect class="cls-6" x="9.29" width="150.06" height="4.65"/><rect class="cls-6" x="139.61" y="33.68" width="53.42" height="4.65" transform="translate(130.32 202.32) rotate(-90)"/><rect class="cls-6" x="-24.39" y="33.68" width="53.42" height="4.65" transform="translate(-33.68 38.32) rotate(-90)"/><rect class="cls-6" x="159.35" y="4.65" width="4.65" height="4.65"/><rect class="cls-6" x="4.65" y="4.65" width="4.65" height="4.65"/><rect class="cls-6" x="9.29" y="67.35" width="150.06" height="4.65" transform="translate(168.64 139.35) rotate(180)"/><rect class="cls-6" x="4.65" y="60.39" width="4.65" height="4.65" transform="translate(13.94 125.42) rotate(180)"/><rect class="cls-6" x="159.35" y="62.71" width="4.65" height="4.65" transform="translate(323.35 130.06) rotate(180)"/><rect class="cls-3" x="9.29" y="13.94" width="4.65" height="4.65"/><rect class="cls-3" x="51.72" y="9.29" width="4.65" height="4.65"/><rect class="cls-3" x="96.5" y="9.29" width="23.64" height="4.65"/><rect class="cls-3" x="134.19" y="5.06" width="4.65" height="13.1" transform="translate(124.9 148.12) rotate(-90)"/><path class="cls-3" d="M50.77,45h2.58V27H50.77V21.81H61.1V27H58.51V45H61.1v5.16H50.77Z"/><path class="cls-3" d="M63.68,50.19V29.55h5.16v2.58h2.58V29.55h7.74v2.58h2.58V50.19H76.58V34.71H71.42v2.58H68.84v12.9Z"/><path class="cls-3" d="M84.32,34.71V29.55H86.9V24.39h2.58V21.81h7.74V27H92.06v2.58h5.16v5.16H92.06V50.19H86.9V34.71Z"/><path class="cls-3" d="M99.8,47.61V32.13h2.58V29.55h12.91v2.58h2.58V47.61h-2.58v2.58H102.38V47.61ZM105,45h7.74V34.71H105Z"/></g></g></svg>