<svg xmlns="http://www.w3.org/2000/svg" viewBox="0 0 253.79 72"><defs><style>.cls-1{fill:#ff615b;}.cls-2{fill:#ffb0ad;}.cls-3{fill:#fff;}.cls-4{fill:#bcc8fa;}.cls-5{fill:#ff3932;}.cls-6{fill:#bf2b26;}</style></defs><g id="레이어_2" data-name="레이어 2"><g id="레이어_1-2" data-name="레이어 1"><rect class="cls-1" x="9.29" y="9.29" width="235.21" height="53.42"/><rect class="cls-2" x="9.29" y="13.69" width="4.65" height="14.18"/><rect class="cls-2" x="239.85" y="13.94" width="4.65" height="4.65"/><rect class="cls-3" x="22.44" y="-0.79" width="4.65" height="24.8" transform="translate(13.15 36.38) rotate(-90)"/><rect class="cls-2" x="136.18" y="-89.73" width="4.65" height="202.69" transform="translate(126.89 150.12) rotate(-90)"/><rect class="cls-4" x="9.29" y="4.65" width="235.21" height="4.65"/><rect class="cls-4" x="-19.74" y="33.68" width="53.42" height="4.65" transform="translate(-29.03 42.97) rotate(-90)"/><rect class="cls-4" x="220.11" y="33.68" width="53.42" height="4.65" transform="translate(210.82 282.82) rotate(-90)"/><rect class="cls-4" x="9.29" y="62.71" width="235.21" height="4.65"/><rect class="cls-4" x="9.29" y="9.29" width="4.65" height="4.65"/><rect class="cls-4" x="9.29" y="58.06" width="4.65" height="4.65"/><rect class="cls-4" x="239.85" y="58.06" width="4.65" height="4.65"/><rect class="cls-4" x="239.85" y="9.29" width="4.65" height="4.65"/><rect class="cls-5" x="9.29" y="4.65" width="235.21" height="4.65"/><rect class="cls-5" x="-19.74" y="33.68" width="53.42" height="4.65" transform="translate(-29.03 42.97) rotate(-90)"/><rect class="cls-5" x="220.11" y="33.68" width="53.42" height="4.65" transform="translate(210.82 282.82) rotate(-90)"/><rect class="cls-5" x="9.29" y="62.71" width="235.21" height="4.65"/><rect class="cls-5" x="9.29" y="9.29" width="4.65" height="4.65"/><rect class="cls-5" x="9.29" y="58.06" width="4.65" height="4.65"/><rect class="cls-5" x="239.85" y="58.06" width="4.65" height="4.65"/><rect class="cls-5" x="239.85" y="9.29" width="4.65" height="4.65"/><rect class="cls-6" x="9.29" width="235.21" height="4.65"/><rect class="cls-6" x="224.76" y="33.68" width="53.42" height="4.65" transform="translate(215.47 287.47) rotate(-90)"/><rect class="cls-6" x="-24.39" y="33.68" width="53.42" height="4.65" transform="translate(-33.68 38.32) rotate(-90)"/><rect class="cls-6" x="244.5" y="4.65" width="4.65" height="4.65"/><rect class="cls-6" x="4.65" y="4.65" width="4.65" height="4.65"/><rect class="cls-6" x="9.29" y="67.35" width="235.21" height="4.65" transform="translate(253.79 139.35) rotate(180)"/><rect class="cls-6" x="4.65" y="60.39" width="4.65" height="4.65" transform="translate(13.94 125.42) rotate(180)"/><rect class="cls-6" x="244.5" y="62.71" width="4.65" height="4.65" transform="translate(493.64 130.06) rotate(180)"/><rect class="cls-3" x="9.29" y="13.94" width="4.65" height="4.65"/><rect class="cls-3" x="51.72" y="9.29" width="4.65" height="4.65"/><rect class="cls-3" x="96.5" y="9.29" width="23.64" height="4.65"/><rect class="cls-3" x="134.19" y="5.06" width="4.65" height="13.1" transform="translate(124.9 148.12) rotate(-90)"/><path class="cls-3" d="M52.06,29.55V21.81h5.16V27H59.8v7.74H65V27h2.58V21.81H72.7v7.74H70.12v7.74H67.54V45H65v5.16H59.8V45H57.22V37.29H54.64V29.55Z"/><path class="cls-3" d="M75.28,27V21.81h5.16V27Zm0,23.22V29.55h5.16V50.19Z"/><path class="cls-3" d="M83,47.61V32.13H85.6V29.55H98.51v2.58h2.58V42.45H88.19V45h12.9v5.16H85.6V47.61Zm5.17-10.32h7.74V34.71H88.19Z"/><path class="cls-3" d="M103.67,37.29V29.55h5.16v5.16h2.58v5.16H114V29.55h5.16V39.87h2.58V34.71h2.58V29.55h5.17v7.74h-2.59V45h-2.58v5.16h-5.16V45H114v5.16h-5.16V45h-2.58V37.29Z"/><path class="cls-3" d="M145,50.19V21.81h15.48v2.58H163v12.9h-2.58v2.58H150.12V50.19Zm5.16-15.48h7.74V27h-7.74Z"/><path class="cls-3" d="M165.6,50.19V21.81h15.49v2.58h2.58V47.61h-2.58v2.58ZM178.51,45V27h-7.75V45Z"/><path class="cls-3" d="M186.25,50.19V21.81h15.48V27H191.41v5.16h10.32v5.16H191.41v12.9Z"/></g></g></svg>