<svg xmlns="http://www.w3.org/2000/svg" viewBox="0 0 253.79 72"><defs><style>.cls-1{fill:#6879d1;}.cls-2{fill:#b3bce8;}.cls-3{fill:#fff;}.cls-4{fill:#bcc8fa;}.cls-5{fill:#4258c5;}.cls-6{fill:#324294;}</style></defs><g id="레이어_2" data-name="레이어 2"><g id="레이어_1-2" data-name="레이어 1"><rect class="cls-1" x="9.29" y="9.29" width="235.21" height="53.42"/><rect class="cls-2" x="9.29" y="13.69" width="4.65" height="14.18"/><rect class="cls-2" x="239.85" y="13.94" width="4.65" height="4.65"/><rect class="cls-3" x="22.44" y="-0.79" width="4.65" height="24.8" transform="translate(13.15 36.38) rotate(-90)"/><rect class="cls-2" x="136.18" y="-89.73" width="4.65" height="202.69" transform="translate(126.89 150.12) rotate(-90)"/><rect class="cls-4" x="9.29" y="4.65" width="235.21" height="4.65"/><rect class="cls-4" x="-19.74" y="33.68" width="53.42" height="4.65" transform="translate(-29.03 42.97) rotate(-90)"/><rect class="cls-4" x="220.11" y="33.68" width="53.42" height="4.65" transform="translate(210.82 282.82) rotate(-90)"/><rect class="cls-4" x="9.29" y="62.71" width="235.21" height="4.65"/><rect class="cls-4" x="9.29" y="9.29" width="4.65" height="4.65"/><rect class="cls-4" x="9.29" y="58.06" width="4.65" height="4.65"/><rect class="cls-4" x="239.85" y="58.06" width="4.65" height="4.65"/><rect class="cls-4" x="239.85" y="9.29" width="4.65" height="4.65"/><rect class="cls-5" x="9.29" y="4.65" width="235.21" height="4.65"/><rect class="cls-5" x="-19.74" y="33.68" width="53.42" height="4.65" transform="translate(-29.03 42.97) rotate(-90)"/><rect class="cls-5" x="220.11" y="33.68" width="53.42" height="4.65" transform="translate(210.82 282.82) rotate(-90)"/><rect class="cls-5" x="9.29" y="62.71" width="235.21" height="4.65"/><rect class="cls-5" x="9.29" y="9.29" width="4.65" height="4.65"/><rect class="cls-5" x="9.29" y="58.06" width="4.65" height="4.65"/><rect class="cls-5" x="239.85" y="58.06" width="4.65" height="4.65"/><rect class="cls-5" x="239.85" y="9.29" width="4.65" height="4.65"/><rect class="cls-6" x="9.29" width="235.21" height="4.65"/><rect class="cls-6" x="224.76" y="33.68" width="53.42" height="4.65" transform="translate(215.47 287.47) rotate(-90)"/><rect class="cls-6" x="-24.39" y="33.68" width="53.42" height="4.65" transform="translate(-33.68 38.32) rotate(-90)"/><rect class="cls-6" x="244.5" y="4.65" width="4.65" height="4.65"/><rect class="cls-6" x="4.65" y="4.65" width="4.65" height="4.65"/><rect class="cls-6" x="9.29" y="67.35" width="235.21" height="4.65" transform="translate(253.79 139.35) rotate(180)"/><rect class="cls-6" x="4.65" y="60.39" width="4.65" height="4.65" transform="translate(13.94 125.42) rotate(180)"/><rect class="cls-6" x="244.5" y="62.71" width="4.65" height="4.65" transform="translate(493.64 130.06) rotate(180)"/><rect class="cls-3" x="9.29" y="13.94" width="4.65" height="4.65"/><rect class="cls-3" x="51.72" y="9.29" width="4.65" height="4.65"/><rect class="cls-3" x="96.5" y="9.29" width="23.64" height="4.65"/><rect class="cls-3" x="134.19" y="5.06" width="4.65" height="13.1" transform="translate(124.9 148.12) rotate(-90)"/><path class="cls-3" d="M50.77,47.61V24.39h2.58V21.81h12.9v2.58h2.58V47.61H66.25v2.58H53.35V47.61ZM55.93,45h7.74V27H55.93Z"/><path class="cls-3" d="M71.41,37.29V29.55h5.16v5.16h2.58v5.16h2.58V34.71h2.58V29.55h5.17v7.74H86.89v5.16H84.31v5.16H81.73v2.58H79.15V47.61H76.57V42.45H74V37.29Z"/><path class="cls-3" d="M92.06,47.61V32.13h2.58V29.55h12.9v2.58h2.58V42.45H97.22V45h12.9v5.16H94.64V47.61Zm5.16-10.32H105V34.71H97.22Z"/><path class="cls-3" d="M112.7,50.19V29.55h5.16v2.58h2.58V29.55h5.16v5.16h-5.16v2.58h-2.58v12.9Z"/><path class="cls-3" d="M128.18,37.29V29.55h5.17v5.16h2.58v5.16h2.58V34.71h2.58V29.55h5.16v7.74h-2.58v5.16h-2.58v5.16h-2.58v2.58h-2.58V47.61h-2.58V42.45h-2.59V37.29Z"/><path class="cls-3" d="M148.83,27V21.81H154V27Zm0,23.22V29.55H154V50.19Z"/><path class="cls-3" d="M156.57,47.61V32.13h2.58V29.55h12.9v2.58h2.59V42.45H161.73V45h12.91v5.16H159.15V47.61Zm5.16-10.32h7.74V34.71h-7.74Z"/><path class="cls-3" d="M177.22,37.29V29.55h5.16v5.16H185v5.16h2.58V29.55h5.16V39.87h2.58V34.71h2.58V29.55H203v7.74h-2.58V45h-2.58v5.16H192.7V45h-5.16v5.16h-5.16V45H179.8V37.29Z"/></g></g></svg>