<svg xmlns="http://www.w3.org/2000/svg" viewBox="0 0 294.94 226.36"><defs><style>.cls-1{fill:#f09586;}.cls-2{fill:#fff;}.cls-3{fill:#ffbc57;}.cls-4{fill:#f97d63;}.cls-5{fill:#ff9c8a;}.cls-6{fill:#ffed98;}.cls-7{fill:#d65757;}.cls-8{fill:#e25a5a;}.cls-9{fill:#231815;}.cls-10{fill:#99ad67;}.cls-11{fill:#94a866;}.cls-12{fill:#8e5d39;}.cls-13{fill:#bf8555;}.cls-14{fill:#a0b26f;}.cls-15{fill:#60442f;}.cls-16{fill:#8e3021;}.cls-17{fill:#5b3121;}.cls-18{fill:#b77635;}.cls-19{fill:#59442e;}.cls-20{fill:#556d32;}.cls-21{fill:#575b2f;}</style></defs><g id="레이어_2" data-name="레이어 2"><g id="레이어_3" data-name="레이어 3"><path class="cls-1" d="M41.52,110.53s-12,8.25-6.08,25.17c0,0,7,6.09,4.34,9.77,0,0-6.76,4,10.85,1.62,0,0,23.81,2.76,28.3-21.06,0,0-17.18-33.43-37.41-15.5"/><path class="cls-2" d="M42,148.43c-2.55,0-3.74-.37-4-1.25s.89-1.81,1.4-2.14c1.74-2.69-2.51-7.33-4.32-8.91a.56.56,0,0,1-.16-.24C29,118.75,41.06,110.13,41.19,110c4-3.56,8.27-5.38,12.61-5.38,14.63,0,25.2,20.24,25.65,21.1.06.12.08.11,0,.25-3.68,19.52-19.85,21.51-26.63,21.51h0c-1.2,0-2,0-2.24,0A73.5,73.5,0,0,1,42,148.43Zm-2.86-1.54s.44.38,2.86.38a66.51,66.51,0,0,0,8.6-.77h.14a18.78,18.78,0,0,0,2.18.11c6.47,0,21.86-2,25.45-20.49-1.08-2-11.29-20.31-24.52-20.31-4,0-8,1.74-11.9,5.15-.52.37-11.49,8.23-6,24.4,1,.88,7,6.62,4.32,10.45a.55.55,0,0,1-.18.16,2.69,2.69,0,0,0-1,.92Z"/><polygon class="cls-3" points="49.84 114.62 48.71 156.68 40.58 156.68 44.94 113.49 49.84 114.62"/><path class="cls-4" d="M49.64,157.59H39.52l4.57-45.38,6.73,1.68Zm-8-1.83h6.14l1.08-40.37-3.08-.67Z"/><path class="cls-3" d="M64.25,154.41l-35.58-3s-7.49,34.79,5.15,40.16,35.05,2.07,35.05,2.07l6.75-10.79S65.92,163.75,64.25,154.41Z"/><path class="cls-4" d="M53.82,195.16h0c-8.6,0-15.46-.85-20.38-2.94-13.22-5.61-6-39.69-5.71-41.15l.18-.76,37.16,3.18.13.74c1.63,9.09,11.19,28,11.28,28.15l.24.49L69.46,194.5l-.44-.14A148.21,148.21,0,0,1,53.82,195.16ZM29.45,152.42c-1,5.24-6,33.52,4.74,38.08,4.68,2,11.28,2.83,19.63,2.83h0a132.53,132.53,0,0,0,14.48-.77l6.22-9.87c-1.51-3-9.23-18.62-11.07-27.43Z"/><path class="cls-5" d="M49.61,74s-10-16-35.77,13.38c0,0-3.33,6.82-10.9,7.64,0,0-8.73-.94,7.42,10.39,0,0,15.7,44.5,51.47,8.29,0,0,.44-39.26-12.22-39.7"/><path class="cls-2" d="M35.73,128.28h0c-16.81,0-25-20.45-25.86-22.59C.34,99-.28,96.72.07,95.57c.26-.78,1.12-1.19,2.44-1.19a3.65,3.65,0,0,1,.49,0c7-.77,10.29-7.23,10.32-7.3a.77.77,0,0,1,.09-.13C23.83,75.1,33,69.07,40.63,69.07a11.33,11.33,0,0,1,9.3,4.37c12.77,1,12.51,38.64,12.48,40.26,0,.14-.06.2-.16.31C52.83,123.54,43.9,128.28,35.73,128.28ZM2.51,95.56c-.71,0-1.25.17-1.32.42s-.1,2.19,9.5,8.94a.8.8,0,0,1,.22.32c.07.22,8,22.12,24.82,22.12h0c7.81,0,16.39-4.68,25.52-13.88,0-3.23-.2-38.49-11.66-38.89a.56.56,0,0,1-.46-.28,10.12,10.12,0,0,0-8.5-4.07c-5,0-13.63,3-26.3,17.46-.4.8-3.87,7.08-11.33,7.88Z"/><path class="cls-2" d="M104.27,187.82S103,215.87,128,209.58l9.25-2.72s1.18,4.69,3.44,1.5,8.78-30.52-4.3-28.58S106,187.57,104.27,187.82Z"/><path class="cls-1" d="M121.23,211.46h0a15.73,15.73,0,0,1-11.87-4.74c-6.51-6.82-6.08-18.44-6.06-18.94l0-.8.79-.11c.39-.06,2.16-.58,4.2-1.19,6.39-1.89,18.28-5.42,27.93-6.86a6.73,6.73,0,0,1,7.49,3.67c3.82,7.39-.45,23.88-2.26,26.43a3,3,0,0,1-2.29,1.52c-1.36,0-2.15-1.38-2.55-2.39l-8.36,2.46A29,29,0,0,1,121.23,211.46Zm-16-22.87c0,2.58.46,11.5,5.54,16.81a13.87,13.87,0,0,0,10.47,4.14h0a27.07,27.07,0,0,0,6.55-.89l10.18-3,.24,1a3.49,3.49,0,0,0,1,1.89,1.91,1.91,0,0,0,.72-.71c1.57-2.22,5.49-17.92,2.12-24.43-1.13-2.18-2.92-3-5.5-2.66-9.52,1.42-21.32,4.92-27.66,6.8C107.12,188,106,188.39,105.22,188.59Z"/><path class="cls-2" d="M156.14,128.52c-1-1.84-17.88-5.16-30.94-5.11a9,9,0,0,0-2.78.43c-1.14-1.57-2.14-2.54-2.87-2.55-4.19-.08-22.9,6-53.08-1,0,0-17.53-4.19-28.82-10.8,0,0-5.3-2.35-6.69,3.89-.76,3.36-4.39,17.34-.56,22.27s23,13.86,33.65,15.87a47.68,47.68,0,0,0,5.51,20.17c2.79,5.23,3.74,6.82,6.06,11.16-10.33,13.33-13.79,28.87-12,37.66,0,0,3.18.44,28.91,1.25,0,0,.32,1.34,4.66-3.5,8-16.67,8.85-16.16,28.57-31.56,7.91-7,11.16-8,12.55-16.12.66-3.86.59-8.23-1.48-17.93,1-.09,2-.2,2.76-.3,6.47-.85,11.15-1.74,11.15-1.74,2.85-.07,5-13.19,5.53-16.55C156.55,132.16,157.17,130.37,156.14,128.52Z"/><path class="cls-5" d="M92.79,222.87h0a1.43,1.43,0,0,1-.68-.18c-25.16-.8-28.52-1.24-28.65-1.25l-.68-.1-.13-.67c-1.72-8.58,1.27-24,11.83-37.93-.93-1.74-1.64-3-2.38-4.37-.92-1.69-1.89-3.45-3.38-6.25a48.91,48.91,0,0,1-5.61-19.83c-11.21-2.35-29.65-11.16-33.47-16.08s-.92-17.49.18-22.21l.2-.85c1-4.42,3.82-5.08,5.42-5.08a7,7,0,0,1,2.6.52c11.13,6.51,28.48,10.7,28.65,10.74a123.86,123.86,0,0,0,28.21,3.39,118.13,118.13,0,0,0,20.22-1.83,31.89,31.89,0,0,1,4.35-.56c1,0,2,.93,3.33,2.57a10.07,10.07,0,0,1,2.4-.12h.29c11.45,0,30,2.79,31.48,5.44,1,1.84.69,3.56.38,5.15-.06.3-.11.56-.16.86-1.71,11.31-3.85,17.13-6.36,17.34-.57.11-5.12.93-11.14,1.71-.52.08-1.1.15-1.72.2,1.9,9.25,1.9,13.48,1.26,17.24-1.18,6.88-3.7,9-8.71,13.14-1.22,1-2.6,2.16-4.16,3.54-2.07,1.62-3.9,3-5.56,4.32C106.25,203,105.06,203.91,98,218.66l-.16.23C94.72,222.4,93.54,222.87,92.79,222.87ZM64.41,219.6c1.84.15,8.19.55,28.13,1.18h.53a17.45,17.45,0,0,0,3.28-3.09c7.18-15,8.73-16.25,23.27-27.5l5.52-4.28c1.53-1.36,2.92-2.51,4.15-3.54,4.94-4.1,7-5.8,8-12,.63-3.68.6-7.9-1.47-17.57l-.22-1.07,1.08-.09c1-.09,1.94-.19,2.72-.3,6.35-.83,11-1.71,11.09-1.72h.15c.92-.14,3-5.22,4.61-15.74.05-.34.12-.66.17-1,.29-1.44.53-2.58-.17-3.81-1.15-1.26-16.38-4.5-29.8-4.5h-.29a8.57,8.57,0,0,0-2.49.26l-.65.14-.41-.77c-1.5-2-2.1-2.38-2.12-2.38h0c-.83,0-2.27.43-4.1.73a116.22,116.22,0,0,1-20.52,2,125.86,125.86,0,0,1-28.65-3.4c-.73-.17-17.8-4.27-29.08-10.87a5.37,5.37,0,0,0-1.73-.29c-1.85,0-3,1.17-3.55,3.58l-.2.86c-.94,4-3.81,16.39-.53,20.6,3.63,4.68,22.49,13.52,33.07,15.52l.77.15v.79a47.07,47.07,0,0,0,5.4,19.72c1.49,2.79,2.45,4.55,3.38,6.23.81,1.48,1.6,2.91,2.68,4.93l.29.55-.38.5C66.61,196,63,210.94,64.41,219.6Z"/><path class="cls-5" d="M115.25,122.92s-4.36,25.89,29.08,16.23c0,0,10.32-5.43,15.63-7,0,0,2.27.12,0-9.2,0,0,3.13-24.33-10.23-25.54,0,0-26.52.69-34.48,25.54"/><path class="cls-2" d="M131.2,142h0c-5.58,0-9.86-1.61-12.74-4.67-5.25-5.57-3.89-14.12-3.82-14.48,8-25,34.81-26,35.08-26.06a9.75,9.75,0,0,1,6.7,3.33c6,6.74,4.37,21.29,4.19,22.76,1.23,5,1.33,8.18.31,9.33a1.35,1.35,0,0,1-.82.47c-5.2,1.58-15.34,7-15.44,7A49.35,49.35,0,0,1,131.2,142ZM149.67,98c-.18,0-26.08,1-33.8,25.12,0,0-1.32,8.47,3.56,13.64,2.62,2.77,6.57,4.37,11.76,4.37h0a48.48,48.48,0,0,0,12.93-2.32c.3-.17,10.33-5.52,15.63-7.12a1,1,0,0,1,.23-.07c-.08,0,1.2-.92-.66-8.51a.76.76,0,0,1,0-.21c0-.15,1.91-15.43-3.91-22A8.4,8.4,0,0,0,149.67,98Z"/><path class="cls-5" d="M122.28,66.5s7.57-21.57,36.37-6c0,0,12.12,7.05,12.12,17.35,0,0,.75,6.16,4.17,8.92,0,0,4.55,4.94-5.69,8.85,0,0-19.32,30.15-39,11.86Z"/><path class="cls-2" d="M143.69,113.94c-4.9,0-9.58-2-13.91-6.06a.6.6,0,0,1-.17-.31l-8-41a.83.83,0,0,1,0-.27A19.42,19.42,0,0,1,140,54.27c5.59,0,12,1.92,19,5.73.53.3,12.44,7.35,12.44,17.84h0s.77,5.91,4,8.48a4.65,4.65,0,0,1,1.08,4.18c-.58,2.18-2.84,4-6.74,5.57C168.42,98,157.5,113.94,143.69,113.94Zm-12.86-6.75c4,3.71,8.37,5.59,12.86,5.59,13.67,0,24.91-17.29,25-17.46a.56.56,0,0,1,.3-.24c3.57-1.37,5.71-3,6.19-4.85a3.53,3.53,0,0,0-.75-3.09c-3.49-2.82-4.29-9-4.31-9.23,0-9.92-11.72-16.85-11.84-16.93-6.8-3.67-13-5.55-18.34-5.55a18.13,18.13,0,0,0-17,11.12Z"/><path class="cls-5" d="M44.09,47S33.74,31.21,18.2,49.18c0,0-5.21,6.24-12.61,8.65,0,0,0,29.91,21.59,29.69,0,0,30-10.63,16.91-40.52"/><path class="cls-2" d="M26.93,88a18.05,18.05,0,0,1-13.29-5.24C5.08,74.15,5,58.46,5,57.8a.55.55,0,0,1,.4-.54c7.16-2.34,12.29-8.4,12.34-8.46C22.81,43,27.87,40,32.82,40c7.3,0,11.58,6.4,11.76,6.68,4,9.17,4.48,17.44,1.37,24.64C40.8,83.2,27.92,87.81,27.37,88c-.06,0-.12,0-.19,0ZM6.18,58.24A49.39,49.39,0,0,0,8.8,72.56c3.44,9.58,9.54,14.49,18.13,14.49h.14c1.15-.92,13.09-5.24,17.81-16.15,3-6.89,2.53-14.86-1.32-23.64h0s-4.1-6.08-10.74-6.08c-4.6,0-9.37,2.81-14.17,8.39A32,32,0,0,1,6.18,58.24Z"/><path class="cls-5" d="M54,29.42C53.71,23.13,65,3.74,66.87,5.28c2.54,2.1,6.23,2.11,9.45,1.36s6.27-2.15,9.56-2.51A21.31,21.31,0,0,1,96.51,6.07a17.25,17.25,0,0,1,7,4.87,8.74,8.74,0,0,1,1.75,8c-.86,2.55-3.11,4.34-5.25,6-6.36,4.8-13,9.51-20.66,11.75s-16.56,1.62-22.7-3.45a8.45,8.45,0,0,1-2.32-2.7A3.09,3.09,0,0,1,54,29.42"/><path class="cls-2" d="M70.83,38.52a22.59,22.59,0,0,1-14.59-4.81,9.18,9.18,0,0,1-2.46-2.89,3.37,3.37,0,0,1-.32-1.37C53.17,23.9,61,9.75,64.71,5.82c1.15-1.21,2-1.45,2.54-1,2,1.68,5.23,2.1,8.93,1.24,1.21-.28,2.43-.67,3.62-1a30.88,30.88,0,0,1,6-1.48,22.06,22.06,0,0,1,10.93,2,17.7,17.7,0,0,1,7.2,5.05,9.31,9.31,0,0,1,1.84,8.6c-.89,2.63-3.09,4.45-5.45,6.24-6.26,4.74-13,9.56-20.84,11.85A31,31,0,0,1,70.83,38.52ZM66.5,5.73C64.89,6,54.29,23.06,54.62,29.39a2.36,2.36,0,0,0,.2.91A7.89,7.89,0,0,0,57,32.81a21.41,21.41,0,0,0,13.84,4.54,29.8,29.8,0,0,0,8.33-1.2c7.62-2.23,14.29-7,20.47-11.66,2.21-1.67,4.26-3.36,5.05-5.69A8.15,8.15,0,0,0,103,11.3a16.64,16.64,0,0,0-6.75-4.7A20.35,20.35,0,0,0,85.94,4.71a30.72,30.72,0,0,0-5.8,1.43c-1.19.37-2.44.77-3.69,1.06C72.37,8.15,68.82,7.65,66.5,5.73Z"/><path class="cls-5" d="M131,32.93s2.27-13.47,29.93,3c0,0,6.06,4,12.12,2.61,0,0,10.23,42.47-24.62,30.38,0,0-32.59-14.24-17.43-35.95"/><path class="cls-2" d="M159.46,71.63a35.1,35.1,0,0,1-11.26-2.2c-.75-.33-17.2-7.64-21.07-20-1.72-5.51-.63-11.14,3.27-16.76.21-.86,1.69-5.56,8.77-5.56,5.45,0,12.89,2.78,22.11,8.25a18.72,18.72,0,0,0,9.11,2.81,10.85,10.85,0,0,0,2.51-.28.71.71,0,0,1,.49.08.55.55,0,0,1,.28.36c.2.82,4.66,19.85-3.22,28.79C167.82,70.12,164.13,71.63,159.46,71.63ZM139.17,28.32c-6.67,0-7.51,4.51-7.54,4.7a.55.55,0,0,1-.09.23c-3.74,5.35-4.81,10.7-3.18,15.9,3.7,11.8,20.18,19.14,20.34,19.21,9.55,3.3,16.66,2.7,20.75-1.93,6.78-7.69,3.79-24,3.1-27.24a12.67,12.67,0,0,1-2.16.19,19.63,19.63,0,0,1-9.83-3C151.57,31,144.37,28.32,139.17,28.32Z"/><path class="cls-5" d="M55.36,71.05c-4,3.42-8,6.69-12.77,8.71-3,1.26-6.6,1.93-9.26.12-1.9-1.29-2.86-3.54-3.62-5.7-3.55-10-4.85-21.43-.26-31C31.29,39.35,34,36,36,32.21a22.2,22.2,0,0,0,2-5c.47-1.92-.32-4.86.27-6.49,1.19-3.26,6.09-3,9.14-2.89a104.85,104.85,0,0,1,30.2,5.94c4.1,1.45,8.24,3.26,11.21,6.44,6.06,6.54,4.76,18.38-2.57,23.45-4.26,2.93-9.66,3.58-14.44,5.54-6.29,2.58-11.32,7.33-16.5,11.83"/><path class="cls-2" d="M37.24,81.58A7.35,7.35,0,0,1,33,80.36c-2-1.35-3-3.68-3.84-6-3-8.39-5.42-20.64-.24-31.42a56.77,56.77,0,0,1,3.63-6.15c1-1.57,2.08-3.2,3-4.87a21.37,21.37,0,0,0,2-4.84A11.22,11.22,0,0,0,37.57,24a9.09,9.09,0,0,1,.2-3.49c1.1-3,4.75-3.35,7.4-3.35.81,0,1.59,0,2.28.07a105.29,105.29,0,0,1,30.4,6c3.91,1.38,8.33,3.25,11.44,6.6a16,16,0,0,1,3.89,12.74,16,16,0,0,1-6.56,11.58c-2.78,1.92-6.06,2.89-9.23,3.83-1.77.53-3.6,1.07-5.31,1.77C66.58,62,61.94,66.06,57.47,70l-1.73,1.51c-3.81,3.29-7.94,6.69-12.92,8.81A14.54,14.54,0,0,1,37.24,81.58Zm7.93-63.21c-3.66,0-5.67.81-6.3,2.58a8.75,8.75,0,0,0-.14,3,12.28,12.28,0,0,1-.12,3.4,22.58,22.58,0,0,1-2.06,5.11c-.92,1.71-2,3.36-3,5a52.6,52.6,0,0,0-3.56,6c-5,10.42-2.61,22.36.28,30.53.7,2,1.59,4.19,3.41,5.42,2.06,1.41,5.21,1.31,8.71-.17,4.82-2,8.87-5.39,12.6-8.62L56.7,69.1c4.55-4,9.26-8.09,14.94-10.42,1.76-.72,3.62-1.27,5.42-1.81,3.23-.95,6.27-1.85,8.91-3.68A14.86,14.86,0,0,0,92,42.45a14.9,14.9,0,0,0-3.59-11.82c-2.93-3.15-7-4.89-11-6.3a104.41,104.41,0,0,0-30-5.9C46.72,18.41,46,18.37,45.17,18.37Z"/><path class="cls-5" d="M92.71,52.06S73,22.6,98.15,14c0,0,16.53-4.83,30.34,0,0,0,11.38,1.57,11.74-2.15,0,0,3.39,4.21,4.79,17,0,0,4.88,39.63-23.43,34.84,0,0-22.54-3.55-28.88-11.6"/><path class="cls-2" d="M126.12,64.63a28.14,28.14,0,0,1-4.63-.4c-.92-.15-22.83-3.67-29.23-11.81-.46-.68-10.58-16-6.55-27.94,1.73-5.15,5.85-8.86,12.25-11a65.22,65.22,0,0,1,16.53-2.19,42.93,42.93,0,0,1,14.19,2.19h0a47.53,47.53,0,0,0,4.82.29c3.79,0,6-.71,6.15-2a.56.56,0,0,1,.41-.5.57.57,0,0,1,.61.19c.15.18,3.53,4.49,4.93,17.3.11.81,2.39,20.36-6.41,30.31A16.68,16.68,0,0,1,126.12,64.63ZM114.49,12.41a65,65,0,0,0-16.18,2.12c-6,2.07-9.88,5.54-11.5,10.32C83,36.27,93.09,51.59,93.2,51.74c6.09,7.75,28.26,11.3,28.48,11.33,7.17,1.22,12.76-.4,16.64-4.77,8.45-9.55,6.16-29.21,6.13-29.42-1-9.27-3.12-14-4.12-15.8-.94,1.2-3.23,1.81-6.83,1.81a39.72,39.72,0,0,1-5.09-.34A42.33,42.33,0,0,0,114.49,12.41Z"/><polygon class="cls-6" points="90.23 144.23 89.07 144.26 88.68 132.78 89.84 132.74 90.23 144.23"/><path class="cls-6" d="M79.73,145.46c0-.08-1.12-8.51,9-14l.56,1c-9.38,5.1-8.45,12.51-8.41,12.82Z"/><path class="cls-6" d="M99.19,144.8,98,144.71c0-.31.44-7.77-9.26-12.22l.48-1.06C99.73,136.23,99.2,144.71,99.19,144.8Z"/><path class="cls-6" d="M91.78,146.16a2.06,2.06,0,1,1-2.13-2,2.06,2.06,0,0,1,2.13,2"/><path class="cls-6" d="M82.38,146.48a2.06,2.06,0,1,1-2.13-2,2.06,2.06,0,0,1,2.13,2"/><path class="cls-6" d="M100.73,145.86a2.06,2.06,0,1,1-2.13-2,2.07,2.07,0,0,1,2.13,2"/><path class="cls-2" d="M131.8,95.13A40.69,40.69,0,1,1,91.11,54.44,40.68,40.68,0,0,1,131.8,95.13"/><path class="cls-5" d="M91.11,136.4a41.28,41.28,0,1,1,41.27-41.27A41.32,41.32,0,0,1,91.11,136.4Zm0-81.38a40.11,40.11,0,1,0,40.11,40.11A40.15,40.15,0,0,0,91.11,55Z"/><path class="cls-5" d="M72.61,113.94a8.12,8.12,0,1,1-8.11-8.11,8.1,8.1,0,0,1,8.11,8.11"/><path class="cls-5" d="M116.85,111.23a8.12,8.12,0,1,1-8.11-8.11,8.12,8.12,0,0,1,8.11,8.11"/><path class="cls-7" d="M90.74,102.38a6.42,6.42,0,1,1-12.81.22"/><path class="cls-8" d="M94.59,48.78a27.28,27.28,0,0,0-9.81-2.43,44.9,44.9,0,0,0-27.3,7.33c-7.14,4.66-17.85,14.11-12.64,23.64.73,1.34,1.77,2.72,1.47,4.22-.38,1.93-2.65,2.69-4.52,3.32s-4,2.15-3.48,4.06c.62,2.28,3.95,2,6.16,1.08q8.58-3.39,17-7.2c-.75,1.69.8,3.68,2.6,4.09s3.66-.26,5.38-.93c7.3-2.85,15.43-6.83,17.37-14.41a11.81,11.81,0,0,0,15-15.67,14.17,14.17,0,0,0-7.24-7.1"/><path class="cls-2" d="M41.24,91.24c-1.87,0-3.12-.78-3.49-2.18-.59-2.17,1.51-4,3.85-4.74,1.81-.62,3.83-1.31,4.15-2.9.2-1-.4-2-1-3.13l-.39-.69c-6-10.95,8.3-21.45,12.83-24.41a45.45,45.45,0,0,1,27.66-7.42,27.6,27.6,0,0,1,10,2.49,14.64,14.64,0,0,1,7.53,7.39A12.71,12.71,0,0,1,99.9,69.06a12.53,12.53,0,0,1-9.07,3.78h0a12.38,12.38,0,0,1-3.62-.53C85,79.63,77.1,83.59,69.65,86.49a12.15,12.15,0,0,1-4.44,1.11,5.4,5.4,0,0,1-1.28-.14A4.45,4.45,0,0,1,61,85.18a3.35,3.35,0,0,1-.35-1.38c-5.29,2.36-10.67,4.64-16,6.74A9.87,9.87,0,0,1,41.24,91.24ZM82,46.84a45,45,0,0,0-24.23,7.32C53.48,57,39.84,67,45.35,77c.12.23.25.45.38.67.68,1.17,1.44,2.49,1.15,4C46.43,83.9,44,84.73,42,85.4c-1.3.45-3.59,1.71-3.14,3.36.24.87,1,1.32,2.37,1.32a8.62,8.62,0,0,0,3-.62c5.67-2.23,11.38-4.65,17-7.19l1.41-.64L62,83a1.91,1.91,0,0,0,.1,1.63,3.19,3.19,0,0,0,2.1,1.66c1.5.36,3.29-.22,5-.9,7.39-2.89,15.18-6.8,17-14l.16-.63L87,71a10.72,10.72,0,0,0,3.81.67,11.18,11.18,0,0,0,10.46-15.57,13.42,13.42,0,0,0-7-6.8,26.22,26.22,0,0,0-9.59-2.37C83.84,46.87,82.93,46.84,82,46.84Z"/><path class="cls-8" d="M95.41,58.73a8.62,8.62,0,0,1,1-1.45c3.47-4.3,10.14-4.1,15.36-2.27a36.35,36.35,0,0,1,15.52,10.64c2,2.32,3,5,4.66,7.43,2.14,3.06,5.39,5,7.77,7.86.84,1,1.66,2.42.91,3.47a3,3,0,0,1-2.38.89A32.81,32.81,0,0,1,127.82,84c-.06,2.55-3.26,4.08-5.69,3.32s-4-3-5.17-5.3-1.93-4.76-3.54-6.73a30.33,30.33,0,0,1-8.28,2.36,10.29,10.29,0,0,1-8-2.38C94.67,73,94,69.36,94,66a15.47,15.47,0,0,1,1.42-7.27"/><path class="cls-2" d="M123.46,88.11a4.91,4.91,0,0,1-1.5-.23c-2.18-.68-4-2.57-5.52-5.6-.31-.63-.6-1.29-.89-1.94A20.92,20.92,0,0,0,113.22,76a29.22,29.22,0,0,1-8,2.23c-.41,0-.82.07-1.23.07a10.41,10.41,0,0,1-7.25-2.59c-2.16-2-3.27-5.31-3.3-9.71a15.78,15.78,0,0,1,1.48-7.54,8.85,8.85,0,0,1,1-1.55c2-2.43,5.06-3.72,9-3.72a21.83,21.83,0,0,1,7,1.26,36.79,36.79,0,0,1,15.77,10.82,25.58,25.58,0,0,1,2.89,4.45,31.48,31.48,0,0,0,1.81,3,25.35,25.35,0,0,0,4.2,4.35,35,35,0,0,1,3.54,3.46c1.36,1.62,1.7,3.11.93,4.19a3.46,3.46,0,0,1-2.83,1.13,33.8,33.8,0,0,1-9.91-1.12C127.83,86.85,125.55,88.11,123.46,88.11Zm-9.86-13.5.27.32a21.13,21.13,0,0,1,2.74,4.93c.29.64.57,1.29.88,1.91,1.33,2.73,3,4.42,4.82,5s4.88-.62,4.93-2.77l0-.75.73.2a31.59,31.59,0,0,0,10.19,1.26,2.52,2.52,0,0,0,1.93-.63c.6-.85-.42-2.23-.88-2.77A32.75,32.75,0,0,0,135.8,78a26.65,26.65,0,0,1-4.37-4.56,29.81,29.81,0,0,1-1.88-3.13A25,25,0,0,0,126.8,66a35.71,35.71,0,0,0-15.27-10.48,20.57,20.57,0,0,0-6.67-1.19c-2.46,0-5.86.57-8,3.29A7.89,7.89,0,0,0,95.92,59a14.66,14.66,0,0,0-1.34,7c0,4.06,1,7,2.93,8.87A9.27,9.27,0,0,0,104,77.13a10.68,10.68,0,0,0,1.13,0,30.65,30.65,0,0,0,8.11-2.32Z"/><polygon class="cls-3" points="49.84 114.58 51.01 156.68 59.14 156.68 54.62 116.75 49.84 114.58"/><path class="cls-4" d="M60.21,157.59H50.08L48.84,113l6.67,3.07Zm-8.27-1.83h6.12l-4.34-38.25-2.87-1.46Z"/><path class="cls-9" d="M73.38,97.12a2.91,2.91,0,1,1-2.91-2.9,2.91,2.91,0,0,1,2.91,2.9"/><path class="cls-2" d="M73,95.93a1.25,1.25,0,1,1-1.25-1.24A1.25,1.25,0,0,1,73,95.93"/><path class="cls-9" d="M99.22,96.47a2.91,2.91,0,1,1-2.9-2.9,2.9,2.9,0,0,1,2.9,2.9"/><path class="cls-2" d="M98.8,95.28A1.24,1.24,0,1,1,97.56,94a1.25,1.25,0,0,1,1.24,1.24"/><path class="cls-2" d="M244.09,141.42h0c-5.58,0-9.88-1.54-12.76-4.57-5.25-5.54-3.89-14-3.83-14.36,8-24.88,34.85-25.86,35.11-25.86a9.78,9.78,0,0,1,6.71,3.3c6,6.7,4.38,21.16,4.19,22.62,1.23,5,1.34,8.12.32,9.28a1.3,1.3,0,0,1-.83.45c-5.2,1.59-15.34,6.87-15.45,6.92A49.36,49.36,0,0,1,244.09,141.42Zm18.48-43.65c-.18,0-26.09,1-33.82,25,0,0-1.31,8.23,3.57,13.35,2.62,2.77,6.57,4.17,11.77,4.17h0a48.3,48.3,0,0,0,13-2.12c.3-.17,10.32-5.4,15.62-7a.72.72,0,0,1,.24,0c-.07,0,1.21-.9-.66-8.43a1.27,1.27,0,0,1,0-.2c0-.14,1.91-15.33-3.9-21.86A8.49,8.49,0,0,0,262.57,97.77Z"/><path class="cls-5" d="M228.13,122.58s-4.35,25.72,29.11,16.11c0,0,10.32-5.39,15.63-7,0,0,2.27.12,0-9.14,0,0,3.14-24.18-10.23-25.38,0,0-26.55.69-34.51,25.38"/><path class="cls-10" d="M272.15,118.6c-.71-1.69-1.12-3.5-2.89-4.31-.66-.29-3.19.64-6.63,2.36-5.76,4.19-8.71,6.06-14,8.33-3.12.59-7.14,1.09-10.89-.29l-3.28-.76-1.15.57a1.28,1.28,0,0,0-.57-.19c-3.75-.06-18.21,6.33-43.14,2.18-6.95,12.36-11,17-11,30.11.18,2.52.26,5.09.26,14.69,0,5.26-.85,7.39-1.3,10.81-.45,2.52-1.18,5-2.41,9.5-6.29,15.32-8.29,24.17-9.9,32.65,0,0,1.91.54,27.48,1.33,0,0,2.12.54,4.62-3.46,2.18-4.58,6.67-14.3,13.7-20.55,8.73,7.73,20.22,17.15,26.73,16.8,4.26,0,6.32-.19,11.3-3.11l8.48-6.82s5.05,2.32,4.82-1.77c-.9-15.85-1.87-26-14.9-22.85a14.71,14.71,0,0,0,4.83-9.08c.66-3.85.59-8.22-1.5-18l-.46-1.06a76.46,76.46,0,0,0,8-4.21c.83-.48,1.63-1,2.41-1.55a35,35,0,0,0,4.88-4c.92-.85,1.75-1.65,2.41-2.32,4.75-4.78,8.05-8.44,8.05-8.44C278.37,133.33,273.45,121.58,272.15,118.6Z"/><path class="cls-4" d="M193,226.36a2.55,2.55,0,0,1-.36,0c-24.89-.77-27.4-1.3-27.6-1.36l-.66-.19.13-.67c1.58-8.4,3.54-17.22,9.93-32.8l.25-.92c1.07-3.82,1.71-6.13,2.13-8.42.13-1,.31-2,.49-2.93a36.75,36.75,0,0,0,.79-7.75c0-9.52-.07-12.11-.26-14.63,0-11.44,3.07-16.73,8.17-25.48.9-1.55,1.87-3.22,2.9-5.05l.26-.46.51.09a91.49,91.49,0,0,0,38.45-1.38,22.34,22.34,0,0,1,4.58-.82,1.68,1.68,0,0,1,.55.11l1.06-.53,3.54.82c3.63,1.32,7.51.86,10.51.3,5.22-2.23,8-4,13.82-8.21l.1-.07c5.95-3,6.88-2.55,7.28-2.37,1.76.8,2.39,2.43,2.95,3.88.1.27.21.54.32.81,3,6.86,6.05,15.42,3.81,17.45-.34.38-3.57,3.95-8,8.44-.75.76-1.6,1.57-2.44,2.35a35.2,35.2,0,0,1-5,4c-.78.55-1.61,1.09-2.45,1.58a77.39,77.39,0,0,1-7.43,3.94l.21.52c2.15,10,2.17,14.41,1.51,18.26a15.1,15.1,0,0,1-3.44,7.78c3.22-.43,5.73.06,7.66,1.48,4.45,3.3,5.21,11,5.86,22.5a2.85,2.85,0,0,1-1.09,2.75c-1.34.91-3.44.29-4.36-.07l-8.22,6.6c-5.2,3-7.46,3.2-11.67,3.22-6.61.35-17.67-8.55-26.73-16.54-6.41,5.93-10.55,14.65-12.8,19.38l-.23.48C195.85,225.91,193.88,226.36,193,226.36Zm-.09-1.5s1.69.23,3.8-3.14l.18-.4c2.36-4.95,6.74-14.17,13.66-20.31l.49-.44.5.44c8.24,7.29,19.91,17,26.19,16.61,4.07,0,6.07-.15,10.92-3l8.79-7.07.42.19c.9.41,2.59.87,3.33.37.33-.22.47-.7.43-1.42-.62-11-1.33-18.48-5.25-21.38-2-1.47-4.84-1.73-8.72-.78l-2.67.65,2-1.92a14,14,0,0,0,4.61-8.67c.63-3.67.6-7.9-1.48-17.62l-.72-1.67.67-.3a75,75,0,0,0,8-4.17,27.17,27.17,0,0,0,2.36-1.52,33.23,33.23,0,0,0,4.78-3.88c.85-.78,1.68-1.57,2.42-2.32,4.68-4.7,8-8.38,8-8.42l.07-.07c1-.82-.15-6.49-4.18-15.75h0c-.12-.29-.23-.58-.34-.86-.52-1.35-1-2.51-2.17-3-.3-.06-2,.35-5.93,2.32-5.77,4.2-8.79,6.1-14.14,8.37l-.15,0c-3.2.6-7.38,1.11-11.29-.32l-2.93-.68-1.25.62-.34-.18a.89.89,0,0,0-.24-.1,22.85,22.85,0,0,0-4.21.78A92.75,92.75,0,0,1,190,127.32c-.94,1.66-1.83,3.19-2.66,4.61-5.13,8.83-8,13.69-8,24.67.19,2.51.26,5.12.26,14.69a37.55,37.55,0,0,1-.82,8c-.18,1-.35,1.85-.48,2.88-.44,2.39-1.09,4.73-2.16,8.59l-.28,1c-6.17,15-8.18,23.72-9.73,31.81,1.74.18,7.64.63,26.62,1.22l.16,0Z"/><rect class="cls-6" x="198.97" y="136.2" width="11.42" height="1.12" transform="translate(63.64 338.51) rotate(-88.79)"/><path class="cls-6" d="M194.91,143.12c0-.08-.6-8.51,9.45-13.41l.49,1C195.49,135.32,196,142.94,196,143Z"/><path class="cls-6" d="M213.72,143.53l-1.12-.14c.05-.32.85-7.69-8.26-12.65l.53-1C214.69,135.06,213.73,143.45,213.72,143.53Z"/><path class="cls-6" d="M206.5,144.48a2,2,0,0,1-2,2,2.05,2.05,0,0,1,.1-4.1,2,2,0,0,1,1.94,2.1"/><path class="cls-6" d="M197.43,144.27a2,2,0,1,1-2-2.09,2,2,0,0,1,2,2.09"/><path class="cls-6" d="M215.15,144.67a2,2,0,1,1-2-2.1,2,2,0,0,1,2,2.1"/><path class="cls-5" d="M167.44,100.77s-13.65,4.7-12.58,22.44c0,0,5,7.7,1.53,10.52,0,0-7.54,2.05,10,4.46,0,0,22,9,32.73-12.54,0,0-7.47-36.59-31.63-24.88"/><path class="cls-2" d="M157.67,137.16c-2.44-.69-3.48-1.37-3.47-2.28s1.33-1.5,1.91-1.67c2.39-2.1-.43-7.68-1.73-9.67a.63.63,0,0,1-.1-.29c-1.08-18,12.82-23,13-23,4.79-2.32,9.36-2.93,13.52-1.76,14,3.93,18.67,26.14,18.86,27.07a.62.62,0,0,1,0,.38c-8.76,17.68-24.79,15.36-31.28,13.53h0a21.92,21.92,0,0,1-2.11-.69A69.55,69.55,0,0,1,157.67,137.16Zm-2.32-2.47s.31.59,2.63,1.24a66.36,66.36,0,0,0,8.44,1.63c.05,0,.09.05.13.06a16.26,16.26,0,0,0,2.06.7h0c6.19,1.74,21.45,4,29.84-12.75-.49-2.2-5.35-22.45-18-26-3.87-1.09-8.16-.51-12.76,1.72-.6.21-13.21,4.78-12.26,21.74.69,1.1,5,8.21,1.33,11.15-.07,0-.14,0-.22,0-.53.15-1.12.51-1.2.51Z"/><path class="cls-5" d="M171.65,63.63s-10-15.88-35.54,13.3c0,0-3.32,6.76-10.84,7.57,0,0-8.66-.94,7.38,10.33,0,0,15.59,44.22,51.14,8.24,0,0,.43-39-12.14-39.44"/><path class="cls-2" d="M157.86,117.75h0c-16.71,0-24.89-20.42-25.7-22.55-9.47-6.67-10.09-9-9.73-10.08.25-.79,1.1-1.22,2.41-1.22.3,0,.5,0,.5,0,7-.76,10.22-7.18,10.25-7.25a.36.36,0,0,1,.08-.12C146,64.73,155.13,58.74,162.72,58.74A11.27,11.27,0,0,1,172,63.07c12.69,1,12.42,38.41,12.41,40a.57.57,0,0,1-.18.4C174.84,113,166,117.75,157.86,117.75Zm-33-32.7c-.71,0-1.23.17-1.31.42s-.1,2.19,9.45,8.89a.58.58,0,0,1,.21.28c.08.22,8,22,24.67,22h0c7.75,0,16.28-4.63,25.35-13.76,0-3.21-.2-38.23-11.58-38.62a.59.59,0,0,1-.47-.27,10,10,0,0,0-8.44-4c-5,0-13.54,3-26.13,17.37-.41.78-3.84,7-11.25,7.81Z"/><path class="cls-5" d="M240.14,62.64s7.58-21.43,36.4-6c0,0,12.12,7,12.12,17.24,0,0,.76,6.12,4.17,8.86,0,0,4.55,4.91-5.68,8.8,0,0-19.33,30-39.06,11.78Z"/><path class="cls-2" d="M261.56,109.78c-4.9,0-9.58-2-13.92-6a.49.49,0,0,1-.17-.3l-8-40.71a.53.53,0,0,1,0-.28,19.4,19.4,0,0,1,18.3-12c5.59,0,12,1.91,19,5.68.52.31,12.44,7.3,12.44,17.74h0s.77,5.87,4,8.43a4.6,4.6,0,0,1,1.08,4.15c-.58,2.15-2.85,4-6.75,5.53C286.31,94,275.38,109.78,261.56,109.78Zm-12.87-6.72c4.05,3.69,8.38,5.56,12.87,5.56,13.67,0,24.92-17.17,25-17.34a.67.67,0,0,1,.3-.25c3.58-1.36,5.72-3,6.21-4.81a3.51,3.51,0,0,0-.76-3.07c-3.49-2.8-4.28-8.91-4.32-9.18,0-9.85-11.71-16.74-11.83-16.81-6.82-3.65-13-5.51-18.36-5.51a17.86,17.86,0,0,0-17,11Z"/><path class="cls-2" d="M250.28,91.08a40.43,40.43,0,1,1-40.43-40.42,40.43,40.43,0,0,1,40.43,40.42"/><path class="cls-5" d="M209.85,132.08a41,41,0,1,1,41-41A41,41,0,0,1,209.85,132.08Zm0-80.84A39.85,39.85,0,1,0,249.7,91.08,39.88,39.88,0,0,0,209.85,51.24Z"/><path class="cls-6" d="M191.85,109.2a8.07,8.07,0,1,1-8.06-8.06,8.06,8.06,0,0,1,8.06,8.06"/><path class="cls-6" d="M235.21,107.64a8.07,8.07,0,1,1-8.07-8.07,8.06,8.06,0,0,1,8.07,8.07"/><path class="cls-7" d="M210.49,100.4a6.38,6.38,0,1,1-12.73,0"/><path class="cls-5" d="M163.13,43.26s-10.28-15.68-25.72,2.17c0,0-5.18,6.2-12.53,8.6,0,0,0,29.72,21.45,29.49,0,0,29.84-10.56,16.8-40.26"/><path class="cls-2" d="M146.08,84.3a18,18,0,0,1-13.21-5.38c-8.5-8.51-8.57-24.18-8.56-24.84a.61.61,0,0,1,.39-.58c7.11-2.31,12.21-8.36,12.26-8.42,5-5.81,10.06-8.75,15-8.75,7.25,0,11.51,6.35,11.69,6.62,4,9.12,4.45,17.32,1.35,24.47C159.86,79.23,147.06,84,146.52,84.16c-.06,0-.12.14-.19.14ZM125.47,54.44c.07,2.54.81,16.36,8.22,23.78a17,17,0,0,0,12.39,5.16h.14c1.15-.91,13-5.36,17.7-16.21,3-6.84,2.51-14.84-1.32-23.57h0s-4.06-6.07-10.67-6.07c-4.56,0-9.3,2.77-14.09,8.31A31.54,31.54,0,0,1,125.47,54.44Z"/><path class="cls-5" d="M173,25.8c-.33-6.25,10.91-25.51,12.74-24,2.54,2.08,6.2,2.09,9.39,1.34S201.39,1,204.65.67A21.36,21.36,0,0,1,215.21,2.6a17.24,17.24,0,0,1,6.93,4.84,8.71,8.71,0,0,1,1.74,8c-.86,2.53-3.09,4.31-5.22,5.93-6.32,4.77-12.92,9.45-20.52,11.67s-16.45,1.61-22.56-3.42a8.43,8.43,0,0,1-2.3-2.68A2.9,2.9,0,0,1,173,25.8"/><path class="cls-2" d="M189.71,34.84a22.47,22.47,0,0,1-14.5-4.77,9.21,9.21,0,0,1-2.45-2.88,3.37,3.37,0,0,1-.31-1.36c-.29-5.52,7.48-19.57,11.17-23.47,1.14-1.2,2-1.44,2.52-1,2,1.67,5.2,2.09,8.88,1.24,1.21-.29,2.42-.68,3.6-1a31.27,31.27,0,0,1,6-1.46,21.69,21.69,0,0,1,10.86,2,17.81,17.81,0,0,1,7.16,5,9.29,9.29,0,0,1,1.83,8.56c-.88,2.61-3.07,4.42-5.42,6.2-6.23,4.71-13,9.5-20.71,11.76A30.16,30.16,0,0,1,189.71,34.84ZM185.39,2.26c-1.59.22-12.12,17.21-11.79,23.51a2.36,2.36,0,0,0,.2.91,7.83,7.83,0,0,0,2.15,2.5,21.35,21.35,0,0,0,13.76,4.5,29.39,29.39,0,0,0,8.27-1.2c7.55-2.21,14.19-6.93,20.33-11.57,2.2-1.67,4.24-3.35,5-5.65a8.05,8.05,0,0,0-1.64-7.46A16.51,16.51,0,0,0,215,3.13a20.18,20.18,0,0,0-10.27-1.88A29.2,29.2,0,0,0,199,2.67c-1.2.37-2.44.76-3.69,1.06C191.24,4.67,187.7,4.17,185.39,2.26Z"/><path class="cls-5" d="M250,29.3s2.06-13.39,27.1,2.93c0,0,5.48,4,11,2.59,0,0,9.27,42.2-22.28,30.19,0,0-29.49-14.15-15.78-35.71"/><path class="cls-2" d="M275.78,67.73a29.08,29.08,0,0,1-10.19-2.19c-.68-.32-15.57-7.58-19.07-19.82-1.57-5.47-.58-11.07,2.95-16.65.19-.85,1.53-5.52,8-5.52,4.93,0,11.66,2.75,20,8.19a16,16,0,0,0,8.25,2.79,9.87,9.87,0,0,0,2.27-.26.57.57,0,0,1,.44.06.55.55,0,0,1,.26.37c.18.8,4.22,19.71-2.92,28.59A12.09,12.09,0,0,1,275.78,67.73Zm-18.36-43c-6.05,0-6.81,4.48-6.84,4.67a.53.53,0,0,1-.08.22c-3.38,5.33-4.35,10.64-2.87,15.81,3.36,11.73,18.26,19,18.41,19.08,8.64,3.29,15.08,2.68,18.78-1.92,6.13-7.62,3.42-23.83,2.81-27.06a10.59,10.59,0,0,1-2,.18,17,17,0,0,1-8.9-3C268.64,27.4,262.12,24.71,257.42,24.71Z"/><path class="cls-5" d="M174.33,67.17c-3.93,3.39-8,6.64-12.68,8.65-3,1.25-6.56,1.92-9.2.11-1.89-1.27-2.85-3.51-3.61-5.66-3.52-9.94-4.82-21.28-.26-30.78,1.84-3.83,4.54-7.18,6.55-10.91a21.82,21.82,0,0,0,2-4.95c.48-1.92-.3-4.83.28-6.45,1.19-3.25,6.06-3,9.08-2.87a104.53,104.53,0,0,1,30,5.89c4.08,1.45,8.2,3.24,11.15,6.41,6,6.49,4.73,18.26-2.56,23.29-4.24,2.93-9.6,3.56-14.35,5.51-6.25,2.57-11.24,7.29-16.39,11.76"/><path class="cls-2" d="M156.34,77.62a7.35,7.35,0,0,1-4.22-1.21c-2-1.34-3-3.65-3.82-6-3-8.33-5.39-20.5-.25-31.22a56.13,56.13,0,0,1,3.62-6.11c1-1.56,2.06-3.17,3-4.83a21.05,21.05,0,0,0,1.94-4.81,11.07,11.07,0,0,0,.09-3,9.19,9.19,0,0,1,.21-3.47c1.08-3,4.71-3.33,7.35-3.33.8,0,1.58,0,2.26.08a104.23,104.23,0,0,1,30.21,5.92c3.89,1.38,8.28,3.24,11.37,6.56a15.94,15.94,0,0,1,3.86,12.65,15.94,15.94,0,0,1-6.52,11.51c-2.77,1.91-6,2.87-9.17,3.81A51.87,51.87,0,0,0,190.94,56c-5.46,2.24-10.07,6.27-14.53,10.17L174.7,67.6c-3.78,3.28-7.89,6.65-12.83,8.75A14.32,14.32,0,0,1,156.34,77.62Zm7.87-62.8c-3.64,0-5.63.81-6.26,2.55a8.81,8.81,0,0,0-.14,3,12,12,0,0,1-.13,3.37,21.81,21.81,0,0,1-2,5.08c-.91,1.69-2,3.33-3,4.91a55.11,55.11,0,0,0-3.54,6c-5,10.35-2.59,22.21.29,30.32.69,2,1.58,4.17,3.38,5.39,2,1.39,5.17,1.31,8.64-.18,4.8-2,8.83-5.34,12.54-8.55l1.7-1.48c4.52-4,9.21-8.06,14.85-10.38a56.88,56.88,0,0,1,5.4-1.79c3.2-.95,6.22-1.84,8.84-3.66a14.75,14.75,0,0,0,6-10.68A14.79,14.79,0,0,0,207.2,27c-2.91-3.14-7-4.86-10.91-6.27a103.62,103.62,0,0,0-29.83-5.85C165.75,14.86,165,14.82,164.21,14.82Z"/><path class="cls-5" d="M211.43,48.29S191.84,19,216.84,10.45c0,0,16.43-4.79,30.15,0,0,0,11.31,1.57,11.65-2.13,0,0,3.38,4.19,4.78,16.89,0,0,4.84,39.37-23.29,34.6,0,0-22.39-3.51-28.7-11.52"/><path class="cls-2" d="M244.63,60.78a27.79,27.79,0,0,1-4.6-.4c-.92-.14-22.68-3.64-29.05-11.73-.45-.67-10.5-15.88-6.5-27.75,1.73-5.12,5.82-8.81,12.17-11a65.74,65.74,0,0,1,16.42-2.16,42.72,42.72,0,0,1,14.11,2.16,37.66,37.66,0,0,0,4.78.29c3.77,0,6-.7,6.11-1.93a.59.59,0,0,1,.42-.5.58.58,0,0,1,.61.19c.14.17,3.49,4.47,4.89,17.18.11.81,2.37,20.23-6.37,30.12A16.55,16.55,0,0,1,244.63,60.78ZM233.07,8.9A64.38,64.38,0,0,0,217,11c-6,2.05-9.82,5.5-11.43,10.25-3.81,11.34,6.24,26.56,6.35,26.72C218,55.67,240,59.2,240.22,59.24c7.14,1.21,12.69-.4,16.53-4.75,8.4-9.49,6.12-29,6.09-29.22-1-9.22-3.09-13.91-4.08-15.7q-1.41,1.79-6.8,1.79a42.44,42.44,0,0,1-5.05-.33A41.81,41.81,0,0,0,233.07,8.9Z"/><path class="cls-5" d="M213.3,45a26.86,26.86,0,0,0-9.74-2.42,44.75,44.75,0,0,0-27.13,7.28c-7.09,4.64-17.73,14-12.55,23.49.73,1.32,1.76,2.71,1.46,4.19-.38,1.92-2.63,2.68-4.49,3.31s-4,2.13-3.46,4c.61,2.28,3.93,2,6.12,1.09q8.53-3.36,16.89-7.15c-.76,1.67.79,3.66,2.58,4.07s3.63-.27,5.35-.94c7.24-2.83,15.31-6.77,17.25-14.31A11.73,11.73,0,0,0,220.5,52.09,14.07,14.07,0,0,0,213.3,45"/><path class="cls-2" d="M160.32,87.22c-1.88,0-3.11-.77-3.49-2.17-.58-2.15,1.5-3.91,3.83-4.7,1.8-.62,3.8-1.3,4.12-2.88.2-1-.39-2-1-3.11l-.39-.69c-6-10.88,8.25-21.31,12.75-24.25a45.29,45.29,0,0,1,27.48-7.37,27.23,27.23,0,0,1,10,2.47A14.46,14.46,0,0,1,221,51.86a12.26,12.26,0,0,1-11.47,17.08h0A11.85,11.85,0,0,1,206,68.4c-2.23,7.28-10,11.22-17.44,14.11a12.47,12.47,0,0,1-4.43,1.09,5.73,5.73,0,0,1-1.26-.13A4.43,4.43,0,0,1,180,81.2a3.37,3.37,0,0,1-.36-1.38c-5.25,2.36-10.59,4.62-15.9,6.71A9.73,9.73,0,0,1,160.32,87.22Zm40.5-44.11a44.59,44.59,0,0,0-24.07,7.28c-4.29,2.8-17.83,12.71-12.36,22.72.11.22.24.44.37.66.68,1.16,1.45,2.47,1.15,3.93-.44,2.23-2.88,3.06-4.84,3.72-1.3.45-3.57,1.69-3.12,3.33.23.87,1,1.31,2.37,1.31a8.73,8.73,0,0,0,3-.6c5.63-2.22,11.3-4.63,16.85-7.15a.6.6,0,0,1,.66.12.56.56,0,0,1,.11.64,1.94,1.94,0,0,0,.09,1.62,3.21,3.21,0,0,0,2.09,1.65c1.48.34,3.26-.22,5-.91,7.32-2.86,15.06-6.75,16.9-13.91a.59.59,0,0,1,.3-.37.55.55,0,0,1,.47,0,10.76,10.76,0,0,0,3.77.66h0A11.1,11.1,0,0,0,220,52.31a13.47,13.47,0,0,0-6.91-6.75,26.34,26.34,0,0,0-9.53-2.36C202.62,43.14,201.72,43.11,200.82,43.11Z"/><path class="cls-5" d="M215.44,50.79a9,9,0,0,1,.95-1.45c3.45-4.26,10.08-4.07,15.26-2.25a36,36,0,0,1,15.42,10.58c2,2.3,3,5,4.64,7.38,2.11,3,5.33,5,7.71,7.8.83,1,1.65,2.41.9,3.46a2.92,2.92,0,0,1-2.35.88,32.71,32.71,0,0,1-10.32-1.27c-.07,2.53-3.24,4-5.65,3.28s-4-3-5.14-5.26-1.92-4.73-3.52-6.68a31.08,31.08,0,0,1-8.22,2.34,10.24,10.24,0,0,1-8-2.36C214.71,65,214.07,61.35,214,58a15.37,15.37,0,0,1,1.4-7.22"/><path class="cls-2" d="M243.31,80a4.82,4.82,0,0,1-1.48-.23c-2.16-.67-4-2.54-5.49-5.56-.31-.63-.6-1.28-.89-1.94a21.48,21.48,0,0,0-2.3-4.3,29.67,29.67,0,0,1-8,2.22q-.61.06-1.23.06a10.37,10.37,0,0,1-7.21-2.57c-2.14-2-3.24-5.27-3.27-9.64a15.67,15.67,0,0,1,1.48-7.5,8.3,8.3,0,0,1,1-1.54c1.95-2.41,5-3.69,8.9-3.69a21.85,21.85,0,0,1,7,1.25,36.59,36.59,0,0,1,15.66,10.75,24.54,24.54,0,0,1,2.86,4.41,33,33,0,0,0,1.8,3,25.19,25.19,0,0,0,4.19,4.33,34.25,34.25,0,0,1,3.5,3.43c1.36,1.61,1.7,3.1.93,4.16A3.45,3.45,0,0,1,258,77.76a33.33,33.33,0,0,1-9.84-1.11C247.66,78.72,245.4,80,243.31,80Zm-10-13.3a.55.55,0,0,1,.44.21,20.9,20.9,0,0,1,2.73,4.9c.28.64.56,1.28.87,1.89,1.33,2.72,2.94,4.39,4.8,5S247,78,247.07,75.9a.57.57,0,0,1,.24-.45.62.62,0,0,1,.51-.1,31.44,31.44,0,0,0,10.12,1.26c.7,0,1.55-.12,1.92-.64.59-.84-.42-2.2-.88-2.75a33,33,0,0,0-3.39-3.3,26.84,26.84,0,0,1-4.36-4.54,36.23,36.23,0,0,1-1.87-3.12A24.6,24.6,0,0,0,246.64,58a35.26,35.26,0,0,0-15.18-10.4,20.28,20.28,0,0,0-6.62-1.19c-2.45,0-5.82.56-8,3.26a7.29,7.29,0,0,0-.88,1.35A14.44,14.44,0,0,0,214.62,58c0,4,1,7,2.91,8.81a9.23,9.23,0,0,0,6.41,2.25c.37,0,.75,0,1.13,0a30.37,30.37,0,0,0,8.06-2.3A.49.49,0,0,1,233.34,66.68Z"/><path class="cls-9" d="M196.68,95c0,2.41-1.44,4.38-3.23,4.38s-3.25-2-3.25-4.38,1.46-4.39,3.25-4.39,3.23,2,3.23,4.39"/><path class="cls-2" d="M196.21,92.49a1.38,1.38,0,1,1-1.38-1.38,1.37,1.37,0,0,1,1.38,1.38"/><path class="cls-11" d="M193.45,83.83a1.61,1.61,0,1,0,1.6,1.6A1.6,1.6,0,0,0,193.45,83.83Z"/><path class="cls-9" d="M216,94c0,2.42-1.45,4.39-3.24,4.39s-3.24-2-3.24-4.39,1.45-4.39,3.24-4.39S216,91.52,216,94"/><path class="cls-2" d="M215.48,91.47a1.39,1.39,0,1,1-1.38-1.38,1.38,1.38,0,0,1,1.38,1.38"/><path class="cls-11" d="M212.71,82.81a1.6,1.6,0,1,0,1.6,1.6A1.6,1.6,0,0,0,212.71,82.81Z"/><path class="cls-12" d="M197.81,119.33a7,7,0,0,1-3.47.24,8.12,8.12,0,0,1-1-.25,7.18,7.18,0,0,1-8.08-1.5,8.69,8.69,0,0,1-1.43-.11,7,7,0,0,1-4.15-2.37,12.25,12.25,0,0,0-7.27,8.93c-1.23,6.91,4.11,13.64,11.92,15s15.13-3.09,16.35-10A12.06,12.06,0,0,0,197.81,119.33Z"/><path class="cls-13" d="M198.43,120.14a5.9,5.9,0,0,1-4,.89c-.35-.09-.82-.2-1.16-.31-1.25.58-3.78.1-5.33-.17a4.85,4.85,0,0,1-3.18-1.71,12.11,12.11,0,0,1-1.8-.08,5.73,5.73,0,0,1-3.91-3.13,12.51,12.51,0,0,0-7.35,9.17c-1.23,6.92,4.24,13.67,12.2,15.08s15.42-3,16.66-10C201.22,126.3,200.85,122.92,198.43,120.14Z"/><path class="cls-14" d="M180.61,124.64c2.75,2,13.35,9.85,12.13,12.4,0,0-1.35,4.54-3.53,10.63S181,168.23,169,164.87c-9.09-2.56-15.45-10.54-11.85-17.63,5.87-11.55,16.45-24.94,18.55-25S179.1,123.51,180.61,124.64Z"/><path class="cls-4" d="M172.51,166.13a14.11,14.11,0,0,1-3.73-.53c-5.75-1.63-10.53-5.4-12.47-9.84a10.05,10.05,0,0,1,.16-8.86c5.51-10.83,16.45-25.32,19.19-25.42,2-.09,3.37,1,4.67,2l.73.55c6.31,4.54,13.55,10.51,12.38,13.27-.15.5-1.48,4.91-3.53,10.62C185.61,159.93,179.65,166.13,172.51,166.13ZM175.87,123h-.15c-1.82.34-12.1,13.16-17.92,24.6a8.65,8.65,0,0,0-.12,7.58c1.77,4,6.18,7.49,11.51,9,10,2.81,16-7.55,19.31-16.73,2.15-6,3.5-10.55,3.52-10.6l0-.11c.51-1.06-3.8-5.64-11.88-11.46h0l-.76-.58C178.26,123.76,177.27,123,175.87,123Z"/><polygon class="cls-15" points="260.16 127.5 258.46 126.61 280.49 85.09 282.19 85.99 260.16 127.5"/><path class="cls-16" d="M272.84,94.6a10.77,10.77,0,0,0,.72-1.8c0-.31-.67-1.55.51-1.74s3.74-.86,4.88,0,3.8.1,2.94,3.54-3.5,4.39-4.44,3.53-4.61.38-4.61-3.06Z"/><path class="cls-17" d="M278.16,99.39a2.21,2.21,0,0,1-1.53-.55,3.63,3.63,0,0,0-.84-.16c-1.42-.14-3.87-.4-3.87-3.61v-.74l-.05-.23a10.25,10.25,0,0,0,.63-1.35,2.26,2.26,0,0,1,.13-1.88,1.73,1.73,0,0,1,1.23-.76l.56-.1a15.65,15.65,0,0,1,2.76-.34,3.8,3.8,0,0,1,2.31.62,3,3,0,0,0,.88.31c1.15.29,3.28.84,2.43,4.23C282.05,97.83,279.9,99.39,278.16,99.39Zm-4.41-4.53v.21c0,1.35.5,1.53,2.18,1.7a3.35,3.35,0,0,1,2.06.65s.05,0,.21,0c.83,0,2.22-1,2.76-3.1.38-1.54.07-1.62-1-1.91a4.15,4.15,0,0,1-1.57-.63,2,2,0,0,0-1.16-.23,13.35,13.35,0,0,0-2.41.3l-.55.1c0,.1,0,.24.06.31s.22.32.22.49S274.67,93.33,273.75,94.86Z"/><rect class="cls-15" x="254.57" y="111.52" width="46.99" height="1.92" transform="translate(4.92 236.44) rotate(-46.43)"/><path class="cls-18" d="M292.23,103.68a9.68,9.68,0,0,0-1,1.77c0,.3.53,1.56-.67,1.71s-3.8.71-4.91-.19-3.81-.25-2.82-3.66,3.82-4.24,4.72-3.35,4.79-.2,4.65,3.25Z"/><path class="cls-19" d="M287.69,108.42a4,4,0,0,1-2.6-.71,2.81,2.81,0,0,0-.87-.34c-1.13-.34-3.25-1-2.27-4.32,1.22-4.19,4.92-5.16,6.34-3.77a5,5,0,0,0,1,.19c1.41.2,4,.57,3.91,3.77l0,.75-.14.22a15.3,15.3,0,0,0-.78,1.32,2.34,2.34,0,0,1-.24,1.88,1.83,1.83,0,0,1-1.29.7l-.58.08A16.34,16.34,0,0,1,287.69,108.42Zm-1-7.83c-.77,0-2.22.81-2.86,3-.45,1.52-.14,1.6,1,1.93a4.19,4.19,0,0,1,1.54.7,2.26,2.26,0,0,0,1.39.28,16.45,16.45,0,0,0,2.18-.21l.55-.08a2.24,2.24,0,0,0-.05-.31,2,2,0,0,1-.05-.49c0-.2,0-.54,1-2l0-.21c0-1.34-.59-1.56-2.26-1.79a3.52,3.52,0,0,1-2.1-.73A.5.5,0,0,0,286.66,100.59Z"/><path class="cls-20" d="M274.56,111a10,10,0,0,0,1.48-1.35c.11-.29,0-1.66,1.19-1.41s3.82.56,4.58,1.78,3.53,1.47,1.49,4.37-5,2.77-5.57,1.63-4.58-1.37-3.34-4.57Z"/><path class="cls-21" d="M279.35,117.72a2.65,2.65,0,0,1-2.48-1.28,4.65,4.65,0,0,0-.9-.51c-1.27-.65-3.63-1.85-2.48-4.84l.28-.69.2-.17a13,13,0,0,0,1.17-1h0c.21-1.52,1-2.22,2.29-1.95l.57.11c1.49.28,3.76.7,4.63,2.1a3.06,3.06,0,0,0,.71.61c1,.69,2.76,2,.74,4.82A6,6,0,0,1,279.35,117.72Zm-4-6.14-.07.21c-.49,1.25,0,1.65,1.55,2.42a3.61,3.61,0,0,1,1.75,1.37c0,.06.27.22.76.22a4,4,0,0,0,3.16-2c.92-1.3.66-1.48-.29-2.15a4.49,4.49,0,0,1-1.23-1.16c-.42-.68-2.4-1-3.35-1.23l-.54-.1a2,2,0,0,0-.05.31,2.16,2.16,0,0,1-.11.49C276.87,110.16,276.75,110.49,275.36,111.58Z"/></g></g></svg>