<svg xmlns="http://www.w3.org/2000/svg" viewBox="0 0 126.69 85.37"><g id="레이어_2" data-name="레이어 2"><g id="레이어_1-2" data-name="레이어 1"><rect x="22.5" width="81" height="8.1"/><rect x="22.5" y="77.27" width="81" height="8.1"/><rect x="99" y="8.1" width="11.69" height="8.1" transform="translate(209.69 24.29) rotate(-180)"/><rect x="15.99" y="8.1" width="11.01" height="8.1" transform="translate(42.99 24.29) rotate(-180)"/><rect x="15.99" y="69.27" width="11.01" height="8.1" transform="translate(42.99 146.64) rotate(-180)"/><rect x="110.6" y="16.1" width="8.1" height="8.1" transform="translate(229.29 40.29) rotate(-180)"/><rect x="118.6" y="24.1" width="8.1" height="34.27" transform="translate(245.29 82.46) rotate(-180)"/><rect x="99" y="69.17" width="11.69" height="8.1" transform="translate(209.69 146.44) rotate(-180)"/><rect x="110.6" y="61.17" width="8.1" height="8.1" transform="translate(229.29 130.44) rotate(-180)"/><rect x="118.6" y="53.17" width="8.1" height="8.1" transform="translate(245.29 114.44) rotate(-180)"/><rect x="8" y="16.1" width="8.1" height="8.1"/><rect y="24.1" width="8.1" height="29.77"/><rect x="8" y="61.17" width="8.1" height="8.1"/><rect y="53.17" width="8.1" height="8.1"/></g></g></svg>