<svg width="60" height="40" viewBox="0 0 60 40" fill="none" xmlns="http://www.w3.org/2000/svg">
<path d="M21 26V22.5H22.1667V19H23.3333V15.5H24.5V13.1667H26.8333V15.5H28V19H29.1667V22.5H30.3333V26H28V23.6667H23.3333V26H21ZM24.5 21.3333H26.8333V19H24.5V21.3333ZM31.5 26V13.1667H33.8333V26H31.5ZM35 26V13.1667H37.3333V26H35Z" fill="white"/>
<path d="M48.4954 0H10.543V3.79524H48.4954V0Z" fill="white"/>
<path d="M48.4954 36.2046H10.543V39.9998H48.4954V36.2046Z" fill="white"/>
<path d="M46.3869 7.58545L51.8643 7.58545V3.7902L46.3869 3.7902V7.58545Z" fill="white"/>
<path d="M7.49265 7.58545L12.6514 7.58545V3.7902L7.49265 3.7902L7.49265 7.58545Z" fill="white"/>
<path d="M7.49265 36.2515H12.6514V32.4562H7.49265L7.49265 36.2515Z" fill="white"/>
<path d="M51.8171 11.334H55.6123V7.53874H51.8171V11.334Z" fill="white"/>
<path d="M55.5651 27.3447H59.3604V11.2876H55.5651V27.3447Z" fill="white"/>
<path d="M46.3869 36.2046H51.8643V32.4093H46.3869V36.2046Z" fill="white"/>
<path d="M51.8171 32.4561H55.6123V28.6608H51.8171V32.4561Z" fill="white"/>
<path d="M55.5651 28.708H59.3604V24.9128H55.5651V28.708Z" fill="white"/>
<path d="M7.54329 7.54346H3.74805V11.3387H7.54329V7.54346Z" fill="white"/>
<path d="M3.79524 11.292H0V25.2407H3.79524V11.292Z" fill="white"/>
<path d="M7.54329 28.6611H3.74805V32.4564H7.54329V28.6611Z" fill="white"/>
<path d="M3.79524 24.9126H0V28.7078H3.79524V24.9126Z" fill="white"/>
</svg>
