<svg xmlns="http://www.w3.org/2000/svg" viewBox="0 0 161.94 185.65"><defs><style>.cls-1{fill:#8a8a8a;}.cls-2{fill:#b8b8b8;}.cls-3{fill:#fff;}</style></defs><g id="레이어_2" data-name="레이어 2"><g id="레이어_1-2" data-name="레이어 1"><rect class="cls-1" x="24.18" y="160.05" width="117.25" height="10.9"/><rect class="cls-1" x="137.46" y="151.8" width="11.64" height="11.64"/><rect class="cls-1" x="144.97" y="143.4" width="11.64" height="11.64"/><rect class="cls-1" x="15.42" y="151.49" width="11.64" height="11.64"/><rect class="cls-1" x="7.32" y="143.4" width="11.64" height="11.64"/><rect class="cls-2" x="8.1" y="15.63" width="145.74" height="129.55"/><rect class="cls-2" x="24.29" y="7.54" width="113.36" height="9.63"/><rect class="cls-2" x="24.29" y="143.65" width="113.36" height="9.63"/><rect class="cls-3" x="8.1" y="15.62" width="8.1" height="8.1"/><rect class="cls-3" x="8.1" y="137.07" width="8.1" height="8.1"/><rect class="cls-3" x="145.74" y="137.07" width="8.1" height="8.1"/><rect class="cls-3" x="137.65" y="145.17" width="8.1" height="8.1"/><rect class="cls-3" y="23.72" width="8.1" height="113.36"/><rect class="cls-3" x="76.96" y="-52.63" width="8.1" height="113.36" transform="translate(76.96 85.05) rotate(-90)"/><rect class="cls-3" x="16.19" y="7.52" width="8.1" height="8.1"/><rect class="cls-3" x="137.65" y="7.52" width="8.1" height="8.1"/><rect class="cls-3" x="145.74" y="15.62" width="8.1" height="8.1"/><rect class="cls-3" x="153.84" y="23.72" width="8.1" height="113.36"/><rect class="cls-3" x="16.19" y="145.17" width="8.1" height="8.1"/><rect class="cls-3" x="24.29" y="153.27" width="113.36" height="8.1"/><rect class="cls-1" x="8.1" y="153.27" width="8.1" height="8.1"/><rect class="cls-1" x="145.75" y="153.27" width="8.1" height="8.1"/><rect class="cls-1" x="137.65" y="161.36" width="8.1" height="8.1"/><rect class="cls-1" x="16.2" y="161.36" width="8.1" height="8.1"/><rect class="cls-1" x="24.29" y="169.46" width="113.36" height="8.1"/><rect class="cls-3" x="8.1" y="161.36" width="8.1" height="8.1"/><rect class="cls-3" x="145.75" y="161.36" width="8.1" height="8.1"/><rect class="cls-3" x="137.65" y="169.45" width="8.1" height="8.1"/><rect class="cls-3" y="48" width="8.1" height="113.36"/><rect class="cls-3" x="153.84" y="48" width="8.1" height="113.36"/><rect class="cls-3" x="16.2" y="169.45" width="8.1" height="8.1"/><rect class="cls-3" x="24.29" y="177.55" width="113.36" height="8.1"/></g></g></svg>