<svg xmlns="http://www.w3.org/2000/svg" viewBox="0 0 620.31 198.7"><defs><style>.cls-1{fill:#fff;}.cls-2{fill:#5c5c5c;}.cls-3{fill:#b8b8b8;}</style></defs><g id="레이어_2" data-name="레이어 2"><g id="레이어_1-2" data-name="레이어 1"><rect class="cls-1" x="-31.5" y="89.66" width="82.39" height="19.38" transform="translate(109.04 89.66) rotate(90)"/><rect class="cls-2" x="569.42" y="89.66" width="82.39" height="19.38" transform="translate(709.96 -511.27) rotate(90)"/><rect class="cls-1" x="19.38" y="38.77" width="19.38" height="19.38" transform="translate(77.54 19.38) rotate(90)"/><rect class="cls-1" x="38.77" y="19.38" width="19.38" height="19.38" transform="translate(77.54 -19.38) rotate(90)"/><rect class="cls-2" x="581.54" y="38.77" width="19.38" height="19.38"/><rect class="cls-1" x="562.15" y="19.38" width="19.38" height="19.38"/><rect class="cls-1" x="300.46" y="-242.31" width="19.38" height="504" transform="translate(319.85 -300.46) rotate(90)"/><rect class="cls-1" x="19.38" y="140.54" width="19.38" height="19.38" transform="translate(-121.16 179.31) rotate(-90)"/><rect class="cls-2" x="38.77" y="159.93" width="19.38" height="19.38" transform="translate(-121.16 218.08) rotate(-90)"/><rect class="cls-2" x="581.54" y="140.54" width="19.38" height="19.38"/><rect class="cls-2" x="562.15" y="159.93" width="19.38" height="19.38"/><rect class="cls-2" x="300.46" y="-63" width="19.38" height="504" transform="translate(121.15 499.16) rotate(-90)"/><polygon class="cls-3" points="58.15 159.93 38.77 159.93 38.77 140.54 19.39 140.54 19.39 58.15 38.77 58.15 38.77 38.77 58.15 38.77 58.15 19.39 562.15 19.39 562.15 38.77 581.54 38.77 581.54 58.15 600.92 58.15 600.92 140.54 581.54 140.54 581.54 159.93 562.15 159.93 562.15 179.31 58.15 179.31 58.15 159.93"/></g></g></svg>