<svg xmlns="http://www.w3.org/2000/svg" viewBox="0 0 200.74 85.37"><g id="레이어_2" data-name="레이어 2"><g id="레이어_1-2" data-name="레이어 1"><rect x="32.13" width="136.42" height="8.1"/><rect x="32.08" y="77.27" width="136.47" height="8.1"/><rect x="168.55" y="8.1" width="16.19" height="8.1" transform="translate(353.29 24.29) rotate(-180)"/><rect x="15.99" y="8.1" width="16.19" height="8.1" transform="translate(48.17 24.29) rotate(-180)"/><rect x="15.99" y="69.27" width="16.19" height="8.1" transform="translate(48.17 146.64) rotate(-180)"/><rect x="184.65" y="16.1" width="8.1" height="8.1" transform="translate(377.39 40.29) rotate(-180)"/><rect x="192.65" y="24.1" width="8.1" height="34.27" transform="translate(393.39 82.46) rotate(-180)"/><rect x="168.55" y="69.17" width="16.19" height="8.1" transform="translate(353.29 146.44) rotate(-180)"/><rect x="184.65" y="61.17" width="8.1" height="8.1" transform="translate(377.39 130.44) rotate(-180)"/><rect x="192.65" y="53.17" width="8.1" height="8.1" transform="translate(393.39 114.44) rotate(-180)"/><rect x="8" y="16.1" width="8.1" height="8.1"/><rect y="24.1" width="8.1" height="29.77"/><rect x="8" y="61.17" width="8.1" height="8.1"/><rect y="53.17" width="8.1" height="8.1"/></g></g></svg>