<svg width="95" height="40" viewBox="0 0 95 40" fill="none" xmlns="http://www.w3.org/2000/svg">
<path d="M24 26V13.1667H31V14.3333H32.1667V24.8333H31V26H24ZM29.8333 23.6667V15.5H26.3333V23.6667H29.8333ZM33.3379 24.8333V17.8333H34.5046V16.6667H40.3379V17.8333H41.5046V22.5H35.6712V23.6667H41.5046V26H34.5046V24.8333H33.3379ZM35.6712 20.1667H39.1712V19H35.6712V20.1667ZM42.6758 23.6667H47.3424V22.5H43.8424V21.3333H42.6758V17.8333H43.8424V16.6667H49.6758V19H45.0091V20.1667H48.5091V21.3333H49.6758V24.8333H48.5091V26H42.6758V23.6667ZM50.8379 26V16.6667H53.1712V26H50.8379ZM50.8379 15.5V13.1667H53.1712V15.5H50.8379ZM54.3379 23.6667V17.8333H55.5046V16.6667H59.0046V17.8333H60.1712V16.6667H62.5046V27.1667H61.3379V28.3333H55.5046V26H60.1712V23.6667H59.0046V24.8333H55.5046V23.6667H54.3379ZM56.6712 22.5H59.0046V21.3333H60.1712V20.1667H59.0046V19H56.6712V22.5ZM63.6758 26V16.6667H66.0091V17.8333H67.1758V16.6667H70.6758V17.8333H71.8424V26H69.5091V19H67.1758V20.1667H66.0091V26H63.6758Z" fill="white"/>
<path d="M78.9741 0H15.0547V3.79524H78.9741V0Z" fill="white"/>
<path d="M78.9741 36.2046H15.0312V39.9998H78.9741V36.2046Z" fill="white"/>
<path d="M78.9738 7.58594L86.5596 7.58594V3.79069L78.9738 3.79069V7.58594Z" fill="white"/>
<path d="M7.49232 7.58594L15.0781 7.58594V3.79069L7.49232 3.79069L7.49232 7.58594Z" fill="white"/>
<path d="M7.49232 36.2515H15.0781V32.4562H7.49232L7.49232 36.2515Z" fill="white"/>
<path d="M86.5133 11.334H90.3086V7.53874H86.5133V11.334Z" fill="white"/>
<path d="M90.2614 27.3442H94.0566V11.2871H90.2614V27.3442Z" fill="white"/>
<path d="M78.9738 36.2046H86.5596V32.4093H78.9738V36.2046Z" fill="white"/>
<path d="M86.5133 32.4565H90.3086V28.6613H86.5133V32.4565Z" fill="white"/>
<path d="M90.2614 28.708H94.0566V24.9128H90.2614V28.708Z" fill="white"/>
<path d="M7.54329 7.54346H3.74805V11.3387H7.54329V7.54346Z" fill="white"/>
<path d="M3.79524 11.292H0V25.2407H3.79524V11.292Z" fill="white"/>
<path d="M7.54329 28.6611H3.74805V32.4564H7.54329V28.6611Z" fill="white"/>
<path d="M3.79524 24.9126H0V28.7078H3.79524V24.9126Z" fill="white"/>
</svg>
