<svg xmlns="http://www.w3.org/2000/svg" viewBox="0 0 348 409.1"><defs><style>.cls-1{fill:#ffecc5;}.cls-2{fill:#926749;}.cls-3{fill:#ffe3a7;}.cls-4{fill:#ffd06d;}</style></defs><g id="레이어_2" data-name="레이어 2"><g id="레이어_1-2" data-name="레이어 1"><rect class="cls-1" x="37.19" y="47.82" width="278.93" height="316.12"/><rect class="cls-1" x="31.88" y="11.89" width="284.24" height="26.7"/><rect class="cls-1" x="31.88" y="373.24" width="284.24" height="21.25"/><polygon class="cls-2" points="42.5 241.74 42.5 231.11 31.88 231.11 31.88 241.74 31.88 252.37 42.5 252.37 42.5 241.74"/><polygon class="cls-2" points="42.5 82.35 42.5 71.72 31.88 71.72 31.88 82.35 31.88 92.98 42.5 92.98 42.5 82.35"/><polygon class="cls-2" points="31.88 103.6 31.88 92.98 21.25 92.98 21.25 103.6 21.25 114.23 21.25 124.86 31.88 124.86 31.88 114.23 31.88 103.6"/><polygon class="cls-2" points="42.5 135.48 42.5 124.86 31.88 124.86 31.88 135.48 31.88 146.11 42.5 146.11 42.5 135.48"/><polygon class="cls-2" points="31.88 156.73 31.88 146.11 21.25 146.11 21.25 156.73 21.25 167.36 21.25 177.99 31.88 177.99 31.88 167.36 31.88 156.73"/><polygon class="cls-2" points="42.5 188.61 42.5 177.99 31.88 177.99 31.88 188.61 31.88 199.24 42.5 199.24 42.5 188.61"/><polygon class="cls-2" points="31.88 209.86 31.88 199.24 21.25 199.24 21.25 209.86 21.25 220.49 21.25 231.11 31.88 231.11 31.88 220.49 31.88 209.86"/><polygon class="cls-2" points="305.5 82.35 305.5 92.98 316.12 92.98 316.12 82.35 316.12 71.72 305.5 71.72 305.5 82.35"/><polygon class="cls-2" points="316.12 114.23 316.12 124.86 326.75 124.86 326.75 114.23 326.75 103.6 326.75 92.98 316.12 92.98 316.12 103.6 316.12 114.23"/><polygon class="cls-2" points="305.5 135.48 305.5 146.11 316.12 146.11 316.12 135.48 316.12 124.86 305.5 124.86 305.5 135.48"/><polygon class="cls-2" points="316.12 167.36 316.12 177.99 326.75 177.99 326.75 167.36 326.75 156.73 326.75 146.11 316.12 146.11 316.12 156.73 316.12 167.36"/><polygon class="cls-2" points="305.5 188.61 305.5 199.24 316.12 199.24 316.12 188.61 316.12 177.99 305.5 177.99 305.5 188.61"/><polygon class="cls-2" points="316.12 220.49 316.12 231.11 326.75 231.11 326.75 220.49 326.75 209.86 326.75 199.24 316.12 199.24 316.12 209.86 316.12 220.49"/><polygon class="cls-2" points="305.5 241.74 305.5 252.37 316.12 252.37 316.12 241.74 316.12 231.11 305.5 231.11 305.5 241.74"/><polygon class="cls-2" points="42.5 294.87 42.5 284.24 31.88 284.24 31.88 294.87 31.88 305.5 42.5 305.5 42.5 294.87"/><polygon class="cls-2" points="31.88 262.99 31.88 252.37 21.25 252.37 21.25 262.99 21.25 273.62 21.25 284.24 31.88 284.24 31.88 273.62 31.88 262.99"/><polygon class="cls-2" points="316.12 273.62 316.12 284.24 326.75 284.24 326.75 273.62 326.75 262.99 326.75 252.37 316.12 252.37 316.12 262.99 316.12 273.62"/><polygon class="cls-2" points="305.5 294.87 305.5 305.5 316.12 305.5 316.12 294.87 316.12 284.24 305.5 284.24 305.5 294.87"/><polygon class="cls-2" points="31.88 316.12 31.88 305.5 21.25 305.5 21.25 316.12 21.25 326.75 21.25 337.37 31.88 337.37 31.88 326.75 31.88 316.12"/><polygon class="cls-2" points="316.12 326.75 316.12 337.37 326.75 337.37 326.75 326.75 326.75 316.12 326.75 305.5 316.12 305.5 316.12 316.12 316.12 326.75"/><path class="cls-2" d="M305.5,348v10.63H42.5V337.37H31.88v21.26H21.25v4H10.63v10.63H21.25v21.25H10.63v10.62H21.25v4h305.5v-4h10.62V394.49H326.75V373.24h10.62V362.61H326.75v-4H316.12V337.37H305.5Zm10.62,21.25V399.8H31.88V367.92H316.12Z"/><polygon class="cls-2" points="10.63 14.61 0 14.61 0 25.24 0 35.86 10.63 35.86 10.63 25.24 10.63 14.61"/><polygon class="cls-2" points="337.37 14.61 337.37 25.24 337.37 35.86 348 35.86 348 25.24 348 14.61 337.37 14.61"/><path class="cls-2" d="M326.75,14.61h10.62V4H326.75V0H21.25V4H10.63V14.61H21.25V35.86H10.63V46.49H21.25V71.73H31.88V50.47H316.12V71.73h10.63V46.49h10.62V35.86H326.75ZM166,41.18H31.88V9.3H316.12V41.18Z"/><polygon class="cls-2" points="10.63 373.24 0 373.24 0 383.86 0 394.49 10.63 394.49 10.63 383.86 10.63 373.24"/><polygon class="cls-2" points="337.37 394.49 348 394.49 348 383.86 348 373.24 337.37 373.24 337.37 383.86 337.37 394.49"/><polygon class="cls-3" points="63.76 82.35 63.76 71.72 53.13 71.72 53.13 82.35 53.13 92.98 63.76 92.98 63.76 82.35"/><polygon class="cls-3" points="53.13 114.23 53.13 103.6 53.13 92.98 42.5 92.98 42.5 103.6 42.5 114.23 42.5 124.86 42.5 135.48 53.13 135.48 53.13 124.86 53.13 114.23"/><rect class="cls-3" x="53.13" y="135.48" width="10.63" height="10.63"/><polygon class="cls-3" points="53.13 156.73 53.13 146.11 42.5 146.11 42.5 156.73 42.5 167.36 42.5 177.99 53.13 177.99 53.13 167.36 53.13 156.73"/><polygon class="cls-3" points="63.76 188.61 63.76 177.99 53.13 177.99 53.13 188.61 53.13 199.24 63.76 199.24 63.76 188.61"/><polygon class="cls-3" points="53.13 209.86 53.13 199.24 42.5 199.24 42.5 209.86 42.5 220.49 42.5 231.12 53.13 231.12 53.13 220.49 53.13 209.86"/><polygon class="cls-3" points="63.76 241.74 63.76 231.12 53.13 231.12 53.13 241.74 53.13 252.37 63.76 252.37 63.76 241.74"/><polygon class="cls-3" points="53.13 50.47 42.5 50.47 42.5 61.1 42.5 71.72 53.13 71.72 53.13 61.1 53.13 50.47"/><polygon class="cls-3" points="294.87 71.72 284.24 71.72 284.24 82.35 284.24 92.98 294.87 92.98 294.87 82.35 294.87 71.72"/><polygon class="cls-3" points="305.5 114.23 305.5 103.6 305.5 92.98 294.87 92.98 294.87 103.6 294.87 114.23 294.87 124.86 305.5 124.86 305.5 114.23"/><polygon class="cls-3" points="294.87 124.86 284.24 124.86 284.24 135.48 284.24 146.11 294.87 146.11 294.87 135.48 294.87 124.86"/><polygon class="cls-3" points="305.5 167.36 305.5 156.73 305.5 146.11 294.87 146.11 294.87 156.73 294.87 167.36 294.87 177.99 305.5 177.99 305.5 167.36"/><polygon class="cls-3" points="294.87 177.99 284.24 177.99 284.24 188.61 284.24 199.24 294.87 199.24 294.87 188.61 294.87 177.99"/><polygon class="cls-3" points="305.5 220.49 305.5 209.86 305.5 199.24 294.87 199.24 294.87 209.86 294.87 220.49 294.87 231.12 305.5 231.12 305.5 220.49"/><polygon class="cls-3" points="294.87 231.12 284.24 231.12 284.24 241.74 284.24 252.37 294.87 252.37 294.87 241.74 294.87 231.12"/><polygon class="cls-3" points="305.5 61.1 305.5 50.47 294.87 50.47 294.87 61.1 294.87 71.72 305.5 71.72 305.5 61.1"/><polygon class="cls-3" points="53.13 262.99 53.13 252.37 42.5 252.37 42.5 262.99 42.5 273.62 42.5 284.24 53.13 284.24 53.13 273.62 53.13 262.99"/><polygon class="cls-3" points="53.13 305.5 63.76 305.5 63.76 294.87 63.76 284.24 53.13 284.24 53.13 294.87 53.13 305.5"/><polygon class="cls-3" points="305.5 273.62 305.5 262.99 305.5 252.37 294.87 252.37 294.87 262.99 294.87 273.62 294.87 284.24 305.5 284.24 305.5 273.62"/><polygon class="cls-3" points="294.87 284.24 284.24 284.24 284.24 294.87 284.24 305.5 294.87 305.5 294.87 294.87 294.87 284.24"/><polygon class="cls-3" points="42.5 316.12 42.5 326.75 42.5 337.37 53.13 337.37 53.13 326.75 53.13 316.12 53.13 305.5 42.5 305.5 42.5 316.12"/><polygon class="cls-3" points="53.13 358.63 63.76 358.63 63.76 348 63.76 337.37 53.13 337.37 53.13 348 53.13 358.63"/><polygon class="cls-3" points="294.87 326.75 294.87 337.37 305.5 337.37 305.5 326.75 305.5 316.12 305.5 305.5 294.87 305.5 294.87 316.12 294.87 326.75"/><polygon class="cls-3" points="284.24 348 284.24 358.63 294.87 358.63 294.87 348 294.87 337.37 284.24 337.37 284.24 348"/><rect class="cls-3" x="31.88" y="9.3" width="284.24" height="10.63"/><rect class="cls-3" x="31.88" y="367.92" width="284.24" height="10.63"/><rect class="cls-4" x="53.13" y="124.85" width="10.63" height="10.63"/><rect class="cls-4" x="42.5" y="135.48" width="10.63" height="10.63"/><polygon class="cls-4" points="53.13 82.35 53.13 71.72 42.5 71.72 42.5 82.35 42.5 92.98 53.13 92.98 53.13 82.35"/><polygon class="cls-4" points="42.5 114.23 42.5 103.6 42.5 92.98 31.88 92.98 31.88 103.6 31.88 114.23 31.88 124.86 42.5 124.86 42.5 114.23"/><polygon class="cls-4" points="42.5 156.73 42.5 146.11 31.88 146.11 31.88 156.73 31.88 167.36 31.88 177.99 42.5 177.99 42.5 167.36 42.5 156.73"/><polygon class="cls-4" points="53.13 188.61 53.13 177.99 42.5 177.99 42.5 188.61 42.5 199.24 53.13 199.24 53.13 188.61"/><polygon class="cls-4" points="42.5 209.86 42.5 199.24 31.88 199.24 31.88 209.86 31.88 220.49 31.88 231.12 42.5 231.12 42.5 220.49 42.5 209.86"/><polygon class="cls-4" points="53.13 241.74 53.13 231.12 42.5 231.12 42.5 241.74 42.5 252.37 53.13 252.37 53.13 241.74"/><polygon class="cls-4" points="42.5 50.47 31.88 50.47 31.88 61.1 31.88 71.72 42.5 71.72 42.5 61.1 42.5 50.47"/><polygon class="cls-4" points="294.87 82.35 294.87 92.98 305.5 92.98 305.5 82.35 305.5 71.72 294.87 71.72 294.87 82.35"/><polygon class="cls-4" points="305.5 114.23 305.5 124.86 316.12 124.86 316.12 114.23 316.12 103.6 316.12 92.98 305.5 92.98 305.5 103.6 305.5 114.23"/><polygon class="cls-4" points="294.87 135.48 294.87 146.11 305.5 146.11 305.5 135.48 305.5 124.86 294.87 124.86 294.87 135.48"/><polygon class="cls-4" points="305.5 167.36 305.5 177.99 316.12 177.99 316.12 167.36 316.12 156.73 316.12 146.11 305.5 146.11 305.5 156.73 305.5 167.36"/><polygon class="cls-4" points="294.87 188.61 294.87 199.24 305.5 199.24 305.5 188.61 305.5 177.99 294.87 177.99 294.87 188.61"/><polygon class="cls-4" points="305.5 220.49 305.5 231.12 316.12 231.12 316.12 220.49 316.12 209.86 316.12 199.24 305.5 199.24 305.5 209.86 305.5 220.49"/><polygon class="cls-4" points="294.87 241.74 294.87 252.37 305.5 252.37 305.5 241.74 305.5 231.12 294.87 231.12 294.87 241.74"/><polygon class="cls-4" points="42.5 262.99 42.5 252.37 31.88 252.37 31.88 262.99 31.88 273.62 31.88 284.24 42.5 284.24 42.5 273.62 42.5 262.99"/><polygon class="cls-4" points="53.13 294.87 53.13 284.24 42.5 284.24 42.5 294.87 42.5 305.5 53.13 305.5 53.13 294.87"/><polygon class="cls-4" points="305.5 273.62 305.5 284.24 316.12 284.24 316.12 273.62 316.12 262.99 316.12 252.37 305.5 252.37 305.5 262.99 305.5 273.62"/><polygon class="cls-4" points="294.87 294.87 294.87 305.5 305.5 305.5 305.5 294.87 305.5 284.24 294.87 284.24 294.87 294.87"/><polygon class="cls-4" points="305.5 61.1 305.5 71.72 316.12 71.72 316.12 61.1 316.12 50.47 305.5 50.47 305.5 61.1"/><polygon class="cls-4" points="42.5 326.75 42.5 316.12 42.5 305.5 31.88 305.5 31.88 316.12 31.88 326.75 31.88 337.37 42.5 337.37 42.5 326.75"/><polygon class="cls-4" points="42.5 358.63 53.13 358.63 53.13 348 53.13 337.37 42.5 337.37 42.5 348 42.5 358.63"/><polygon class="cls-4" points="305.5 326.75 305.5 337.37 316.12 337.37 316.12 326.75 316.12 316.12 316.12 305.5 305.5 305.5 305.5 316.12 305.5 326.75"/><polygon class="cls-4" points="294.87 348 294.87 358.63 305.5 358.63 305.5 348 305.5 337.37 294.87 337.37 294.87 348"/><rect class="cls-4" x="10.63" y="14.61" width="10.63" height="21.25"/><rect class="cls-4" x="326.75" y="14.61" width="10.63" height="21.25"/><polygon class="cls-4" points="151.42 30.55 31.88 30.55 31.88 41.18 151.42 41.18 166.03 41.18 316.12 41.18 316.12 30.55 166.03 30.55 151.42 30.55"/><rect class="cls-4" x="10.63" y="373.24" width="10.63" height="21.25"/><rect class="cls-4" x="326.75" y="373.24" width="10.63" height="21.25"/><polygon class="cls-4" points="151.42 389.18 31.88 389.18 31.88 399.8 151.42 399.8 166.03 399.8 316.12 399.8 316.12 389.18 166.03 389.18 151.42 389.18"/></g></g></svg>