<svg xmlns="http://www.w3.org/2000/svg" viewBox="0 0 620.31 756"><defs><style>.cls-1{fill:#fff;}.cls-2{fill:#5c5c5c;}.cls-3{fill:#b8b8b8;}</style></defs><g id="레이어_2" data-name="레이어 2"><g id="레이어_1-2" data-name="레이어 1"><rect class="cls-1" x="-300.46" y="358.62" width="620.31" height="19.38" transform="translate(378 358.62) rotate(90)"/><rect class="cls-2" x="300.46" y="358.62" width="620.31" height="19.38" transform="translate(978.92 -242.31) rotate(90)"/><rect class="cls-1" x="19.38" y="38.77" width="19.38" height="19.38" transform="translate(77.54 19.38) rotate(90)"/><rect class="cls-1" x="38.77" y="19.38" width="19.38" height="19.38" transform="translate(77.54 -19.38) rotate(90)"/><rect class="cls-2" x="581.54" y="38.77" width="19.38" height="19.38"/><rect class="cls-1" x="562.15" y="19.38" width="19.38" height="19.38"/><rect class="cls-1" x="300.46" y="-242.31" width="19.38" height="504" transform="translate(319.85 -300.46) rotate(90)"/><rect class="cls-1" x="-48.46" y="630" width="116.31" height="19.38" transform="translate(-630 649.38) rotate(-90)"/><rect class="cls-2" x="552.46" y="630" width="116.31" height="19.38" transform="translate(-29.08 1250.31) rotate(-90)"/><rect class="cls-1" x="19.38" y="697.85" width="19.38" height="19.38" transform="translate(-678.46 736.62) rotate(-90)"/><rect class="cls-2" x="38.77" y="717.23" width="19.38" height="19.38" transform="translate(-678.46 775.38) rotate(-90)"/><rect class="cls-2" x="581.54" y="697.85" width="19.38" height="19.38"/><rect class="cls-2" x="562.15" y="717.23" width="19.38" height="19.38"/><rect class="cls-2" x="300.46" y="494.31" width="19.38" height="504" transform="translate(-436.15 1056.46) rotate(-90)"/><polygon class="cls-3" points="58.15 717.23 38.77 717.23 38.77 697.85 19.39 697.85 19.39 58.15 38.77 58.15 38.77 38.77 58.15 38.77 58.15 19.39 562.15 19.39 562.15 38.77 581.54 38.77 581.54 58.15 600.92 58.15 600.92 697.85 581.54 697.85 581.54 717.23 562.15 717.23 562.15 736.62 58.15 736.62 58.15 717.23"/></g></g></svg>