<svg width="120" height="40" viewBox="0 0 120 40" fill="none" xmlns="http://www.w3.org/2000/svg">
<path d="M22 26V13.1667H29V14.3333H30.1667V20.1667H29V21.3333H24.3333V26H22ZM24.3333 19H27.8333V15.5H24.3333V19ZM31.3379 24.8333V16.6667H33.6712V23.6667H36.0046V22.5H37.1712V16.6667H39.5046V26H37.1712V24.8333H36.0046V26H32.5046V24.8333H31.3379ZM40.6758 26V13.1667H43.0091V17.8333H44.1758V16.6667H47.6758V17.8333H48.8424V24.8333H47.6758V26H44.1758V24.8333H43.0091V26H40.6758ZM43.0091 22.5H44.1758V23.6667H46.5091V19H44.1758V20.1667H43.0091V22.5ZM50.0137 26V13.1667H52.347V26H50.0137ZM53.5137 26V16.6667H55.847V26H53.5137ZM53.5137 15.5V13.1667H55.847V15.5H53.5137ZM57.0137 23.6667H61.6803V22.5H58.1803V21.3333H57.0137V17.8333H58.1803V16.6667H64.0137V19H59.347V20.1667H62.847V21.3333H64.0137V24.8333H62.847V26H57.0137V23.6667ZM65.1758 26V13.1667H67.5091V17.8333H68.6758V16.6667H72.1758V17.8333H73.3424V26H71.0091V19H68.6758V20.1667H67.5091V26H65.1758ZM74.5137 26V16.6667H76.847V26H74.5137ZM74.5137 15.5V13.1667H76.847V15.5H74.5137ZM78.0137 26V16.6667H80.347V17.8333H81.5137V16.6667H85.0137V17.8333H86.1803V26H83.847V19H81.5137V20.1667H80.347V26H78.0137ZM87.3516 23.6667V17.8333H88.5182V16.6667H92.0182V17.8333H93.1849V16.6667H95.5182V27.1667H94.3516V28.3333H88.5182V26H93.1849V23.6667H92.0182V24.8333H88.5182V23.6667H87.3516ZM89.6849 22.5H92.0182V21.3333H93.1849V20.1667H92.0182V19H89.6849V22.5Z" fill="white"/>
<path d="M103.948 0H15.0547V3.79524H103.948V0Z" fill="white"/>
<path d="M103.952 36.2046H15.0312V39.9998H103.952V36.2046Z" fill="white"/>
<path d="M103.952 7.58594L111.538 7.58594V3.79069L103.952 3.79069V7.58594Z" fill="white"/>
<path d="M7.49232 7.58594L15.0781 7.58594V3.79069L7.49232 3.79069L7.49232 7.58594Z" fill="white"/>
<path d="M7.49232 36.2515H15.0781V32.4562H7.49232L7.49232 36.2515Z" fill="white"/>
<path d="M111.491 11.334H115.286V7.53874H111.491V11.334Z" fill="white"/>
<path d="M115.24 27.3442H119.035V11.2871H115.24V27.3442Z" fill="white"/>
<path d="M103.952 36.2046H111.538V32.4093H103.952V36.2046Z" fill="white"/>
<path d="M111.491 32.4565H115.286V28.6613H111.491V32.4565Z" fill="white"/>
<path d="M115.24 28.708H119.035V24.9128H115.24V28.708Z" fill="white"/>
<path d="M7.54329 7.54346H3.74805V11.3387H7.54329V7.54346Z" fill="white"/>
<path d="M3.79524 11.292H0V25.2407H3.79524V11.292Z" fill="white"/>
<path d="M7.54329 28.6611H3.74805V32.4564H7.54329V28.6611Z" fill="white"/>
<path d="M3.79524 24.9126H0V28.7078H3.79524V24.9126Z" fill="white"/>
</svg>
