<svg xmlns="http://www.w3.org/2000/svg" viewBox="0 0 254.05 85.37"><g id="레이어_2" data-name="레이어 2"><g id="레이어_1-2" data-name="레이어 1"><rect x="32.13" width="189.72" height="8.1"/><rect x="32.08" y="77.27" width="189.78" height="8.1"/><rect x="221.85" y="8.1" width="16.19" height="8.1" transform="translate(459.9 24.29) rotate(-180)"/><rect x="15.99" y="8.1" width="16.19" height="8.1" transform="translate(48.17 24.29) rotate(-180)"/><rect x="15.99" y="69.27" width="16.19" height="8.1" transform="translate(48.17 146.64) rotate(-180)"/><rect x="237.95" y="16.1" width="8.1" height="8.1" transform="translate(484 40.29) rotate(-180)"/><rect x="245.95" y="24.1" width="8.1" height="34.27" transform="translate(500 82.46) rotate(-180)"/><rect x="221.85" y="69.17" width="16.19" height="8.1" transform="translate(459.9 146.44) rotate(-180)"/><rect x="237.95" y="61.17" width="8.1" height="8.1" transform="translate(484 130.44) rotate(-180)"/><rect x="245.95" y="53.17" width="8.1" height="8.1" transform="translate(500 114.44) rotate(-180)"/><rect x="8" y="16.1" width="8.1" height="8.1"/><rect y="24.1" width="8.1" height="29.77"/><rect x="8" y="61.17" width="8.1" height="8.1"/><rect y="53.17" width="8.1" height="8.1"/></g></g></svg>