<svg width="86" height="29" viewBox="0 0 86 29" fill="none" xmlns="http://www.w3.org/2000/svg">
<rect width="86" height="29" fill="#1E1E1E"/>
<path d="M3 25.9999V19.7499H5.08333V13.4999H7.16667V7.24992H9.25V3.08325H13.4167V7.24992H15.5V13.4999H17.5833V19.7499H19.6667V25.9999H15.5V21.8333H7.16667V25.9999H3ZM9.25 17.6666H13.4167V13.4999H9.25V17.6666Z" fill="#1F1425"/>
<path d="M21.75 25.9999V3.08325H25.9167V11.4166H28V9.33325H34.25V11.4166H36.3333V23.9166H34.25V25.9999H28V23.9166H25.9167V25.9999H21.75ZM25.9167 19.7499H28V21.8333H32.1667V13.4999H28V15.5833H25.9167V19.7499Z" fill="#1F1425"/>
<path d="M38.4248 23.9166V11.4166H40.5081V9.33325H50.9248V11.4166H53.0081V23.9166H50.9248V25.9999H40.5081V23.9166H38.4248ZM42.5915 21.8333H48.8415V13.4999H42.5915V21.8333Z" fill="#1F1425"/>
<path d="M55.0996 23.9166V9.33325H59.2663V21.8333H63.4329V19.7499H65.5163V9.33325H69.6829V25.9999H65.5163V23.9166H63.4329V25.9999H57.1829V23.9166H55.0996Z" fill="#1F1425"/>
<path d="M71.7744 13.4999V9.33325H73.8577V5.16658H78.0244V9.33325H82.1911V13.4999H78.0244V21.8333H82.1911V25.9999H75.9411V23.9166H73.8577V13.4999H71.7744Z" fill="#1F1425"/>
<path fill-rule="evenodd" clip-rule="evenodd" d="M0 28.9999V16.7499H2.08333V10.4999H4.16667V4.24992H6.25V0.083252H16.4167V4.24992H18.5V10.4999H18.75V0.083252H28.9167V6.33325H37.25V8.41658H37.5081V6.33325H62.2663V16.7499H62.5163V6.33325H70.8577V2.16658H81.0244V6.33325H85.1911V16.4999H81.0244V18.8333H85.1911V28.9999H72.9411V26.9166H72.6829V28.9999H54.1829V26.9166H53.9248V28.9999H37.5081V26.9166H37.25V28.9999H12.5V24.8333H10.1667V28.9999H0ZM15.5 21.8333V25.9999H19.6667V19.7499H17.5833V13.4999H15.5V7.24992H13.4167V3.08325H9.25V7.24992H7.16667V13.4999H5.08333V19.7499H3V25.9999H7.16667V21.8333H15.5ZM21.75 25.9999H25.9167V23.9166H28V25.9999H34.25V23.9166H36.3333V11.4166H34.25V9.33325H28V11.4166H25.9167V3.08325H21.75V25.9999ZM28 13.4999V15.5833H25.9167V19.7499H28V21.8333H32.1667V13.4999H28ZM53.0081 23.9166V11.4166H50.9248V9.33325H40.5081V11.4166H38.4248V23.9166H40.5081V25.9999H50.9248V23.9166H53.0081ZM48.8415 13.4999H42.5915V21.8333H48.8415V13.4999ZM45.8415 16.4999H45.5915V18.8333H45.8415V16.4999ZM55.0996 9.33325V23.9166H57.1829V25.9999H63.4329V23.9166H65.5163V25.9999H69.6829V9.33325H65.5163V19.7499H63.4329V21.8333H59.2663V9.33325H55.0996ZM73.8577 13.4999V23.9166H75.9411V25.9999H82.1911V21.8333H78.0244V13.4999H82.1911V9.33325H78.0244V5.16658H73.8577V9.33325H71.7744V13.4999H73.8577ZM9.25 13.4999H13.4167V17.6666H9.25V13.4999Z" fill="white"/>
</svg>
