<svg width="184" height="54" viewBox="0 0 184 54" fill="none" xmlns="http://www.w3.org/2000/svg">
<path d="M59.2754 35.1367V30.5059H60.819V25.875H62.3626V21.2441H63.9063V18.1569H66.9935V21.2441H68.5371V25.875H70.0807V30.5059H71.6244V35.1367H68.5371V32.0495H62.3626V35.1367H59.2754ZM63.9063 28.9622H66.9935V25.875H63.9063V28.9622ZM73.168 35.1367V18.1569H82.4297V19.7005H83.9734V25.875H82.4297V27.4186H83.9734V33.5931H82.4297V35.1367H73.168ZM76.2552 32.0495H80.8861V27.4186H76.2552V32.0495ZM76.2552 24.3314H80.8861V21.2441H76.2552V24.3314ZM85.523 33.5931V19.7005H87.0666V18.1569H94.7847V19.7005H96.3284V33.5931H94.7847V35.1367H87.0666V33.5931H85.523ZM88.6103 32.0495H93.2411V21.2441H88.6103V32.0495ZM97.878 33.5931V18.1569H100.965V32.0495H105.596V18.1569H108.683V33.5931H107.14V35.1367H99.4216V33.5931H97.878ZM110.233 21.2441V18.1569H122.582V21.2441H117.951V35.1367H114.864V21.2441H110.233Z" fill="white"/>
<path d="M162.138 0.935547H23.6831V2.75733H162.138V0.935547Z" fill="white"/>
<path d="M167.605 2.75757H162.139V4.57935H167.605V2.75757Z" fill="white"/>
<path d="M171.247 4.57886H167.604V6.40064H171.247V4.57886Z" fill="white"/>
<path d="M174.892 6.40088H171.248V8.22266H174.892V6.40088Z" fill="white"/>
<path d="M176.713 8.22241H174.891V10.0442H176.713V8.22241Z" fill="white"/>
<path d="M178.535 10.0442H176.713V11.866H178.535V10.0442Z" fill="white"/>
<path d="M180.356 11.866H178.535V13.6877H180.356V11.866Z" fill="white"/>
<path d="M182.178 13.688H180.356V17.3315H182.178V13.688Z" fill="white"/>
<path d="M184 17.3313H182.178V37.3709H184V17.3313Z" fill="white"/>
<path d="M21.8621 2.75757L160.317 2.75757V0.935788L21.8621 0.935788V2.75757Z" fill="white"/>
<path d="M16.396 4.57886L21.8613 4.57886V2.75708L16.396 2.75708V4.57886Z" fill="white"/>
<path d="M12.7529 6.40088L16.3965 6.40088V4.5791H12.7529V6.40088Z" fill="white"/>
<path d="M9.10937 8.22241H12.7529V6.40063H9.10937V8.22241Z" fill="white"/>
<path d="M7.28711 10.0442H9.10889V8.22241H7.28711V10.0442Z" fill="white"/>
<path d="M5.46533 11.866H7.28711V10.0442H5.46533V11.866Z" fill="white"/>
<path d="M3.64355 13.688H5.46533V11.8662H3.64355V13.688Z" fill="white"/>
<path d="M1.82226 17.3313H3.64404L3.64404 13.6877H1.82226L1.82226 17.3313Z" fill="white"/>
<path d="M-3.33786e-06 37.3713H1.82178L1.82178 17.3318H-3.33786e-06L-3.33786e-06 37.3713Z" fill="white"/>
<path d="M162.138 51.9451H23.6831V53.7668H162.138V51.9451Z" fill="white"/>
<path d="M167.605 50.1233H162.139V51.9451H167.605V50.1233Z" fill="white"/>
<path d="M171.247 48.3015H167.604V50.1233H171.247V48.3015Z" fill="white"/>
<path d="M174.892 46.4797H171.248V48.3015H174.892V46.4797Z" fill="white"/>
<path d="M176.713 44.6582H174.891V46.48H176.713V44.6582Z" fill="white"/>
<path d="M178.535 42.8362H176.713V44.658H178.535V42.8362Z" fill="white"/>
<path d="M180.356 41.0142H178.535V42.8359H180.356V41.0142Z" fill="white"/>
<path d="M182.178 37.3713H180.356V41.0149H182.178V37.3713Z" fill="white"/>
<path d="M184 17.3313H182.178V37.3709H184V17.3313Z" fill="white"/>
<path d="M21.8621 53.7671L160.317 53.7671V51.9453L21.8621 51.9453V53.7671Z" fill="white"/>
<path d="M16.396 51.9451H21.8613V50.1233H16.396V51.9451Z" fill="white"/>
<path d="M12.7529 50.1233H16.3965V48.3015H12.7529V50.1233Z" fill="white"/>
<path d="M9.10937 48.3015H12.7529V46.4797H9.10937V48.3015Z" fill="white"/>
<path d="M7.28711 46.4797H9.10889V44.658H7.28711V46.4797Z" fill="white"/>
<path d="M5.46533 44.6582H7.28711V42.8364H5.46533V44.6582Z" fill="white"/>
<path d="M3.64355 42.8362H5.46533V41.0144H3.64355V42.8362Z" fill="white"/>
<path d="M1.82226 41.0142H3.64404L3.64404 37.3706H1.82226L1.82226 41.0142Z" fill="white"/>
<path d="M-3.33786e-06 37.3713H1.82178L1.82178 17.3318H-3.33786e-06L-3.33786e-06 37.3713Z" fill="white"/>
<path d="M162.138 0.935547H23.6831V2.75733H162.138V0.935547Z" fill="white"/>
<path d="M167.605 2.75757H162.139V4.57935H167.605V2.75757Z" fill="white"/>
<path d="M171.247 4.57886H167.604V6.40064H171.247V4.57886Z" fill="white"/>
<path d="M174.892 6.40088H171.248V8.22266H174.892V6.40088Z" fill="white"/>
<path d="M176.713 8.22241H174.891V10.0442H176.713V8.22241Z" fill="white"/>
<path d="M178.535 10.0442H176.713V11.866H178.535V10.0442Z" fill="white"/>
<path d="M180.356 11.866H178.535V13.6877H180.356V11.866Z" fill="white"/>
<path d="M182.178 13.688H180.356V17.3315H182.178V13.688Z" fill="white"/>
<path d="M184 17.3313H182.178V37.3709H184V17.3313Z" fill="white"/>
<path d="M21.8621 2.75757L160.317 2.75757V0.935788L21.8621 0.935788V2.75757Z" fill="white"/>
<path d="M16.396 4.57886L21.8613 4.57886V2.75708L16.396 2.75708V4.57886Z" fill="white"/>
<path d="M12.7529 6.40088L16.3965 6.40088V4.5791H12.7529V6.40088Z" fill="white"/>
<path d="M9.10937 8.22241H12.7529V6.40063H9.10937V8.22241Z" fill="white"/>
<path d="M7.28711 10.0442H9.10889V8.22241H7.28711V10.0442Z" fill="white"/>
<path d="M5.46533 11.866H7.28711V10.0442H5.46533V11.866Z" fill="white"/>
<path d="M3.64355 13.688H5.46533V11.8662H3.64355V13.688Z" fill="white"/>
<path d="M1.82226 17.3313H3.64404L3.64404 13.6877H1.82226L1.82226 17.3313Z" fill="white"/>
<path d="M-3.33786e-06 37.3713H1.82178L1.82178 17.3318H-3.33786e-06L-3.33786e-06 37.3713Z" fill="white"/>
<path d="M162.138 51.9451H23.6831V53.7668H162.138V51.9451Z" fill="white"/>
<path d="M167.605 50.1233H162.139V51.9451H167.605V50.1233Z" fill="white"/>
<path d="M171.247 48.3015H167.604V50.1233H171.247V48.3015Z" fill="white"/>
<path d="M174.892 46.4797H171.248V48.3015H174.892V46.4797Z" fill="white"/>
<path d="M176.713 44.6582H174.891V46.48H176.713V44.6582Z" fill="white"/>
<path d="M178.535 42.8362H176.713V44.658H178.535V42.8362Z" fill="white"/>
<path d="M180.356 41.0142H178.535V42.8359H180.356V41.0142Z" fill="white"/>
<path d="M182.178 37.3713H180.356V41.0149H182.178V37.3713Z" fill="white"/>
<path d="M184 17.3313H182.178V37.3709H184V17.3313Z" fill="white"/>
<path d="M21.8621 53.7671L160.317 53.7671V51.9453L21.8621 51.9453V53.7671Z" fill="white"/>
<path d="M16.396 51.9451H21.8613V50.1233H16.396V51.9451Z" fill="white"/>
<path d="M12.7529 50.1233H16.3965V48.3015H12.7529V50.1233Z" fill="white"/>
<path d="M9.10937 48.3015H12.7529V46.4797H9.10937V48.3015Z" fill="white"/>
<path d="M7.28711 46.4797H9.10889V44.658H7.28711V46.4797Z" fill="white"/>
<path d="M5.46533 44.6582H7.28711V42.8364H5.46533V44.6582Z" fill="white"/>
<path d="M3.64355 42.8362H5.46533V41.0144H3.64355V42.8362Z" fill="white"/>
<path d="M1.82226 41.0142H3.64404L3.64404 37.3706H1.82226L1.82226 41.0142Z" fill="white"/>
<path d="M-3.33786e-06 37.3713H1.82178L1.82178 17.3318H-3.33786e-06L-3.33786e-06 37.3713Z" fill="white"/>
</svg>
