<svg xmlns="http://www.w3.org/2000/svg" viewBox="0 0 63 117"><g id="레이어_2" data-name="레이어 2"><g id="레이어_1-2" data-name="레이어 1"><polygon points="54 54 54 63 45 63 45 72 36 72 36 81 27 81 27 90 18 90 18 99 9 99 9 18 18 18 18 27 27 27 27 36 36 36 36 45 45 45 45 54 54 54"/><rect x="54" y="54" width="9" height="9"/><rect x="45" y="63" width="9" height="9"/><rect x="45" y="45" width="9" height="9"/><rect x="36" y="72" width="9" height="9"/><rect x="36" y="36" width="9" height="9"/><rect x="27" y="81" width="9" height="9"/><rect x="27" y="27" width="9" height="9"/><rect x="18" y="90" width="9" height="9"/><rect x="18" y="18" width="9" height="9"/><rect x="9" y="99" width="9" height="9"/><rect x="9" y="9" width="9" height="9"/><rect y="108" width="9" height="9"/><polygon points="9 99 9 108 0 108 0 0 9 0 9 9 9 18 9 99"/></g></g></svg>