<svg xmlns="http://www.w3.org/2000/svg" viewBox="0 0 711 124.46"><defs><style>.cls-1{fill:#fff;}</style></defs><g id="레이어_2" data-name="레이어 2"><g id="레이어_1-2" data-name="레이어 1"><polygon points="702.92 24.1 686.92 24.1 686.92 13.95 670.82 13.95 670.82 8.1 40.2 8.1 40.2 13.95 24.11 13.95 24.11 24.1 8.11 24.1 8.11 100.27 24.11 100.27 24.11 111.72 40.2 111.72 40.2 116.36 670.82 116.36 670.82 111.72 686.92 111.72 686.92 100.27 702.92 100.27 702.92 24.1"/><rect class="cls-1" x="40.18" width="630.53" height="8.1"/><rect class="cls-1" x="40.08" y="116.36" width="630.63" height="8.1"/><rect class="cls-1" x="670.81" y="8.1" width="16.19" height="8.1" transform="translate(1357.81 24.29) rotate(-180)"/><rect class="cls-1" x="23.99" y="8.1" width="16.19" height="8.1" transform="translate(64.17 24.29) rotate(-180)"/><rect class="cls-1" x="23.99" y="108.36" width="16.19" height="8.1" transform="translate(64.17 224.82) rotate(-180)"/><rect class="cls-1" x="686.9" y="16.1" width="8.1" height="8.1" transform="translate(1381.9 40.29) rotate(-180)"/><rect class="cls-1" x="694.9" y="24.1" width="8.1" height="8.1" transform="translate(1397.9 56.29) rotate(-180)"/><rect class="cls-1" x="702.9" y="32.1" width="8.1" height="60.1" transform="translate(1413.9 124.29) rotate(-180)"/><rect class="cls-1" x="670.81" y="108.27" width="16.19" height="8.1" transform="translate(1357.81 224.63) rotate(-180)"/><rect class="cls-1" x="686.9" y="100.27" width="8.1" height="8.1" transform="translate(1381.9 208.63) rotate(-180)"/><rect class="cls-1" x="694.9" y="92.27" width="8.1" height="8.1" transform="translate(1397.9 192.63) rotate(-180)"/><rect class="cls-1" x="16" y="16.1" width="8.1" height="8.1"/><rect class="cls-1" x="8" y="24.1" width="8.1" height="8.1"/><rect class="cls-1" y="32.1" width="8.1" height="60.1"/><rect class="cls-1" x="16" y="100.27" width="8.1" height="8.1"/><rect class="cls-1" x="8" y="92.27" width="8.1" height="8.1"/></g></g></svg>