<svg width="280" height="50" viewBox="0 0 280 50" fill="none" xmlns="http://www.w3.org/2000/svg">
<path d="M276.814 10.403H270.513V6.40585H264.173V4.10205H15.8229V6.40585H9.49044V10.403H3.18945V40.3997H9.49044V44.9088H15.8229V46.7361H264.173V44.9088H270.513V40.3997H276.814V10.403Z" fill="black" fill-opacity="0.8"/>
<path d="M264.133 0.912109H15.8223V4.10199H264.133V0.912109Z" fill="white"/>
<path d="M264.133 46.7358H15.7832V49.9257H264.133V46.7358Z" fill="white"/>
<path d="M264.173 7.28809L270.549 7.28809V4.09821L264.173 4.09821V7.28809Z" fill="white"/>
<path d="M9.44645 7.28809L15.8223 7.28809V4.09821L9.44645 4.09821V7.28809Z" fill="white"/>
<path d="M9.44645 46.7754H15.8223V43.5855H9.44645V46.7754Z" fill="white"/>
<path d="M270.509 10.438H273.699V7.24811H270.509V10.438Z" fill="white"/>
<path d="M273.66 13.5889H276.85V10.399H273.66V13.5889Z" fill="white"/>
<path d="M276.81 37.2173H280V13.5492H276.81V37.2173Z" fill="white"/>
<path d="M264.173 46.7358H270.549V43.546H264.173V46.7358Z" fill="white"/>
<path d="M270.509 43.5859H273.699V40.3961H270.509V43.5859Z" fill="white"/>
<path d="M273.66 40.4346H276.85V37.2447H273.66V40.4346Z" fill="white"/>
<path d="M9.49066 7.25244H6.30078V10.4423H9.49066V7.25244Z" fill="white"/>
<path d="M6.34027 10.4028H3.15039V13.5927H6.34027V10.4028Z" fill="white"/>
<path d="M3.18988 13.5537H0V37.2218H3.18988V13.5537Z" fill="white"/>
<path d="M9.49066 40.3994H6.30078V43.5893H9.49066V40.3994Z" fill="white"/>
<path d="M6.34027 37.249H3.15039V40.4389H6.34027V37.249Z" fill="white"/>
<path d="M46.528 23.9296V22.478H52.3347V19.5746H53.7863V16.6713H55.238V19.5746H56.6897V22.478H62.4963V23.9296H61.0447V25.3813H59.593V26.833H58.1413V28.2846H59.593V32.6396H58.1413V31.188H56.6897V29.7363H55.238V28.2846H56.6897V25.3813H58.1413V23.9296H55.238V21.0263H53.7863V23.9296H50.883V25.3813H52.3347V28.2846H53.7863V29.7363H52.3347V31.188H50.883V32.6396H49.4313V28.2846H50.883V26.833H49.4313V25.3813H47.9797V23.9296H46.528ZM55.238 26.833V28.2846H53.7863V26.833H55.238ZM71.212 26.833V23.9296H79.922V26.833H71.212ZM81.368 26.833V23.9296H90.078V26.833H81.368ZM91.524 26.833V23.9296H100.234V26.833H91.524ZM108.944 32.6396V16.6713H117.654V18.123H119.106V31.188H117.654V32.6396H108.944ZM116.202 29.7363V19.5746H111.847V29.7363H116.202ZM120.563 31.188V22.478H122.015V21.0263H129.273V22.478H130.725V28.2846H123.466V29.7363H130.725V32.6396H122.015V31.188H120.563ZM123.466 25.3813H127.821V23.9296H123.466V25.3813ZM132.182 29.7363H137.989V28.2846H133.634V26.833H132.182V22.478H133.634V21.0263H140.892V23.9296H135.085V25.3813H139.44V26.833H140.892V31.188H139.44V32.6396H132.182V29.7363ZM142.338 32.6396V21.0263H145.241V32.6396H142.338ZM142.338 19.5746V16.6713H145.241V19.5746H142.338ZM146.693 29.7363V22.478H148.145V21.0263H152.5V22.478H153.951V21.0263H156.855V34.0913H155.403V35.543H148.145V32.6396H153.951V29.7363H152.5V31.188H148.145V29.7363H146.693ZM149.596 28.2846H152.5V26.833H153.951V25.3813H152.5V23.9296H149.596V28.2846ZM158.312 32.6396V21.0263H161.215V22.478H162.667V21.0263H167.022V22.478H168.474V32.6396H165.57V23.9296H162.667V25.3813H161.215V32.6396H158.312ZM177.195 26.833V23.9296H185.905V26.833H177.195ZM187.351 26.833V23.9296H196.061V26.833H187.351ZM197.507 26.833V23.9296H206.217V26.833H197.507ZM214.927 23.9296V22.478H220.734V19.5746H222.185V16.6713H223.637V19.5746H225.089V22.478H230.895V23.9296H229.444V25.3813H227.992V26.833H226.54V28.2846H227.992V32.6396H226.54V31.188H225.089V29.7363H223.637V28.2846H225.089V25.3813H226.54V23.9296H223.637V21.0263H222.185V23.9296H219.282V25.3813H220.734V28.2846H222.185V29.7363H220.734V31.188H219.282V32.6396H217.83V28.2846H219.282V26.833H217.83V25.3813H216.379V23.9296H214.927ZM223.637 26.833V28.2846H222.185V26.833H223.637Z" fill="white"/>
</svg>
