<svg width="281" height="51" viewBox="0 0 281 51" fill="none" xmlns="http://www.w3.org/2000/svg">
<path d="M277.803 10.4368H271.479V6.42531H265.116V4.11328H15.8798V6.42531H9.52466V10.4368H3.20117V40.5405H9.52466V45.0658H15.8798V46.8996H265.116V45.0658H271.479V40.5405H277.803V10.4368Z" fill="black" fill-opacity="0.8"/>
<path d="M265.077 0.912109H15.8799V4.11338H265.077V0.912109Z" fill="white"/>
<path d="M265.076 46.8994H15.8398V50.1007H265.076V46.8994Z" fill="white"/>
<path d="M265.116 7.31055L271.515 7.31055V4.10928L265.116 4.10928V7.31055Z" fill="white"/>
<path d="M9.4813 7.31055L15.8799 7.31055V4.10928L9.4813 4.10928V7.31055Z" fill="white"/>
<path d="M9.4813 46.939H15.8799V43.7377H9.4813V46.939Z" fill="white"/>
<path d="M271.476 10.4722H274.677V7.2709H271.476V10.4722Z" fill="white"/>
<path d="M274.637 13.6343H277.838V10.433H274.637V13.6343Z" fill="white"/>
<path d="M277.799 37.3472H281V13.5946H277.799V37.3472Z" fill="white"/>
<path d="M265.116 46.8994H271.515V43.6981H265.116V46.8994Z" fill="white"/>
<path d="M271.476 43.7383H274.677V40.537H271.476V43.7383Z" fill="white"/>
<path d="M274.637 40.5762H277.838V37.3749H274.637V40.5762Z" fill="white"/>
<path d="M9.52451 7.27539H6.32324V10.4767H9.52451V7.27539Z" fill="white"/>
<path d="M6.36338 10.437H3.16211V13.6383H6.36338V10.437Z" fill="white"/>
<path d="M3.20127 13.5991H0V37.3517H3.20127V13.5991Z" fill="white"/>
<path d="M9.52451 40.5405H6.32324V43.7418H9.52451V40.5405Z" fill="white"/>
<path d="M6.36338 37.3789H3.16211V40.5802H6.36338V37.3789Z" fill="white"/>
<path d="M43.1961 26.8793V25.4278H44.6476V23.9764H46.099V22.5249H47.5505V21.0735H49.0019V19.622H51.9048V22.5249H50.4534V23.9764H49.0019V25.4278H47.5505V26.8793H49.0019V28.3307H50.4534V29.7822H51.9048V32.6851H49.0019V31.2336H47.5505V29.7822H46.099V28.3307H44.6476V26.8793H43.1961ZM75.1393 29.7822H76.5907V28.3307H78.0422V26.8793H79.4936V25.4278H78.0422V23.9764H76.5907V22.5249H75.1393V19.622H78.0422V21.0735H79.4936V22.5249H80.9451V23.9764H82.3965V25.4278H83.848V26.8793H82.3965V28.3307H80.9451V29.7822H79.4936V31.2336H78.0422V32.6851H75.1393V29.7822ZM92.5567 32.6851V16.7191H101.265V18.1706H102.717V25.4278H101.265V26.8793H95.4595V32.6851H92.5567ZM95.4595 23.9764H99.8139V19.622H95.4595V23.9764ZM104.174 31.2336V21.0735H107.077V29.7822H109.98V28.3307H111.431V21.0735H114.334V32.6851H111.431V31.2336H109.98V32.6851H105.625V31.2336H104.174ZM115.791 32.6851V16.7191H118.694V22.5249H120.145V21.0735H124.5V22.5249H125.951V31.2336H124.5V32.6851H120.145V31.2336H118.694V32.6851H115.791ZM118.694 28.3307H120.145V29.7822H123.048V23.9764H120.145V25.4278H118.694V28.3307ZM127.408 32.6851V16.7191H130.311V32.6851H127.408ZM131.763 32.6851V21.0735H134.666V32.6851H131.763ZM131.763 19.622V16.7191H134.666V19.622H131.763ZM136.117 29.7822H141.923V28.3307H137.569V26.8793H136.117V22.5249H137.569V21.0735H144.826V23.9764H139.02V25.4278H143.374V26.8793H144.826V31.2336H143.374V32.6851H136.117V29.7822ZM146.272 32.6851V16.7191H149.174V22.5249H150.626V21.0735H154.98V22.5249H156.432V32.6851H153.529V23.9764H150.626V25.4278H149.174V32.6851H146.272ZM157.889 32.6851V21.0735H160.792V32.6851H157.889ZM157.889 19.622V16.7191H160.792V19.622H157.889ZM162.243 32.6851V21.0735H165.146V22.5249H166.597V21.0735H170.952V22.5249H172.403V32.6851H169.5V23.9764H166.597V25.4278H165.146V32.6851H162.243ZM173.86 29.7822V22.5249H175.312V21.0735H179.666V22.5249H181.118V21.0735H184.02V34.1365H182.569V35.588H175.312V32.6851H181.118V29.7822H179.666V31.2336H175.312V29.7822H173.86ZM176.763 28.3307H179.666V26.8793H181.118V25.4278H179.666V23.9764H176.763V28.3307ZM192.74 26.8793V25.4278H194.192V23.9764H195.643V22.5249H197.095V21.0735H198.546V19.622H201.449V22.5249H199.998V23.9764H198.546V25.4278H197.095V26.8793H198.546V28.3307H199.998V29.7822H201.449V32.6851H198.546V31.2336H197.095V29.7822H195.643V28.3307H194.192V26.8793H192.74ZM210.158 32.6851V28.3307H211.609V25.4278H213.061V22.5249H214.512V19.622H215.964V16.7191H218.867V21.0735H217.415V23.9764H215.964V26.8793H214.512V29.7822H213.061V32.6851H210.158ZM227.575 29.7822H229.027V28.3307H230.478V26.8793H231.93V25.4278H230.478V23.9764H229.027V22.5249H227.575V19.622H230.478V21.0735H231.93V22.5249H233.381V23.9764H234.832V25.4278H236.284V26.8793H234.832V28.3307H233.381V29.7822H231.93V31.2336H230.478V32.6851H227.575V29.7822Z" fill="white"/>
</svg>
