<svg xmlns="http://www.w3.org/2000/svg" viewBox="0 0 63 63"><defs><style>.cls-1{fill:#bcc8fa;}.cls-2{fill:#ff3932;}.cls-3{fill:#324294;}.cls-4{fill:#fff;}.cls-5,.cls-6{fill:#8d96bb;}.cls-5{opacity:0.5;}</style></defs><g id="레이어_2" data-name="레이어 2"><g id="레이어_1-2" data-name="레이어 1"><rect class="cls-1" x="18" width="27" height="9"/><rect class="cls-2" x="18" y="54" width="27" height="9"/><rect class="cls-1" x="-9" y="27" width="27" height="9" transform="translate(-27 36) rotate(-90)"/><rect class="cls-3" x="45" y="27" width="27" height="9" transform="translate(27 90) rotate(-90)"/><rect class="cls-2" x="9" y="9" width="9" height="9"/><rect class="cls-3" x="45" y="9" width="9" height="9"/><rect class="cls-2" x="9" y="45" width="9" height="9"/><rect class="cls-3" x="45" y="45" width="9" height="9"/><rect class="cls-1" x="9" y="9" width="45" height="45"/><rect class="cls-4" x="18" y="18" width="9" height="9"/><rect class="cls-5" x="45" y="27" width="9" height="9" transform="translate(99 63) rotate(180)"/><rect class="cls-5" x="45" y="9" width="9" height="18" transform="translate(99 36) rotate(180)"/><rect class="cls-5" x="36" y="36" width="9" height="9" transform="translate(81 81) rotate(180)"/><rect class="cls-5" x="27" y="45" width="9" height="9" transform="translate(63 99) rotate(180)"/><rect class="cls-5" x="9" y="45" width="18" height="9" transform="translate(36 99) rotate(180)"/><rect class="cls-6" x="45" y="36" width="9" height="9" transform="translate(99 81) rotate(180)"/><rect class="cls-6" x="36" y="45" width="18" height="9"/><rect class="cls-6" x="54" y="36" width="9" height="9"/><rect class="cls-6" x="18" y="54" width="27" height="9"/><rect class="cls-6" x="54" y="18" width="9" height="18"/></g></g></svg>