<svg xmlns="http://www.w3.org/2000/svg" viewBox="0 0 117 162"><defs><style>.cls-1{fill:#e2e2e2;}.cls-2{fill:#f4f4f4;}.cls-3{fill:#fff;}.cls-4{fill:#ffabdf;}.cls-5{fill:#aaa;}.cls-6{fill:#ccc;}.cls-7{fill:#ffcdec;}.cls-8{fill:#eee;}</style></defs><g id="레이어_2" data-name="레이어 2"><g id="레이어_1-2" data-name="레이어 1"><polygon class="cls-1" points="108 117 108 99 99 99 99 90 90 90 90 81 99 81 99 72 108 72 108 18 99 18 99 9 90 9 90 0 72 0 72 9 72 72 63 72 63 81 54 81 54 72 45 72 45 9 45 0 27 0 27 9 18 9 18 18 9 18 9 72 18 72 18 81 27 81 27 90 18 90 18 99 9 99 9 117 0 117 0 144 9 144 9 153 18 153 18 162 67.5 162 76.5 162 78.38 162 99 162 99 153 108 153 108 144 117 144 117 117 108 117"/><polygon class="cls-1" points="99 117 99 90 90 90 90 81 90 54 81 54 81 9 72 9 72 72 63 72 63 81 54 81 54 72 45 72 36 72 36 54 27 54 27 81 27 90 18 90 18 99 9 99 9 117 0 117 0 144 9 144 9 153 18 153 18 144 18 117 90 117 90 126 99 126 99 144 108 144 108 117 99 117"/><rect class="cls-2" x="81" y="9" width="9" height="63"/><rect class="cls-3" x="27" y="9" width="9" height="63"/><rect class="cls-3" x="90" y="9" width="9" height="63"/><rect class="cls-2" x="18" y="18" width="9" height="63"/><rect class="cls-3" x="18" y="117" width="81" height="36"/><rect class="cls-4" x="54" y="117" width="9" height="9"/><rect x="27" y="108" width="9" height="18"/><rect class="cls-1" x="18" y="117" width="9" height="9" transform="translate(45 243) rotate(-180)"/><rect x="81" y="108" width="9" height="18" transform="translate(171 234) rotate(-180)"/><rect class="cls-1" x="18" y="153" width="60.38" height="9"/><rect class="cls-1" x="27" width="18" height="9"/><rect class="cls-5" x="36" y="9" width="9" height="63"/><rect class="cls-1" x="18" y="9" width="9" height="9"/><rect class="cls-5" x="18" y="72" width="9" height="9"/><rect class="cls-1" x="9" y="18" width="9" height="54"/><rect class="cls-1" x="72" width="18" height="9" transform="translate(162 9) rotate(-180)"/><rect class="cls-1" x="90" y="9" width="9" height="9" transform="translate(189 27) rotate(-180)"/><rect class="cls-5" x="90" y="72" width="9" height="9" transform="translate(189 153) rotate(-180)"/><rect class="cls-1" x="90" y="90" width="9" height="9" transform="translate(189 189) rotate(-180)"/><rect class="cls-5" x="99" y="144" width="9" height="9" transform="translate(207 297) rotate(-180)"/><rect class="cls-6" x="67.5" y="153" width="9" height="9" transform="translate(144 315) rotate(-180)"/><rect class="cls-5" x="76.5" y="153" width="22.5" height="9" transform="translate(175.5 315) rotate(-180)"/><rect class="cls-5" x="99" y="99" width="9" height="18" transform="translate(207 216) rotate(-180)"/><rect class="cls-5" x="108" y="117" width="9" height="27" transform="translate(225 261) rotate(-180)"/><rect class="cls-5" x="99" y="18" width="9" height="54" transform="translate(207 90) rotate(-180)"/><rect class="cls-7" x="54" y="117" width="4.5" height="4.5"/><polygon class="cls-8" points="31.5 81 31.5 90 31.5 99 40.5 99 40.5 90 49.5 90 49.5 81 31.5 81"/><rect class="cls-2" x="94.5" y="144" width="4.5" height="9"/><rect class="cls-2" x="18" y="148.5" width="76.5" height="4.5"/><rect class="cls-2" x="94.5" y="126" width="4.5" height="18"/><rect class="cls-3" x="81" y="108" width="4.5" height="4.5"/><rect class="cls-3" x="27" y="108" width="4.5" height="4.5"/><rect class="cls-2" x="81" y="9" width="9" height="63"/><rect class="cls-3" x="27" y="9" width="9" height="63"/><rect class="cls-3" x="90" y="9" width="9" height="63"/><rect class="cls-2" x="18" y="18" width="9" height="63"/><rect class="cls-3" x="18" y="117" width="81" height="36"/><rect class="cls-4" x="54" y="117" width="9" height="9"/><polygon class="cls-1" points="99 117 99 90 90 90 90 81 90 54 81 54 81 9 72 9 72 72 63 72 63 81 54 81 54 72 45 72 36 72 36 54 27 54 27 81 27 90 18 90 18 99 9 99 9 117 0 117 0 144 9 144 9 153 18 153 18 144 18 126 27 126 27 117 90 117 90 126 99 126 99 144 108 144 108 117 99 117"/><rect x="81" y="108" width="9" height="18" transform="translate(171 234) rotate(-180)"/><rect class="cls-1" x="18" y="153" width="60.38" height="9"/><rect class="cls-1" x="27" width="18" height="9"/><rect class="cls-5" x="36" y="9" width="9" height="63"/><rect class="cls-1" x="18" y="9" width="9" height="9"/><rect class="cls-5" x="18" y="72" width="9" height="9"/><rect class="cls-1" x="9" y="18" width="9" height="54"/><rect class="cls-1" x="72" width="18" height="9" transform="translate(162 9) rotate(-180)"/><rect class="cls-1" x="90" y="9" width="9" height="9" transform="translate(189 27) rotate(-180)"/><rect class="cls-5" x="90" y="72" width="9" height="9" transform="translate(189 153) rotate(-180)"/><rect class="cls-1" x="90" y="90" width="9" height="9" transform="translate(189 189) rotate(-180)"/><rect class="cls-5" x="99" y="144" width="9" height="9" transform="translate(207 297) rotate(-180)"/><rect class="cls-6" x="67.5" y="153" width="9" height="9" transform="translate(144 315) rotate(-180)"/><rect class="cls-5" x="76.5" y="153" width="22.5" height="9" transform="translate(175.5 315) rotate(-180)"/><rect class="cls-5" x="99" y="99" width="9" height="18" transform="translate(207 216) rotate(-180)"/><rect class="cls-5" x="108" y="117" width="9" height="27" transform="translate(225 261) rotate(-180)"/><rect class="cls-5" x="99" y="18" width="9" height="54" transform="translate(207 90) rotate(-180)"/><rect class="cls-7" x="54" y="117" width="4.5" height="4.5"/><polygon class="cls-8" points="31.5 81 31.5 90 31.5 99 40.5 99 40.5 90 49.5 90 49.5 81 31.5 81"/><rect class="cls-2" x="94.5" y="144" width="4.5" height="9"/><rect class="cls-2" x="18" y="148.5" width="76.5" height="4.5"/><rect class="cls-2" x="94.5" y="126" width="4.5" height="18"/><rect class="cls-3" x="81" y="108" width="4.5" height="4.5"/><rect x="27" y="108" width="9" height="18"/><rect class="cls-3" x="27" y="108" width="4.5" height="4.5"/></g></g></svg>