<svg xmlns="http://www.w3.org/2000/svg" viewBox="0 0 117 162"><defs><style>.cls-1{fill:#fff;}.cls-2{fill:#f4f4f4;}.cls-3{fill:#e2e2e2;}.cls-4{fill:#ffabdf;}.cls-5,.cls-8{fill:#e0e0e0;}.cls-6{fill:#aaa;}.cls-7{fill:#ccc;}.cls-8{opacity:0.39;}.cls-9{fill:#ffcdec;}.cls-10{fill:#eee;}</style></defs><g id="레이어_2" data-name="레이어 2"><g id="레이어_1-2" data-name="레이어 1"><rect class="cls-1" x="90" y="9" width="9" height="63"/><rect class="cls-2" x="81" y="9" width="9" height="63"/><rect class="cls-2" x="18" y="18" width="9" height="63"/><rect class="cls-1" x="27" y="9" width="9" height="63"/><rect class="cls-1" x="18" y="117" width="81" height="36"/><rect class="cls-3" x="18" y="90" width="81" height="27"/><rect x="54" y="81" width="9" height="9"/><rect class="cls-4" x="54" y="117" width="9" height="9"/><rect x="27" y="108" width="9" height="18"/><rect class="cls-5" x="63" y="81" width="9" height="9" transform="translate(135 171) rotate(-180)"/><rect class="cls-5" x="90" y="117" width="9" height="9" transform="translate(189 243) rotate(-180)"/><rect class="cls-5" x="18" y="117" width="9" height="9" transform="translate(45 243) rotate(-180)"/><rect class="cls-5" x="45" y="81" width="9" height="9" transform="translate(99 171) rotate(-180)"/><rect x="81" y="108" width="9" height="18" transform="translate(171 234) rotate(-180)"/><rect class="cls-3" x="18" y="153" width="60.38" height="9"/><rect class="cls-3" x="27" width="18" height="9"/><rect class="cls-6" x="36" y="9" width="9" height="63"/><rect class="cls-3" x="18" y="9" width="9" height="9"/><rect class="cls-6" x="18" y="72" width="9" height="9"/><rect class="cls-3" x="27" y="81" width="9" height="9"/><rect class="cls-3" x="45" y="72" width="9" height="9"/><rect class="cls-3" x="18" y="90" width="9" height="9"/><rect class="cls-3" x="9" y="144" width="9" height="9"/><rect class="cls-3" x="9" y="99" width="9" height="18"/><rect class="cls-3" y="117" width="9" height="27"/><rect class="cls-3" x="9" y="18" width="9" height="54"/><rect class="cls-3" x="72" width="18" height="9" transform="translate(162 9) rotate(-180)"/><rect class="cls-3" x="72" y="9" width="9" height="63" transform="translate(153 81) rotate(-180)"/><rect class="cls-3" x="90" y="9" width="9" height="9" transform="translate(189 27) rotate(-180)"/><rect class="cls-6" x="90" y="72" width="9" height="9" transform="translate(189 153) rotate(-180)"/><rect class="cls-3" x="81" y="81" width="9" height="9" transform="translate(171 171) rotate(-180)"/><rect class="cls-3" x="63" y="72" width="9" height="9" transform="translate(135 153) rotate(-180)"/><rect class="cls-3" x="54" y="81" width="9" height="11.84" transform="translate(117 173.84) rotate(-180)"/><rect class="cls-3" x="90" y="90" width="9" height="9" transform="translate(189 189) rotate(-180)"/><rect class="cls-6" x="99" y="144" width="9" height="9" transform="translate(207 297) rotate(-180)"/><rect class="cls-7" x="67.5" y="153" width="9" height="9" transform="translate(144 315) rotate(-180)"/><rect class="cls-6" x="76.5" y="153" width="22.5" height="9" transform="translate(175.5 315) rotate(-180)"/><rect class="cls-6" x="99" y="99" width="9" height="18" transform="translate(207 216) rotate(-180)"/><rect class="cls-6" x="108" y="117" width="9" height="27" transform="translate(225 261) rotate(-180)"/><rect class="cls-6" x="99" y="18" width="9" height="54" transform="translate(207 90) rotate(-180)"/><rect class="cls-3" x="27" y="54" width="9" height="27"/><rect class="cls-3" x="81" y="54" width="9" height="27"/><rect class="cls-3" x="72" y="72" width="9" height="18"/><rect class="cls-3" x="99" y="117" width="9" height="27"/><rect class="cls-3" x="9" y="117" width="9" height="27"/><rect class="cls-8" x="45" y="81" width="9" height="9"/><rect class="cls-3" x="36" y="72" width="9" height="18" transform="translate(81 162) rotate(-180)"/><rect class="cls-9" x="54" y="117" width="4.5" height="4.5"/><rect class="cls-10" x="31.5" y="81" width="18" height="9"/><rect class="cls-10" x="31.5" y="90" width="9" height="9"/><rect class="cls-2" x="94.5" y="144" width="4.5" height="9"/><rect class="cls-2" x="18" y="148.5" width="76.5" height="4.5"/><rect class="cls-2" x="94.5" y="126" width="4.5" height="18"/><rect class="cls-1" x="81" y="108" width="4.5" height="4.5"/><rect class="cls-1" x="27" y="108" width="4.5" height="4.5"/></g></g></svg>