<svg width="184" height="53" viewBox="0 0 184 53" fill="none" xmlns="http://www.w3.org/2000/svg">
<path d="M46.9268 32.7598V18.8672H48.4704V17.3236H56.1885V18.8672H57.7321V21.9545H54.6449V20.4109H50.014V31.2162H54.6449V29.6726H57.7321V32.7598H56.1885V34.3035H48.4704V32.7598H46.9268ZM59.2818 32.7598V18.8672H60.8254V17.3236H68.5435V18.8672H70.0871V32.7598H68.5435V34.3035H60.8254V32.7598H59.2818ZM62.369 31.2162H66.9999V20.4109H62.369V31.2162ZM71.6368 34.3035V17.3236H74.724V18.8672H76.2676V21.9545H77.8113V25.0417H79.3549V17.3236H82.4421V34.3035H79.3549V32.7598H77.8113V29.6726H76.2676V26.5854H74.724V34.3035H71.6368ZM83.9918 20.4109V17.3236H96.3408V20.4109H91.7099V34.3035H88.6227V20.4109H83.9918ZM96.3468 34.3035V29.6726H97.8904V25.0417H99.434V20.4109H100.978V17.3236H104.065V20.4109H105.609V25.0417H107.152V29.6726H108.696V34.3035H105.609V31.2162H99.434V34.3035H96.3468ZM100.978 28.129H104.065V25.0417H100.978V28.129ZM110.239 32.7598V18.8672H111.783V17.3236H119.501V18.8672H121.045V21.9545H117.958V20.4109H113.327V31.2162H117.958V29.6726H121.045V32.7598H119.501V34.3035H111.783V32.7598H110.239ZM122.594 20.4109V17.3236H134.943V20.4109H130.313V34.3035H127.225V20.4109H122.594Z" fill="white"/>
<path d="M162.139 0.102539H23.6836V1.92432H162.139V0.102539Z" fill="white"/>
<path d="M167.605 1.92432H162.139V3.7461H167.605V1.92432Z" fill="white"/>
<path d="M171.247 3.74585H167.604V5.56763H171.247V3.74585Z" fill="white"/>
<path d="M174.892 5.56787H171.248V7.38965H174.892V5.56787Z" fill="white"/>
<path d="M176.713 7.3894H174.892V9.21118H176.713V7.3894Z" fill="white"/>
<path d="M178.535 9.21118H176.713V11.033H178.535V9.21118Z" fill="white"/>
<path d="M180.357 11.0327H178.535V12.8545H180.357V11.0327Z" fill="white"/>
<path d="M182.179 12.8547H180.357V16.4983H182.179V12.8547Z" fill="white"/>
<path d="M184 16.498H182.178V36.5376H184V16.498Z" fill="white"/>
<path d="M21.8621 1.92432L160.317 1.92432V0.102536L21.8621 0.102536V1.92432Z" fill="white"/>
<path d="M16.3965 3.74585L21.8618 3.74585V1.92407L16.3965 1.92407V3.74585Z" fill="white"/>
<path d="M12.7534 5.56787L16.397 5.56787V3.74609L12.7534 3.74609V5.56787Z" fill="white"/>
<path d="M9.10937 7.3894L12.7529 7.3894V5.56762H9.10937V7.3894Z" fill="white"/>
<path d="M7.28711 9.21118H9.10889V7.3894H7.28711V9.21118Z" fill="white"/>
<path d="M5.46533 11.0327H7.28711V9.21093H5.46533V11.0327Z" fill="white"/>
<path d="M3.64355 12.8547H5.46533V11.033H3.64355V12.8547Z" fill="white"/>
<path d="M1.82275 16.498H3.64453L3.64453 12.8545H1.82275L1.82275 16.498Z" fill="white"/>
<path d="M0.000484943 36.5378H1.82227L1.82227 16.4983H0.000484943L0.000484943 36.5378Z" fill="white"/>
<path d="M162.139 51.1121H23.6836V52.9338H162.139V51.1121Z" fill="white"/>
<path d="M167.605 49.29H162.139V51.1118H167.605V49.29Z" fill="white"/>
<path d="M171.247 47.4688H167.604V49.2905H171.247V47.4688Z" fill="white"/>
<path d="M174.892 45.6467H171.248V47.4685H174.892V45.6467Z" fill="white"/>
<path d="M176.713 43.825H174.892V45.6467H176.713V43.825Z" fill="white"/>
<path d="M178.535 42.0032H176.713V43.825H178.535V42.0032Z" fill="white"/>
<path d="M180.357 40.1814H178.535V42.0032H180.357V40.1814Z" fill="white"/>
<path d="M182.179 36.5378H180.357V40.1814H182.179V36.5378Z" fill="white"/>
<path d="M184 16.498H182.178V36.5376H184V16.498Z" fill="white"/>
<path d="M21.8621 52.9338L160.317 52.9338V51.1121L21.8621 51.1121V52.9338Z" fill="white"/>
<path d="M16.3965 51.1121H21.8618V49.2903H16.3965V51.1121Z" fill="white"/>
<path d="M12.7534 49.29H16.397V47.4683H12.7534V49.29Z" fill="white"/>
<path d="M9.10937 47.4688H12.7529V45.647H9.10937V47.4688Z" fill="white"/>
<path d="M7.28711 45.6467H9.10889V43.8249H7.28711V45.6467Z" fill="white"/>
<path d="M5.46533 43.825H7.28711V42.0032H5.46533V43.825Z" fill="white"/>
<path d="M3.64355 42.0032H5.46533V40.1814H3.64355V42.0032Z" fill="white"/>
<path d="M1.82275 40.1814H3.64453L3.64453 36.5378H1.82275L1.82275 40.1814Z" fill="white"/>
<path d="M0.000484943 36.5378H1.82227L1.82227 16.4983H0.000484943L0.000484943 36.5378Z" fill="white"/>
<path d="M162.139 0.102539H23.6836V1.92432H162.139V0.102539Z" fill="white"/>
<path d="M167.605 1.92432H162.139V3.7461H167.605V1.92432Z" fill="white"/>
<path d="M171.247 3.74585H167.604V5.56763H171.247V3.74585Z" fill="white"/>
<path d="M174.892 5.56787H171.248V7.38965H174.892V5.56787Z" fill="white"/>
<path d="M176.713 7.3894H174.892V9.21118H176.713V7.3894Z" fill="white"/>
<path d="M178.535 9.21118H176.713V11.033H178.535V9.21118Z" fill="white"/>
<path d="M180.357 11.0327H178.535V12.8545H180.357V11.0327Z" fill="white"/>
<path d="M182.179 12.8547H180.357V16.4983H182.179V12.8547Z" fill="white"/>
<path d="M184 16.498H182.178V36.5376H184V16.498Z" fill="white"/>
<path d="M21.8621 1.92432L160.317 1.92432V0.102536L21.8621 0.102536V1.92432Z" fill="white"/>
<path d="M16.3965 3.74585L21.8618 3.74585V1.92407L16.3965 1.92407V3.74585Z" fill="white"/>
<path d="M12.7534 5.56787L16.397 5.56787V3.74609L12.7534 3.74609V5.56787Z" fill="white"/>
<path d="M9.10937 7.3894L12.7529 7.3894V5.56762H9.10937V7.3894Z" fill="white"/>
<path d="M7.28711 9.21118H9.10889V7.3894H7.28711V9.21118Z" fill="white"/>
<path d="M5.46533 11.0327H7.28711V9.21093H5.46533V11.0327Z" fill="white"/>
<path d="M3.64355 12.8547H5.46533V11.033H3.64355V12.8547Z" fill="white"/>
<path d="M1.82275 16.498H3.64453L3.64453 12.8545H1.82275L1.82275 16.498Z" fill="white"/>
<path d="M0.000484943 36.5378H1.82227L1.82227 16.4983H0.000484943L0.000484943 36.5378Z" fill="white"/>
<path d="M162.139 51.1121H23.6836V52.9338H162.139V51.1121Z" fill="white"/>
<path d="M167.605 49.29H162.139V51.1118H167.605V49.29Z" fill="white"/>
<path d="M171.247 47.4688H167.604V49.2905H171.247V47.4688Z" fill="white"/>
<path d="M174.892 45.6467H171.248V47.4685H174.892V45.6467Z" fill="white"/>
<path d="M176.713 43.825H174.892V45.6467H176.713V43.825Z" fill="white"/>
<path d="M178.535 42.0032H176.713V43.825H178.535V42.0032Z" fill="white"/>
<path d="M180.357 40.1814H178.535V42.0032H180.357V40.1814Z" fill="white"/>
<path d="M182.179 36.5378H180.357V40.1814H182.179V36.5378Z" fill="white"/>
<path d="M184 16.498H182.178V36.5376H184V16.498Z" fill="white"/>
<path d="M21.8621 52.9338L160.317 52.9338V51.1121L21.8621 51.1121V52.9338Z" fill="white"/>
<path d="M16.3965 51.1121H21.8618V49.2903H16.3965V51.1121Z" fill="white"/>
<path d="M12.7534 49.29H16.397V47.4683H12.7534V49.29Z" fill="white"/>
<path d="M9.10937 47.4688H12.7529V45.647H9.10937V47.4688Z" fill="white"/>
<path d="M7.28711 45.6467H9.10889V43.8249H7.28711V45.6467Z" fill="white"/>
<path d="M5.46533 43.825H7.28711V42.0032H5.46533V43.825Z" fill="white"/>
<path d="M3.64355 42.0032H5.46533V40.1814H3.64355V42.0032Z" fill="white"/>
<path d="M1.82275 40.1814H3.64453L3.64453 36.5378H1.82275L1.82275 40.1814Z" fill="white"/>
<path d="M0.000484943 36.5378H1.82227L1.82227 16.4983H0.000484943L0.000484943 36.5378Z" fill="white"/>
</svg>
