<svg width="111" height="29" viewBox="0 0 111 29" fill="none" xmlns="http://www.w3.org/2000/svg">
<path fill-rule="evenodd" clip-rule="evenodd" d="M0 26.9166V2.16658H2.08333V0.083252H18.5V2.16658H20.5833V6.33325H52.1077V2.16658H62.2744V6.33325H78.9411V8.41658H79.1829V6.33325H95.8577V2.16658H106.024V6.33325H110.191V16.4999H106.024V18.8333H110.191V28.9999H97.9411V26.9166H95.5996V28.9999H54.1911V26.9166H53.9329V28.9999H43.7663V18.5833H43.5163V28.9999H18.7581V26.9166H18.5V28.9999H2.08333V26.9166H0ZM17.5833 23.9166V19.7499H13.4167V21.8333H7.16667V7.24992H13.4167V9.33325H17.5833V5.16658H15.5V3.08325H5.08333V5.16658H3V23.9166H5.08333V25.9999H15.5V23.9166H17.5833ZM19.6748 11.4166V23.9166H21.7581V25.9999H32.1748V23.9166H34.2581V11.4166H32.1748V9.33325H21.7581V11.4166H19.6748ZM23.8415 21.8333H30.0915V13.4999H23.8415V21.8333ZM26.8415 18.8333H27.0915V16.4999H26.8415V18.8333ZM36.3496 9.33325V25.9999H40.5163V15.5833H42.5996V13.4999H46.7663V25.9999H50.9329V11.4166H48.8496V9.33325H42.5996V11.4166H40.5163V9.33325H36.3496ZM53.0244 9.33325V13.4999H55.1077V23.9166H57.1911V25.9999H63.4411V21.8333H59.2744V13.4999H63.4411V9.33325H59.2744V5.16658H55.1077V9.33325H53.0244ZM62.5244 16.4999H62.2744V18.8333H62.5244V16.4999ZM65.5244 23.9166H67.6077V25.9999H78.0244V11.4166H75.9411V9.33325H65.5244V13.4999H73.8577V15.5833H67.6077V17.6666H65.5244V23.9166ZM69.6911 21.8333H73.8577V19.7499H69.6911V21.8333ZM82.1829 23.9166V25.9999H92.5996V23.9166H94.6829V19.7499H90.5163V21.8333H84.2663V13.4999H90.5163V15.5833H94.6829V11.4166H92.5996V9.33325H82.1829V11.4166H80.0996V23.9166H82.1829ZM96.7744 9.33325V13.4999H98.8577V23.9166H100.941V25.9999H107.191V21.8333H103.024V13.4999H107.191V9.33325H103.024V5.16658H98.8577V9.33325H96.7744ZM87.5163 16.4999H87.2663V18.8333H87.5163V16.4999ZM16.6748 16.7499V12.3333H10.4167V10.2499H10.1667V18.8333H10.4167V16.7499H16.6748Z" fill="white"/>
</svg>
