<svg width="41" height="22" viewBox="0 0 41 22" fill="none" xmlns="http://www.w3.org/2000/svg">
<g clip-path="url(#clip0_58_9896)">
<path d="M22.077 18.8571L18.9232 18.8571L18.9232 15.7143L15.7693 15.7143L15.7693 12.5714L12.6155 12.5714L12.6155 9.42854L9.46161 9.42854L9.46161 6.28568L6.30777 6.28568L6.30777 3.14282L34.6924 3.14282L34.6924 6.28568L31.5385 6.28568L31.5385 9.42854L28.3847 9.42854L28.3847 12.5714L25.2308 12.5714L25.2308 15.7143L22.077 15.7143L22.077 18.8571Z" fill="white"/>
<path d="M22.0771 22L22.0771 18.8572L18.9233 18.8572L18.9233 22L22.0771 22Z" fill="white"/>
<path d="M18.9229 18.8572L18.9229 15.7144L15.769 15.7144L15.769 18.8572L18.9229 18.8572Z" fill="white"/>
<path d="M25.231 18.8572L25.231 15.7144L22.0771 15.7144L22.0771 18.8572L25.231 18.8572Z" fill="white"/>
<path d="M15.769 15.7144L15.769 12.5715L12.6152 12.5715L12.6152 15.7144L15.769 15.7144Z" fill="white"/>
<path d="M28.3848 15.7144L28.3848 12.5715L25.2309 12.5715L25.2309 15.7144L28.3848 15.7144Z" fill="white"/>
<path d="M12.6152 12.5713L12.6152 9.42847L9.46139 9.42847L9.46139 12.5713L12.6152 12.5713Z" fill="white"/>
<path d="M31.5386 12.5713L31.5386 9.42847L28.3847 9.42847L28.3847 12.5713L31.5386 12.5713Z" fill="white"/>
<path d="M9.46143 9.4285L9.46143 6.28564L6.30758 6.28564L6.30758 9.4285L9.46143 9.4285Z" fill="white"/>
<path d="M34.6924 9.4285L34.6924 6.28564L31.5385 6.28564L31.5385 9.4285L34.6924 9.4285Z" fill="white"/>
<path d="M6.30762 6.28568L6.30762 3.14282L3.15377 3.14282L3.15377 6.28568L6.30762 6.28568Z" fill="white"/>
<path d="M37.8462 6.28568L37.8462 3.14282L34.6923 3.14282L34.6923 6.28568L37.8462 6.28568Z" fill="white"/>
<path d="M3.15381 3.14286L3.15381 0L-3.76701e-05 -1.37859e-07L-3.78075e-05 3.14286L3.15381 3.14286Z" fill="white"/>
<path d="M6.30769 3.14286L3.15385 3.14286L3.15385 -1.65431e-06L41 0L41 3.14286L37.8462 3.14286L34.6923 3.14286L6.30769 3.14286Z" fill="white"/>
</g>
<defs>
<clipPath id="clip0_58_9896">
<rect width="22" height="41" fill="white" transform="translate(41) rotate(90)"/>
</clipPath>
</defs>
</svg>
