<svg xmlns="http://www.w3.org/2000/svg" viewBox="0 0 216 243"><defs><style>.cls-1{fill:#fe546e;}.cls-2{fill:#fefff9;}.cls-3{fill:#000105;}.cls-4{fill:#ef334b;}.cls-5{fill:#d2d3d5;}.cls-6{fill:#fffffd;}</style></defs><g id="레이어_2" data-name="레이어 2"><g id="레이어_1-2" data-name="레이어 1"><polygon class="cls-1" points="202.5 162 202.5 175.5 189 175.5 189 189 189 202.5 175.5 202.5 175.5 216 162 216 162 229.5 148.5 229.5 108 229.5 67.5 229.5 54 229.5 54 216 40.5 216 40.5 202.5 27 202.5 27 189 27 175.5 13.5 175.5 13.5 162 13.5 148.5 13.5 135 13.5 121.5 13.5 108 13.5 94.5 27 94.5 27 81 27 67.5 40.5 67.5 40.5 54 40.5 40.5 54 40.5 54 27 67.5 27 67.5 13.5 108 13.5 148.5 13.5 148.5 27 162 27 162 40.5 175.5 40.5 175.5 54 175.5 67.5 189 67.5 189 81 189 94.5 202.5 94.5 202.5 108 202.5 121.5 202.5 135 202.5 148.5 202.5 162"/><rect class="cls-1" x="202.5" y="162" width="13.5" height="13.5"/><rect class="cls-1" x="202.5" y="148.5" width="13.5" height="13.5"/><rect class="cls-1" x="202.5" y="135" width="13.5" height="13.5"/><rect class="cls-1" x="202.5" y="121.5" width="13.5" height="13.5"/><rect class="cls-1" x="202.5" y="108" width="13.5" height="13.5"/><rect class="cls-1" x="202.5" y="94.5" width="13.5" height="13.5"/><rect class="cls-1" x="189" y="189" width="13.5" height="13.5"/><rect class="cls-1" x="189" y="175.5" width="13.5" height="13.5"/><rect class="cls-1" x="189" y="81" width="13.5" height="13.5"/><rect class="cls-1" x="189" y="67.5" width="13.5" height="13.5"/><rect class="cls-1" x="175.5" y="202.5" width="13.5" height="13.5"/><rect class="cls-1" x="175.5" y="54" width="13.5" height="13.5"/><rect class="cls-1" x="175.5" y="40.5" width="13.5" height="13.5"/><rect class="cls-1" x="162" y="216" width="13.5" height="13.5"/><rect class="cls-1" x="162" y="27" width="13.5" height="13.5"/><rect class="cls-1" x="148.5" y="229.5" width="13.5" height="13.5"/><rect class="cls-1" x="148.5" y="13.5" width="13.5" height="13.5"/><rect class="cls-1" x="108" y="229.5" width="40.5" height="13.5"/><rect class="cls-1" x="108" width="40.5" height="13.5"/><rect class="cls-1" x="67.5" y="229.5" width="40.5" height="13.5"/><rect class="cls-1" x="67.5" width="40.5" height="13.5"/><rect class="cls-1" x="54" y="229.5" width="13.5" height="13.5"/><rect class="cls-1" x="54" y="13.5" width="13.5" height="13.5"/><rect class="cls-1" x="40.5" y="216" width="13.5" height="13.5"/><rect class="cls-1" x="40.5" y="27" width="13.5" height="13.5"/><rect class="cls-1" x="27" y="202.5" width="13.5" height="13.5"/><rect class="cls-1" x="27" y="54" width="13.5" height="13.5"/><rect class="cls-1" x="27" y="40.5" width="13.5" height="13.5"/><rect class="cls-1" x="13.5" y="189" width="13.5" height="13.5"/><rect class="cls-1" x="13.5" y="175.5" width="13.5" height="13.5"/><rect class="cls-1" x="13.5" y="81" width="13.5" height="13.5"/><rect class="cls-1" x="13.5" y="67.5" width="13.5" height="13.5"/><rect class="cls-1" y="162" width="13.5" height="13.5"/><rect class="cls-1" y="148.5" width="13.5" height="13.5"/><rect class="cls-1" y="135" width="13.5" height="13.5"/><rect class="cls-1" y="121.5" width="13.5" height="13.5"/><rect class="cls-1" y="108" width="13.5" height="13.5"/><rect class="cls-1" y="94.5" width="13.5" height="13.5"/><rect class="cls-2" x="72" y="27" width="13.5" height="13.5"/><rect class="cls-2" x="58.5" y="40.5" width="13.5" height="13.5"/><rect class="cls-2" x="58.5" y="54" width="13.5" height="13.5"/><rect class="cls-2" x="45" y="67.5" width="13.5" height="13.5"/><rect class="cls-3" x="67.5" width="40.5" height="13.5"/><rect class="cls-3" x="67.5" y="229.5" width="40.5" height="13.5"/><rect class="cls-3" x="54" y="13.5" width="13.5" height="13.5"/><rect class="cls-3" x="40.5" y="27" width="13.5" height="13.5"/><rect class="cls-3" x="27" y="40.5" width="13.5" height="13.5"/><rect class="cls-3" x="27" y="54" width="13.5" height="13.5"/><rect class="cls-3" x="13.5" y="67.5" width="13.5" height="13.5"/><rect class="cls-3" x="13.5" y="81" width="13.5" height="13.5"/><rect class="cls-3" y="94.5" width="13.5" height="13.5"/><rect class="cls-3" y="108" width="13.5" height="13.5"/><rect class="cls-3" y="121.5" width="13.5" height="13.5"/><rect class="cls-3" y="135" width="13.5" height="13.5"/><rect class="cls-3" y="148.5" width="13.5" height="13.5"/><rect class="cls-3" y="162" width="13.5" height="13.5"/><rect class="cls-3" x="13.5" y="175.5" width="13.5" height="13.5"/><rect class="cls-3" x="13.5" y="189" width="13.5" height="13.5"/><rect class="cls-3" x="27" y="202.5" width="13.5" height="13.5"/><rect class="cls-3" x="40.5" y="216" width="13.5" height="13.5"/><rect class="cls-3" x="54" y="229.5" width="13.5" height="13.5"/><rect class="cls-3" x="108" width="40.5" height="13.5"/><rect class="cls-3" x="108" y="229.5" width="40.5" height="13.5"/><rect class="cls-3" x="148.5" y="13.5" width="13.5" height="13.5"/><rect class="cls-3" x="162" y="27" width="13.5" height="13.5"/><rect class="cls-3" x="175.5" y="40.5" width="13.5" height="13.5"/><rect class="cls-3" x="175.5" y="54" width="13.5" height="13.5"/><rect class="cls-3" x="189" y="67.5" width="13.5" height="13.5"/><rect class="cls-3" x="189" y="81" width="13.5" height="13.5"/><rect class="cls-3" x="202.5" y="94.5" width="13.5" height="13.5"/><rect class="cls-3" x="202.5" y="108" width="13.5" height="13.5"/><rect class="cls-3" x="202.5" y="121.5" width="13.5" height="13.5"/><rect class="cls-3" x="202.5" y="135" width="13.5" height="13.5"/><rect class="cls-3" x="202.5" y="148.5" width="13.5" height="13.5"/><rect class="cls-3" x="202.5" y="162" width="13.5" height="13.5"/><rect class="cls-3" x="189" y="175.5" width="13.5" height="13.5"/><rect class="cls-3" x="189" y="189" width="13.5" height="13.5"/><rect class="cls-3" x="175.5" y="202.5" width="13.5" height="13.5"/><rect class="cls-3" x="162" y="216" width="13.5" height="13.5"/><rect class="cls-3" x="148.5" y="229.5" width="13.5" height="13.5"/><rect class="cls-4" x="13.5" y="162" width="13.5" height="13.5"/><rect class="cls-4" x="27" y="175.5" width="13.5" height="13.5"/><rect class="cls-4" x="27" y="189" width="13.5" height="13.5"/><rect class="cls-4" x="40.5" y="202.5" width="13.5" height="13.5"/><rect class="cls-4" x="40.5" y="189" width="13.5" height="13.5"/><rect class="cls-4" x="54" y="202.5" width="13.5" height="13.5"/><rect class="cls-4" x="54" y="216" width="108" height="13.5"/><rect class="cls-4" x="135" y="13.5" width="13.5" height="13.5"/><rect class="cls-4" x="148.5" y="27" width="13.5" height="13.5"/><rect class="cls-4" x="162" y="40.5" width="13.5" height="13.5"/><rect class="cls-4" x="162" y="54" width="13.5" height="13.5"/><rect class="cls-4" x="175.5" y="67.5" width="13.5" height="13.5"/><rect class="cls-4" x="175.5" y="81" width="13.5" height="13.5"/><rect class="cls-4" x="189" y="162" width="13.5" height="13.5"/><rect class="cls-4" x="189" y="148.5" width="13.5" height="13.5"/><rect class="cls-4" x="148.5" y="202.5" width="13.5" height="13.5"/><rect class="cls-4" x="135" y="202.5" width="13.5" height="13.5"/><rect class="cls-4" x="148.5" y="189" width="13.5" height="13.5"/><rect class="cls-4" x="175.5" y="189" width="13.5" height="13.5"/><rect class="cls-4" x="175.5" y="175.5" width="13.5" height="13.5"/><rect class="cls-4" x="175.5" y="162" width="13.5" height="13.5"/><rect class="cls-4" x="162" y="202.5" width="13.5" height="13.5"/><rect class="cls-4" x="162" y="189" width="13.5" height="13.5"/><rect class="cls-4" x="162" y="175.5" width="13.5" height="13.5"/><rect class="cls-3" x="27" y="94.5" width="13.5" height="13.5" transform="translate(67.5 202.5) rotate(-180)"/><rect class="cls-3" x="40.5" y="108" width="13.5" height="13.5" transform="translate(94.5 229.5) rotate(-180)"/><rect class="cls-3" x="54" y="121.5" width="13.5" height="13.5" transform="translate(121.5 256.5) rotate(-180)"/><rect class="cls-3" x="81" y="94.5" width="13.5" height="13.5" transform="translate(175.5 202.5) rotate(-180)"/><rect class="cls-3" x="94.5" y="108" width="13.5" height="13.5" transform="translate(202.5 229.5) rotate(-180)"/><rect class="cls-3" x="108" y="121.5" width="13.5" height="13.5" transform="translate(229.5 256.5) rotate(-180)"/><rect class="cls-3" x="148.5" y="108" width="13.5" height="13.5" transform="translate(310.5 229.5) rotate(-180)"/><rect class="cls-3" x="162" y="121.5" width="13.5" height="13.5" transform="translate(337.5 256.5) rotate(-180)"/><rect class="cls-3" x="67.5" y="108" width="13.5" height="13.5"/><rect class="cls-3" x="135" y="94.5" width="13.5" height="13.5" transform="translate(283.5 202.5) rotate(-180)"/><rect class="cls-3" x="121.5" y="108" width="13.5" height="13.5"/><rect class="cls-3" x="189" y="94.5" width="13.5" height="13.5" transform="translate(391.5 202.5) rotate(-180)"/><rect class="cls-3" x="175.5" y="108" width="13.5" height="13.5"/><rect class="cls-3" x="27" y="135" width="13.5" height="13.5" transform="translate(67.5 283.5) rotate(-180)"/><rect class="cls-3" x="13.5" y="121.5" width="13.5" height="13.5" transform="translate(40.5 256.5) rotate(-180)"/><rect class="cls-3" x="40.5" y="148.5" width="13.5" height="13.5" transform="translate(94.5 310.5) rotate(-180)"/><rect class="cls-3" x="54" y="162" width="13.5" height="13.5" transform="translate(121.5 337.5) rotate(-180)"/><rect class="cls-3" x="81" y="135" width="13.5" height="13.5" transform="translate(175.5 283.5) rotate(-180)"/><rect class="cls-3" x="94.5" y="148.5" width="13.5" height="13.5" transform="translate(202.5 310.5) rotate(-180)"/><rect class="cls-3" x="108" y="162" width="13.5" height="13.5" transform="translate(229.5 337.5) rotate(-180)"/><rect class="cls-3" x="148.5" y="148.5" width="13.5" height="13.5" transform="translate(310.5 310.5) rotate(-180)"/><rect class="cls-3" x="162" y="162" width="13.5" height="13.5" transform="translate(337.5 337.5) rotate(-180)"/><rect class="cls-3" x="67.5" y="148.5" width="13.5" height="13.5"/><rect class="cls-3" x="135" y="135" width="13.5" height="13.5" transform="translate(283.5 283.5) rotate(-180)"/><rect class="cls-3" x="121.5" y="148.5" width="13.5" height="13.5"/><rect class="cls-3" x="189" y="135" width="13.5" height="13.5" transform="translate(391.5 283.5) rotate(-180)"/><rect class="cls-3" x="175.5" y="148.5" width="13.5" height="13.5"/><rect class="cls-5" x="162" y="148.5" width="13.5" height="13.5"/><rect class="cls-5" x="175.5" y="135" width="13.5" height="13.5"/><rect class="cls-5" x="189" y="121.5" width="13.5" height="13.5"/><rect class="cls-5" x="189" y="108" width="13.5" height="13.5"/><rect class="cls-5" x="175.5" y="121.5" width="13.5" height="13.5"/><rect class="cls-6" x="162" y="135" width="13.5" height="13.5" transform="translate(337.5 283.5) rotate(-180)"/><rect class="cls-6" x="13.5" y="94.5" width="13.5" height="27"/><rect class="cls-6" x="27" y="108" width="13.5" height="27"/><rect class="cls-6" x="40.5" y="121.5" width="13.5" height="27"/><rect class="cls-6" x="54" y="135" width="13.5" height="27"/><rect class="cls-6" x="67.5" y="121.5" width="13.5" height="27"/><rect class="cls-6" x="81" y="108" width="13.5" height="27"/><rect class="cls-6" x="94.5" y="121.5" width="13.5" height="27"/><rect class="cls-6" x="108" y="135" width="13.5" height="27"/><rect class="cls-6" x="121.5" y="121.5" width="13.5" height="27"/><rect class="cls-6" x="135" y="108" width="13.5" height="27"/><rect class="cls-6" x="148.5" y="121.5" width="13.5" height="27"/></g></g></svg>