<svg xmlns="http://www.w3.org/2000/svg" viewBox="0 0 1075.5 1183.5"><defs><style>.cls-1{fill:#fff;}.cls-2{fill:#222;}.cls-3{fill:#d9d9d9;}.cls-4{fill:#b8b8b8;}</style></defs><g id="레이어_2" data-name="레이어 2"><g id="레이어_1-2" data-name="레이어 1"><rect class="cls-1" x="171" y="207" width="751.5" height="778.5"/><rect class="cls-1" x="108" y="67.5" width="859.5" height="81"/><rect class="cls-1" x="108" y="1039.5" width="859.5" height="81"/><rect class="cls-2" x="108" y="864" width="36" height="36"/><rect class="cls-2" x="72" width="36" height="36"/><rect class="cls-2" x="72" y="36" width="36" height="180"/><rect class="cls-2" x="36" y="36" width="36" height="36"/><rect class="cls-2" y="72" width="36" height="36"/><rect class="cls-2" y="108" width="36" height="36"/><rect class="cls-2" x="36" y="144" width="36" height="36"/><rect class="cls-2" x="72" y="972" width="36" height="36"/><rect class="cls-2" x="72" y="1008" width="36" height="175.5"/><rect class="cls-2" x="36" y="1008" width="36" height="36"/><rect class="cls-2" y="1044" width="36" height="36"/><rect class="cls-2" y="1080" width="36" height="36"/><rect class="cls-2" x="36" y="1116" width="36" height="36"/><rect class="cls-2" x="108" y="324" width="36" height="36"/><rect class="cls-2" x="108" y="288" width="36" height="36"/><rect class="cls-2" x="72" y="396" width="36" height="36"/><rect class="cls-2" x="72" y="432" width="36" height="36"/><rect class="cls-2" x="72" y="360" width="36" height="36"/><rect class="cls-2" x="108" y="504" width="36" height="36"/><rect class="cls-2" x="108" y="468" width="36" height="36"/><rect class="cls-2" x="72" y="576" width="36" height="36"/><rect class="cls-2" x="72" y="612" width="36" height="36"/><rect class="cls-2" x="72" y="540" width="36" height="36"/><rect class="cls-2" x="108" y="684" width="36" height="36"/><rect class="cls-2" x="108" y="648" width="36" height="36"/><rect class="cls-2" x="72" y="756" width="36" height="36"/><rect class="cls-2" x="72" y="792" width="36" height="36"/><rect class="cls-2" x="72" y="720" width="36" height="36"/><rect class="cls-2" x="108" y="828" width="36" height="36"/><rect class="cls-2" x="72" y="936" width="36" height="36"/><rect class="cls-2" x="72" y="900" width="36" height="36"/><rect class="cls-2" x="72" y="252" width="36" height="36"/><rect class="cls-2" x="72" y="216" width="36" height="36"/><rect class="cls-2" x="108" width="454.5" height="31.5"/><rect class="cls-2" x="108" y="184.5" width="454.5" height="31.5"/><rect class="cls-2" x="108" y="972" width="454.5" height="31.5"/><rect class="cls-2" x="108" y="1152" width="454.5" height="31.5"/><rect class="cls-2" x="931.5" y="864" width="36" height="36" transform="translate(1899 1764) rotate(-180)"/><rect class="cls-2" x="967.5" width="36" height="36" transform="translate(1971 36) rotate(-180)"/><rect class="cls-2" x="967.5" y="36" width="36" height="180" transform="translate(1971 252) rotate(-180)"/><rect class="cls-2" x="1003.5" y="36" width="36" height="36" transform="translate(2043 108) rotate(-180)"/><rect class="cls-2" x="1039.5" y="72" width="36" height="36" transform="translate(2115 180) rotate(-180)"/><rect class="cls-2" x="1039.5" y="108" width="36" height="36" transform="translate(2115 252) rotate(-180)"/><rect class="cls-2" x="1003.5" y="144" width="36" height="36" transform="translate(2043 324) rotate(-180)"/><rect class="cls-2" x="967.5" y="972" width="36" height="36" transform="translate(1971 1980) rotate(-180)"/><rect class="cls-2" x="967.5" y="1008" width="36" height="175.5" transform="translate(1971 2191.5) rotate(-180)"/><rect class="cls-2" x="1003.5" y="1008" width="36" height="36" transform="translate(2043 2052) rotate(-180)"/><rect class="cls-2" x="1039.5" y="1044" width="36" height="36" transform="translate(2115 2124) rotate(-180)"/><rect class="cls-2" x="1039.5" y="1080" width="36" height="36" transform="translate(2115 2196) rotate(-180)"/><rect class="cls-2" x="1003.5" y="1116" width="36" height="36" transform="translate(2043 2268) rotate(-180)"/><rect class="cls-2" x="931.5" y="324" width="36" height="36" transform="translate(1899 684) rotate(-180)"/><rect class="cls-2" x="931.5" y="288" width="36" height="36" transform="translate(1899 612) rotate(-180)"/><rect class="cls-2" x="967.5" y="396" width="36" height="36" transform="translate(1971 828) rotate(-180)"/><rect class="cls-2" x="967.5" y="432" width="36" height="36" transform="translate(1971 900) rotate(-180)"/><rect class="cls-2" x="967.5" y="360" width="36" height="36" transform="translate(1971 756) rotate(-180)"/><rect class="cls-2" x="931.5" y="504" width="36" height="36" transform="translate(1899 1044) rotate(-180)"/><rect class="cls-2" x="931.5" y="468" width="36" height="36" transform="translate(1899 972) rotate(-180)"/><rect class="cls-2" x="967.5" y="576" width="36" height="36" transform="translate(1971 1188) rotate(-180)"/><rect class="cls-2" x="967.5" y="612" width="36" height="36" transform="translate(1971 1260) rotate(-180)"/><rect class="cls-2" x="967.5" y="540" width="36" height="36" transform="translate(1971 1116) rotate(-180)"/><rect class="cls-2" x="931.5" y="684" width="36" height="36" transform="translate(1899 1404) rotate(-180)"/><rect class="cls-2" x="931.5" y="648" width="36" height="36" transform="translate(1899 1332) rotate(-180)"/><rect class="cls-2" x="967.5" y="756" width="36" height="36" transform="translate(1971 1548) rotate(-180)"/><rect class="cls-2" x="967.5" y="792" width="36" height="36" transform="translate(1971 1620) rotate(-180)"/><rect class="cls-2" x="967.5" y="720" width="36" height="36" transform="translate(1971 1476) rotate(-180)"/><rect class="cls-2" x="931.5" y="828" width="36" height="36" transform="translate(1899 1692) rotate(-180)"/><rect class="cls-2" x="967.5" y="936" width="36" height="36" transform="translate(1971 1908) rotate(-180)"/><rect class="cls-2" x="967.5" y="900" width="36" height="36" transform="translate(1971 1836) rotate(-180)"/><rect class="cls-2" x="967.5" y="252" width="36" height="36" transform="translate(1971 540) rotate(-180)"/><rect class="cls-2" x="967.5" y="216" width="36" height="36" transform="translate(1971 468) rotate(-180)"/><rect class="cls-2" x="513" width="454.5" height="31.5" transform="translate(1480.5 31.5) rotate(-180)"/><rect class="cls-2" x="513" y="184.5" width="454.5" height="31.5" transform="translate(1480.5 400.5) rotate(-180)"/><rect class="cls-2" x="513" y="972" width="454.5" height="31.5" transform="translate(1480.5 1975.5) rotate(-180)"/><rect class="cls-2" x="513" y="1152" width="454.5" height="31.5" transform="translate(1480.5 2335.5) rotate(-180)"/><rect class="cls-3" x="180" y="324" width="36" height="36"/><rect class="cls-3" x="180" y="288" width="36" height="36"/><rect class="cls-3" x="144" y="396" width="36" height="36"/><rect class="cls-3" x="144" y="432" width="36" height="36"/><rect class="cls-3" x="144" y="360" width="36" height="36"/><rect class="cls-3" x="180" y="504" width="36" height="36"/><rect class="cls-3" x="180" y="468" width="36" height="36"/><rect class="cls-3" x="144" y="576" width="36" height="36"/><rect class="cls-3" x="144" y="612" width="36" height="36"/><rect class="cls-3" x="144" y="540" width="36" height="36"/><rect class="cls-3" x="180" y="684" width="36" height="36"/><rect class="cls-3" x="180" y="648" width="36" height="36"/><rect class="cls-3" x="144" y="756" width="36" height="36"/><rect class="cls-3" x="144" y="792" width="36" height="36"/><rect class="cls-3" x="144" y="720" width="36" height="36"/><rect class="cls-3" x="180" y="864" width="36" height="36"/><rect class="cls-3" x="180" y="828" width="36" height="36"/><rect class="cls-3" x="144" y="936" width="36" height="36"/><rect class="cls-3" x="144" y="900" width="36" height="36"/><rect class="cls-3" x="144" y="252" width="36" height="36"/><rect class="cls-3" x="144" y="216" width="36" height="36"/><rect class="cls-3" x="108" y="31.5" width="454.5" height="36"/><rect class="cls-3" x="108" y="1003.5" width="454.5" height="36"/><rect class="cls-3" x="859.5" y="324" width="36" height="36" transform="translate(1755 684) rotate(-180)"/><rect class="cls-3" x="859.5" y="288" width="36" height="36" transform="translate(1755 612) rotate(-180)"/><rect class="cls-3" x="895.5" y="396" width="36" height="36" transform="translate(1827 828) rotate(-180)"/><rect class="cls-3" x="895.5" y="432" width="36" height="36" transform="translate(1827 900) rotate(-180)"/><rect class="cls-3" x="895.5" y="360" width="36" height="36" transform="translate(1827 756) rotate(-180)"/><rect class="cls-3" x="859.5" y="504" width="36" height="36" transform="translate(1755 1044) rotate(-180)"/><rect class="cls-3" x="859.5" y="468" width="36" height="36" transform="translate(1755 972) rotate(-180)"/><rect class="cls-3" x="895.5" y="576" width="36" height="36" transform="translate(1827 1188) rotate(-180)"/><rect class="cls-3" x="895.5" y="612" width="36" height="36" transform="translate(1827 1260) rotate(-180)"/><rect class="cls-3" x="895.5" y="540" width="36" height="36" transform="translate(1827 1116) rotate(-180)"/><rect class="cls-3" x="859.5" y="684" width="36" height="36" transform="translate(1755 1404) rotate(-180)"/><rect class="cls-3" x="859.5" y="648" width="36" height="36" transform="translate(1755 1332) rotate(-180)"/><rect class="cls-3" x="895.5" y="756" width="36" height="36" transform="translate(1827 1548) rotate(-180)"/><rect class="cls-3" x="895.5" y="792" width="36" height="36" transform="translate(1827 1620) rotate(-180)"/><rect class="cls-3" x="895.5" y="720" width="36" height="36" transform="translate(1827 1476) rotate(-180)"/><rect class="cls-3" x="859.5" y="864" width="36" height="36" transform="translate(1755 1764) rotate(-180)"/><rect class="cls-3" x="859.5" y="828" width="36" height="36" transform="translate(1755 1692) rotate(-180)"/><rect class="cls-3" x="895.5" y="936" width="36" height="36" transform="translate(1827 1908) rotate(-180)"/><rect class="cls-3" x="895.5" y="900" width="36" height="36" transform="translate(1827 1836) rotate(-180)"/><rect class="cls-3" x="895.5" y="252" width="36" height="36" transform="translate(1827 540) rotate(-180)"/><rect class="cls-3" x="895.5" y="216" width="36" height="36" transform="translate(1827 468) rotate(-180)"/><rect class="cls-3" x="513" y="31.5" width="454.5" height="36" transform="translate(1480.5 99) rotate(-180)"/><rect class="cls-3" x="513" y="1003.5" width="454.5" height="36" transform="translate(1480.5 2043) rotate(-180)"/><rect class="cls-4" x="108" y="148.5" width="454.5" height="36"/><rect class="cls-4" x="108" y="1116" width="454.5" height="36"/><rect class="cls-4" x="144" y="504" width="36" height="36"/><rect class="cls-4" x="144" y="324" width="36" height="36"/><rect class="cls-4" x="144" y="288" width="36" height="36"/><rect class="cls-4" x="108" y="396" width="36" height="36"/><rect class="cls-4" x="108" y="432" width="36" height="36"/><rect class="cls-4" x="108" y="360" width="36" height="36"/><rect class="cls-4" x="144" y="468" width="36" height="36"/><rect class="cls-4" x="108" y="576" width="36" height="36"/><rect class="cls-4" x="108" y="612" width="36" height="36"/><rect class="cls-4" x="108" y="540" width="36" height="36"/><rect class="cls-4" x="144" y="684" width="36" height="36"/><rect class="cls-4" x="144" y="648" width="36" height="36"/><rect class="cls-4" x="108" y="756" width="36" height="36"/><rect class="cls-4" x="108" y="792" width="36" height="36"/><rect class="cls-4" x="108" y="720" width="36" height="36"/><rect class="cls-4" x="144" y="864" width="36" height="36"/><rect class="cls-4" x="144" y="828" width="36" height="36"/><rect class="cls-4" x="108" y="936" width="36" height="36"/><rect class="cls-4" x="108" y="900" width="36" height="36"/><rect class="cls-4" x="108" y="252" width="36" height="36"/><rect class="cls-4" x="108" y="216" width="36" height="36"/><rect class="cls-4" x="36" y="72" width="36" height="72"/><rect class="cls-4" x="36" y="1044" width="36" height="72"/><rect class="cls-4" x="1003.5" y="72" width="36" height="72" transform="translate(2043 216) rotate(-180)"/><rect class="cls-4" x="1003.5" y="1044" width="36" height="72" transform="translate(2043 2160) rotate(-180)"/><rect class="cls-4" x="895.5" y="504" width="36" height="36" transform="translate(1827 1044) rotate(-180)"/><rect class="cls-4" x="895.5" y="324" width="36" height="36" transform="translate(1827 684) rotate(-180)"/><rect class="cls-4" x="895.5" y="288" width="36" height="36" transform="translate(1827 612) rotate(-180)"/><rect class="cls-4" x="931.5" y="396" width="36" height="36" transform="translate(1899 828) rotate(-180)"/><rect class="cls-4" x="931.5" y="432" width="36" height="36" transform="translate(1899 900) rotate(-180)"/><rect class="cls-4" x="931.5" y="360" width="36" height="36" transform="translate(1899 756) rotate(-180)"/><rect class="cls-4" x="895.5" y="468" width="36" height="36" transform="translate(1827 972) rotate(-180)"/><rect class="cls-4" x="931.5" y="576" width="36" height="36" transform="translate(1899 1188) rotate(-180)"/><rect class="cls-4" x="931.5" y="612" width="36" height="36" transform="translate(1899 1260) rotate(-180)"/><rect class="cls-4" x="931.5" y="540" width="36" height="36" transform="translate(1899 1116) rotate(-180)"/><rect class="cls-4" x="895.5" y="684" width="36" height="36" transform="translate(1827 1404) rotate(-180)"/><rect class="cls-4" x="895.5" y="648" width="36" height="36" transform="translate(1827 1332) rotate(-180)"/><rect class="cls-4" x="931.5" y="756" width="36" height="36" transform="translate(1899 1548) rotate(-180)"/><rect class="cls-4" x="931.5" y="792" width="36" height="36" transform="translate(1899 1620) rotate(-180)"/><rect class="cls-4" x="931.5" y="720" width="36" height="36" transform="translate(1899 1476) rotate(-180)"/><rect class="cls-4" x="895.5" y="864" width="36" height="36" transform="translate(1827 1764) rotate(-180)"/><rect class="cls-4" x="895.5" y="828" width="36" height="36" transform="translate(1827 1692) rotate(-180)"/><rect class="cls-4" x="931.5" y="936" width="36" height="36" transform="translate(1899 1908) rotate(-180)"/><rect class="cls-4" x="931.5" y="900" width="36" height="36" transform="translate(1899 1836) rotate(-180)"/><rect class="cls-4" x="931.5" y="252" width="36" height="36" transform="translate(1899 540) rotate(-180)"/><rect class="cls-4" x="931.5" y="216" width="36" height="36" transform="translate(1899 468) rotate(-180)"/><rect class="cls-4" x="513" y="148.5" width="454.5" height="36" transform="translate(1480.5 333) rotate(-180)"/><rect class="cls-4" x="513" y="1116" width="454.5" height="36" transform="translate(1480.5 2268) rotate(-180)"/></g></g></svg>