<svg xmlns="http://www.w3.org/2000/svg" viewBox="0 0 1296 1075.5"><defs><style>.cls-1{fill:#e8e8e8;}.cls-2{fill:#fff;}.cls-3{fill:#cecece;}.cls-4{fill:#e0e0e0;}.cls-5{fill:#222;}.cls-6{fill:#c1544d;}.cls-7{fill:#ccc;}</style></defs><g id="레이어_2" data-name="레이어 2"><g id="레이어_1-2" data-name="레이어 1"><polygon class="cls-1" points="796.5 823.5 594 823.5 594 859.5 796.5 859.5 1080 859.5 1080 216 796.5 216 796.5 823.5"/><polygon class="cls-1" points="144 72 144 108 144 144 1152 144 1152 108 1152 72 144 72"/><rect class="cls-1" x="108" y="895.5" width="864" height="144"/><polygon class="cls-2" points="796.5 823.5 796.5 787.5 796.5 216 252 216 252 787.5 252 823.5 252 859.5 594 859.5 594 823.5 796.5 823.5"/><rect class="cls-2" x="144" y="36" width="1008" height="36"/><polygon class="cls-2" points="792 895.5 108 895.5 108 931.5 144 931.5 144 967.5 180 967.5 216 967.5 252 967.5 288 967.5 324 967.5 324 931.5 684 931.5 684 967.5 720 967.5 756 967.5 792 967.5 828 967.5 828 931.5 792 931.5 792 895.5"/><rect class="cls-3" x="796.5" y="180" width="283.5" height="36"/><rect class="cls-4" x="252" y="180" width="544.5" height="36"/><rect class="cls-5" x="216" y="144" width="900" height="36"/><rect class="cls-5" x="864" y="1003.5" width="36" height="36"/><polygon class="cls-5" points="864 931.5 828 931.5 828 967.5 828 1003.5 864 1003.5 864 967.5 864 931.5"/><rect class="cls-5" x="792" y="895.5" width="36" height="36"/><rect class="cls-5" x="108" y="72" width="36" height="36"/><rect class="cls-5" x="1152" y="72" width="36" height="36"/><rect class="cls-5" x="216" y="859.5" width="576" height="36"/><polygon class="cls-6" points="36 72 36 108 72 108 108 108 108 72 72 72 36 72"/><polygon class="cls-6" points="1224 72 1188 72 1188 108 1224 108 1260 108 1260 72 1224 72"/><rect class="cls-7" x="1044" y="715.5" width="36" height="36"/><rect class="cls-7" x="1008" y="751.5" width="36" height="36"/><rect class="cls-7" x="972" y="787.5" width="36" height="36"/><polygon class="cls-7" points="1008 823.5 1008 859.5 972 859.5 972 823.5 936 823.5 936 859.5 792 859.5 792 895.5 828 895.5 828 931.5 864 931.5 864 967.5 864 1003.5 900 1003.5 900 1039.5 922.5 1039.5 936 1039.5 972 1039.5 985.5 1039.5 1008 1039.5 1008 1003.5 1044 1003.5 1044 967.5 1044 931.5 1080 931.5 1080 895.5 1080 859.5 1080 823.5 1080 787.5 1044 787.5 1044 823.5 1008 823.5"/><rect class="cls-5" x="144" width="1008" height="36"/><rect class="cls-5" x="216" y="180" width="36" height="679.5"/><rect class="cls-5" x="1080" y="180" width="36" height="751.5"/><polygon class="cls-5" points="108 72 144 72 144 36 108 36 72 36 36 36 36 72 72 72 108 72"/><rect class="cls-5" y="72" width="36" height="36"/><polygon class="cls-5" points="108 108 72 108 36 108 36 144 72 144 108 144 144 144 144 108 108 108"/><polygon class="cls-5" points="180 144 144 144 144 180 180 180 216 180 216 144 180 144"/><polygon class="cls-5" points="1188 72 1224 72 1260 72 1260 36 1224 36 1188 36 1152 36 1152 72 1188 72"/><rect class="cls-5" x="1260" y="72" width="36" height="36"/><rect class="cls-5" x="1116" y="144" width="36" height="36"/><polygon class="cls-5" points="1044 967.5 1044 1003.5 1080 1003.5 1080 967.5 1080 931.5 1044 931.5 1044 967.5"/><rect class="cls-5" x="1008" y="1003.5" width="36" height="36"/><polygon class="cls-5" points="108 931.5 108 895.5 144 895.5 180 895.5 216 895.5 216 859.5 180 859.5 144 859.5 108 859.5 72 859.5 72 895.5 72 931.5 72 967.5 72 1003.5 108 1003.5 108 967.5 108 931.5"/><rect class="cls-5" x="108" y="1003.5" width="36" height="36"/><rect class="cls-5" x="144" y="1039.5" width="864" height="36"/><polygon class="cls-5" points="1188 108 1152 108 1152 144 1188 144 1224 144 1260 144 1260 108 1224 108 1188 108"/></g></g></svg>