<svg xmlns="http://www.w3.org/2000/svg" viewBox="0 0 1044 1296"><defs><style>.cls-1{fill:#fff;}.cls-2{fill:#d9d9d9;}.cls-3{fill:#833423;}.cls-4{fill:#c1544d;}.cls-5{fill:#222;}</style></defs><g id="레이어_2" data-name="레이어 2"><g id="레이어_1-2" data-name="레이어 1"><polygon class="cls-1" points="216 72 216 1116 216 1152 216 1188 252 1188 252 1152 324 1152 324 1116 720 1116 720 1152 792 1152 792 1188 828 1188 828 1152 828 1116 828 72 216 72"/><polygon class="cls-2" points="252 1152 252 1188 288 1188 324 1188 324 1152 288 1152 252 1152"/><polygon class="cls-2" points="324 1116 324 1152 360 1152 396 1152 396 1116 360 1116 324 1116"/><polygon class="cls-2" points="684 1116 648 1116 648 1152 684 1152 720 1152 720 1116 684 1116"/><polygon class="cls-2" points="756 1152 720 1152 720 1188 756 1188 792 1188 792 1152 756 1152"/><polygon class="cls-2" points="396 1080 396 1116 436.5 1116 477 1116 477 1080 436.5 1080 396 1080"/><polygon class="cls-2" points="607.5 1080 567 1080 567 1116 607.5 1116 648 1116 648 1080 607.5 1080"/><polygon class="cls-2" points="517.5 1044 477 1044 477 1080 517.5 1080 567 1080 567 1044 517.5 1044"/><polygon class="cls-2" points="216 1102.5 252 1102.5 252 1066.5 252 1030.5 252 994.5 216 994.5 216 648 252 648 252 612 216 612 216 180 252 180 252 144 216 144 216 72 180 72 180 1260 216 1260 216 1224 252 1224 252 1188 216 1188 216 1102.5"/><rect class="cls-2" x="828" y="72" width="36" height="36"/><polygon class="cls-2" points="792 144 792 180 828 180 828 508.5 792 508.5 792 544.5 792 580.5 792 616.5 828 616.5 828 990 792 990 792 1026 828 1026 828 1188 792 1188 792 1224 828 1224 828 1260 864 1260 864 616.5 864 580.5 828 580.5 828 544.5 864 544.5 864 144 828 144 792 144"/><rect class="cls-2" x="720" y="144" width="36" height="36"/><rect class="cls-2" x="648" y="144" width="36" height="36"/><rect class="cls-2" x="576" y="144" width="36" height="36"/><rect class="cls-2" x="504" y="144" width="36" height="36"/><rect class="cls-2" x="432" y="144" width="36" height="36"/><rect class="cls-2" x="360" y="144" width="36" height="36"/><rect class="cls-2" x="288" y="144" width="36" height="36"/><rect class="cls-3" x="936" y="36" width="36" height="36"/><rect class="cls-3" x="972" y="72" width="36" height="36"/><rect class="cls-3" x="936" y="108" width="36" height="36"/><rect class="cls-3" x="72" y="36" width="36" height="36"/><rect class="cls-3" x="36" y="72" width="36" height="36"/><rect class="cls-3" x="72" y="108" width="36" height="36"/><rect class="cls-4" x="900" y="72" width="72" height="36"/><rect class="cls-4" x="72" y="72" width="72" height="36"/><rect class="cls-5" x="72" width="36" height="36"/><rect class="cls-5" x="36" y="36" width="36" height="36"/><rect class="cls-5" y="72" width="36" height="36"/><rect class="cls-5" x="36" y="108" width="36" height="36"/><rect class="cls-5" x="72" y="144" width="36" height="36"/><rect class="cls-5" x="180" y="1030.5" width="36" height="36"/><rect class="cls-5" x="180" y="1260" width="36" height="36"/><rect class="cls-5" x="828" y="1260" width="36" height="36"/><rect class="cls-5" x="828" y="544.5" width="36" height="36"/><rect class="cls-5" x="216" y="1224" width="36" height="36"/><rect class="cls-5" x="792" y="1224" width="36" height="36"/><polygon class="cls-5" points="756 1188 720 1188 720 1224 756 1224 792 1224 792 1188 756 1188"/><polygon class="cls-5" points="684 1152 648 1152 648 1188 684 1188 720 1188 720 1152 684 1152"/><polygon class="cls-5" points="612 1116 567 1116 567 1152 612 1152 648 1152 648 1116 612 1116"/><polygon class="cls-5" points="522 1080 477 1080 477 1116 522 1116 567 1116 567 1080 522 1080"/><polygon class="cls-5" points="396 1116 396 1152 432 1152 477 1152 477 1116 432 1116 396 1116"/><polygon class="cls-5" points="324 1152 324 1188 360 1188 396 1188 396 1152 360 1152 324 1152"/><polygon class="cls-5" points="252 1188 252 1224 288 1224 324 1224 324 1188 288 1188 252 1188"/><rect class="cls-5" x="144" y="1066.5" width="36" height="193.5"/><rect class="cls-5" x="864" y="580.5" width="36" height="679.5"/><rect class="cls-5" x="936" width="36" height="36"/><rect class="cls-5" x="972" y="36" width="36" height="36"/><rect class="cls-5" x="1008" y="72" width="36" height="36"/><rect class="cls-5" x="972" y="108" width="36" height="36"/><rect class="cls-5" x="936" y="144" width="36" height="36"/><path class="cls-5" d="M900,108V72h36V36H108V72h36v36H108v36h36v886.5h36V144H864V544.5h36V144h36V108Zm-36,0H180V72H864Z"/></g></g></svg>