<svg xmlns="http://www.w3.org/2000/svg" viewBox="0 0 468 747"><defs><style>.cls-1{fill:#d4d4d4;}.cls-2{fill:#fff;}.cls-3{fill:#b8b8b8;}.cls-4{opacity:0.5;}.cls-11,.cls-5{fill:#8a8a8a;}.cls-6{fill:#c6c6c6;}.cls-7{opacity:0.7;}.cls-8{fill:#ff3932;}.cls-9{fill:#ff615b;}.cls-10{fill:#bf2b26;}.cls-11{font-size:22.79px;font-family:Galmuri11-Bold, Galmuri11;font-weight:700;}</style></defs><g id="레이어_2" data-name="레이어 2"><g id="레이어_1-2" data-name="레이어 1"><rect class="cls-1" x="9" y="9" width="9" height="9"/><rect class="cls-2" x="27" y="27" width="9" height="9"/><rect class="cls-1" y="18" width="9" height="693"/><rect class="cls-3" x="9" y="711" width="9" height="9"/><rect class="cls-2" x="18" y="720" width="9" height="9"/><rect class="cls-3" x="18" y="720" width="414" height="9" transform="translate(450 1449) rotate(180)"/><rect class="cls-3" x="432" y="711" width="9" height="9" transform="translate(873 1431) rotate(180)"/><rect class="cls-3" x="441" y="18" width="9" height="693" transform="translate(891 729) rotate(180)"/><rect class="cls-3" x="432" y="9" width="9" height="9" transform="translate(873 27) rotate(180)"/><rect class="cls-3" x="423" width="9" height="9" transform="translate(855 9) rotate(180)"/><g class="cls-4"><rect x="45" y="36" width="7.4" height="7.4"/><polygon points="459 45 459 36 396.8 36 396.8 43.4 405 43.4 405 387.8 396.8 387.8 396.8 396 52.4 396 52.4 387.8 44.2 387.8 44.2 45 36 45 36 738 45 738 45 747 459 747 459 738 468 738 468 45 459 45"/><rect x="52.4" y="35.2" width="344.4" height="0.8"/><rect x="44.2" y="43.4" width="0.8" height="1.6"/></g><path class="cls-3" d="M432,9V0H18V9H9V702h9v9H432v-9h9V9ZM405,387.8h-8.2V396H52.4v-8.2H44.2V43.4h8.2V35.2H396.8v8.2H405Z"/><rect class="cls-5" x="52.4" y="36" width="344.4" height="8.2"/><rect class="cls-6" x="52.4" y="405" width="344.4" height="8.2"/><rect class="cls-5" x="44.2" y="44.2" width="8.2" height="8.2"/><rect class="cls-5" x="36" y="52.4" width="8.2" height="344.4"/><rect class="cls-6" x="405.8" y="52.4" width="8.2" height="344.4"/><rect class="cls-1" x="18" width="414" height="9"/><rect class="cls-5" x="432" y="711" width="9" height="9" transform="translate(873 1431) rotate(180)"/><rect class="cls-5" x="423" y="702" width="9" height="9" transform="translate(855 1413) rotate(180)"/><polygon class="cls-5" points="441 18 441 27 432 27 432 711 450 711 450 18 441 18"/><polygon class="cls-5" points="27 711 27 720 18 720 18 729 432 729 432 711 27 711"/><rect class="cls-2" x="333" y="378" width="45" height="9" transform="translate(711 765) rotate(180)"/><rect class="cls-2" x="360" y="351" width="45" height="9" transform="translate(738 -27) rotate(90)"/><rect class="cls-2" x="378" y="315" width="9" height="9" transform="translate(765 639) rotate(180)"/><rect class="cls-2" x="36" y="18" width="45" height="9"/><rect class="cls-2" x="18" y="36" width="9" height="9" transform="translate(-18 63) rotate(-90)"/><rect class="cls-6" x="423" y="648" width="9" height="54"/><rect class="cls-6" x="391.5" y="679.5" width="9" height="54" transform="translate(-310.5 1102.5) rotate(-90)"/><rect class="cls-6" x="414" y="693" width="9" height="9"/><rect class="cls-5" x="9" y="711" width="18" height="9"/><g class="cls-7"><rect class="cls-5" x="356.14" y="495.64" width="48.21" height="48.21"/><rect class="cls-5" x="365.79" y="486" width="28.93" height="9.64"/><rect class="cls-5" x="365.79" y="543.86" width="28.93" height="9.64"/><rect class="cls-5" x="336.86" y="514.93" width="28.93" height="9.64" transform="translate(-168.43 871.07) rotate(-90)"/><rect class="cls-5" x="394.71" y="514.93" width="28.93" height="9.64" transform="translate(-110.57 928.93) rotate(-90)"/><rect class="cls-5" x="356.14" y="495.64" width="9.64" height="9.64"/><rect class="cls-5" x="394.71" y="495.64" width="9.64" height="9.64"/><rect class="cls-5" x="365.79" y="495.64" width="9.64" height="9.64"/><rect class="cls-5" x="356.14" y="505.29" width="9.64" height="9.64"/><rect class="cls-5" x="356.14" y="495.64" width="9.64" height="9.64"/><rect class="cls-5" x="385.07" y="543.86" width="9.64" height="9.64"/><rect class="cls-5" x="365.79" y="543.86" width="19.29" height="9.64"/><rect class="cls-5" x="404.36" y="524.57" width="9.64" height="9.64"/><rect class="cls-5" x="356.14" y="534.21" width="9.64" height="9.64"/><rect class="cls-5" x="394.71" y="534.21" width="9.64" height="9.64"/><rect class="cls-5" x="394.71" y="534.21" width="9.64" height="9.64"/><rect class="cls-5" x="356.14" y="534.21" width="9.64" height="9.64"/><rect class="cls-5" x="346.5" y="524.57" width="9.64" height="9.64"/><rect class="cls-8" x="363.38" y="502.88" width="33.75" height="33.75"/><rect class="cls-8" x="370.13" y="496.13" width="20.25" height="6.75"/><rect class="cls-8" x="370.13" y="536.63" width="20.25" height="6.75"/><rect class="cls-8" x="349.88" y="516.38" width="20.25" height="6.75" transform="translate(-159.75 879.75) rotate(-90)"/><rect class="cls-8" x="390.38" y="516.38" width="20.25" height="6.75" transform="translate(-119.25 920.25) rotate(-90)"/><rect class="cls-8" x="363.38" y="502.88" width="6.75" height="6.75"/><rect class="cls-8" x="390.38" y="502.88" width="6.75" height="6.75"/><rect class="cls-9" x="370.13" y="502.88" width="6.75" height="6.75"/><rect class="cls-9" x="363.38" y="509.63" width="6.75" height="6.75"/><rect class="cls-9" x="363.38" y="502.88" width="6.75" height="6.75"/><rect class="cls-10" x="383.63" y="536.63" width="6.75" height="6.75"/><rect class="cls-10" x="370.13" y="536.63" width="13.5" height="6.75"/><rect class="cls-10" x="397.13" y="523.13" width="6.75" height="6.75"/><rect class="cls-8" x="363.38" y="529.88" width="6.75" height="6.75"/><rect class="cls-8" x="390.38" y="529.88" width="6.75" height="6.75"/><rect class="cls-10" x="390.38" y="529.88" width="6.75" height="6.75"/><rect class="cls-10" x="363.38" y="529.88" width="6.75" height="6.75"/><rect class="cls-10" x="356.63" y="523.13" width="6.75" height="6.75"/><text class="cls-11" transform="translate(373 580.5)">A</text><rect class="cls-5" x="276.85" y="531.64" width="48.21" height="48.21"/><rect class="cls-5" x="286.49" y="522" width="28.93" height="9.64"/><rect class="cls-5" x="286.49" y="579.86" width="28.93" height="9.64"/><rect class="cls-5" x="257.56" y="550.93" width="28.93" height="9.64" transform="translate(-283.72 827.78) rotate(-90)"/><rect class="cls-5" x="315.42" y="550.93" width="28.93" height="9.64" transform="translate(-225.87 885.63) rotate(-90)"/><rect class="cls-5" x="276.85" y="531.64" width="9.64" height="9.64"/><rect class="cls-5" x="315.42" y="531.64" width="9.64" height="9.64"/><rect class="cls-5" x="286.49" y="531.64" width="9.64" height="9.64"/><rect class="cls-5" x="276.85" y="541.29" width="9.64" height="9.64"/><rect class="cls-5" x="276.85" y="531.64" width="9.64" height="9.64"/><rect class="cls-5" x="305.78" y="579.86" width="9.64" height="9.64"/><rect class="cls-5" x="286.49" y="579.86" width="19.29" height="9.64"/><rect class="cls-5" x="325.06" y="560.57" width="9.64" height="9.64"/><rect class="cls-5" x="276.85" y="570.21" width="9.64" height="9.64"/><rect class="cls-5" x="315.42" y="570.21" width="9.64" height="9.64"/><rect class="cls-5" x="315.42" y="570.21" width="9.64" height="9.64"/><rect class="cls-5" x="276.85" y="570.21" width="9.64" height="9.64"/><rect class="cls-5" x="267.21" y="560.57" width="9.64" height="9.64"/><rect class="cls-8" x="284.08" y="538.88" width="33.75" height="33.75"/><rect class="cls-8" x="290.83" y="532.13" width="20.25" height="6.75"/><rect class="cls-8" x="290.83" y="572.63" width="20.25" height="6.75"/><rect class="cls-8" x="270.58" y="552.38" width="20.25" height="6.75" transform="translate(-275.04 836.46) rotate(-90)"/><rect class="cls-8" x="311.08" y="552.38" width="20.25" height="6.75" transform="translate(-234.54 876.96) rotate(-90)"/><rect class="cls-8" x="284.08" y="538.88" width="6.75" height="6.75"/><rect class="cls-8" x="311.08" y="538.88" width="6.75" height="6.75"/><rect class="cls-9" x="290.83" y="538.88" width="6.75" height="6.75"/><rect class="cls-9" x="284.08" y="545.63" width="6.75" height="6.75"/><rect class="cls-9" x="284.08" y="538.88" width="6.75" height="6.75"/><rect class="cls-10" x="304.33" y="572.63" width="6.75" height="6.75"/><rect class="cls-10" x="290.83" y="572.63" width="13.5" height="6.75"/><rect class="cls-10" x="317.83" y="559.13" width="6.75" height="6.75"/><rect class="cls-8" x="284.08" y="565.88" width="6.75" height="6.75"/><rect class="cls-8" x="311.08" y="565.88" width="6.75" height="6.75"/><rect class="cls-10" x="311.08" y="565.88" width="6.75" height="6.75"/><rect class="cls-10" x="284.08" y="565.88" width="6.75" height="6.75"/><rect class="cls-10" x="277.33" y="559.13" width="6.75" height="6.75"/><text class="cls-11" transform="translate(294.51 616.5)">B</text></g></g></g></svg>