<svg xmlns="http://www.w3.org/2000/svg" viewBox="0 0 468 747"><defs><style>.cls-1{opacity:0.5;}.cls-2{fill:#b8b8b8;}.cls-3{fill:#d4d4d4;}.cls-4{fill:#fff;}.cls-5{fill:#8a8a8a;}.cls-6{fill:#c6c6c6;}.cls-7{fill:#ff3932;}.cls-8{fill:#ff615b;}.cls-9{fill:#bf2b26;}</style></defs><g id="레이어_2" data-name="레이어 2"><g id="레이어_1-2" data-name="레이어 1"><g class="cls-1"><rect x="45" y="36" width="7.4" height="7.4"/><polygon points="459 45 459 36 396.8 36 396.8 43.4 405 43.4 405 387.8 396.8 387.8 396.8 396 52.4 396 52.4 387.8 44.2 387.8 44.2 45 36 45 36 738 45 738 45 747 459 747 459 738 468 738 468 45 459 45"/><rect x="52.4" y="35.2" width="344.4" height="0.8"/><rect x="44.2" y="43.4" width="0.8" height="1.6"/></g><path class="cls-2" d="M432,9V0H18V9H9V711H432v-9h9V9ZM405,387.8h-8.2V396H52.4v-8.2H44.2V43.4h8.2V35.2H396.8v8.2H405Z"/><rect class="cls-3" x="9" y="9" width="9" height="9"/><rect class="cls-3" y="18" width="9" height="693"/><rect class="cls-2" x="9" y="711" width="9" height="9"/><rect class="cls-4" x="18" y="720" width="9" height="9"/><rect class="cls-2" x="18" y="720" width="414" height="9" transform="translate(450 1449) rotate(180)"/><rect class="cls-2" x="432" y="711" width="9" height="9" transform="translate(873 1431) rotate(180)"/><rect class="cls-2" x="441" y="18" width="9" height="693" transform="translate(891 729) rotate(180)"/><rect class="cls-2" x="432" y="9" width="9" height="9" transform="translate(873 27) rotate(180)"/><rect class="cls-2" x="423" width="9" height="9" transform="translate(855 9) rotate(180)"/><rect class="cls-5" x="52.4" y="35.2" width="344.4" height="8.2"/><rect class="cls-6" x="52.4" y="396" width="344.4" height="8.2"/><rect class="cls-5" x="44.2" y="43.4" width="8.2" height="8.2"/><rect class="cls-5" x="36" y="52.4" width="8.2" height="335.4"/><rect class="cls-6" x="405" y="43.4" width="8.2" height="344.4"/><rect class="cls-3" x="18" width="414" height="9"/><rect class="cls-5" x="432" y="711" width="9" height="9" transform="translate(873 1431) rotate(180)"/><rect class="cls-5" x="423" y="702" width="9" height="9" transform="translate(855 1413) rotate(180)"/><rect class="cls-5" y="702" width="9" height="9" transform="translate(9 1413) rotate(180)"/><rect class="cls-5" x="9" y="702" width="9" height="9" transform="translate(27 1413) rotate(180)"/><polygon class="cls-5" points="441 18 441 27 432 27 432 711 450 711 450 18 441 18"/><polygon class="cls-5" points="27 711 27 720 18 720 18 729 432 729 432 711 27 711"/><rect class="cls-4" x="333" y="369" width="45" height="9" transform="translate(711 747) rotate(180)"/><rect class="cls-4" x="360" y="342" width="45" height="9" transform="translate(729 -36) rotate(90)"/><rect class="cls-4" x="378" y="306" width="9" height="9" transform="translate(765 621) rotate(180)"/><rect class="cls-6" x="423" y="648" width="9" height="54"/><rect class="cls-6" x="391.5" y="679.5" width="9" height="54" transform="translate(-310.5 1102.5) rotate(-90)"/><rect class="cls-6" x="414" y="693" width="9" height="9"/><rect class="cls-5" x="9" y="711" width="18" height="9"/><rect class="cls-5" x="347.14" y="493.3" width="48.21" height="48.21"/><rect class="cls-5" x="356.79" y="483.65" width="28.93" height="9.64"/><rect class="cls-5" x="356.79" y="541.51" width="28.93" height="9.64"/><rect class="cls-5" x="327.86" y="512.58" width="28.93" height="9.64" transform="translate(-175.08 859.72) rotate(-90)"/><rect class="cls-5" x="385.71" y="512.58" width="28.93" height="9.64" transform="translate(-117.22 917.58) rotate(-90)"/><rect class="cls-5" x="347.14" y="493.3" width="9.64" height="9.64"/><rect class="cls-5" x="385.71" y="493.3" width="9.64" height="9.64"/><rect class="cls-5" x="356.79" y="493.3" width="9.64" height="9.64"/><rect class="cls-5" x="347.14" y="502.94" width="9.64" height="9.64"/><rect class="cls-5" x="347.14" y="493.3" width="9.64" height="9.64"/><rect class="cls-5" x="376.07" y="541.51" width="9.64" height="9.64"/><rect class="cls-5" x="356.79" y="541.51" width="19.29" height="9.64"/><rect class="cls-5" x="395.36" y="522.22" width="9.64" height="9.64"/><rect class="cls-5" x="347.14" y="531.87" width="9.64" height="9.64"/><rect class="cls-5" x="385.71" y="531.87" width="9.64" height="9.64"/><rect class="cls-5" x="385.71" y="531.87" width="9.64" height="9.64"/><rect class="cls-5" x="347.14" y="531.87" width="9.64" height="9.64"/><rect class="cls-5" x="337.5" y="522.22" width="9.64" height="9.64"/><rect class="cls-7" x="354.38" y="500.53" width="33.75" height="33.75"/><rect class="cls-7" x="361.13" y="493.78" width="20.25" height="6.75"/><rect class="cls-7" x="361.13" y="534.28" width="20.25" height="6.75"/><rect class="cls-7" x="340.88" y="514.03" width="20.25" height="6.75" transform="translate(-166.4 868.4) rotate(-90)"/><rect class="cls-7" x="381.38" y="514.03" width="20.25" height="6.75" transform="translate(-125.9 908.9) rotate(-90)"/><rect class="cls-7" x="354.38" y="500.53" width="6.75" height="6.75"/><rect class="cls-7" x="381.38" y="500.53" width="6.75" height="6.75"/><rect class="cls-8" x="361.13" y="500.53" width="6.75" height="6.75"/><rect class="cls-8" x="354.38" y="507.28" width="6.75" height="6.75"/><rect class="cls-8" x="354.38" y="500.53" width="6.75" height="6.75"/><rect class="cls-9" x="374.63" y="534.28" width="6.75" height="6.75"/><rect class="cls-9" x="361.13" y="534.28" width="13.5" height="6.75"/><rect class="cls-9" x="388.13" y="520.78" width="6.75" height="6.75"/><rect class="cls-7" x="354.38" y="527.53" width="6.75" height="6.75"/><rect class="cls-7" x="381.38" y="527.53" width="6.75" height="6.75"/><rect class="cls-9" x="381.38" y="527.53" width="6.75" height="6.75"/><rect class="cls-9" x="354.38" y="527.53" width="6.75" height="6.75"/><rect class="cls-9" x="347.63" y="520.78" width="6.75" height="6.75"/><path class="cls-5" d="M364,578.15v-5.69h1.9v-5.7h1.89v-5.7h1.9v-3.8h3.8v3.8h1.9v5.7h1.9v5.7h1.9v5.69h-3.8v-3.8h-7.6v3.8Zm5.69-7.59h3.8v-3.8h-3.8Z"/><rect class="cls-5" x="267.85" y="529.3" width="48.21" height="48.21"/><rect class="cls-5" x="277.49" y="519.65" width="28.93" height="9.64"/><rect class="cls-5" x="277.49" y="577.51" width="28.93" height="9.64"/><rect class="cls-5" x="248.56" y="548.58" width="28.93" height="9.64" transform="translate(-290.38 816.43) rotate(-90)"/><rect class="cls-5" x="306.42" y="548.58" width="28.93" height="9.64" transform="translate(-232.52 874.29) rotate(-90)"/><rect class="cls-5" x="267.85" y="529.3" width="9.64" height="9.64"/><rect class="cls-5" x="306.42" y="529.3" width="9.64" height="9.64"/><rect class="cls-5" x="277.49" y="529.3" width="9.64" height="9.64"/><rect class="cls-5" x="267.85" y="538.94" width="9.64" height="9.64"/><rect class="cls-5" x="267.85" y="529.3" width="9.64" height="9.64"/><rect class="cls-5" x="296.78" y="577.51" width="9.64" height="9.64"/><rect class="cls-5" x="277.49" y="577.51" width="19.29" height="9.64"/><rect class="cls-5" x="316.06" y="558.22" width="9.64" height="9.64"/><rect class="cls-5" x="267.85" y="567.87" width="9.64" height="9.64"/><rect class="cls-5" x="306.42" y="567.87" width="9.64" height="9.64"/><rect class="cls-5" x="306.42" y="567.87" width="9.64" height="9.64"/><rect class="cls-5" x="267.85" y="567.87" width="9.64" height="9.64"/><rect class="cls-5" x="258.21" y="558.22" width="9.64" height="9.64"/><rect class="cls-7" x="275.08" y="536.53" width="33.75" height="33.75"/><rect class="cls-7" x="281.83" y="529.78" width="20.25" height="6.75"/><rect class="cls-7" x="281.83" y="570.28" width="20.25" height="6.75"/><rect class="cls-7" x="261.58" y="550.03" width="20.25" height="6.75" transform="translate(-281.7 825.11) rotate(-90)"/><rect class="cls-7" x="302.08" y="550.03" width="20.25" height="6.75" transform="translate(-241.2 865.61) rotate(-90)"/><rect class="cls-7" x="275.08" y="536.53" width="6.75" height="6.75"/><rect class="cls-7" x="302.08" y="536.53" width="6.75" height="6.75"/><rect class="cls-8" x="281.83" y="536.53" width="6.75" height="6.75"/><rect class="cls-8" x="275.08" y="543.28" width="6.75" height="6.75"/><rect class="cls-8" x="275.08" y="536.53" width="6.75" height="6.75"/><rect class="cls-9" x="295.33" y="570.28" width="6.75" height="6.75"/><rect class="cls-9" x="281.83" y="570.28" width="13.5" height="6.75"/><rect class="cls-9" x="308.83" y="556.78" width="6.75" height="6.75"/><rect class="cls-7" x="275.08" y="563.53" width="6.75" height="6.75"/><rect class="cls-7" x="302.08" y="563.53" width="6.75" height="6.75"/><rect class="cls-9" x="302.08" y="563.53" width="6.75" height="6.75"/><rect class="cls-9" x="275.08" y="563.53" width="6.75" height="6.75"/><rect class="cls-9" x="268.33" y="556.78" width="6.75" height="6.75"/><path class="cls-5" d="M285.51,614.15V593.26H296.9v1.9h1.9v7.6h-1.9v1.9h1.9v7.59h-1.9v1.9Zm3.8-13.29H295v-3.8h-5.69Zm0,9.49H295v-5.69h-5.69Z"/><rect class="cls-4" x="27" y="27" width="9" height="9"/><rect class="cls-4" x="36" y="18" width="45" height="9"/><rect class="cls-4" x="18" y="36" width="9" height="9" transform="translate(-18 63) rotate(-90)"/></g></g></svg>