<svg width="40" height="40" viewBox="0 0 40 40" fill="none" xmlns="http://www.w3.org/2000/svg">
<g clip-path="url(#clip0_58_9936)">
<path d="M4.00172 3.85815H2.00098V5.8589H4.00172V3.85815Z" fill="white"/>
<path d="M4.00172 33.8569H2.00098V35.8577H4.00172V33.8569Z" fill="white"/>
<path d="M37.9993 33.8569H35.9985V35.8577H37.9993V33.8569Z" fill="white"/>
<path d="M36.0007 35.8577H34V37.8584H36.0007V35.8577Z" fill="white"/>
<path d="M2.00074 5.85889H0V33.8594H2.00074V5.85889Z" fill="white"/>
<path d="M6.00977 -0.00244951V1.99829L34.0103 1.99829V-0.00244951L6.00977 -0.00244951Z" fill="white"/>
<path d="M5.99976 1.85742H3.99902V3.85816H5.99976V1.85742Z" fill="white"/>
<path d="M36.0007 1.85742H34V3.85816H36.0007V1.85742Z" fill="white"/>
<path d="M37.9993 3.85815H35.9985V5.8589H37.9993V3.85815Z" fill="white"/>
<path d="M39.9998 5.85889H37.999V33.8594H39.9998V5.85889Z" fill="white"/>
<path d="M5.99976 35.8577H3.99902V37.8584H5.99976V35.8577Z" fill="white"/>
<path d="M34.0005 37.8584H6V39.8591H34.0005V37.8584Z" fill="white"/>
</g>
<path d="M16.9551 27.1465C11.9872 28.5732 11.9872 24.7686 10 24.293L16.9551 27.1465ZM23.9103 30V26.319C23.9475 25.8654 23.8835 25.4095 23.7225 24.9814C23.5614 24.5534 23.3071 24.1631 22.9763 23.8364C26.0962 23.5035 29.375 22.3716 29.375 17.1783C29.3747 15.8503 28.8411 14.5732 27.8846 13.6114C28.3375 12.4495 28.3055 11.1653 27.7952 10.0255C27.7952 10.0255 26.6228 9.69258 23.9103 11.4332C21.633 10.8424 19.2324 10.8424 16.9551 11.4332C14.2426 9.69258 13.0702 10.0255 13.0702 10.0255C12.5599 11.1653 12.5278 12.4495 12.9808 13.6114C12.0171 14.5803 11.483 15.8689 11.4904 17.2068C11.4904 22.3621 14.7692 23.494 17.8891 23.865C17.5622 24.1883 17.3101 24.574 17.1492 24.9968C16.9883 25.4196 16.9221 25.8701 16.9551 26.319V30" fill="white"/>
<defs>
<clipPath id="clip0_58_9936">
<rect width="40" height="39.8567" fill="white"/>
</clipPath>
</defs>
</svg>
