<svg xmlns="http://www.w3.org/2000/svg" viewBox="0 0 99 90"><defs><style>.cls-1{fill:#ff3932;}.cls-2{fill:#ff8884;}.cls-3{fill:#fff;}.cls-4{fill:#bf2b26;}</style></defs><g id="레이어_2" data-name="레이어 2"><g id="레이어_1-2" data-name="레이어 1"><polygon class="cls-1" points="90 18 90 36 81 36 81 54 72 54 72 63 63 63 63 72 54 72 54 81 45 81 45 72 36 72 36 63 27 63 27 54 18 54 18 36 9 36 9 18 18 18 18 9 36 9 36 18 45 18 45 27 54 27 54 18 63 18 63 9 81 9 81 18 90 18"/><rect x="90" y="18" width="9" height="18"/><rect x="81" y="36" width="9" height="18"/><rect x="81" y="9" width="9" height="9"/><rect x="72" y="54" width="9" height="9"/><rect x="63" width="18" height="9"/><rect x="63" y="63" width="9" height="9"/><rect x="54" y="72" width="9" height="9"/><rect x="54" y="9" width="9" height="9"/><rect x="45" y="81" width="9" height="9"/><rect x="45" y="18" width="9" height="9"/><rect x="36" y="72" width="9" height="9"/><rect x="36" y="9" width="9" height="9"/><rect x="27" y="63" width="9" height="9"/><rect x="18" width="18" height="9"/><rect x="18" y="54" width="9" height="9"/><rect x="9" y="36" width="9" height="18"/><rect x="9" y="9" width="9" height="9"/><rect y="18" width="9" height="18"/><rect class="cls-2" x="18" y="9" width="18" height="9"/><rect class="cls-2" x="4.5" y="22.5" width="18" height="9" transform="translate(40.5 13.5) rotate(90)"/><rect class="cls-2" x="63" y="9" width="18" height="9"/><rect class="cls-2" x="54" y="18" width="9" height="9"/><rect class="cls-3" x="18" y="18" width="9" height="9"/><rect class="cls-4" x="72" y="36" width="9" height="18"/><rect class="cls-4" x="63" y="54" width="9" height="9"/><rect class="cls-4" x="54" y="63" width="9" height="9"/><rect class="cls-4" x="45" y="72" width="9" height="9"/><rect class="cls-4" x="81" y="18" width="9" height="18"/></g></g></svg>