<svg xmlns="http://www.w3.org/2000/svg" viewBox="0 0 99 90"><defs><style>.cls-1{fill:#ff3932;}.cls-2{fill:#ff8884;}.cls-3{fill:#fff;}.cls-4{fill:#bf2b26;}</style></defs><g id="레이어_2" data-name="레이어 2"><g id="레이어_1-2" data-name="레이어 1"><polygon class="cls-1" points="63 9 63 18 54 18 54 27 45 27 45 18 36 18 36 9 18 9 18 18 9 18 9 36 18 36 18 54 27 54 27 63 36 63 36 72 45 72 45 81 54 81 54 72 63 72 63 63 63 63 63 54 63 9 63 9"/><rect x="90" y="18" width="9" height="18"/><rect x="81" y="36" width="9" height="18"/><rect x="81" y="9" width="9" height="9"/><rect x="72" y="54" width="9" height="9"/><rect x="63" width="18" height="9"/><rect x="63" y="63" width="9" height="9"/><rect x="54" y="72" width="9" height="9"/><rect x="54" y="9" width="9" height="9"/><rect x="45" y="81" width="9" height="9"/><rect x="45" y="18" width="9" height="9"/><rect x="36" y="72" width="9" height="9"/><rect x="36" y="9" width="9" height="9"/><rect x="27" y="63" width="9" height="9"/><rect x="18" width="18" height="9"/><rect x="18" y="54" width="9" height="9"/><rect x="9" y="36" width="9" height="18"/><rect x="9" y="9" width="9" height="9"/><rect y="18" width="9" height="18"/><rect class="cls-2" x="18" y="9" width="18" height="9"/><rect class="cls-2" x="4.5" y="22.5" width="18" height="9" transform="translate(40.5 13.5) rotate(90)"/><rect class="cls-2" x="63" y="9" height="9" transform="translate(126 27) rotate(180)"/><rect class="cls-2" x="54" y="18" width="9" height="9"/><rect class="cls-3" x="18" y="18" width="9" height="9"/><rect class="cls-4" x="63" y="54" height="9" transform="translate(126 117) rotate(180)"/><rect class="cls-4" x="54" y="63" width="9" height="9"/><rect class="cls-4" x="45" y="72" width="9" height="9"/></g></g></svg>