<svg xmlns="http://www.w3.org/2000/svg" viewBox="0 0 1260 620.31"><defs><style>.cls-1{fill:#fff;}.cls-2{fill:#5c5c5c;}.cls-3{fill:#b8b8b8;}</style></defs><g id="레이어_2" data-name="레이어 2"><g id="레이어_1-2" data-name="레이어 1"><rect class="cls-1" x="58.15" width="620.31" height="19.38"/><rect class="cls-2" x="58.15" y="600.92" width="620.31" height="19.38"/><rect class="cls-1" x="38.77" y="19.38" width="19.38" height="19.38"/><rect class="cls-1" x="19.38" y="38.77" width="19.38" height="19.38"/><rect class="cls-2" x="38.77" y="581.54" width="19.38" height="19.38" transform="translate(639.69 542.77) rotate(90)"/><rect class="cls-1" x="19.38" y="562.15" width="19.38" height="19.38" transform="translate(600.92 542.77) rotate(90)"/><rect class="cls-1" y="58.15" width="19.38" height="504"/><rect class="cls-1" x="581.54" width="620.31" height="19.38" transform="translate(1783.38 19.38) rotate(-180)"/><rect class="cls-2" x="581.54" y="600.92" width="620.31" height="19.38" transform="translate(1783.38 1221.23) rotate(-180)"/><rect class="cls-1" x="1201.85" y="19.38" width="19.38" height="19.38" transform="translate(2423.08 58.15) rotate(-180)"/><rect class="cls-2" x="1221.23" y="38.77" width="19.38" height="19.38" transform="translate(2461.85 96.92) rotate(-180)"/><rect class="cls-2" x="1201.85" y="581.54" width="19.38" height="19.38" transform="translate(1802.77 -620.31) rotate(90)"/><rect class="cls-2" x="1221.23" y="562.15" width="19.38" height="19.38" transform="translate(1802.77 -659.08) rotate(90)"/><rect class="cls-2" x="1240.62" y="58.15" width="19.38" height="504" transform="translate(2500.62 620.31) rotate(-180)"/><polygon class="cls-3" points="1221.23 58.15 1221.23 38.77 1201.85 38.77 1201.85 19.39 58.15 19.39 58.15 38.77 38.77 38.77 38.77 58.15 19.39 58.15 19.39 562.15 38.77 562.15 38.77 581.54 58.15 581.54 58.15 600.92 1201.85 600.92 1201.85 581.54 1221.23 581.54 1221.23 562.15 1240.62 562.15 1240.62 58.15 1221.23 58.15"/></g></g></svg>