<svg xmlns="http://www.w3.org/2000/svg" viewBox="0 0 148.42 144"><defs><style>.cls-1{fill:#1c0f09;}.cls-2{fill:#371d12;}.cls-3{fill:#fae100;}</style></defs><g id="레이어_2" data-name="레이어 2"><g id="레이어_1-2" data-name="레이어 1"><polygon class="cls-1" points="139.42 45 139.42 27 121.42 27 121.42 18 112.42 18 112.42 9 40.42 9 40.42 18 31.42 18 31.42 27 13.42 27 13.42 45 4.42 45 4.42 90 13.42 90 13.42 108 31.42 108 31.42 117 22.42 117 22.42 126 13.42 126 13.42 135 13.42 144 31.42 144 31.42 135 40.42 135 40.42 126 112.42 126 112.42 117 121.42 117 121.42 108 139.42 108 139.42 90 148.42 90 148.42 45 139.42 45"/><polygon class="cls-2" points="135 36 135 18 117 18 117 9 108 9 108 0 36 0 36 9 27 9 27 18 9 18 9 36 0 36 0 81 9 81 9 99 27 99 27 108 18 108 18 117 9 117 9 126 9 135 27 135 27 126 36 126 36 117 108 117 108 108 117 108 117 99 135 99 135 81 144 81 144 36 135 36"/><rect class="cls-3" x="19.79" y="44.51" width="22.38" height="7.46"/><rect class="cls-3" x="27.25" y="51.97" width="7.46" height="22.38"/><rect class="cls-3" x="78.07" y="44.51" width="7.46" height="29.83"/><rect class="cls-3" x="85.53" y="66.89" width="7.46" height="7.46"/><rect class="cls-3" x="101.83" y="44.51" width="7.46" height="29.83"/><rect class="cls-3" x="109.29" y="55.7" width="7.46" height="7.46"/><rect class="cls-3" x="116.75" y="44.51" width="7.46" height="11.19"/><rect class="cls-3" x="116.75" y="63.16" width="7.46" height="11.19"/><rect class="cls-3" x="57.08" y="44.51" width="7.46" height="7.46"/><rect class="cls-3" x="49.62" y="44.51" width="7.46" height="7.46"/><rect class="cls-3" x="57.08" y="51.97" width="7.46" height="7.46"/><rect class="cls-3" x="49.62" y="51.97" width="7.46" height="7.46"/><rect class="cls-3" x="44.51" y="63.16" width="7.46" height="11.19"/><rect class="cls-3" x="61.76" y="63.16" width="7.46" height="11.19"/><rect class="cls-3" x="49.62" y="59.43" width="14.92" height="7.46"/><rect class="cls-2" x="54.45" y="50.05" width="5.27" height="9.37"/></g></g></svg>