<svg width="44" height="51" viewBox="0 0 44 51" fill="none" xmlns="http://www.w3.org/2000/svg">
<path d="M38.4278 43.4893H6.57031V46.4508H38.4278V43.4893Z" fill="#8A8A8A"/>
<path d="M40.5113 41.2476H37.3486V44.4102H40.5113V41.2476Z" fill="#8A8A8A"/>
<path d="M42.5523 38.9653H39.3896V42.128H42.5523V38.9653Z" fill="#8A8A8A"/>
<path d="M7.35211 41.1636H4.18945V44.3262H7.35211V41.1636Z" fill="#8A8A8A"/>
<path d="M5.15191 38.9653H1.98926V42.128H5.15191V38.9653Z" fill="#8A8A8A"/>
<path d="M41.7995 4.24951H2.20117V39.449H41.7995V4.24951Z" fill="#B8B8B8"/>
<path d="M37.4002 2.05127H6.59961V4.66779H37.4002V2.05127Z" fill="#B8B8B8"/>
<path d="M37.4002 39.0332H6.59961V41.6497H37.4002V39.0332Z" fill="#B8B8B8"/>
<path d="M4.40199 4.24658H2.20117V6.4474H4.40199V4.24658Z" fill="white"/>
<path d="M4.40199 37.2456H2.20117V39.4464H4.40199V37.2456Z" fill="white"/>
<path d="M41.7994 37.2456H39.5986V39.4464H41.7994V37.2456Z" fill="white"/>
<path d="M39.6012 39.4463H37.4004V41.6471H39.6012V39.4463Z" fill="white"/>
<path d="M2.20082 6.44775H0V37.2483H2.20082V6.44775Z" fill="white"/>
<path d="M6.61035 -0.00013113V2.20068L37.4109 2.20068V-0.00013113L6.61035 -0.00013113Z" fill="white"/>
<path d="M6.59925 2.0459H4.39844V4.24671H6.59925V2.0459Z" fill="white"/>
<path d="M39.6012 2.0459H37.4004V4.24671H39.6012V2.0459Z" fill="white"/>
<path d="M41.7994 4.24658H39.5986V6.4474H41.7994V4.24658Z" fill="white"/>
<path d="M43.9996 6.44775H41.7988V37.2483H43.9996V6.44775Z" fill="white"/>
<path d="M6.59925 39.4463H4.39844V41.6471H6.59925V39.4463Z" fill="white"/>
<path d="M37.4002 41.647H6.59961V43.8478H37.4002V41.647Z" fill="white"/>
<path d="M4.40199 41.647H2.20117V43.8478H4.40199V41.647Z" fill="#8A8A8A"/>
<path d="M41.8024 41.647H39.6016V43.8478H41.8024V41.647Z" fill="#8A8A8A"/>
<path d="M39.6012 43.8452H37.4004V46.046H39.6012V43.8452Z" fill="#8A8A8A"/>
<path d="M6.60218 43.8452H4.40137V46.046H6.60218V43.8452Z" fill="#8A8A8A"/>
<path d="M37.4002 46.0459H6.59961V48.2467H37.4002V46.0459Z" fill="#8A8A8A"/>
<path d="M4.40199 43.8452H2.20117V46.046H4.40199V43.8452Z" fill="white"/>
<path d="M41.8024 43.8452H39.6016V46.046H41.8024V43.8452Z" fill="white"/>
<path d="M39.6012 46.043H37.4004V48.2438H39.6012V46.043Z" fill="white"/>
<path d="M2.20082 13.0444H0V43.845H2.20082V13.0444Z" fill="white"/>
<path d="M43.9996 13.0444H41.7988V43.845H43.9996V13.0444Z" fill="white"/>
<path d="M6.60218 46.043H4.40137V48.2438H6.60218V46.043Z" fill="white"/>
<path d="M37.4002 48.2441H6.59961V50.445H37.4002V48.2441Z" fill="white"/>
<g clip-path="url(#clip0_87_2515)">
<path d="M16.7558 21.2764V22.6558H18.1299V24.0352H19.5039V25.4146H20.8779V26.794H22.252L22.252 28.1734H23.626L23.626 15.7588H22.252V17.1382H20.8779V18.5176H19.5039V19.897H18.1299V21.2764H16.7558Z" fill="white"/>
<path d="M15.3818 21.2764H16.7559V22.6558H15.3818V21.2764Z" fill="white"/>
<path d="M16.7559 22.6558H18.1299V24.0352H16.7559V22.6558Z" fill="white"/>
<path d="M16.7559 19.897H18.1299V21.2764H16.7559V19.897Z" fill="white"/>
<path d="M18.1299 24.0352H19.5039V25.4146H18.1299V24.0352Z" fill="white"/>
<path d="M18.1299 18.5176H19.5039V19.897H18.1299V18.5176Z" fill="white"/>
<path d="M19.5039 25.4146H20.8779V26.794H19.5039V25.4146Z" fill="white"/>
<path d="M19.5039 17.1382H20.8779V18.5176H19.5039V17.1382Z" fill="white"/>
<path d="M20.8779 26.7939H22.252V28.1733H20.8779V26.7939Z" fill="white"/>
<path d="M20.8779 15.7588H22.252V17.1382H20.8779V15.7588Z" fill="white"/>
<path d="M22.252 28.1733H23.626V29.5527H22.252V28.1733Z" fill="white"/>
<path d="M22.252 14.3794H23.626V15.7588H22.252V14.3794Z" fill="white"/>
<path d="M23.626 29.5527H25V30.9321H23.626V29.5527Z" fill="white"/>
<path d="M23.626 28.1734V29.5528H25L25 13H23.626V14.3794V15.7588L23.626 28.1734Z" fill="white"/>
</g>
<defs>
<clipPath id="clip0_87_2515">
<rect width="9.61818" height="17.9322" fill="white" transform="matrix(-1 0 0 1 25 13)"/>
</clipPath>
</defs>
</svg>
