<svg xmlns="http://www.w3.org/2000/svg" viewBox="0 0 171 162"><defs><style>.cls-1{fill:#fff;}.cls-2{fill:#748cda;}.cls-3{fill:#bcc8fa;}.cls-4{fill:#ededed;}.cls-5{fill:#4258c5;}</style></defs><g id="레이어_2" data-name="레이어 2"><g id="레이어_1-2" data-name="레이어 1"><rect class="cls-1" x="36" y="9" width="99" height="81"/><polygon class="cls-2" points="162 72 162 63 153 63 153 54 144 54 144 81 135 81 135 108 126 108 126 117 45 117 45 108 36 108 36 81 27 81 27 54 18 54 18 63 9 63 9 72 18 72 18 81 9 81 9 153 18 153 27 153 36 153 135 153 144 153 153 153 162 153 162 81 153 81 153 72 162 72"/><rect x="27" width="108" height="9"/><rect x="54" y="27" width="63" height="9"/><rect x="54" y="54" width="63" height="9"/><rect x="54" y="81" width="63" height="9"/><rect x="27" y="9" width="9" height="81"/><rect x="18" y="45" width="9" height="9"/><rect x="9" y="54" width="9" height="9"/><rect y="63" width="9" height="90"/><rect x="9" y="72" width="9" height="9"/><rect x="18" y="81" width="9" height="9"/><rect x="27" y="90" width="9" height="9"/><rect x="36" y="99" width="9" height="9"/><rect y="153" width="90" height="9"/><rect x="9" y="144" width="9" height="9"/><rect x="18" y="135" width="9" height="9"/><rect x="27" y="126" width="9" height="9"/><rect x="36" y="117" width="9" height="9"/><rect class="cls-3" x="18" y="144" width="9" height="9"/><rect class="cls-3" x="27" y="135" width="9" height="9"/><rect class="cls-3" x="36" y="126" width="9" height="9"/><rect x="45" y="108" width="72" height="9"/><rect x="36" width="108" height="9" transform="translate(180 9) rotate(-180)"/><rect x="135" y="9" width="9" height="81" transform="translate(279 99) rotate(-180)"/><rect x="144" y="45" width="9" height="9" transform="translate(297 99) rotate(-180)"/><rect x="153" y="54" width="9" height="9" transform="translate(315 117) rotate(-180)"/><rect x="162" y="63" width="9" height="90" transform="translate(333 216) rotate(-180)"/><rect x="153" y="72" width="9" height="9" transform="translate(315 153) rotate(-180)"/><rect x="144" y="81" width="9" height="9" transform="translate(297 171) rotate(-180)"/><rect x="135" y="90" width="9" height="9" transform="translate(279 189) rotate(-180)"/><rect x="126" y="99" width="9" height="9" transform="translate(261 207) rotate(-180)"/><rect x="81" y="153" width="90" height="9" transform="translate(252 315) rotate(-180)"/><rect x="153" y="144" width="9" height="9" transform="translate(315 297) rotate(-180)"/><rect x="144" y="135" width="9" height="9" transform="translate(297 279) rotate(-180)"/><rect x="135" y="126" width="9" height="9" transform="translate(279 261) rotate(-180)"/><rect x="126" y="117" width="9" height="9" transform="translate(261 243) rotate(-180)"/><rect x="54" y="108" width="72" height="9" transform="translate(180 225) rotate(-180)"/><rect class="cls-4" x="45" y="99" width="81" height="9" transform="translate(171 207) rotate(-180)"/><rect class="cls-4" x="85.5" y="49.5" width="90" height="9" transform="translate(184.5 -76.5) rotate(90)"/><polygon class="cls-5" points="18 54 18 63 9 63 9 72 18 72 18 81 27 81 27 54 18 54"/><polygon class="cls-5" points="153 54 153 63 162 63 162 72 153 72 153 81 144 81 144 54 153 54"/><rect class="cls-3" x="45" y="117" width="81" height="9"/></g></g></svg>