<svg xmlns="http://www.w3.org/2000/svg" viewBox="0 0 139.5 139.5"><defs><style>.cls-1{fill:#bcc8fa;}.cls-2{fill:#fff;}.cls-3{fill:#d7defc;}.cls-4{opacity:0.5;}.cls-5{fill:#8d96bb;}.cls-6{fill:#b2ff8f;}.cls-7{fill:#474b5e;}</style></defs><g id="레이어_2" data-name="레이어 2"><g id="레이어_1-2" data-name="레이어 1"><rect class="cls-1" x="18" y="18" width="103.5" height="103.5"/><rect class="cls-2" x="27" y="18" width="27" height="9"/><rect class="cls-2" x="18" y="27" width="9" height="9"/><rect class="cls-2" x="72" y="18" width="9" height="9"/><rect class="cls-3" x="18" y="36" width="9" height="18"/><rect class="cls-3" x="112.5" y="27" width="9" height="9"/><rect class="cls-3" x="58.5" y="13.5" width="9" height="18" transform="translate(40.5 85.5) rotate(-90)"/><rect class="cls-3" x="92.25" y="6.75" width="9" height="31.5" transform="translate(74.25 119.25) rotate(-90)"/><rect class="cls-1" x="18" y="9" width="103.5" height="9"/><rect class="cls-1" x="-38.25" y="65.25" width="103.5" height="9" transform="translate(-56.25 83.25) rotate(-90)"/><rect class="cls-1" x="74.25" y="65.25" width="103.5" height="9" transform="translate(56.25 195.75) rotate(-90)"/><rect class="cls-1" x="18" y="121.5" width="103.5" height="9"/><rect class="cls-1" x="18" y="18" width="9" height="9"/><rect class="cls-1" x="18" y="112.5" width="9" height="9"/><rect class="cls-1" x="112.5" y="112.5" width="9" height="9"/><rect class="cls-1" x="112.5" y="18" width="9" height="9"/><g class="cls-4"><rect class="cls-5" x="18" y="9" width="103.5" height="9"/><rect class="cls-5" x="-38.25" y="65.25" width="103.5" height="9" transform="translate(-56.25 83.25) rotate(-90)"/><rect class="cls-5" x="74.25" y="65.25" width="103.5" height="9" transform="translate(56.25 195.75) rotate(-90)"/><rect class="cls-5" x="18" y="121.5" width="103.5" height="9"/><rect class="cls-5" x="18" y="18" width="9" height="9"/><rect class="cls-5" x="18" y="112.5" width="9" height="9"/><rect class="cls-5" x="112.5" y="112.5" width="9" height="9"/><rect class="cls-5" x="112.5" y="18" width="9" height="9"/></g><rect class="cls-5" x="18" width="103.5" height="9"/><rect class="cls-5" x="83.25" y="65.25" width="103.5" height="9" transform="translate(65.25 204.75) rotate(-90)"/><rect class="cls-5" x="-47.25" y="65.25" width="103.5" height="9" transform="translate(-65.25 74.25) rotate(-90)"/><rect class="cls-5" x="121.5" y="9" width="9" height="9"/><rect class="cls-5" x="9" y="9" width="9" height="9"/><rect class="cls-5" x="18" y="130.5" width="103.5" height="9" transform="translate(139.5 270) rotate(180)"/><rect class="cls-5" x="9" y="117" width="9" height="9" transform="translate(27 243) rotate(180)"/><rect class="cls-5" x="121.5" y="121.5" width="9" height="9" transform="translate(252 252) rotate(180)"/><rect class="cls-5" x="36" y="36" width="67.5" height="13.5"/><rect class="cls-5" x="36" y="63" width="67.5" height="13.5"/><rect class="cls-5" x="36" y="90" width="67.5" height="13.5"/><rect class="cls-6" x="36" y="40.5" width="67.5"/><rect class="cls-7" x="36" y="40.5" width="4.5" height="9"/><rect class="cls-7" x="67.5" y="4.5" width="4.5" height="67.5" transform="translate(31.5 108) rotate(-90)"/><rect class="cls-7" x="36" y="67.5" width="4.5" height="9"/><rect class="cls-7" x="67.5" y="31.5" width="4.5" height="67.5" transform="translate(4.5 135) rotate(-90)"/><rect class="cls-7" x="36" y="94.5" width="4.5" height="9"/><rect class="cls-7" x="67.5" y="58.5" width="4.5" height="67.5" transform="translate(-22.5 162) rotate(-90)"/></g></g></svg>