<svg xmlns="http://www.w3.org/2000/svg" viewBox="0 0 139.5 139.5"><defs><style>.cls-1{fill:#bcc8fa;}.cls-2{fill:#fff;}.cls-3{fill:#d7defc;}.cls-4{opacity:0.5;}.cls-5{fill:#8d96bb;}.cls-6{fill:#474b5e;}</style></defs><g id="레이어_2" data-name="레이어 2"><g id="레이어_1-2" data-name="레이어 1"><rect class="cls-1" x="18" y="18" width="103.5" height="103.5"/><rect class="cls-2" x="72" y="18" width="9" height="9"/><rect class="cls-3" x="18" y="36" width="9" height="18"/><rect class="cls-3" x="112.5" y="27" width="9" height="9"/><rect class="cls-3" x="58.5" y="13.5" width="9" height="18" transform="translate(40.5 85.5) rotate(-90)"/><rect class="cls-3" x="92.25" y="6.75" width="9" height="31.5" transform="translate(74.25 119.25) rotate(-90)"/><rect class="cls-1" x="18" y="9" width="103.5" height="9"/><rect class="cls-1" x="-38.25" y="65.25" width="103.5" height="9" transform="translate(-56.25 83.25) rotate(-90)"/><rect class="cls-1" x="74.25" y="65.25" width="103.5" height="9" transform="translate(56.25 195.75) rotate(-90)"/><rect class="cls-1" x="18" y="121.5" width="103.5" height="9"/><rect class="cls-1" x="18" y="18" width="9" height="9"/><rect class="cls-1" x="18" y="112.5" width="9" height="9"/><rect class="cls-1" x="112.5" y="112.5" width="9" height="9"/><rect class="cls-1" x="112.5" y="18" width="9" height="9"/><g class="cls-4"><rect class="cls-5" x="18" y="9" width="103.5" height="9"/><rect class="cls-5" x="-38.25" y="65.25" width="103.5" height="9" transform="translate(-56.25 83.25) rotate(-90)"/><rect class="cls-5" x="74.25" y="65.25" width="103.5" height="9" transform="translate(56.25 195.75) rotate(-90)"/><rect class="cls-5" x="18" y="121.5" width="103.5" height="9"/><rect class="cls-5" x="18" y="18" width="9" height="9"/><rect class="cls-5" x="18" y="112.5" width="9" height="9"/><rect class="cls-5" x="112.5" y="112.5" width="9" height="9"/><rect class="cls-5" x="112.5" y="18" width="9" height="9"/></g><rect class="cls-5" x="18" width="103.5" height="9"/><rect class="cls-5" x="83.25" y="65.25" width="103.5" height="9" transform="translate(65.25 204.75) rotate(-90)"/><rect class="cls-5" x="-47.25" y="65.25" width="103.5" height="9" transform="translate(-65.25 74.25) rotate(-90)"/><rect class="cls-5" x="121.5" y="9" width="9" height="9"/><rect class="cls-5" x="9" y="9" width="9" height="9"/><rect class="cls-5" x="18" y="130.5" width="103.5" height="9" transform="translate(139.5 270) rotate(180)"/><rect class="cls-5" x="9" y="117" width="9" height="9" transform="translate(27 243) rotate(180)"/><rect class="cls-5" x="121.5" y="121.5" width="9" height="9" transform="translate(252 252) rotate(180)"/><rect class="cls-5" x="29.98" y="63" width="79.55" height="13.5" transform="translate(69.75 -28.89) rotate(45)"/><rect class="cls-6" x="42.56" y="37.13" width="4.5" height="9" transform="translate(42.56 -19.49) rotate(45)"/><rect class="cls-6" x="64.32" y="33.16" width="4.5" height="79.55" transform="translate(165.21 77.43) rotate(135)"/><rect class="cls-6" x="64.32" y="33.16" width="4.5" height="79.55" transform="translate(165.21 77.43) rotate(135)"/><rect class="cls-5" x="38.38" y="83.29" width="33.02" height="9" transform="translate(-46 64.53) rotate(-45)"/><rect class="cls-6" x="42.56" y="93.38" width="4.5" height="9" transform="translate(-56.08 60.35) rotate(-45)"/><rect class="cls-5" x="71.28" y="50.39" width="33.03" height="9" transform="translate(-13.1 78.15) rotate(-45)"/><rect class="cls-5" x="64.59" y="66.84" width="13.5" height="9" transform="translate(-29.55 71.34) rotate(-45)"/><polygon class="cls-6" points="40.03 96.28 40.03 96.28 36.85 93.1 40.03 96.28"/><rect class="cls-6" x="66.5" y="47.87" width="33.02" height="4.5" transform="translate(-11.12 73.39) rotate(-45)"/><rect class="cls-5" x="59.82" y="64.32" width="13.5" height="4.5" transform="translate(-27.57 66.57) rotate(-45)"/><rect class="cls-6" x="33.61" y="80.77" width="33.02" height="4.5" transform="translate(-44.02 59.75) rotate(-45)"/></g></g></svg>