<svg xmlns="http://www.w3.org/2000/svg" viewBox="0 0 117 261"><defs><style>.cls-1{fill:#ffd7d6;}.cls-2{fill:#ff8884;}.cls-3{fill:#bfa1a1;}.cls-4{fill:#bf6663;}.cls-5{fill:#ff615b;}.cls-6{fill:#fff7f7;}.cls-7{fill:#ffa09d;}.cls-8{fill:#ffdfde;}.cls-9{fill:#bcc8fa;}.cls-10{fill:#ff817c;}</style></defs><g id="레이어_2" data-name="레이어 2"><g id="레이어_1-2" data-name="레이어 1"><rect class="cls-1" x="9" y="54" width="99" height="117"/><rect class="cls-2" x="9" y="162" width="99" height="90"/><rect x="72" width="18" height="9"/><rect x="90" y="9" width="9" height="45"/><rect x="63" y="9" width="9" height="45"/><rect x="18" y="45" width="72" height="9"/><rect x="9" y="54" width="9" height="9"/><rect y="63" width="9" height="180"/><rect x="9" y="243" width="9" height="9"/><rect x="99" y="54" width="9" height="9" transform="translate(207 117) rotate(-180)"/><rect x="108" y="63" width="9" height="180" transform="translate(225 306) rotate(-180)"/><rect class="cls-3" x="99" y="63" width="9" height="99" transform="translate(207 225) rotate(-180)"/><rect class="cls-4" x="99" y="162" width="9" height="90" transform="translate(207 414) rotate(-180)"/><rect class="cls-4" x="54" y="207" width="9" height="81" transform="translate(306 189) rotate(90)"/><rect x="99" y="243" width="9" height="9" transform="translate(207 495) rotate(-180)"/><rect x="18" y="252" width="81" height="9"/><rect class="cls-5" x="45" y="63" width="27" height="9"/><rect class="cls-6" x="18" y="54" width="18" height="9"/><rect class="cls-6" x="9" y="63" width="9" height="9"/><rect class="cls-5" x="72" y="9" width="18" height="36"/><rect class="cls-7" x="72" y="9" width="9" height="36"/><rect x="27" y="81" width="63" height="9"/><rect x="27" y="126" width="63" height="9"/><rect x="18" y="90" width="9" height="36"/><rect x="90" y="90" width="9" height="36"/><rect class="cls-5" x="27" y="144" width="9" height="9"/><rect class="cls-5" x="81" y="144" width="9" height="9"/><rect class="cls-8" x="54" y="180" width="9" height="9"/><rect class="cls-8" x="54" y="207" width="9" height="9"/><rect class="cls-8" x="54" y="234" width="9" height="9"/><rect class="cls-5" x="45" y="144" width="27" height="18"/><rect class="cls-8" x="81" y="171" width="9" height="9"/><rect class="cls-8" x="72" y="180" width="9" height="9"/><rect class="cls-8" x="81" y="198" width="9" height="9"/><rect class="cls-8" x="72" y="207" width="9" height="9"/><rect class="cls-8" x="81" y="225" width="9" height="9"/><rect class="cls-8" x="72" y="234" width="9" height="9"/><rect class="cls-8" x="27" y="171" width="9" height="9"/><rect class="cls-8" x="36" y="180" width="9" height="9"/><rect class="cls-8" x="27" y="198" width="9" height="9"/><rect class="cls-8" x="36" y="207" width="9" height="9"/><rect class="cls-8" x="27" y="225" width="9" height="9"/><rect class="cls-8" x="36" y="234" width="9" height="9"/><rect class="cls-9" x="27" y="90" width="63" height="36"/><rect class="cls-10" x="45" y="144" width="9" height="9"/><rect class="cls-6" x="36" y="99" width="36" height="9"/></g></g></svg>