<svg width="184" height="54" viewBox="0 0 184 54" fill="none" xmlns="http://www.w3.org/2000/svg">
<path d="M53.1011 34.7202V17.7404H62.3628V19.284H63.9064V27.0021H62.3628V28.5457H56.1883V34.7202H53.1011ZM56.1883 25.4585H60.8192V20.8276H56.1883V25.4585ZM65.4561 34.7202V17.7404H74.7178V19.284H76.2614V27.0021H74.7178V30.0893H76.2614V34.7202H73.1742V31.633H71.6306V28.5457H68.5433V34.7202H65.4561ZM68.5433 25.4585H73.1742V20.8276H68.5433V25.4585ZM77.8111 33.1766V19.284H79.3547V17.7404H87.0728V19.284H88.6165V33.1766H87.0728V34.7202H79.3547V33.1766H77.8111ZM80.8983 31.633H85.5292V20.8276H80.8983V31.633ZM90.1661 33.1766V28.5457H93.2534V31.633H97.8842V17.7404H100.971V33.1766H99.4278V34.7202H91.7097V33.1766H90.1661ZM102.521 34.7202V17.7404H111.783V20.8276H105.608V23.9149H111.783V27.0021H105.608V31.633H111.783V34.7202H102.521ZM113.32 33.1766V19.284H114.864V17.7404H122.582V19.284H124.126V22.3712H121.039V20.8276H116.408V31.633H121.039V30.0893H124.126V33.1766H122.582V34.7202H114.864V33.1766H113.32ZM125.675 20.8276V17.7404H138.024V20.8276H133.394V34.7202H130.306V20.8276H125.675Z" fill="white"/>
<path d="M162.138 0.519043H23.6831V2.34082H162.138V0.519043Z" fill="white"/>
<path d="M167.605 2.34058H162.139V4.16236H167.605V2.34058Z" fill="white"/>
<path d="M171.247 4.16235H167.604V5.98413H171.247V4.16235Z" fill="white"/>
<path d="M174.892 5.98438H171.248V7.80616H174.892V5.98438Z" fill="white"/>
<path d="M176.713 7.8064H174.891V9.62818H176.713V7.8064Z" fill="white"/>
<path d="M178.535 9.62817H176.713V11.45H178.535V9.62817Z" fill="white"/>
<path d="M180.356 11.4495H178.535V13.2712H180.356V11.4495Z" fill="white"/>
<path d="M182.178 13.2712H180.356V16.9148H182.178V13.2712Z" fill="white"/>
<path d="M184 16.915H182.178V36.9546H184V16.915Z" fill="white"/>
<path d="M21.8621 2.34058L160.317 2.34058V0.518795L21.8621 0.518795V2.34058Z" fill="white"/>
<path d="M16.396 4.16235L21.8613 4.16235V2.34057L16.396 2.34057V4.16235Z" fill="white"/>
<path d="M12.7529 5.98437L16.3965 5.98438V4.16259H12.7529V5.98437Z" fill="white"/>
<path d="M9.10937 7.8064L12.7529 7.8064V5.98462H9.10937V7.8064Z" fill="white"/>
<path d="M7.28711 9.62817H9.10889V7.80639H7.28711V9.62817Z" fill="white"/>
<path d="M5.46533 11.4495H7.28711V9.62768H5.46533V11.4495Z" fill="white"/>
<path d="M3.64355 13.2712H5.46533V11.4495H3.64355V13.2712Z" fill="white"/>
<path d="M1.82226 16.915H3.64404L3.64404 13.2715H1.82226L1.82226 16.915Z" fill="white"/>
<path d="M-3.33786e-06 36.9543H1.82178L1.82178 16.9148H-3.33786e-06L-3.33786e-06 36.9543Z" fill="white"/>
<path d="M162.138 51.5291H23.6831V53.3508H162.138V51.5291Z" fill="white"/>
<path d="M167.605 49.707H162.139V51.5288H167.605V49.707Z" fill="white"/>
<path d="M171.247 47.8853H167.604V49.707H171.247V47.8853Z" fill="white"/>
<path d="M174.892 46.0632H171.248V47.885H174.892V46.0632Z" fill="white"/>
<path d="M176.713 44.2417H174.891V46.0635H176.713V44.2417Z" fill="white"/>
<path d="M178.535 42.4199H176.713V44.2417H178.535V42.4199Z" fill="white"/>
<path d="M180.356 40.5984H178.535V42.4202H180.356V40.5984Z" fill="white"/>
<path d="M182.178 36.9543H180.356V40.5979H182.178V36.9543Z" fill="white"/>
<path d="M184 16.915H182.178V36.9546H184V16.915Z" fill="white"/>
<path d="M21.8621 53.3506L160.317 53.3506V51.5288L21.8621 51.5288V53.3506Z" fill="white"/>
<path d="M16.396 51.5291H21.8613V49.7073H16.396V51.5291Z" fill="white"/>
<path d="M12.7529 49.707H16.3965V47.8853H12.7529V49.707Z" fill="white"/>
<path d="M9.10937 47.8853H12.7529V46.0635H9.10937V47.8853Z" fill="white"/>
<path d="M7.28711 46.0632H9.10889V44.2415H7.28711V46.0632Z" fill="white"/>
<path d="M5.46533 44.2417H7.28711V42.4199H5.46533V44.2417Z" fill="white"/>
<path d="M3.64355 42.4199H5.46533V40.5981H3.64355V42.4199Z" fill="white"/>
<path d="M1.82226 40.5984H3.64404L3.64404 36.9548H1.82226L1.82226 40.5984Z" fill="white"/>
<path d="M-3.33786e-06 36.9543H1.82178L1.82178 16.9148H-3.33786e-06L-3.33786e-06 36.9543Z" fill="white"/>
<path d="M162.138 0.519043H23.6831V2.34082H162.138V0.519043Z" fill="white"/>
<path d="M167.605 2.34058H162.139V4.16236H167.605V2.34058Z" fill="white"/>
<path d="M171.247 4.16235H167.604V5.98413H171.247V4.16235Z" fill="white"/>
<path d="M174.892 5.98438H171.248V7.80616H174.892V5.98438Z" fill="white"/>
<path d="M176.713 7.8064H174.891V9.62818H176.713V7.8064Z" fill="white"/>
<path d="M178.535 9.62817H176.713V11.45H178.535V9.62817Z" fill="white"/>
<path d="M180.356 11.4495H178.535V13.2712H180.356V11.4495Z" fill="white"/>
<path d="M182.178 13.2712H180.356V16.9148H182.178V13.2712Z" fill="white"/>
<path d="M184 16.915H182.178V36.9546H184V16.915Z" fill="white"/>
<path d="M21.8621 2.34058L160.317 2.34058V0.518795L21.8621 0.518795V2.34058Z" fill="white"/>
<path d="M16.396 4.16235L21.8613 4.16235V2.34057L16.396 2.34057V4.16235Z" fill="white"/>
<path d="M12.7529 5.98437L16.3965 5.98438V4.16259H12.7529V5.98437Z" fill="white"/>
<path d="M9.10937 7.8064L12.7529 7.8064V5.98462H9.10937V7.8064Z" fill="white"/>
<path d="M7.28711 9.62817H9.10889V7.80639H7.28711V9.62817Z" fill="white"/>
<path d="M5.46533 11.4495H7.28711V9.62768H5.46533V11.4495Z" fill="white"/>
<path d="M3.64355 13.2712H5.46533V11.4495H3.64355V13.2712Z" fill="white"/>
<path d="M1.82226 16.915H3.64404L3.64404 13.2715H1.82226L1.82226 16.915Z" fill="white"/>
<path d="M-3.33786e-06 36.9543H1.82178L1.82178 16.9148H-3.33786e-06L-3.33786e-06 36.9543Z" fill="white"/>
<path d="M162.138 51.5291H23.6831V53.3508H162.138V51.5291Z" fill="white"/>
<path d="M167.605 49.707H162.139V51.5288H167.605V49.707Z" fill="white"/>
<path d="M171.247 47.8853H167.604V49.707H171.247V47.8853Z" fill="white"/>
<path d="M174.892 46.0632H171.248V47.885H174.892V46.0632Z" fill="white"/>
<path d="M176.713 44.2417H174.891V46.0635H176.713V44.2417Z" fill="white"/>
<path d="M178.535 42.4199H176.713V44.2417H178.535V42.4199Z" fill="white"/>
<path d="M180.356 40.5984H178.535V42.4202H180.356V40.5984Z" fill="white"/>
<path d="M182.178 36.9543H180.356V40.5979H182.178V36.9543Z" fill="white"/>
<path d="M184 16.915H182.178V36.9546H184V16.915Z" fill="white"/>
<path d="M21.8621 53.3506L160.317 53.3506V51.5288L21.8621 51.5288V53.3506Z" fill="white"/>
<path d="M16.396 51.5291H21.8613V49.7073H16.396V51.5291Z" fill="white"/>
<path d="M12.7529 49.707H16.3965V47.8853H12.7529V49.707Z" fill="white"/>
<path d="M9.10937 47.8853H12.7529V46.0635H9.10937V47.8853Z" fill="white"/>
<path d="M7.28711 46.0632H9.10889V44.2415H7.28711V46.0632Z" fill="white"/>
<path d="M5.46533 44.2417H7.28711V42.4199H5.46533V44.2417Z" fill="white"/>
<path d="M3.64355 42.4199H5.46533V40.5981H3.64355V42.4199Z" fill="white"/>
<path d="M1.82226 40.5984H3.64404L3.64404 36.9548H1.82226L1.82226 40.5984Z" fill="white"/>
<path d="M-3.33786e-06 36.9543H1.82178L1.82178 16.9148H-3.33786e-06L-3.33786e-06 36.9543Z" fill="white"/>
</svg>
