<svg xmlns="http://www.w3.org/2000/svg" viewBox="0 0 730 501.35"><defs><style>.cls-1{fill:#ffecc5;}.cls-2{fill:#926749;}.cls-3{fill:#ffe3a7;}.cls-4{fill:#ffd06d;}</style></defs><g id="레이어_2" data-name="레이어 2"><g id="레이어_1-2" data-name="레이어 1"><rect class="cls-1" x="75.52" y="50.34" width="574.77" height="400.66"/><rect class="cls-1" x="671.29" y="50.34" width="37.71" height="400.66"/><rect class="cls-1" x="18.43" y="50.34" width="42.85" height="400.66"/><polygon class="cls-2" points="381.78 434.22 365 434.22 365 451.01 381.78 451.01 398.56 451.01 398.56 434.22 381.78 434.22"/><polygon class="cls-2" points="130.06 434.22 113.28 434.22 113.28 451.01 130.06 451.01 146.84 451.01 146.84 434.22 130.06 434.22"/><polygon class="cls-2" points="163.62 451.01 146.84 451.01 146.84 467.79 163.62 467.79 180.4 467.79 197.18 467.79 197.18 451.01 180.4 451.01 163.62 451.01"/><polygon class="cls-2" points="213.97 434.22 197.18 434.22 197.18 451.01 213.97 451.01 230.75 451.01 230.75 434.22 213.97 434.22"/><polygon class="cls-2" points="247.53 451.01 230.75 451.01 230.75 467.79 247.53 467.79 264.31 467.79 281.09 467.79 281.09 451.01 264.31 451.01 247.53 451.01"/><polygon class="cls-2" points="297.87 434.22 281.09 434.22 281.09 451.01 297.87 451.01 314.65 451.01 314.65 434.22 297.87 434.22"/><polygon class="cls-2" points="331.44 451.01 314.65 451.01 314.65 467.79 331.44 467.79 348.22 467.79 365 467.79 365 451.01 348.22 451.01 331.44 451.01"/><path class="cls-2" d="M79.71,451V50.34h33.57V33.56H73.42V16.78H56.64V33.56H23.07V16.78H6.29V33.56H0V467.79H6.29v16.78H23.07V467.79H56.64v16.78H73.42V467.79h39.86V451H79.71Zm-62.93,0h-2.1V50.34H65V451Z"/><polygon class="cls-2" points="130.06 67.13 146.84 67.13 146.84 50.34 130.06 50.34 113.28 50.34 113.28 67.13 130.06 67.13"/><polygon class="cls-2" points="180.4 50.34 197.18 50.34 197.18 33.56 180.4 33.56 163.62 33.56 146.84 33.56 146.84 50.34 163.62 50.34 180.4 50.34"/><polygon class="cls-2" points="213.97 67.13 230.75 67.13 230.75 50.34 213.97 50.34 197.18 50.34 197.18 67.13 213.97 67.13"/><polygon class="cls-2" points="264.31 50.34 281.09 50.34 281.09 33.56 264.31 33.56 247.53 33.56 230.75 33.56 230.75 50.34 247.53 50.34 264.31 50.34"/><polygon class="cls-2" points="297.87 67.13 314.65 67.13 314.65 50.34 297.87 50.34 281.09 50.34 281.09 67.13 297.87 67.13"/><polygon class="cls-2" points="348.22 50.34 365 50.34 365 33.56 348.22 33.56 331.44 33.56 314.65 33.56 314.65 50.34 331.44 50.34 348.22 50.34"/><polygon class="cls-2" points="381.78 67.13 398.56 67.13 398.56 50.34 381.78 50.34 365 50.34 365 67.13 381.78 67.13"/><polygon class="cls-2" points="465.69 434.22 448.91 434.22 448.91 451.01 465.69 451.01 482.47 451.01 482.47 434.22 465.69 434.22"/><polygon class="cls-2" points="415.35 451.01 398.56 451.01 398.56 467.79 415.35 467.79 432.13 467.79 448.91 467.79 448.91 451.01 432.13 451.01 415.35 451.01"/><polygon class="cls-2" points="432.13 50.34 448.91 50.34 448.91 33.56 432.13 33.56 415.35 33.56 398.56 33.56 398.56 50.34 415.35 50.34 432.13 50.34"/><polygon class="cls-2" points="465.69 67.13 482.47 67.13 482.47 50.34 465.69 50.34 448.91 50.34 448.91 67.13 465.69 67.13"/><polygon class="cls-2" points="549.6 434.22 532.82 434.22 532.82 451.01 549.6 451.01 566.38 451.01 566.38 434.22 549.6 434.22"/><polygon class="cls-2" points="499.25 451.01 482.47 451.01 482.47 467.79 499.25 467.79 516.03 467.79 532.82 467.79 532.82 451.01 516.03 451.01 499.25 451.01"/><polygon class="cls-2" points="516.03 50.34 532.82 50.34 532.82 33.56 516.03 33.56 499.25 33.56 482.47 33.56 482.47 50.34 499.25 50.34 516.03 50.34"/><polygon class="cls-2" points="549.6 67.13 566.38 67.13 566.38 50.34 549.6 50.34 532.82 50.34 532.82 67.13 549.6 67.13"/><polygon class="cls-2" points="583.16 451.01 566.38 451.01 566.38 467.79 583.16 467.79 599.94 467.79 616.72 467.79 616.72 451.01 599.94 451.01 583.16 451.01"/><polygon class="cls-2" points="599.94 50.34 616.72 50.34 616.72 33.56 599.94 33.56 583.16 33.56 566.38 33.56 566.38 50.34 583.16 50.34 599.94 50.34"/><polygon class="cls-2" points="673.36 484.57 673.36 501.35 690.14 501.35 706.92 501.35 706.92 484.57 690.14 484.57 673.36 484.57"/><polygon class="cls-2" points="706.92 16.78 706.92 0 690.14 0 673.36 0 673.36 16.78 690.14 16.78 706.92 16.78"/><path class="cls-2" d="M723.71,33.56V16.78H706.93V33.56H673.36V16.78H656.58V33.56h-6.29V50.34H616.72V67.13h33.57V434.22H616.72V451h33.57v16.78h6.29v16.78h16.78V467.79h33.57v16.78h16.78V467.79H730V33.56Zm-8.39,205.58V451H665V50.34h50.35Z"/><polygon class="cls-2" points="23.07 484.57 23.07 501.35 39.86 501.35 56.64 501.35 56.64 484.57 39.86 484.57 23.07 484.57"/><polygon class="cls-2" points="56.64 16.78 56.64 0 39.86 0 23.07 0 23.07 16.78 39.86 16.78 56.64 16.78"/><polygon class="cls-3" points="130.06 400.66 113.28 400.66 113.28 417.44 130.06 417.44 146.84 417.44 146.84 400.66 130.06 400.66"/><polygon class="cls-3" points="163.62 417.44 146.84 417.44 146.84 434.22 163.62 434.22 180.4 434.22 197.18 434.22 197.18 417.44 180.4 417.44 163.62 417.44"/><polygon class="cls-3" points="213.97 400.66 197.18 400.66 197.18 417.44 213.97 417.44 230.75 417.44 230.75 400.66 213.97 400.66"/><polygon class="cls-3" points="247.53 417.44 230.75 417.44 230.75 434.22 247.53 434.22 264.31 434.22 281.09 434.22 281.09 417.44 264.31 417.44 247.53 417.44"/><polygon class="cls-3" points="297.87 400.66 281.09 400.66 281.09 417.44 297.87 417.44 314.65 417.44 314.65 400.66 297.87 400.66"/><polygon class="cls-3" points="331.44 417.44 314.65 417.44 314.65 434.22 331.44 434.22 348.22 434.22 365 434.22 365 417.44 348.22 417.44 331.44 417.44"/><polygon class="cls-3" points="381.78 400.66 365 400.66 365 417.44 381.78 417.44 398.56 417.44 398.56 400.66 381.78 400.66"/><polygon class="cls-3" points="79.71 417.44 79.71 434.22 96.49 434.22 113.28 434.22 113.28 417.44 96.49 417.44 79.71 417.44"/><polygon class="cls-3" points="113.28 83.91 113.28 100.69 130.06 100.69 146.84 100.69 146.84 83.91 130.06 83.91 113.28 83.91"/><polygon class="cls-3" points="180.4 67.13 163.62 67.13 146.84 67.13 146.84 83.91 163.62 83.91 180.4 83.91 197.18 83.91 197.18 67.13 180.4 67.13"/><polygon class="cls-3" points="197.18 83.91 197.18 100.69 213.97 100.69 230.75 100.69 230.75 83.91 213.97 83.91 197.18 83.91"/><polygon class="cls-3" points="264.31 67.13 247.53 67.13 230.75 67.13 230.75 83.91 247.53 83.91 264.31 83.91 281.09 83.91 281.09 67.13 264.31 67.13"/><polygon class="cls-3" points="281.09 83.91 281.09 100.69 297.87 100.69 314.65 100.69 314.65 83.91 297.87 83.91 281.09 83.91"/><polygon class="cls-3" points="348.22 67.13 331.44 67.13 314.65 67.13 314.65 83.91 331.44 83.91 348.22 83.91 365 83.91 365 67.13 348.22 67.13"/><polygon class="cls-3" points="365 83.91 365 100.69 381.78 100.69 398.56 100.69 398.56 83.91 381.78 83.91 365 83.91"/><polygon class="cls-3" points="96.49 67.13 79.71 67.13 79.71 83.91 96.49 83.91 113.28 83.91 113.28 67.13 96.49 67.13"/><polygon class="cls-3" points="415.35 417.44 398.56 417.44 398.56 434.22 415.35 434.22 432.13 434.22 448.91 434.22 448.91 417.44 432.13 417.44 415.35 417.44"/><polygon class="cls-3" points="465.69 400.66 448.91 400.66 448.91 417.44 465.69 417.44 482.47 417.44 482.47 400.66 465.69 400.66"/><polygon class="cls-3" points="432.13 67.13 415.35 67.13 398.56 67.13 398.56 83.91 415.35 83.91 432.13 83.91 448.91 83.91 448.91 67.13 432.13 67.13"/><polygon class="cls-3" points="448.91 83.91 448.91 100.69 465.69 100.69 482.47 100.69 482.47 83.91 465.69 83.91 448.91 83.91"/><polygon class="cls-3" points="499.25 417.44 482.47 417.44 482.47 434.22 499.25 434.22 516.03 434.22 532.82 434.22 532.82 417.44 516.03 417.44 499.25 417.44"/><polygon class="cls-3" points="549.6 400.66 532.82 400.66 532.82 417.44 549.6 417.44 566.38 417.44 566.38 400.66 549.6 400.66"/><polygon class="cls-3" points="516.03 67.13 499.25 67.13 482.47 67.13 482.47 83.91 499.25 83.91 516.03 83.91 532.82 83.91 532.82 67.13 516.03 67.13"/><polygon class="cls-3" points="532.82 83.91 532.82 100.69 549.6 100.69 566.38 100.69 566.38 83.91 549.6 83.91 532.82 83.91"/><polygon class="cls-3" points="583.16 417.44 566.38 417.44 566.38 434.22 583.16 434.22 599.94 434.22 616.72 434.22 616.72 417.44 599.94 417.44 583.16 417.44"/><polygon class="cls-3" points="616.72 400.66 616.72 417.44 633.51 417.44 650.29 417.44 650.29 400.66 633.51 400.66 616.72 400.66"/><polygon class="cls-3" points="599.94 67.13 583.16 67.13 566.38 67.13 566.38 83.91 583.16 83.91 599.94 83.91 616.72 83.91 616.72 67.13 599.94 67.13"/><polygon class="cls-3" points="616.72 83.91 616.72 100.69 633.51 100.69 650.29 100.69 650.29 83.91 633.51 83.91 616.72 83.91"/><rect class="cls-3" x="664.97" y="50.34" width="16.78" height="400.66"/><rect class="cls-3" x="14.68" y="50.34" width="16.78" height="400.66"/><polygon class="cls-4" points="213.97 417.44 197.18 417.44 197.18 434.22 213.97 434.22 230.75 434.22 230.75 417.44 213.97 417.44"/><polygon class="cls-4" points="130.06 417.44 113.28 417.44 113.28 434.22 130.06 434.22 146.84 434.22 146.84 417.44 130.06 417.44"/><polygon class="cls-4" points="163.62 434.22 146.84 434.22 146.84 451.01 163.62 451.01 180.4 451.01 197.18 451.01 197.18 434.22 180.4 434.22 163.62 434.22"/><polygon class="cls-4" points="247.53 434.22 230.75 434.22 230.75 451.01 247.53 451.01 264.31 451.01 281.09 451.01 281.09 434.22 264.31 434.22 247.53 434.22"/><polygon class="cls-4" points="297.87 417.44 281.09 417.44 281.09 434.22 297.87 434.22 314.65 434.22 314.65 417.44 297.87 417.44"/><polygon class="cls-4" points="331.44 434.22 314.65 434.22 314.65 451.01 331.44 451.01 348.22 451.01 365 451.01 365 434.22 348.22 434.22 331.44 434.22"/><polygon class="cls-4" points="381.78 417.44 365 417.44 365 434.22 381.78 434.22 398.56 434.22 398.56 417.44 381.78 417.44"/><polygon class="cls-4" points="79.71 434.22 79.71 451.01 96.49 451.01 113.28 451.01 113.28 434.22 96.49 434.22 79.71 434.22"/><polygon class="cls-4" points="113.28 67.13 113.28 83.91 130.06 83.91 146.84 83.91 146.84 67.13 130.06 67.13 113.28 67.13"/><polygon class="cls-4" points="180.4 50.34 163.62 50.34 146.84 50.34 146.84 67.13 163.62 67.13 180.4 67.13 197.18 67.13 197.18 50.34 180.4 50.34"/><polygon class="cls-4" points="197.18 67.13 197.18 83.91 213.97 83.91 230.75 83.91 230.75 67.13 213.97 67.13 197.18 67.13"/><polygon class="cls-4" points="264.31 50.34 247.53 50.34 230.75 50.34 230.75 67.13 247.53 67.13 264.31 67.13 281.09 67.13 281.09 50.34 264.31 50.34"/><polygon class="cls-4" points="281.09 67.13 281.09 83.91 297.87 83.91 314.65 83.91 314.65 67.13 297.87 67.13 281.09 67.13"/><polygon class="cls-4" points="348.22 50.34 331.44 50.34 314.65 50.34 314.65 67.13 331.44 67.13 348.22 67.13 365 67.13 365 50.34 348.22 50.34"/><polygon class="cls-4" points="365 67.13 365 83.91 381.78 83.91 398.56 83.91 398.56 67.13 381.78 67.13 365 67.13"/><polygon class="cls-4" points="415.35 434.22 398.56 434.22 398.56 451.01 415.35 451.01 432.13 451.01 448.91 451.01 448.91 434.22 432.13 434.22 415.35 434.22"/><polygon class="cls-4" points="465.69 417.44 448.91 417.44 448.91 434.22 465.69 434.22 482.47 434.22 482.47 417.44 465.69 417.44"/><polygon class="cls-4" points="432.13 50.34 415.35 50.34 398.56 50.34 398.56 67.13 415.35 67.13 432.13 67.13 448.91 67.13 448.91 50.34 432.13 50.34"/><polygon class="cls-4" points="448.91 67.13 448.91 83.91 465.69 83.91 482.47 83.91 482.47 67.13 465.69 67.13 448.91 67.13"/><polygon class="cls-4" points="96.49 50.34 79.71 50.34 79.71 67.13 96.49 67.13 113.28 67.13 113.28 50.34 96.49 50.34"/><polygon class="cls-4" points="499.25 434.22 482.47 434.22 482.47 451.01 499.25 451.01 516.03 451.01 532.82 451.01 532.82 434.22 516.03 434.22 499.25 434.22"/><polygon class="cls-4" points="549.6 417.44 532.82 417.44 532.82 434.22 549.6 434.22 566.38 434.22 566.38 417.44 549.6 417.44"/><polygon class="cls-4" points="516.03 50.34 499.25 50.34 482.47 50.34 482.47 67.13 499.25 67.13 516.03 67.13 532.82 67.13 532.82 50.34 516.03 50.34"/><polygon class="cls-4" points="532.82 67.13 532.82 83.91 549.6 83.91 566.38 83.91 566.38 67.13 549.6 67.13 532.82 67.13"/><polygon class="cls-4" points="583.16 434.22 566.38 434.22 566.38 451.01 583.16 451.01 599.94 451.01 616.72 451.01 616.72 434.22 599.94 434.22 583.16 434.22"/><polygon class="cls-4" points="616.72 417.44 616.72 434.22 633.51 434.22 650.29 434.22 650.29 417.44 633.51 417.44 616.72 417.44"/><polygon class="cls-4" points="599.94 50.34 583.16 50.34 566.38 50.34 566.38 67.13 583.16 67.13 599.94 67.13 616.72 67.13 616.72 50.34 599.94 50.34"/><polygon class="cls-4" points="616.72 67.13 616.72 83.91 633.51 83.91 650.29 83.91 650.29 67.13 633.51 67.13 616.72 67.13"/><rect class="cls-4" x="673.36" y="467.79" width="33.56" height="16.78"/><rect class="cls-4" x="673.36" y="16.78" width="33.56" height="16.78"/><polygon class="cls-4" points="698.53 50.34 698.53 239.14 698.53 262.21 698.53 451.01 715.32 451.01 715.32 262.21 715.32 239.14 715.32 50.34 698.53 50.34"/><rect class="cls-4" x="23.07" y="467.79" width="33.56" height="16.78"/><rect class="cls-4" x="23.07" y="16.78" width="33.56" height="16.78"/><polygon class="cls-4" points="48.25 239.14 48.25 262.21 48.25 451.01 65.03 451.01 65.03 262.21 65.03 239.14 65.03 50.34 48.25 50.34 48.25 239.14"/></g></g></svg>