<svg width="200" height="34" viewBox="0 0 200 34" fill="none" xmlns="http://www.w3.org/2000/svg">
<path fill-rule="evenodd" clip-rule="evenodd" d="M0 26.9166V16.7499H2.08333V16.4999H0V2.16658H2.08333V0.083252H18.5V2.16658H20.5833V6.33325H33.3496V0.083252H43.5163V6.33325H58.0996V8.41658H58.3577V6.33325H75.0326V2.16658H85.1992V6.33325H89.3659V16.4999H85.1992V18.8333H89.3659V28.9999H77.1159V26.9166H74.7744V28.9999H18.7581V26.9166H18.5V28.9999H2.08333V26.9166H0ZM17.5833 23.9166V15.5833H15.5V13.4999H11.3333V11.4166H7.16667V7.24992H13.4167V9.33325H17.5833V5.16658H15.5V3.08325H5.08333V5.16658H3V13.4999H5.08333V15.5833H9.25V17.6666H13.4167V21.8333H7.16667V19.7499H3V23.9166H5.08333V25.9999H15.5V23.9166H17.5833ZM19.6748 11.4166V23.9166H21.7581V25.9999H34.2581V21.8333H23.8415V19.7499H34.2581V11.4166H32.1748V9.33325H21.7581V11.4166H19.6748ZM30.0915 13.4999H23.8415V15.5833H30.0915V13.4999ZM36.3496 25.9999H40.5163V3.08325H36.3496V25.9999ZM42.5996 11.4166V23.9166H44.6829V25.9999H57.1829V21.8333H46.7663V19.7499H57.1829V11.4166H55.0996V9.33325H44.6829V11.4166H42.5996ZM53.0163 13.4999H46.7663V15.5833H53.0163V13.4999ZM59.2744 23.9166H61.3577V25.9999H71.7744V23.9166H73.8577V19.7499H69.6911V21.8333H63.4411V13.4999H69.6911V15.5833H73.8577V11.4166H71.7744V9.33325H61.3577V11.4166H59.2744V23.9166ZM75.9492 9.33325V13.4999H78.0326V23.9166H80.1159V25.9999H86.3659V21.8333H82.1992V13.4999H86.3659V9.33325H82.1992V5.16658H78.0326V9.33325H75.9492ZM66.6911 16.4999H66.4411V18.8333H66.6911V16.4999ZM95.874 28.9999V0.083252H114.374V2.16658H116.457V6.33325H143.549V8.41658H143.815V0.083252H153.982V6.33325H168.573V8.41658H168.831V6.33325H185.506V2.16658H195.673V6.33325H199.84V16.4999H195.673V18.8333H199.84V28.9999H187.59V26.9166H185.248V28.9999H153.982V31.0833H151.898V33.1666H139.648V28.9999H127.132V26.9166H125.049V16.4999H124.799V18.5833H122.715V28.9999H112.549V20.6666H106.041V28.9999H95.874ZM103.041 17.6666H111.374V15.5833H113.457V5.16658H111.374V3.08325H98.874V25.9999H103.041V17.6666ZM109.291 13.4999V7.24992H103.041V13.4999H109.291ZM106.291 10.4999V10.2499H106.041V10.4999H106.291ZM115.549 25.9999H119.715V15.5833H121.799V13.4999H125.965V9.33325H121.799V11.4166H119.715V9.33325H115.549V25.9999ZM128.049 11.4166V23.9166H130.132V25.9999H140.549V23.9166H142.632V11.4166H140.549V9.33325H130.132V11.4166H128.049ZM132.215 21.8333H138.465V13.4999H132.215V21.8333ZM135.215 18.8333H135.465V16.4999H135.215V18.8333ZM142.648 25.9999V30.1666H148.898V28.0833H150.982V9.33325H146.815V25.9999H142.648ZM153.073 11.4166V23.9166H155.157V25.9999H167.657V21.8333H157.24V19.7499H167.657V11.4166H165.573V9.33325H155.157V11.4166H153.073ZM163.49 13.4999H157.24V15.5833H163.49V13.4999ZM169.748 23.9166H171.831V25.9999H182.248V23.9166H184.331V19.7499H180.165V21.8333H173.915V13.4999H180.165V15.5833H184.331V11.4166H182.248V9.33325H171.831V11.4166H169.748V23.9166ZM186.423 9.33325V13.4999H188.506V23.9166H190.59V25.9999H196.84V21.8333H192.673V13.4999H196.84V9.33325H192.673V5.16658H188.506V9.33325H186.423ZM177.165 16.4999H176.915V18.8333H177.165V16.4999ZM146.815 7.24992H150.982V3.08325H146.815V7.24992Z" fill="white"/>
</svg>
