<svg width="171" height="29" viewBox="0 0 171 29" fill="none" xmlns="http://www.w3.org/2000/svg">
<path fill-rule="evenodd" clip-rule="evenodd" d="M0 10.2499V0.083252H22.6667V6.33325H35.1748V8.41658H35.4329V6.33325H50.0244V0.083252H60.1911V28.9999H35.4329V26.9166H35.1748V28.9999H18.7581V26.9166H16.6748V10.2499H16.4167V28.9999H6.25V10.2499H0ZM9.25 7.24992V25.9999H13.4167V7.24992H19.6667V3.08325H3V7.24992H9.25ZM21.7581 11.4166H19.6748V23.9166H21.7581V25.9999H32.1748V23.9166H34.2581V11.4166H32.1748V9.33325H21.7581V11.4166ZM23.8415 13.4999V21.8333H30.0915V13.4999H23.8415ZM27.0915 16.4999H26.8415V18.8333H27.0915V16.4999ZM57.1911 25.9999V3.08325H53.0244V25.9999H57.1911ZM48.8496 11.4166V9.33325H38.4329V11.4166H36.3496V23.9166H38.4329V25.9999H48.8496V23.9166H50.9329V11.4166H48.8496ZM46.7663 13.4999H40.5163V21.8333H46.7663V13.4999ZM43.7663 18.8333V16.4999H43.5163V18.8333H43.7663ZM66.6992 26.9166V14.6666H68.7826V2.16658H70.8659V0.083252H85.1992V2.16658H87.2826V12.5833H93.5326V28.9999H68.7826V26.9166H66.6992ZM84.2826 25.9999V23.9166H86.3659V25.9999H90.5326V21.8333H88.4492V19.7499H90.5326V15.5833H86.3659V17.6666H84.2826V15.5833H82.1992V13.4999H84.2826V5.16658H82.1992V3.08325H73.8659V5.16658H71.7826V13.4999H73.8659V15.5833H71.7826V17.6666H69.6992V23.9166H71.7826V25.9999H84.2826ZM82.1992 21.8333V19.7499H80.1159V17.6666H75.9492V19.7499H73.8659V21.8333H82.1992ZM80.1159 11.4166V7.24992H75.9492V11.4166H80.1159ZM100.049 26.9166V16.7499H102.132V16.4999H100.049V2.16658H102.132V0.083252H126.89V8.41658H127.14V6.33325H133.398V0.083252H156.065V6.33325H170.648V26.9166H168.565V28.9999H127.14V26.9166H126.89V28.9999H102.132V26.9166H100.049ZM123.89 25.9999V19.7499H125.974V21.8333H128.057V23.9166H130.14V25.9999H134.307V21.8333H132.224V19.7499H130.14V15.5833H132.224V13.4999H134.307V9.33325H130.14V11.4166H128.057V13.4999H125.974V15.5833H123.89V3.08325H119.724V25.9999H123.89ZM117.632 9.33325V5.16658H115.549V3.08325H105.132V5.16658H103.049V13.4999H105.132V15.5833H109.299V17.6666H113.465V21.8333H107.215V19.7499H103.049V23.9166H105.132V25.9999H115.549V23.9166H117.632V15.5833H115.549V13.4999H111.382V11.4166H107.215V7.24992H113.465V9.33325H117.632ZM136.398 25.9999H140.565V9.33325H136.398V25.9999ZM140.565 7.24992V3.08325H136.398V7.24992H140.565ZM142.648 25.9999H146.815V3.08325H142.648V25.9999ZM153.065 25.9999V3.08325H148.898V25.9999H153.065ZM155.148 11.4166V17.6666H157.232V19.7499H163.482V21.8333H155.148V25.9999H165.565V23.9166H167.648V17.6666H165.565V15.5833H159.315V13.4999H167.648V9.33325H157.232V11.4166H155.148Z" fill="white"/>
</svg>
