<svg width="741" height="4718" viewBox="0 0 741 4718" fill="none" xmlns="http://www.w3.org/2000/svg">
<rect x="64.4585" y="7.04175" width="6.5" height="6.5" fill="white" fill-opacity="0.3"/>
<rect x="23.292" y="99.6667" width="6.5" height="6.5" fill="white" fill-opacity="0.3"/>
<rect x="152.208" y="198.25" width="6.5" height="6.5" fill="white" fill-opacity="0.3"/>
<rect x="651.083" y="155.458" width="6.5" height="6.5" fill="white" fill-opacity="0.3"/>
<rect x="670.583" y="327.708" width="6.5" height="6.5" fill="white" fill-opacity="0.3"/>
<rect x="734.5" y="242.667" width="6.5" height="6.5" fill="white" fill-opacity="0.3"/>
<rect x="581.75" y="404.083" width="6.5" height="6.5" fill="white" fill-opacity="0.3"/>
<rect x="221.542" y="324.458" width="6.5" height="6.5" fill="white" fill-opacity="0.3"/>
<rect x="700.917" y="464.75" width="6.5" height="6.5" fill="white" fill-opacity="0.3"/>
<rect x="484.742" y="415.738" width="7.09091" height="6.97951" fill="white" fill-opacity="0.3"/>
<rect x="490.75" y="280.583" width="7.09091" height="6.97951" fill="white" fill-opacity="0.3"/>
<rect x="573.625" y="35.2084" width="7.09091" height="6.97951" fill="white" fill-opacity="0.3"/>
<rect x="718.25" y="0.00012207" width="7.09091" height="6.97951" fill="white" fill-opacity="0.3"/>
<rect x="263.792" y="53.0834" width="6.5" height="6.5" fill="white" fill-opacity="0.3"/>
<rect x="70.9585" y="330.958" width="6.5" height="6.5" fill="white" fill-opacity="0.3"/>
<rect x="203.125" y="476.667" width="6.5" height="6.5" fill="white" fill-opacity="0.3"/>
<rect x="64.4585" y="956.583" width="6.5" height="6.5" fill="white" fill-opacity="0.3"/>
<rect x="23.2915" y="1049.21" width="6.5" height="6.5" fill="white" fill-opacity="0.3"/>
<rect x="152.208" y="1147.79" width="6.5" height="6.5" fill="white" fill-opacity="0.3"/>
<rect x="651.083" y="1105" width="6.5" height="6.5" fill="white" fill-opacity="0.3"/>
<rect x="504.292" y="1154.29" width="6.5" height="6.5" fill="white" fill-opacity="0.3"/>
<rect x="734.5" y="1192.21" width="6.5" height="6.5" fill="white" fill-opacity="0.3"/>
<rect x="581.75" y="1353.62" width="6.5" height="6.5" fill="white" fill-opacity="0.3"/>
<rect x="221.542" y="1274" width="6.5" height="6.5" fill="white" fill-opacity="0.3"/>
<rect x="700.917" y="1414.29" width="6.5" height="6.5" fill="white" fill-opacity="0.3"/>
<rect x="696.583" y="1584.92" width="6.5" height="6.5" fill="white" fill-opacity="0.3"/>
<rect x="351" y="1368.79" width="6.5" height="6.5" fill="white" fill-opacity="0.3"/>
<rect x="419.25" y="1563.25" width="6.5" height="6.5" fill="white" fill-opacity="0.3"/>
<rect x="36.8335" y="1404.54" width="6.5" height="6.5" fill="white" fill-opacity="0.3"/>
<rect x="484.742" y="1365.28" width="7.09091" height="6.97951" fill="white" fill-opacity="0.3"/>
<rect x="490.75" y="1230.12" width="7.09091" height="6.97951" fill="white" fill-opacity="0.3"/>
<rect x="263.792" y="1002.62" width="6.5" height="6.5" fill="white" fill-opacity="0.3"/>
<rect x="70.9585" y="1280.5" width="6.5" height="6.5" fill="white" fill-opacity="0.3"/>
<rect x="203.125" y="1426.21" width="6.5" height="6.5" fill="white" fill-opacity="0.3"/>
<rect x="699.833" y="1019.42" width="6.5" height="6.5" transform="rotate(180 699.833 1019.42)" fill="white" fill-opacity="0.3"/>
<rect x="741" y="926.791" width="6.5" height="6.5" transform="rotate(180 741 926.791)" fill="white" fill-opacity="0.3"/>
<rect x="612.083" y="828.208" width="6.5" height="6.5" transform="rotate(180 612.083 828.208)" fill="white" fill-opacity="0.3"/>
<rect x="113.208" y="871" width="6.5" height="6.5" transform="rotate(180 113.208 871)" fill="white" fill-opacity="0.3"/>
<rect x="29.7915" y="783.792" width="6.5" height="6.5" transform="rotate(180 29.7915 783.792)" fill="white" fill-opacity="0.3"/>
<rect x="182.542" y="622.375" width="6.5" height="6.5" transform="rotate(180 182.542 622.375)" fill="white" fill-opacity="0.3"/>
<rect x="542.75" y="702" width="6.5" height="6.5" transform="rotate(180 542.75 702)" fill="white" fill-opacity="0.3"/>
<rect x="63.375" y="561.708" width="6.5" height="6.5" transform="rotate(180 63.375 561.708)" fill="white" fill-opacity="0.3"/>
<rect x="279.549" y="610.72" width="7.09091" height="6.97951" transform="rotate(180 279.549 610.72)" fill="white" fill-opacity="0.3"/>
<rect x="273.542" y="745.875" width="7.09091" height="6.97951" transform="rotate(180 273.542 745.875)" fill="white" fill-opacity="0.3"/>
<rect x="500.5" y="973.375" width="6.5" height="6.5" transform="rotate(180 500.5 973.375)" fill="white" fill-opacity="0.3"/>
<rect x="693.333" y="695.5" width="6.5" height="6.5" transform="rotate(180 693.333 695.5)" fill="white" fill-opacity="0.3"/>
<rect x="561.167" y="549.792" width="6.5" height="6.5" transform="rotate(180 561.167 549.792)" fill="white" fill-opacity="0.3"/>
<rect x="699.833" y="2358.97" width="6.5" height="6.5" transform="rotate(180 699.833 2358.97)" fill="white" fill-opacity="0.3"/>
<rect x="713.375" y="2570.21" width="6.5" height="6.5" transform="rotate(180 713.375 2570.21)" fill="white" fill-opacity="0.3"/>
<rect x="22.75" y="2597.29" width="6.5" height="6.5" transform="rotate(180 22.75 2597.29)" fill="white" fill-opacity="0.3"/>
<rect x="741" y="2266.34" width="6.5" height="6.5" transform="rotate(180 741 2266.34)" fill="white" fill-opacity="0.3"/>
<rect x="612.083" y="2167.76" width="6.5" height="6.5" transform="rotate(180 612.083 2167.76)" fill="white" fill-opacity="0.3"/>
<rect x="596.917" y="2264.17" width="6.5" height="6.5" transform="rotate(180 596.917 2264.17)" fill="white" fill-opacity="0.3"/>
<rect x="113.208" y="2210.55" width="6.5" height="6.5" transform="rotate(180 113.208 2210.55)" fill="white" fill-opacity="0.3"/>
<rect x="29.7915" y="2123.34" width="6.5" height="6.5" transform="rotate(180 29.7915 2123.34)" fill="white" fill-opacity="0.3"/>
<rect x="182.542" y="1961.93" width="6.5" height="6.5" transform="rotate(180 182.542 1961.93)" fill="white" fill-opacity="0.3"/>
<rect x="542.75" y="2041.55" width="6.5" height="6.5" transform="rotate(180 542.75 2041.55)" fill="white" fill-opacity="0.3"/>
<rect x="63.375" y="1901.26" width="6.5" height="6.5" transform="rotate(180 63.375 1901.26)" fill="white" fill-opacity="0.3"/>
<rect x="279.549" y="1950.27" width="7.09091" height="6.97951" transform="rotate(180 279.549 1950.27)" fill="white" fill-opacity="0.3"/>
<rect x="273.542" y="2085.43" width="7.09091" height="6.97951" transform="rotate(180 273.542 2085.43)" fill="white" fill-opacity="0.3"/>
<rect x="500.5" y="2312.92" width="6.5" height="6.5" transform="rotate(180 500.5 2312.92)" fill="white" fill-opacity="0.3"/>
<rect x="154.917" y="2570.21" width="6.5" height="6.5" transform="rotate(180 154.917 2570.21)" fill="white" fill-opacity="0.3"/>
<rect x="294.667" y="2459.71" width="6.5" height="6.5" transform="rotate(180 294.667 2459.71)" fill="white" fill-opacity="0.3"/>
<rect x="477.208" y="2539.88" width="6.5" height="6.5" transform="rotate(180 477.208 2539.88)" fill="white" fill-opacity="0.3"/>
<rect x="324.458" y="2188.34" width="6.5" height="6.5" transform="rotate(180 324.458 2188.34)" fill="white" fill-opacity="0.3"/>
<rect x="43.3335" y="2322.13" width="6.5" height="6.5" transform="rotate(180 43.3335 2322.13)" fill="white" fill-opacity="0.3"/>
<rect x="693.333" y="2035.05" width="6.5" height="6.5" transform="rotate(180 693.333 2035.05)" fill="white" fill-opacity="0.3"/>
<rect x="561.167" y="1889.34" width="6.5" height="6.5" transform="rotate(180 561.167 1889.34)" fill="white" fill-opacity="0.3"/>
<rect x="699.833" y="2045.88" width="6.5" height="6.5" transform="rotate(180 699.833 2045.88)" fill="white" fill-opacity="0.3"/>
<rect x="741" y="1953.25" width="6.5" height="6.5" transform="rotate(180 741 1953.25)" fill="white" fill-opacity="0.3"/>
<rect x="612.083" y="1854.67" width="6.5" height="6.5" transform="rotate(180 612.083 1854.67)" fill="white" fill-opacity="0.3"/>
<rect x="113.208" y="1897.46" width="6.5" height="6.5" transform="rotate(180 113.208 1897.46)" fill="white" fill-opacity="0.3"/>
<rect x="29.7915" y="1810.25" width="6.5" height="6.5" transform="rotate(180 29.7915 1810.25)" fill="white" fill-opacity="0.3"/>
<rect x="182.542" y="1648.83" width="6.5" height="6.5" transform="rotate(180 182.542 1648.83)" fill="white" fill-opacity="0.3"/>
<rect x="6.5" y="1786.42" width="6.5" height="6.5" transform="rotate(180 6.5 1786.42)" fill="white" fill-opacity="0.3"/>
<rect x="542.75" y="1728.46" width="6.5" height="6.5" transform="rotate(180 542.75 1728.46)" fill="white" fill-opacity="0.3"/>
<rect x="63.375" y="1588.17" width="6.5" height="6.5" transform="rotate(180 63.375 1588.17)" fill="white" fill-opacity="0.3"/>
<rect x="266.549" y="1549.1" width="7.09091" height="6.97951" transform="rotate(180 266.549 1549.1)" fill="white" fill-opacity="0.3"/>
<rect x="273.542" y="1772.33" width="7.09091" height="6.97951" transform="rotate(180 273.542 1772.33)" fill="white" fill-opacity="0.3"/>
<rect x="561.167" y="1576.25" width="6.5" height="6.5" transform="rotate(180 561.167 1576.25)" fill="white" fill-opacity="0.3"/>
<rect x="500.5" y="1999.83" width="6.5" height="6.5" transform="rotate(180 500.5 1999.83)" fill="white" fill-opacity="0.3"/>
<rect x="693.333" y="1721.96" width="6.5" height="6.5" transform="rotate(180 693.333 1721.96)" fill="white" fill-opacity="0.3"/>
<rect x="561.167" y="1576.25" width="6.5" height="6.5" transform="rotate(180 561.167 1576.25)" fill="white" fill-opacity="0.3"/>
<rect x="64.4585" y="2767.04" width="6.5" height="6.5" fill="white" fill-opacity="0.3"/>
<rect x="23.2915" y="2859.67" width="6.5" height="6.5" fill="white" fill-opacity="0.3"/>
<rect x="152.208" y="2958.25" width="6.5" height="6.5" fill="white" fill-opacity="0.3"/>
<rect x="651.083" y="2915.46" width="6.5" height="6.5" fill="white" fill-opacity="0.3"/>
<rect x="670.583" y="3087.71" width="6.5" height="6.5" fill="white" fill-opacity="0.3"/>
<rect x="734.5" y="3002.67" width="6.5" height="6.5" fill="white" fill-opacity="0.3"/>
<rect x="581.75" y="3164.08" width="6.5" height="6.5" fill="white" fill-opacity="0.3"/>
<rect x="221.542" y="3084.46" width="6.5" height="6.5" fill="white" fill-opacity="0.3"/>
<rect x="700.917" y="3224.75" width="6.5" height="6.5" fill="white" fill-opacity="0.3"/>
<rect x="484.742" y="3175.74" width="7.09091" height="6.97951" fill="white" fill-opacity="0.3"/>
<rect x="490.75" y="3040.58" width="7.09091" height="6.97951" fill="white" fill-opacity="0.3"/>
<rect x="573.625" y="2795.21" width="7.09091" height="6.97951" fill="white" fill-opacity="0.3"/>
<rect x="718.25" y="2760" width="7.09091" height="6.97951" fill="white" fill-opacity="0.3"/>
<rect x="263.792" y="2813.08" width="6.5" height="6.5" fill="white" fill-opacity="0.3"/>
<rect x="70.9585" y="3090.96" width="6.5" height="6.5" fill="white" fill-opacity="0.3"/>
<rect x="203.125" y="3236.67" width="6.5" height="6.5" fill="white" fill-opacity="0.3"/>
<rect x="64.4585" y="3716.58" width="6.5" height="6.5" fill="white" fill-opacity="0.3"/>
<rect x="23.2915" y="3809.21" width="6.5" height="6.5" fill="white" fill-opacity="0.3"/>
<rect x="152.208" y="3907.79" width="6.5" height="6.5" fill="white" fill-opacity="0.3"/>
<rect x="651.083" y="3865" width="6.5" height="6.5" fill="white" fill-opacity="0.3"/>
<rect x="504.292" y="3914.29" width="6.5" height="6.5" fill="white" fill-opacity="0.3"/>
<rect x="734.5" y="3952.21" width="6.5" height="6.5" fill="white" fill-opacity="0.3"/>
<rect x="581.75" y="4113.62" width="6.5" height="6.5" fill="white" fill-opacity="0.3"/>
<rect x="221.542" y="4034" width="6.5" height="6.5" fill="white" fill-opacity="0.3"/>
<rect x="700.917" y="4174.29" width="6.5" height="6.5" fill="white" fill-opacity="0.3"/>
<rect x="696.583" y="4344.92" width="6.5" height="6.5" fill="white" fill-opacity="0.3"/>
<rect x="351" y="4128.79" width="6.5" height="6.5" fill="white" fill-opacity="0.3"/>
<rect x="419.25" y="4323.25" width="6.5" height="6.5" fill="white" fill-opacity="0.3"/>
<rect x="36.8335" y="4164.54" width="6.5" height="6.5" fill="white" fill-opacity="0.3"/>
<rect x="484.742" y="4125.28" width="7.09091" height="6.97951" fill="white" fill-opacity="0.3"/>
<rect x="490.75" y="3990.12" width="7.09091" height="6.97951" fill="white" fill-opacity="0.3"/>
<rect x="263.792" y="3762.62" width="6.5" height="6.5" fill="white" fill-opacity="0.3"/>
<rect x="70.9585" y="4040.5" width="6.5" height="6.5" fill="white" fill-opacity="0.3"/>
<rect x="203.125" y="4186.21" width="6.5" height="6.5" fill="white" fill-opacity="0.3"/>
<rect x="699.833" y="3779.42" width="6.5" height="6.5" transform="rotate(180 699.833 3779.42)" fill="white" fill-opacity="0.3"/>
<rect x="741" y="3686.79" width="6.5" height="6.5" transform="rotate(180 741 3686.79)" fill="white" fill-opacity="0.3"/>
<rect x="612.083" y="3588.21" width="6.5" height="6.5" transform="rotate(180 612.083 3588.21)" fill="white" fill-opacity="0.3"/>
<rect x="113.208" y="3631" width="6.5" height="6.5" transform="rotate(180 113.208 3631)" fill="white" fill-opacity="0.3"/>
<rect x="29.7915" y="3543.79" width="6.5" height="6.5" transform="rotate(180 29.7915 3543.79)" fill="white" fill-opacity="0.3"/>
<rect x="182.542" y="3382.37" width="6.5" height="6.5" transform="rotate(180 182.542 3382.37)" fill="white" fill-opacity="0.3"/>
<rect x="542.75" y="3462" width="6.5" height="6.5" transform="rotate(180 542.75 3462)" fill="white" fill-opacity="0.3"/>
<rect x="63.375" y="3321.71" width="6.5" height="6.5" transform="rotate(180 63.375 3321.71)" fill="white" fill-opacity="0.3"/>
<rect x="279.549" y="3370.72" width="7.09091" height="6.97951" transform="rotate(180 279.549 3370.72)" fill="white" fill-opacity="0.3"/>
<rect x="273.542" y="3505.87" width="7.09091" height="6.97951" transform="rotate(180 273.542 3505.87)" fill="white" fill-opacity="0.3"/>
<rect x="500.5" y="3733.37" width="6.5" height="6.5" transform="rotate(180 500.5 3733.37)" fill="white" fill-opacity="0.3"/>
<rect x="693.333" y="3455.5" width="6.5" height="6.5" transform="rotate(180 693.333 3455.5)" fill="white" fill-opacity="0.3"/>
<rect x="561.167" y="3309.79" width="6.5" height="6.5" transform="rotate(180 561.167 3309.79)" fill="white" fill-opacity="0.3"/>
<rect x="741" y="4717.25" width="6.5" height="6.5" transform="rotate(180 741 4717.25)" fill="white" fill-opacity="0.3"/>
<rect x="612.083" y="4618.67" width="6.5" height="6.5" transform="rotate(180 612.083 4618.67)" fill="white" fill-opacity="0.3"/>
<rect x="113.208" y="4661.46" width="6.5" height="6.5" transform="rotate(180 113.208 4661.46)" fill="white" fill-opacity="0.3"/>
<rect x="29.7915" y="4574.25" width="6.5" height="6.5" transform="rotate(180 29.7915 4574.25)" fill="white" fill-opacity="0.3"/>
<rect x="182.542" y="4412.83" width="6.5" height="6.5" transform="rotate(180 182.542 4412.83)" fill="white" fill-opacity="0.3"/>
<rect x="6.5" y="4549.42" width="6.5" height="6.5" transform="rotate(180 6.5 4549.42)" fill="white" fill-opacity="0.3"/>
<rect x="542.75" y="4492.46" width="6.5" height="6.5" transform="rotate(180 542.75 4492.46)" fill="white" fill-opacity="0.3"/>
<rect x="63.375" y="4352.17" width="6.5" height="6.5" transform="rotate(180 63.375 4352.17)" fill="white" fill-opacity="0.3"/>
<rect x="266.549" y="4313.1" width="7.09091" height="6.97951" transform="rotate(180 266.549 4313.1)" fill="white" fill-opacity="0.3"/>
<rect x="273.542" y="4536.33" width="7.09091" height="6.97951" transform="rotate(180 273.542 4536.33)" fill="white" fill-opacity="0.3"/>
<rect x="561.167" y="4340.25" width="6.5" height="6.5" transform="rotate(180 561.167 4340.25)" fill="white" fill-opacity="0.3"/>
<rect x="693.333" y="4485.96" width="6.5" height="6.5" transform="rotate(180 693.333 4485.96)" fill="white" fill-opacity="0.3"/>
<rect x="561.167" y="4340.25" width="6.5" height="6.5" transform="rotate(180 561.167 4340.25)" fill="white" fill-opacity="0.3"/>
</svg>
