<svg width="3488" height="6711" viewBox="0 0 3488 6711" fill="none" xmlns="http://www.w3.org/2000/svg">
<rect x="76" y="13" width="12" height="12" fill="white" fill-opacity="0.3"/>
<rect y="184" width="12" height="12" fill="white" fill-opacity="0.3"/>
<rect x="238" y="366" width="12" height="12" fill="white" fill-opacity="0.3"/>
<rect x="1159" y="287" width="12" height="12" fill="white" fill-opacity="0.3"/>
<rect x="1195" y="605" width="12" height="12" fill="white" fill-opacity="0.3"/>
<rect x="1313" y="448" width="12" height="12" fill="white" fill-opacity="0.3"/>
<rect x="1031" y="746" width="12" height="12" fill="white" fill-opacity="0.3"/>
<rect x="366" y="599" width="12" height="12" fill="white" fill-opacity="0.3"/>
<rect x="1251" y="858" width="12" height="12" fill="white" fill-opacity="0.3"/>
<rect x="851.909" y="767.516" width="13.0909" height="12.8852" fill="white" fill-opacity="0.3"/>
<rect x="863" y="518" width="13.0909" height="12.8852" fill="white" fill-opacity="0.3"/>
<rect x="1016" y="65" width="13.0909" height="12.8852" fill="white" fill-opacity="0.3"/>
<rect x="1283" width="13.0909" height="12.8852" fill="white" fill-opacity="0.3"/>
<rect x="444" y="98" width="12" height="12" fill="white" fill-opacity="0.3"/>
<rect x="88" y="611" width="12" height="12" fill="white" fill-opacity="0.3"/>
<rect x="332" y="880" width="12" height="12" fill="white" fill-opacity="0.3"/>
<rect x="1947" y="5653" width="12" height="12" fill="white" fill-opacity="0.3"/>
<rect x="1871" y="5824" width="12" height="12" fill="white" fill-opacity="0.3"/>
<rect x="2109" y="6006" width="12" height="12" fill="white" fill-opacity="0.3"/>
<rect x="3030" y="5927" width="12" height="12" fill="white" fill-opacity="0.3"/>
<rect x="3066" y="6245" width="12" height="12" fill="white" fill-opacity="0.3"/>
<rect x="3184" y="6088" width="12" height="12" fill="white" fill-opacity="0.3"/>
<rect x="2902" y="6386" width="12" height="12" fill="white" fill-opacity="0.3"/>
<rect x="2237" y="6239" width="12" height="12" fill="white" fill-opacity="0.3"/>
<rect x="3122" y="6498" width="12" height="12" fill="white" fill-opacity="0.3"/>
<rect x="2722.91" y="6407.52" width="13.0909" height="12.8852" fill="white" fill-opacity="0.3"/>
<rect x="2734" y="6158" width="13.0909" height="12.8852" fill="white" fill-opacity="0.3"/>
<rect x="2887" y="5705" width="13.0909" height="12.8852" fill="white" fill-opacity="0.3"/>
<rect x="3154" y="5640" width="13.0909" height="12.8852" fill="white" fill-opacity="0.3"/>
<rect x="2315" y="5738" width="12" height="12" fill="white" fill-opacity="0.3"/>
<rect x="1959" y="6251" width="12" height="12" fill="white" fill-opacity="0.3"/>
<rect x="2203" y="6520" width="12" height="12" fill="white" fill-opacity="0.3"/>
<rect x="152" y="1130" width="12" height="12" fill="white" fill-opacity="0.3"/>
<rect x="76" y="1301" width="12" height="12" fill="white" fill-opacity="0.3"/>
<rect x="314" y="1483" width="12" height="12" fill="white" fill-opacity="0.3"/>
<rect x="1235" y="1404" width="12" height="12" fill="white" fill-opacity="0.3"/>
<rect x="964" y="1495" width="12" height="12" fill="white" fill-opacity="0.3"/>
<rect x="1389" y="1565" width="12" height="12" fill="white" fill-opacity="0.3"/>
<rect x="1107" y="1863" width="12" height="12" fill="white" fill-opacity="0.3"/>
<rect x="442" y="1716" width="12" height="12" fill="white" fill-opacity="0.3"/>
<rect x="1327" y="1975" width="12" height="12" fill="white" fill-opacity="0.3"/>
<rect x="1319" y="2290" width="12" height="12" fill="white" fill-opacity="0.3"/>
<rect x="681" y="1891" width="12" height="12" fill="white" fill-opacity="0.3"/>
<rect x="807" y="2250" width="12" height="12" fill="white" fill-opacity="0.3"/>
<rect x="101" y="1957" width="12" height="12" fill="white" fill-opacity="0.3"/>
<rect x="927.909" y="1884.52" width="13.0909" height="12.8852" fill="white" fill-opacity="0.3"/>
<rect x="939" y="1635" width="13.0909" height="12.8852" fill="white" fill-opacity="0.3"/>
<rect x="520" y="1215" width="12" height="12" fill="white" fill-opacity="0.3"/>
<rect x="164" y="1728" width="12" height="12" fill="white" fill-opacity="0.3"/>
<rect x="408" y="1997" width="12" height="12" fill="white" fill-opacity="0.3"/>
<rect x="2966" y="1075" width="12" height="12" transform="rotate(180 2966 1075)" fill="white" fill-opacity="0.3"/>
<rect x="1486" y="1173" width="12" height="12" transform="rotate(180 1486 1173)" fill="white" fill-opacity="0.3"/>
<rect x="2934" y="2860" width="12" height="12" transform="rotate(180 2934 2860)" fill="white" fill-opacity="0.3"/>
<rect x="2890" y="3500" width="12" height="12" transform="rotate(180 2890 3500)" fill="white" fill-opacity="0.3"/>
<rect x="157" y="3979" width="12" height="12" transform="rotate(180 157 3979)" fill="white" fill-opacity="0.3"/>
<rect x="1967" y="1483" width="12" height="12" transform="rotate(180 1967 1483)" fill="white" fill-opacity="0.3"/>
<rect x="2663" y="2593" width="12" height="12" transform="rotate(180 2663 2593)" fill="white" fill-opacity="0.3"/>
<rect x="3212" y="3123" width="12" height="12" transform="rotate(180 3212 3123)" fill="white" fill-opacity="0.3"/>
<rect x="479" y="3602" width="12" height="12" transform="rotate(180 479 3602)" fill="white" fill-opacity="0.3"/>
<rect x="3180" y="3773" width="12" height="12" transform="rotate(180 3180 3773)" fill="white" fill-opacity="0.3"/>
<rect x="2237" y="1185" width="12" height="12" transform="rotate(180 2237 1185)" fill="white" fill-opacity="0.3"/>
<rect x="1703" y="2010" width="12" height="12" transform="rotate(180 1703 2010)" fill="white" fill-opacity="0.3"/>
<rect x="3042" y="904" width="12" height="12" transform="rotate(180 3042 904)" fill="white" fill-opacity="0.3"/>
<rect x="1562" y="1002" width="12" height="12" transform="rotate(180 1562 1002)" fill="white" fill-opacity="0.3"/>
<rect x="3010" y="2689" width="12" height="12" transform="rotate(180 3010 2689)" fill="white" fill-opacity="0.3"/>
<rect x="2966" y="3329" width="12" height="12" transform="rotate(180 2966 3329)" fill="white" fill-opacity="0.3"/>
<rect x="233" y="3808" width="12" height="12" transform="rotate(180 233 3808)" fill="white" fill-opacity="0.3"/>
<rect x="806" y="4008" width="12" height="12" transform="rotate(180 806 4008)" fill="white" fill-opacity="0.3"/>
<rect x="2043" y="1312" width="12" height="12" transform="rotate(180 2043 1312)" fill="white" fill-opacity="0.3"/>
<rect x="2739" y="2422" width="12" height="12" transform="rotate(180 2739 2422)" fill="white" fill-opacity="0.3"/>
<rect x="3288" y="2952" width="12" height="12" transform="rotate(180 3288 2952)" fill="white" fill-opacity="0.3"/>
<rect x="3256" y="3602" width="12" height="12" transform="rotate(180 3256 3602)" fill="white" fill-opacity="0.3"/>
<rect x="2313" y="1014" width="12" height="12" transform="rotate(180 2313 1014)" fill="white" fill-opacity="0.3"/>
<rect x="1779" y="1839" width="12" height="12" transform="rotate(180 1779 1839)" fill="white" fill-opacity="0.3"/>
<rect x="2804" y="722" width="12" height="12" transform="rotate(180 2804 722)" fill="white" fill-opacity="0.3"/>
<rect x="1883" y="801" width="12" height="12" transform="rotate(180 1883 801)" fill="white" fill-opacity="0.3"/>
<rect x="467" y="2416" width="12" height="12" transform="rotate(180 467 2416)" fill="white" fill-opacity="0.3"/>
<rect x="1729" y="640" width="12" height="12" transform="rotate(180 1729 640)" fill="white" fill-opacity="0.3"/>
<rect x="313" y="2255" width="12" height="12" transform="rotate(180 313 2255)" fill="white" fill-opacity="0.3"/>
<rect x="2987" y="338.402" width="12" height="12" transform="rotate(180 2987 338.402)" fill="white" fill-opacity="0.3"/>
<rect x="2011" y="342" width="12" height="12" transform="rotate(180 2011 342)" fill="white" fill-opacity="0.3"/>
<rect x="3166" y="692.402" width="12" height="12" transform="rotate(180 3166 692.402)" fill="white" fill-opacity="0.3"/>
<rect x="3269" y="40.4016" width="12" height="12" transform="rotate(180 3269 40.4016)" fill="white" fill-opacity="0.3"/>
<rect x="2676" y="489" width="12" height="12" transform="rotate(180 2676 489)" fill="white" fill-opacity="0.3"/>
<rect x="1791" y="230" width="12" height="12" transform="rotate(180 1791 230)" fill="white" fill-opacity="0.3"/>
<rect x="2190.09" y="320.484" width="13.0909" height="12.8852" transform="rotate(180 2190.09 320.484)" fill="white" fill-opacity="0.3"/>
<rect x="3301.09" y="892.885" width="13.0909" height="12.8852" transform="rotate(180 3301.09 892.885)" fill="white" fill-opacity="0.3"/>
<rect x="1827.09" y="2336.89" width="13.0909" height="12.8852" transform="rotate(180 1827.09 2336.89)" fill="white" fill-opacity="0.3"/>
<rect x="2179" y="570" width="13.0909" height="12.8852" transform="rotate(180 2179 570)" fill="white" fill-opacity="0.3"/>
<rect x="3332.09" y="1305.89" width="13.0909" height="12.8852" transform="rotate(180 3332.09 1305.89)" fill="white" fill-opacity="0.3"/>
<rect x="3437" y="268.402" width="13.0909" height="12.8852" transform="rotate(180 3437 268.402)" fill="white" fill-opacity="0.3"/>
<rect x="2598" y="990" width="12" height="12" transform="rotate(180 2598 990)" fill="white" fill-opacity="0.3"/>
<rect x="2954" y="477" width="12" height="12" transform="rotate(180 2954 477)" fill="white" fill-opacity="0.3"/>
<rect x="2710" y="208" width="12" height="12" transform="rotate(180 2710 208)" fill="white" fill-opacity="0.3"/>
<rect x="2126" y="116" width="12" height="12" transform="rotate(180 2126 116)" fill="white" fill-opacity="0.3"/>
<rect x="3150" y="5238" width="12" height="12" transform="rotate(180 3150 5238)" fill="white" fill-opacity="0.3"/>
<rect x="3226" y="5067" width="12" height="12" transform="rotate(180 3226 5067)" fill="white" fill-opacity="0.3"/>
<rect x="2988" y="4885" width="12" height="12" transform="rotate(180 2988 4885)" fill="white" fill-opacity="0.3"/>
<rect x="2067" y="4964" width="12" height="12" transform="rotate(180 2067 4964)" fill="white" fill-opacity="0.3"/>
<rect x="1913" y="4803" width="12" height="12" transform="rotate(180 1913 4803)" fill="white" fill-opacity="0.3"/>
<rect x="2195" y="4505" width="12" height="12" transform="rotate(180 2195 4505)" fill="white" fill-opacity="0.3"/>
<rect x="2860" y="4652" width="12" height="12" transform="rotate(180 2860 4652)" fill="white" fill-opacity="0.3"/>
<rect x="1975" y="4393" width="12" height="12" transform="rotate(180 1975 4393)" fill="white" fill-opacity="0.3"/>
<rect x="2374.09" y="4483.48" width="13.0909" height="12.8852" transform="rotate(180 2374.09 4483.48)" fill="white" fill-opacity="0.3"/>
<rect x="2363" y="4733" width="13.0909" height="12.8852" transform="rotate(180 2363 4733)" fill="white" fill-opacity="0.3"/>
<rect x="2782" y="5153" width="12" height="12" transform="rotate(180 2782 5153)" fill="white" fill-opacity="0.3"/>
<rect x="3138" y="4640" width="12" height="12" transform="rotate(180 3138 4640)" fill="white" fill-opacity="0.3"/>
<rect x="2894" y="4371" width="12" height="12" transform="rotate(180 2894 4371)" fill="white" fill-opacity="0.3"/>
<rect x="2587" y="3556" width="12" height="12" transform="rotate(180 2587 3556)" fill="white" fill-opacity="0.3"/>
<rect x="2612" y="3945.99" width="12" height="12" transform="rotate(180 2612 3945.99)" fill="white" fill-opacity="0.3"/>
<rect x="1337" y="3995.98" width="12" height="12" transform="rotate(180 1337 3995.98)" fill="white" fill-opacity="0.3"/>
<rect x="2663" y="3385" width="12" height="12" transform="rotate(180 2663 3385)" fill="white" fill-opacity="0.3"/>
<rect x="2425" y="3203" width="12" height="12" transform="rotate(180 2425 3203)" fill="white" fill-opacity="0.3"/>
<rect x="2397" y="3380.98" width="12" height="12" transform="rotate(180 2397 3380.98)" fill="white" fill-opacity="0.3"/>
<rect x="1504" y="3282" width="12" height="12" transform="rotate(180 1504 3282)" fill="white" fill-opacity="0.3"/>
<rect x="1350" y="3121" width="12" height="12" transform="rotate(180 1350 3121)" fill="white" fill-opacity="0.3"/>
<rect x="1632" y="2823" width="12" height="12" transform="rotate(180 1632 2823)" fill="white" fill-opacity="0.3"/>
<rect x="2297" y="2970" width="12" height="12" transform="rotate(180 2297 2970)" fill="white" fill-opacity="0.3"/>
<rect x="1412" y="2711" width="12" height="12" transform="rotate(180 1412 2711)" fill="white" fill-opacity="0.3"/>
<rect x="1811.09" y="2801.48" width="13.0909" height="12.8852" transform="rotate(180 1811.09 2801.48)" fill="white" fill-opacity="0.3"/>
<rect x="1800" y="3051" width="13.0909" height="12.8852" transform="rotate(180 1800 3051)" fill="white" fill-opacity="0.3"/>
<rect x="2219" y="3471" width="12" height="12" transform="rotate(180 2219 3471)" fill="white" fill-opacity="0.3"/>
<rect x="1581" y="3945.99" width="12" height="12" transform="rotate(180 1581 3945.99)" fill="white" fill-opacity="0.3"/>
<rect x="1839" y="3741.99" width="12" height="12" transform="rotate(180 1839 3741.99)" fill="white" fill-opacity="0.3"/>
<rect x="2176" y="3889.99" width="12" height="12" transform="rotate(180 2176 3889.99)" fill="white" fill-opacity="0.3"/>
<rect x="1894" y="3240.99" width="12" height="12" transform="rotate(180 1894 3240.99)" fill="white" fill-opacity="0.3"/>
<rect x="1375" y="3487.99" width="12" height="12" transform="rotate(180 1375 3487.99)" fill="white" fill-opacity="0.3"/>
<rect x="2575" y="2958" width="12" height="12" transform="rotate(180 2575 2958)" fill="white" fill-opacity="0.3"/>
<rect x="2331" y="2689" width="12" height="12" transform="rotate(180 2331 2689)" fill="white" fill-opacity="0.3"/>
<rect x="1493" y="5250" width="12" height="12" transform="rotate(180 1493 5250)" fill="white" fill-opacity="0.3"/>
<rect x="1518" y="5639.99" width="12" height="12" transform="rotate(180 1518 5639.99)" fill="white" fill-opacity="0.3"/>
<rect x="243" y="5689.98" width="12" height="12" transform="rotate(180 243 5689.98)" fill="white" fill-opacity="0.3"/>
<rect x="1569" y="5079" width="12" height="12" transform="rotate(180 1569 5079)" fill="white" fill-opacity="0.3"/>
<rect x="1331" y="4897" width="12" height="12" transform="rotate(180 1331 4897)" fill="white" fill-opacity="0.3"/>
<rect x="1303" y="5074.98" width="12" height="12" transform="rotate(180 1303 5074.98)" fill="white" fill-opacity="0.3"/>
<rect x="410" y="4976" width="12" height="12" transform="rotate(180 410 4976)" fill="white" fill-opacity="0.3"/>
<rect x="256" y="4815" width="12" height="12" transform="rotate(180 256 4815)" fill="white" fill-opacity="0.3"/>
<rect x="538" y="4517" width="12" height="12" transform="rotate(180 538 4517)" fill="white" fill-opacity="0.3"/>
<rect x="1203" y="4664" width="12" height="12" transform="rotate(180 1203 4664)" fill="white" fill-opacity="0.3"/>
<rect x="318" y="4405" width="12" height="12" transform="rotate(180 318 4405)" fill="white" fill-opacity="0.3"/>
<rect x="717.091" y="4495.48" width="13.0909" height="12.8852" transform="rotate(180 717.091 4495.48)" fill="white" fill-opacity="0.3"/>
<rect x="706" y="4745" width="13.0909" height="12.8852" transform="rotate(180 706 4745)" fill="white" fill-opacity="0.3"/>
<rect x="1125" y="5165" width="12" height="12" transform="rotate(180 1125 5165)" fill="white" fill-opacity="0.3"/>
<rect x="487" y="5639.99" width="12" height="12" transform="rotate(180 487 5639.99)" fill="white" fill-opacity="0.3"/>
<rect x="745" y="5435.99" width="12" height="12" transform="rotate(180 745 5435.99)" fill="white" fill-opacity="0.3"/>
<rect x="1082" y="5583.99" width="12" height="12" transform="rotate(180 1082 5583.99)" fill="white" fill-opacity="0.3"/>
<rect x="800" y="4934.99" width="12" height="12" transform="rotate(180 800 4934.99)" fill="white" fill-opacity="0.3"/>
<rect x="281" y="5181.99" width="12" height="12" transform="rotate(180 281 5181.99)" fill="white" fill-opacity="0.3"/>
<rect x="1481" y="4652" width="12" height="12" transform="rotate(180 1481 4652)" fill="white" fill-opacity="0.3"/>
<rect x="1237" y="4383" width="12" height="12" transform="rotate(180 1237 4383)" fill="white" fill-opacity="0.3"/>
<rect x="3412" y="2495" width="12" height="12" transform="rotate(180 3412 2495)" fill="white" fill-opacity="0.3"/>
<rect x="3488" y="2324" width="12" height="12" transform="rotate(180 3488 2324)" fill="white" fill-opacity="0.3"/>
<rect x="3250" y="2142" width="12" height="12" transform="rotate(180 3250 2142)" fill="white" fill-opacity="0.3"/>
<rect x="2329" y="2221" width="12" height="12" transform="rotate(180 2329 2221)" fill="white" fill-opacity="0.3"/>
<rect x="2175" y="2060" width="12" height="12" transform="rotate(180 2175 2060)" fill="white" fill-opacity="0.3"/>
<rect x="2457" y="1762" width="12" height="12" transform="rotate(180 2457 1762)" fill="white" fill-opacity="0.3"/>
<rect x="2132" y="2016" width="12" height="12" transform="rotate(180 2132 2016)" fill="white" fill-opacity="0.3"/>
<rect x="3122" y="1909" width="12" height="12" transform="rotate(180 3122 1909)" fill="white" fill-opacity="0.3"/>
<rect x="2237" y="1650" width="12" height="12" transform="rotate(180 2237 1650)" fill="white" fill-opacity="0.3"/>
<rect x="2612.09" y="1577.89" width="13.0909" height="12.8852" transform="rotate(180 2612.09 1577.89)" fill="white" fill-opacity="0.3"/>
<rect x="2625" y="1990" width="13.0909" height="12.8852" transform="rotate(180 2625 1990)" fill="white" fill-opacity="0.3"/>
<rect x="3156" y="1628" width="12" height="12" transform="rotate(180 3156 1628)" fill="white" fill-opacity="0.3"/>
<rect x="3044" y="2410" width="12" height="12" transform="rotate(180 3044 2410)" fill="white" fill-opacity="0.3"/>
<rect x="3400" y="1897" width="12" height="12" transform="rotate(180 3400 1897)" fill="white" fill-opacity="0.3"/>
<rect x="3156" y="1628" width="12" height="12" transform="rotate(180 3156 1628)" fill="white" fill-opacity="0.3"/>
<rect x="940" y="3641" width="12" height="12" transform="rotate(180 940 3641)" fill="white" fill-opacity="0.3"/>
<rect x="1016" y="3470" width="12" height="12" transform="rotate(180 1016 3470)" fill="white" fill-opacity="0.3"/>
<rect x="778" y="3288" width="12" height="12" transform="rotate(180 778 3288)" fill="white" fill-opacity="0.3"/>
<rect x="650" y="3055" width="12" height="12" transform="rotate(180 650 3055)" fill="white" fill-opacity="0.3"/>
<rect x="140.091" y="2723.89" width="13.0909" height="12.8852" transform="rotate(180 140.091 2723.89)" fill="white" fill-opacity="0.3"/>
<rect x="153" y="3136" width="13.0909" height="12.8852" transform="rotate(180 153 3136)" fill="white" fill-opacity="0.3"/>
<rect x="684" y="2774" width="12" height="12" transform="rotate(180 684 2774)" fill="white" fill-opacity="0.3"/>
<rect x="572" y="3556" width="12" height="12" transform="rotate(180 572 3556)" fill="white" fill-opacity="0.3"/>
<rect x="928" y="3043" width="12" height="12" transform="rotate(180 928 3043)" fill="white" fill-opacity="0.3"/>
<rect x="684" y="2774" width="12" height="12" transform="rotate(180 684 2774)" fill="white" fill-opacity="0.3"/>
<rect x="172" y="5537.4" width="12" height="12" transform="rotate(180 172 5537.4)" fill="white" fill-opacity="0.3"/>
<rect x="363" y="6482.4" width="12" height="12" transform="rotate(180 363 6482.4)" fill="white" fill-opacity="0.3"/>
<rect x="1259.21" y="6494.95" width="12" height="12" transform="rotate(60 1259.21 6494.95)" fill="white" fill-opacity="0.3"/>
<rect x="2220.34" y="5382.34" width="12" height="12" transform="rotate(60 2220.34 5382.34)" fill="white" fill-opacity="0.3"/>
<rect x="351.091" y="5515.89" width="13.0909" height="12.8852" transform="rotate(180 351.091 5515.89)" fill="white" fill-opacity="0.3"/>
<rect x="542.091" y="6460.88" width="13.0909" height="12.8852" transform="rotate(180 542.091 6460.88)" fill="white" fill-opacity="0.3"/>
<rect x="1151.03" y="6350.62" width="13.0909" height="12.8852" transform="rotate(60 1151.03 6350.62)" fill="white" fill-opacity="0.3"/>
<rect x="2112.16" y="5238" width="13.0909" height="12.8852" transform="rotate(60 2112.16 5238)" fill="white" fill-opacity="0.3"/>
<rect x="340" y="5765.4" width="13.0909" height="12.8852" transform="rotate(180 340 5765.4)" fill="white" fill-opacity="0.3"/>
<rect x="531" y="6710.4" width="13.0909" height="12.8852" transform="rotate(180 531 6710.4)" fill="white" fill-opacity="0.3"/>
<rect x="398" y="6164" width="12" height="12" transform="rotate(180 398 6164)" fill="white" fill-opacity="0.3"/>
<rect x="1209" y="6030" width="12" height="12" transform="rotate(180 1209 6030)" fill="white" fill-opacity="0.3"/>
<rect x="700" y="5955" width="12" height="12" transform="rotate(180 700 5955)" fill="white" fill-opacity="0.3"/>
</svg>
