<svg width="387" height="4986" viewBox="0 0 387 4986" fill="none" xmlns="http://www.w3.org/2000/svg">
<rect x="49.8252" y="2347.83" width="5.82541" height="5.82541" transform="rotate(180 49.8252 2347.83)" fill="white" fill-opacity="0.3"/>
<rect x="5.82568" y="1727.02" width="5.82541" height="5.82541" transform="rotate(180 5.82568 1727.02)" fill="white" fill-opacity="0.3"/>
<rect x="57.769" y="0.311035" width="5.82541" height="5.82541" fill="white" fill-opacity="0.3"/>
<rect x="20.8745" y="83.3232" width="5.82541" height="5.82541" fill="white" fill-opacity="0.3"/>
<rect x="136.412" y="171.675" width="5.82541" height="5.82541" fill="white" fill-opacity="0.3"/>
<rect x="335" y="132" width="5.82541" height="5.82541" fill="white" fill-opacity="0.3"/>
<rect x="236.415" y="41.5742" width="5.82541" height="5.82541" fill="white" fill-opacity="0.3"/>
<rect x="116" y="104" width="5.82541" height="5.82541" fill="white" fill-opacity="0.3"/>
<rect x="63.5942" y="290.611" width="5.82541" height="5.82541" fill="white" fill-opacity="0.3"/>
<rect x="338" y="310" width="5.82541" height="5.82541" fill="white" fill-opacity="0.3"/>
<rect x="57.769" y="851.306" width="5.82541" height="5.82541" fill="white" fill-opacity="0.3"/>
<rect x="152" y="724" width="5.82541" height="5.82541" fill="white" fill-opacity="0.3"/>
<rect x="309" y="993" width="5.82541" height="5.82541" fill="white" fill-opacity="0.3"/>
<rect x="198.55" y="1135.78" width="5.82541" height="5.82541" fill="white" fill-opacity="0.3"/>
<rect x="314.572" y="1220.73" width="5.82541" height="5.82541" fill="white" fill-opacity="0.3"/>
<rect x="375.739" y="1395.01" width="5.82541" height="5.82541" fill="white" fill-opacity="0.3"/>
<rect x="33.0112" y="1252.77" width="5.82541" height="5.82541" fill="white" fill-opacity="0.3"/>
<rect x="236.415" y="892.57" width="5.82541" height="5.82541" fill="white" fill-opacity="0.3"/>
<rect x="63.5942" y="1141.61" width="5.82541" height="5.82541" fill="white" fill-opacity="0.3"/>
<rect x="362" y="1592" width="5.82541" height="5.82541" fill="white" fill-opacity="0.3"/>
<rect x="297.825" y="787.825" width="5.82541" height="5.82541" transform="rotate(180 297.825 787.825)" fill="white" fill-opacity="0.3"/>
<rect x="26.6973" y="696.431" width="5.82541" height="5.82541" transform="rotate(180 26.6973 696.431)" fill="white" fill-opacity="0.3"/>
<rect x="294.825" y="553.825" width="5.82541" height="5.82541" transform="rotate(180 294.825 553.825)" fill="white" fill-opacity="0.3"/>
<rect x="56.7954" y="497.396" width="5.82541" height="5.82541" transform="rotate(180 56.7954 497.396)" fill="white" fill-opacity="0.3"/>
<rect x="236.355" y="371.255" width="6.355" height="6.25516" transform="rotate(180 236.355 371.255)" fill="white" fill-opacity="0.3"/>
<rect x="341.355" y="547.255" width="6.355" height="6.25516" transform="rotate(180 341.355 547.255)" fill="white" fill-opacity="0.3"/>
<rect x="245.15" y="662.449" width="6.355" height="6.25516" transform="rotate(180 245.15 662.449)" fill="white" fill-opacity="0.3"/>
<rect x="101.459" y="1975.13" width="5.82541" height="5.82541" transform="rotate(180 101.459 1975.13)" fill="white" fill-opacity="0.3"/>
<rect x="26.6997" y="1896.98" width="5.82541" height="5.82541" transform="rotate(180 26.6997 1896.98)" fill="white" fill-opacity="0.3"/>
<rect x="163.598" y="1752.31" width="5.82541" height="5.82541" transform="rotate(180 163.598 1752.31)" fill="white" fill-opacity="0.3"/>
<rect x="56.7988" y="1697.94" width="5.82541" height="5.82541" transform="rotate(180 56.7988 1697.94)" fill="white" fill-opacity="0.3"/>
<rect x="250.537" y="1741.87" width="6.355" height="6.25516" transform="rotate(180 250.537 1741.87)" fill="white" fill-opacity="0.3"/>
<rect x="101.355" y="2685.25" width="6.355" height="6.25516" transform="rotate(180 101.355 2685.25)" fill="white" fill-opacity="0.3"/>
<rect x="101.355" y="4340.38" width="6.355" height="6.25516" transform="rotate(180 101.355 4340.38)" fill="white" fill-opacity="0.3"/>
<rect x="138.839" y="2297.47" width="5.82541" height="5.82541" transform="rotate(180 138.839 2297.47)" fill="white" fill-opacity="0.3"/>
<rect x="264.085" y="2198.44" width="5.82541" height="5.82541" transform="rotate(180 264.085 2198.44)" fill="white" fill-opacity="0.3"/>
<rect x="290.785" y="1955.22" width="5.82541" height="5.82541" transform="rotate(180 290.785 1955.22)" fill="white" fill-opacity="0.3"/>
<rect x="38.8369" y="2075.13" width="5.82541" height="5.82541" transform="rotate(180 38.8369 2075.13)" fill="white" fill-opacity="0.3"/>
<rect x="345.825" y="2327.83" width="5.82541" height="5.82541" transform="rotate(180 345.825 2327.83)" fill="white" fill-opacity="0.3"/>
<rect x="203.825" y="2071.83" width="5.82541" height="5.82541" transform="rotate(180 203.825 2071.83)" fill="white" fill-opacity="0.3"/>
<rect x="361.825" y="2050.83" width="5.82541" height="5.82541" transform="rotate(180 361.825 2050.83)" fill="white" fill-opacity="0.3"/>
<rect x="163.598" y="1471.71" width="5.82541" height="5.82541" transform="rotate(180 163.598 1471.71)" fill="white" fill-opacity="0.3"/>
<rect x="56.7988" y="1417.34" width="5.82541" height="5.82541" transform="rotate(180 56.7988 1417.34)" fill="white" fill-opacity="0.3"/>
<rect x="238.886" y="1382.33" width="6.355" height="6.25516" transform="rotate(180 238.886 1382.33)" fill="white" fill-opacity="0.3"/>
<rect x="245.153" y="1582.4" width="6.355" height="6.25516" transform="rotate(180 245.153 1582.4)" fill="white" fill-opacity="0.3"/>
<rect x="201.742" y="2473.87" width="5.82541" height="5.82541" fill="white" fill-opacity="0.3"/>
<rect x="201.742" y="4129" width="5.82541" height="5.82541" fill="white" fill-opacity="0.3"/>
<rect x="164.847" y="2556.88" width="5.82541" height="5.82541" fill="white" fill-opacity="0.3"/>
<rect x="164.847" y="4212.01" width="5.82541" height="5.82541" fill="white" fill-opacity="0.3"/>
<rect x="280.385" y="2645.24" width="5.82541" height="5.82541" fill="white" fill-opacity="0.3"/>
<rect x="280.385" y="4300.36" width="5.82541" height="5.82541" fill="white" fill-opacity="0.3"/>
<rect x="342.522" y="2758.35" width="5.82541" height="5.82541" fill="white" fill-opacity="0.3"/>
<rect x="20" y="2688" width="5.82541" height="5.82541" fill="white" fill-opacity="0.3"/>
<rect x="229" y="2915" width="5.82541" height="5.82541" fill="white" fill-opacity="0.3"/>
<rect x="342.522" y="4413.47" width="5.82541" height="5.82541" fill="white" fill-opacity="0.3"/>
<rect x="312" y="4497" width="5.82541" height="5.82541" fill="white" fill-opacity="0.3"/>
<rect x="380.387" y="2515.13" width="5.82541" height="5.82541" fill="white" fill-opacity="0.3"/>
<rect x="380.387" y="4170.26" width="5.82541" height="5.82541" fill="white" fill-opacity="0.3"/>
<rect x="207.567" y="2764.17" width="5.82541" height="5.82541" fill="white" fill-opacity="0.3"/>
<rect x="207.567" y="4419.3" width="5.82541" height="5.82541" fill="white" fill-opacity="0.3"/>
<rect x="78" y="2868" width="5.82541" height="5.82541" fill="white" fill-opacity="0.3"/>
<rect x="78" y="4523.13" width="5.82541" height="5.82541" fill="white" fill-opacity="0.3"/>
<rect x="201.742" y="3324.87" width="5.82541" height="5.82541" fill="white" fill-opacity="0.3"/>
<rect x="201.742" y="4980" width="5.82541" height="5.82541" fill="white" fill-opacity="0.3"/>
<rect x="164.847" y="3407.88" width="5.82541" height="5.82541" fill="white" fill-opacity="0.3"/>
<rect x="280.385" y="3496.23" width="5.82541" height="5.82541" fill="white" fill-opacity="0.3"/>
<rect x="342.522" y="3609.34" width="5.82541" height="5.82541" fill="white" fill-opacity="0.3"/>
<rect x="176.984" y="3726.33" width="5.82541" height="5.82541" fill="white" fill-opacity="0.3"/>
<rect x="380.387" y="3366.13" width="5.82541" height="5.82541" fill="white" fill-opacity="0.3"/>
<rect x="207.567" y="3615.17" width="5.82541" height="5.82541" fill="white" fill-opacity="0.3"/>
<rect x="326.017" y="3745.75" width="5.82541" height="5.82541" fill="white" fill-opacity="0.3"/>
<rect x="237" y="3814" width="5.82541" height="5.82541" fill="white" fill-opacity="0.3"/>
<rect x="86.8252" y="3091.83" width="5.82541" height="5.82541" transform="rotate(180 86.8252 3091.83)" fill="white" fill-opacity="0.3"/>
<rect x="86.8252" y="4746.95" width="5.82541" height="5.82541" transform="rotate(180 86.8252 4746.95)" fill="white" fill-opacity="0.3"/>
<rect x="170.67" y="3169.99" width="5.82541" height="5.82541" transform="rotate(180 170.67 3169.99)" fill="white" fill-opacity="0.3"/>
<rect x="170.67" y="4825.12" width="5.82541" height="5.82541" transform="rotate(180 170.67 4825.12)" fill="white" fill-opacity="0.3"/>
<rect x="299.825" y="3067.83" width="5.82541" height="5.82541" transform="rotate(180 299.825 3067.83)" fill="white" fill-opacity="0.3"/>
<rect x="299.825" y="4722.95" width="5.82541" height="5.82541" transform="rotate(180 299.825 4722.95)" fill="white" fill-opacity="0.3"/>
<rect x="320.825" y="4867.83" width="5.82541" height="5.82541" transform="rotate(180 320.825 4867.83)" fill="white" fill-opacity="0.3"/>
<rect x="200.768" y="2970.95" width="5.82541" height="5.82541" transform="rotate(180 200.768 2970.95)" fill="white" fill-opacity="0.3"/>
<rect x="200.768" y="4626.08" width="5.82541" height="5.82541" transform="rotate(180 200.768 4626.08)" fill="white" fill-opacity="0.3"/>
<rect x="78.355" y="3575.26" width="6.355" height="6.25516" transform="rotate(180 78.355 3575.26)" fill="white" fill-opacity="0.3"/>
<rect x="53.355" y="3276.26" width="6.355" height="6.25516" transform="rotate(180 53.355 3276.26)" fill="white" fill-opacity="0.3"/>
<rect x="53.355" y="4931.38" width="6.355" height="6.25516" transform="rotate(180 53.355 4931.38)" fill="white" fill-opacity="0.3"/>
<rect x="245.433" y="4171.68" width="5.82541" height="5.82541" transform="rotate(180 245.433 4171.68)" fill="white" fill-opacity="0.3"/>
<rect x="80.8252" y="4140.83" width="5.82541" height="5.82541" transform="rotate(180 80.8252 4140.83)" fill="white" fill-opacity="0.3"/>
<rect x="307.571" y="3948.86" width="5.82541" height="5.82541" transform="rotate(180 307.571 3948.86)" fill="white" fill-opacity="0.3"/>
<rect x="106.825" y="4046.83" width="5.82541" height="5.82541" transform="rotate(180 106.825 4046.83)" fill="white" fill-opacity="0.3"/>
<rect x="200.772" y="3894.49" width="5.82541" height="5.82541" transform="rotate(180 200.772 3894.49)" fill="white" fill-opacity="0.3"/>
<rect x="382.86" y="3859.48" width="6.355" height="6.25516" transform="rotate(180 382.86 3859.48)" fill="white" fill-opacity="0.3"/>
<rect x="60.355" y="3802.26" width="6.355" height="6.25516" transform="rotate(180 60.355 3802.26)" fill="white" fill-opacity="0.3"/>
</svg>
