<svg xmlns="http://www.w3.org/2000/svg" viewBox="0 0 454.5 130.5"><g id="레이어_2" data-name="레이어 2"><g id="레이어_1-2" data-name="레이어 1"><rect x="58.5" width="342" height="4.5"/><rect x="400.5" y="4.5" width="13.5" height="4.5"/><rect x="414" y="9" width="9" height="4.5"/><rect x="423" y="13.5" width="9" height="4.5"/><rect x="432" y="18" width="4.5" height="4.5"/><rect x="436.5" y="22.5" width="4.5" height="4.5"/><rect x="441" y="27" width="4.5" height="4.5"/><rect x="445.5" y="31.5" width="4.5" height="9"/><rect x="450" y="40.5" width="4.5" height="49.5"/><rect x="54" width="342" height="4.5" transform="translate(450 4.5) rotate(-180)"/><rect x="40.5" y="4.5" width="13.5" height="4.5" transform="translate(94.5 13.5) rotate(-180)"/><rect x="31.5" y="9" width="9" height="4.5" transform="translate(72 22.5) rotate(-180)"/><rect x="22.5" y="13.5" width="9" height="4.5" transform="translate(54 31.5) rotate(-180)"/><rect x="18" y="18" width="4.5" height="4.5" transform="translate(40.5 40.5) rotate(-180)"/><rect x="13.5" y="22.5" width="4.5" height="4.5" transform="translate(31.5 49.5) rotate(-180)"/><rect x="9" y="27" width="4.5" height="4.5" transform="translate(22.5 58.5) rotate(-180)"/><rect x="4.5" y="31.5" width="4.5" height="9" transform="translate(13.5 72) rotate(-180)"/><rect y="40.5" width="4.5" height="49.5" transform="translate(4.5 130.5) rotate(-180)"/><rect x="58.5" y="126" width="342" height="4.5"/><rect x="400.5" y="121.5" width="13.5" height="4.5"/><rect x="414" y="117" width="9" height="4.5"/><rect x="423" y="112.5" width="9" height="4.5"/><rect x="432" y="108" width="4.5" height="4.5"/><rect x="436.5" y="103.5" width="4.5" height="4.5"/><rect x="441" y="99" width="4.5" height="4.5"/><rect x="445.5" y="90" width="4.5" height="9"/><rect x="450" y="40.5" width="4.5" height="49.5"/><rect x="54" y="126" width="342" height="4.5" transform="translate(450 256.5) rotate(180)"/><rect x="40.5" y="121.5" width="13.5" height="4.5" transform="translate(94.5 247.5) rotate(180)"/><rect x="31.5" y="117" width="9" height="4.5" transform="translate(72 238.5) rotate(180)"/><rect x="22.5" y="112.5" width="9" height="4.5" transform="translate(54 229.5) rotate(180)"/><rect x="18" y="108" width="4.5" height="4.5" transform="translate(40.5 220.5) rotate(180)"/><rect x="13.5" y="103.5" width="4.5" height="4.5" transform="translate(31.5 211.5) rotate(180)"/><rect x="9" y="99" width="4.5" height="4.5" transform="translate(22.5 202.5) rotate(180)"/><rect x="4.5" y="90" width="4.5" height="9" transform="translate(13.5 189) rotate(180)"/><rect y="40.5" width="4.5" height="49.5" transform="translate(4.5 130.5) rotate(180)"/><rect x="58.5" width="342" height="4.5"/><rect x="400.5" y="4.5" width="13.5" height="4.5"/><rect x="414" y="9" width="9" height="4.5"/><rect x="423" y="13.5" width="9" height="4.5"/><rect x="432" y="18" width="4.5" height="4.5"/><rect x="436.5" y="22.5" width="4.5" height="4.5"/><rect x="441" y="27" width="4.5" height="4.5"/><rect x="445.5" y="31.5" width="4.5" height="9"/><rect x="450" y="40.5" width="4.5" height="49.5"/><rect x="54" width="342" height="4.5" transform="translate(450 4.5) rotate(-180)"/><rect x="40.5" y="4.5" width="13.5" height="4.5" transform="translate(94.5 13.5) rotate(-180)"/><rect x="31.5" y="9" width="9" height="4.5" transform="translate(72 22.5) rotate(-180)"/><rect x="22.5" y="13.5" width="9" height="4.5" transform="translate(54 31.5) rotate(-180)"/><rect x="18" y="18" width="4.5" height="4.5" transform="translate(40.5 40.5) rotate(-180)"/><rect x="13.5" y="22.5" width="4.5" height="4.5" transform="translate(31.5 49.5) rotate(-180)"/><rect x="9" y="27" width="4.5" height="4.5" transform="translate(22.5 58.5) rotate(-180)"/><rect x="4.5" y="31.5" width="4.5" height="9" transform="translate(13.5 72) rotate(-180)"/><rect y="40.5" width="4.5" height="49.5" transform="translate(4.5 130.5) rotate(-180)"/><rect x="58.5" y="126" width="342" height="4.5"/><rect x="400.5" y="121.5" width="13.5" height="4.5"/><rect x="414" y="117" width="9" height="4.5"/><rect x="423" y="112.5" width="9" height="4.5"/><rect x="432" y="108" width="4.5" height="4.5"/><rect x="436.5" y="103.5" width="4.5" height="4.5"/><rect x="441" y="99" width="4.5" height="4.5"/><rect x="445.5" y="90" width="4.5" height="9"/><rect x="450" y="40.5" width="4.5" height="49.5"/><rect x="54" y="126" width="342" height="4.5" transform="translate(450 256.5) rotate(180)"/><rect x="40.5" y="121.5" width="13.5" height="4.5" transform="translate(94.5 247.5) rotate(180)"/><rect x="31.5" y="117" width="9" height="4.5" transform="translate(72 238.5) rotate(180)"/><rect x="22.5" y="112.5" width="9" height="4.5" transform="translate(54 229.5) rotate(180)"/><rect x="18" y="108" width="4.5" height="4.5" transform="translate(40.5 220.5) rotate(180)"/><rect x="13.5" y="103.5" width="4.5" height="4.5" transform="translate(31.5 211.5) rotate(180)"/><rect x="9" y="99" width="4.5" height="4.5" transform="translate(22.5 202.5) rotate(180)"/><rect x="4.5" y="90" width="4.5" height="9" transform="translate(13.5 189) rotate(180)"/><rect y="40.5" width="4.5" height="49.5" transform="translate(4.5 130.5) rotate(180)"/></g></g></svg>