<svg xmlns="http://www.w3.org/2000/svg" viewBox="0 0 117 126"><defs><style>.cls-1{fill:#bcc8fa;}.cls-2{fill:#8d96bb;}.cls-3{fill:#f2f4fe;}</style></defs><g id="레이어_2" data-name="레이어 2"><g id="레이어_1-2" data-name="레이어 1"><polygon points="117 54 117 63 90 63 90 54 99 54 108 54 117 54"/><rect x="99" y="45" width="9" height="9"/><polygon class="cls-1" points="99 45 99 54 90 54 90 63 81 63 81 117 36 117 36 81 36 72 36 63 27 63 27 54 18 54 18 45 27 45 27 36 36 36 36 27 45 27 45 18 54 18 54 9 63 9 63 18 72 18 72 27 81 27 81 36 90 36 90 45 99 45"/><rect x="90" y="36" width="9" height="9"/><rect x="81" y="63" width="9" height="54"/><rect x="81" y="27" width="9" height="9"/><rect x="36" y="117" width="45" height="9"/><rect x="72" y="18" width="9" height="9"/><rect x="63" y="9" width="9" height="9"/><rect x="54" width="9" height="9"/><rect x="45" y="9" width="9" height="9"/><rect x="36" y="18" width="9" height="9"/><rect x="27" y="81" width="9" height="36"/><rect x="27" y="72" width="9" height="9"/><rect x="27" y="63" width="9" height="9"/><rect x="27" y="27" width="9" height="9"/><polygon points="27 54 27 63 0 63 0 54 9 54 18 54 27 54"/><rect x="18" y="36" width="9" height="9"/><rect x="9" y="45" width="9" height="9"/><rect class="cls-2" x="27" y="54" width="9" height="9" transform="translate(90 27) rotate(90)"/><rect class="cls-2" x="81" y="54" width="9" height="9" transform="translate(144 -27) rotate(90)"/><rect class="cls-2" x="49.5" y="94.5" width="9" height="36" transform="translate(166.5 58.5) rotate(90)"/><rect class="cls-2" x="49.5" y="85.5" width="54" height="9" transform="translate(166.5 13.5) rotate(90)"/><rect class="cls-3" x="54" y="9" width="9" height="9" transform="translate(72 -45) rotate(90)"/><rect class="cls-3" x="45" y="18" width="9" height="9" transform="translate(72 -27) rotate(90)"/><rect class="cls-3" x="36" y="27" width="9" height="9" transform="translate(72 -9) rotate(90)"/><rect class="cls-3" x="27" y="36" width="9" height="9" transform="translate(72 9) rotate(90)"/><rect class="cls-3" x="18" y="45" width="9" height="9" transform="translate(72 27) rotate(90)"/><rect class="cls-3" x="36" y="63" width="9" height="45"/></g></g></svg>