<svg xmlns="http://www.w3.org/2000/svg" viewBox="0 0 137.57 134.95"><defs><style>.cls-1{fill:#e60012;}</style></defs><g id="레이어_2" data-name="레이어 2"><g id="레이어_1-2" data-name="레이어 1"><path class="cls-1" d="M87.43,89.27q-5.25,7.35-13.37,18.13L57,10.5Q54.88,0,43.85,0q-5,0-19.17,4.2Q10.51,8.13,0,11.55v11H26.26L46.22,135l26-1.82q38.34-48.59,51.71-72.73Q137.57,36,137.57,19.7c0-6.49-1.91-11.38-5.76-14.71a20,20,0,0,0-13.92-5Q102.13,0,91.63,13.4q10.25,6.82,13.92,11.28,3.95,4.2,4,11.29,0,11.81-7.1,26.78A163.93,163.93,0,0,1,87.43,89.27Z"/></g></g></svg>