<svg width="40" height="40" viewBox="0 0 40 40" fill="none" xmlns="http://www.w3.org/2000/svg">
<path d="M4.00172 3.8606H2.00098V5.86134H4.00172V3.8606Z" fill="white"/>
<path d="M4.00172 33.8594H2.00098V35.8601H4.00172V33.8594Z" fill="white"/>
<path d="M2.00074 5.86133H0V33.8618H2.00074V5.86133Z" fill="white"/>
<path d="M37.9993 33.8569H35.9985V35.8577H37.9993V33.8569Z" fill="white"/>
<path d="M36.0007 35.8577H34V37.8584H36.0007V35.8577Z" fill="white"/>
<path d="M36.0007 1.85742H34V3.85816H36.0007V1.85742Z" fill="white"/>
<path d="M37.9993 3.85815H35.9985V5.8589H37.9993V3.85815Z" fill="white"/>
<path d="M39.9998 5.85889H37.999V33.8594H39.9998V5.85889Z" fill="white"/>
<path d="M22.7106 22.8192C22.2018 23.5227 21.5539 24.3904 20.7669 25.4222L18.2867 11.5101C18.0812 10.5051 17.444 10.0026 16.3749 10.0026C15.8903 10.0026 14.9614 10.2036 13.588 10.6056C12.2146 10.9818 11.0186 11.3335 10 11.6609V13.2401H13.8177L16.7195 29.3848L20.4994 29.1235C24.2153 24.4727 26.7212 20.9921 28.017 18.6815C29.339 16.3413 30 14.3911 30 12.831C30 11.8992 29.7223 11.1971 29.1626 10.719C28.6057 10.2331 27.8816 9.97628 27.1389 10.0012C25.6114 10.0021 24.3389 10.6439 23.3212 11.9265C24.3147 12.5792 24.9892 13.1191 25.3449 13.5459C25.7278 13.948 25.9216 14.4883 25.9264 15.1669C25.9264 16.2973 25.5824 17.5789 24.8942 19.0117C24.2877 20.3451 23.5566 21.6198 22.7106 22.8192Z" fill="white"/>
<path d="M6.00977 -8.10623e-06V2.00073L34.0103 2.00073V-8.10623e-06L6.00977 -8.10623e-06Z" fill="white"/>
<path d="M5.99976 1.85986H3.99902V3.8606H5.99976V1.85986Z" fill="white"/>
<path d="M5.99976 35.8601H3.99902V37.8608H5.99976V35.8601Z" fill="white"/>
<path d="M34.0005 37.8608H6V39.8616H34.0005V37.8608Z" fill="white"/>
</svg>
