<svg xmlns="http://www.w3.org/2000/svg" viewBox="0 0 1320 27"><defs><style>.cls-1{fill:#8a8a8a;}.cls-2{fill:#bcc8fa;}</style></defs><g id="레이어_2" data-name="레이어 2"><g id="레이어_1-2" data-name="레이어 1"><polygon class="cls-1" points="1315.5 9 1315.5 4.5 1311 4.5 1311 0 1255.5 0 64.5 0 9 0 9 4.5 4.5 4.5 4.5 9 0 9 0 18 4.5 18 4.5 22.5 9 22.5 9 27 64.5 27 1255.5 27 1311 27 1311 22.5 1315.5 22.5 1315.5 18 1320 18 1320 9 1315.5 9"/><polygon class="cls-2" points="211.5 4.5 12.01 4.5 12.01 9 7.51 9 7.51 18 12.01 18 12.01 22.5 211.5 22.5 211.5 18 216 18 216 9 211.5 9 211.5 4.5"/></g></g></svg>