<svg width="169" height="49" viewBox="0 0 169 49" fill="none" xmlns="http://www.w3.org/2000/svg">
<path d="M73 32V27.5H74.5V23H76V18.5H77.5V15.5H80.5V18.5H82V23H83.5V27.5H85V32H82V29H76V32H73ZM77.5 26H80.5V23H77.5V26ZM86.5 32V15.5H89.5V32H86.5ZM91 32V15.5H94V32H91Z" fill="white"/>
<path d="M148.921 0H21.7524V1.67327H148.921V0Z" fill="white"/>
<path d="M153.941 1.67334H148.921V3.34661H153.941V1.67334Z" fill="white"/>
<path d="M157.287 3.34668H153.94V5.01995H157.287V3.34668Z" fill="white"/>
<path d="M160.634 5.02002H157.287V6.69329H160.634V5.02002Z" fill="white"/>
<path d="M162.307 6.69287H160.634V8.36614H162.307V6.69287Z" fill="white"/>
<path d="M163.98 8.36621H162.307V10.0395H163.98V8.36621Z" fill="white"/>
<path d="M165.653 10.0396H163.98V11.7128H165.653V10.0396Z" fill="white"/>
<path d="M167.327 11.7129H165.653V15.0594H167.327V11.7129Z" fill="white"/>
<path d="M169 15.0596H167.327V33.4655H169V15.0596Z" fill="white"/>
<path d="M20.0792 1.67334L147.248 1.67334V7.25985e-05L20.0792 7.25985e-05V1.67334Z" fill="white"/>
<path d="M15.0593 3.34668L20.0791 3.34668V1.67341L15.0593 1.67341V3.34668Z" fill="white"/>
<path d="M11.713 5.02002H15.0596V3.34675L11.713 3.34675V5.02002Z" fill="white"/>
<path d="M8.36636 6.69287H11.7129V5.0196H8.36636V6.69287Z" fill="white"/>
<path d="M6.69294 8.36621H8.36621V6.69294H6.69294V8.36621Z" fill="white"/>
<path d="M5.0196 10.0396H6.69287V8.36628H5.0196V10.0396Z" fill="white"/>
<path d="M3.34675 11.7129H5.02002V10.0396H3.34675V11.7129Z" fill="white"/>
<path d="M1.67341 15.0596H3.34668L3.34668 11.713H1.67341L1.67341 15.0596Z" fill="white"/>
<path d="M7.25985e-05 33.4653H1.67334L1.67334 15.0594H7.25985e-05L7.25985e-05 33.4653Z" fill="white"/>
<path d="M148.921 46.8516H21.7524V48.5248H148.921V46.8516Z" fill="white"/>
<path d="M153.941 45.1782H148.921V46.8515H153.941V45.1782Z" fill="white"/>
<path d="M157.287 43.5049H153.94V45.1782H157.287V43.5049Z" fill="white"/>
<path d="M160.634 41.8315H157.287V43.5048H160.634V41.8315Z" fill="white"/>
<path d="M162.307 40.1587H160.634V41.832H162.307V40.1587Z" fill="white"/>
<path d="M163.98 38.4854H162.307V40.1586H163.98V38.4854Z" fill="white"/>
<path d="M165.653 36.812H163.98V38.4853H165.653V36.812Z" fill="white"/>
<path d="M167.327 33.4653H165.653V36.8119H167.327V33.4653Z" fill="white"/>
<path d="M169 15.0596H167.327V33.4655H169V15.0596Z" fill="white"/>
<path d="M20.0792 48.5249L147.248 48.5249V46.8516L20.0792 46.8516V48.5249Z" fill="white"/>
<path d="M15.0593 46.8516H20.0791V45.1783H15.0593V46.8516Z" fill="white"/>
<path d="M11.713 45.1782H15.0596V43.505H11.713V45.1782Z" fill="white"/>
<path d="M8.36636 43.5049H11.7129V41.8316H8.36636V43.5049Z" fill="white"/>
<path d="M6.69294 41.8315H8.36621V40.1583H6.69294V41.8315Z" fill="white"/>
<path d="M5.0196 40.1587H6.69287V38.4854H5.0196V40.1587Z" fill="white"/>
<path d="M3.34675 38.4854H5.02002V36.8121H3.34675V38.4854Z" fill="white"/>
<path d="M1.67341 36.812H3.34668L3.34668 33.4655H1.67341L1.67341 36.812Z" fill="white"/>
<path d="M7.25985e-05 33.4653H1.67334L1.67334 15.0594H7.25985e-05L7.25985e-05 33.4653Z" fill="white"/>
<path d="M148.921 0H21.7524V1.67327H148.921V0Z" fill="white"/>
<path d="M153.941 1.67334H148.921V3.34661H153.941V1.67334Z" fill="white"/>
<path d="M157.287 3.34668H153.94V5.01995H157.287V3.34668Z" fill="white"/>
<path d="M160.634 5.02002H157.287V6.69329H160.634V5.02002Z" fill="white"/>
<path d="M162.307 6.69287H160.634V8.36614H162.307V6.69287Z" fill="white"/>
<path d="M163.98 8.36621H162.307V10.0395H163.98V8.36621Z" fill="white"/>
<path d="M165.653 10.0396H163.98V11.7128H165.653V10.0396Z" fill="white"/>
<path d="M167.327 11.7129H165.653V15.0594H167.327V11.7129Z" fill="white"/>
<path d="M169 15.0596H167.327V33.4655H169V15.0596Z" fill="white"/>
<path d="M20.0792 1.67334L147.248 1.67334V7.25985e-05L20.0792 7.25985e-05V1.67334Z" fill="white"/>
<path d="M15.0593 3.34668L20.0791 3.34668V1.67341L15.0593 1.67341V3.34668Z" fill="white"/>
<path d="M11.713 5.02002H15.0596V3.34675L11.713 3.34675V5.02002Z" fill="white"/>
<path d="M8.36636 6.69287H11.7129V5.0196H8.36636V6.69287Z" fill="white"/>
<path d="M6.69294 8.36621H8.36621V6.69294H6.69294V8.36621Z" fill="white"/>
<path d="M5.0196 10.0396H6.69287V8.36628H5.0196V10.0396Z" fill="white"/>
<path d="M3.34675 11.7129H5.02002V10.0396H3.34675V11.7129Z" fill="white"/>
<path d="M1.67341 15.0596H3.34668L3.34668 11.713H1.67341L1.67341 15.0596Z" fill="white"/>
<path d="M7.25985e-05 33.4653H1.67334L1.67334 15.0594H7.25985e-05L7.25985e-05 33.4653Z" fill="white"/>
<path d="M148.921 46.8516H21.7524V48.5248H148.921V46.8516Z" fill="white"/>
<path d="M153.941 45.1782H148.921V46.8515H153.941V45.1782Z" fill="white"/>
<path d="M157.287 43.5049H153.94V45.1782H157.287V43.5049Z" fill="white"/>
<path d="M160.634 41.8315H157.287V43.5048H160.634V41.8315Z" fill="white"/>
<path d="M162.307 40.1587H160.634V41.832H162.307V40.1587Z" fill="white"/>
<path d="M163.98 38.4854H162.307V40.1586H163.98V38.4854Z" fill="white"/>
<path d="M165.653 36.812H163.98V38.4853H165.653V36.812Z" fill="white"/>
<path d="M167.327 33.4653H165.653V36.8119H167.327V33.4653Z" fill="white"/>
<path d="M169 15.0596H167.327V33.4655H169V15.0596Z" fill="white"/>
<path d="M20.0792 48.5249L147.248 48.5249V46.8516L20.0792 46.8516V48.5249Z" fill="white"/>
<path d="M15.0593 46.8516H20.0791V45.1783H15.0593V46.8516Z" fill="white"/>
<path d="M11.713 45.1782H15.0596V43.505H11.713V45.1782Z" fill="white"/>
<path d="M8.36636 43.5049H11.7129V41.8316H8.36636V43.5049Z" fill="white"/>
<path d="M6.69294 41.8315H8.36621V40.1583H6.69294V41.8315Z" fill="white"/>
<path d="M5.0196 40.1587H6.69287V38.4854H5.0196V40.1587Z" fill="white"/>
<path d="M3.34675 38.4854H5.02002V36.8121H3.34675V38.4854Z" fill="white"/>
<path d="M1.67341 36.812H3.34668L3.34668 33.4655H1.67341L1.67341 36.812Z" fill="white"/>
<path d="M7.25985e-05 33.4653H1.67334L1.67334 15.0594H7.25985e-05L7.25985e-05 33.4653Z" fill="white"/>
</svg>
