<svg width="169" height="49" viewBox="0 0 169 49" fill="none" xmlns="http://www.w3.org/2000/svg">
<path d="M36 32V15.5H45V17H46.5V24.5H45V26H39V32H36ZM39 23H43.5V18.5H39V23ZM48.0059 30.5V20H51.0059V29H54.0059V27.5H55.5059V20H58.5059V32H55.5059V30.5H54.0059V32H49.5059V30.5H48.0059ZM60.0117 32V15.5H63.0117V21.5H64.5117V20H69.0117V21.5H70.5117V30.5H69.0117V32H64.5117V30.5H63.0117V32H60.0117ZM63.0117 27.5H64.5117V29H67.5117V23H64.5117V24.5H63.0117V27.5ZM72.0176 32V15.5H75.0176V32H72.0176ZM76.5176 32V20H79.5176V32H76.5176ZM76.5176 18.5V15.5H79.5176V18.5H76.5176ZM81.0176 29H87.0176V27.5H82.5176V26H81.0176V21.5H82.5176V20H90.0176V23H84.0176V24.5H88.5176V26H90.0176V30.5H88.5176V32H81.0176V29ZM91.5117 32V15.5H94.5117V21.5H96.0117V20H100.512V21.5H102.012V32H99.0117V23H96.0117V24.5H94.5117V32H91.5117ZM103.518 32V20H106.518V32H103.518ZM103.518 18.5V15.5H106.518V18.5H103.518ZM108.018 32V20H111.018V21.5H112.518V20H117.018V21.5H118.518V32H115.518V23H112.518V24.5H111.018V32H108.018ZM120.023 29V21.5H121.523V20H126.023V21.5H127.523V20H130.523V33.5H129.023V35H121.523V32H127.523V29H126.023V30.5H121.523V29H120.023ZM123.023 27.5H126.023V26H127.523V24.5H126.023V23H123.023V27.5Z" fill="white"/>
<path d="M148.921 0H21.7524V1.67327H148.921V0Z" fill="white"/>
<path d="M153.941 1.67334H148.921V3.34661H153.941V1.67334Z" fill="white"/>
<path d="M157.287 3.34668H153.94V5.01995H157.287V3.34668Z" fill="white"/>
<path d="M160.634 5.02002H157.287V6.69329H160.634V5.02002Z" fill="white"/>
<path d="M162.307 6.69287H160.634V8.36614H162.307V6.69287Z" fill="white"/>
<path d="M163.98 8.36621H162.307V10.0395H163.98V8.36621Z" fill="white"/>
<path d="M165.653 10.0396H163.98V11.7128H165.653V10.0396Z" fill="white"/>
<path d="M167.327 11.7129H165.653V15.0594H167.327V11.7129Z" fill="white"/>
<path d="M169 15.0596H167.327V33.4655H169V15.0596Z" fill="white"/>
<path d="M20.0792 1.67334L147.248 1.67334V7.25985e-05L20.0792 7.25985e-05V1.67334Z" fill="white"/>
<path d="M15.0593 3.34668L20.0791 3.34668V1.67341L15.0593 1.67341V3.34668Z" fill="white"/>
<path d="M11.713 5.02002H15.0596V3.34675L11.713 3.34675V5.02002Z" fill="white"/>
<path d="M8.36636 6.69287H11.7129V5.0196H8.36636V6.69287Z" fill="white"/>
<path d="M6.69294 8.36621H8.36621V6.69294H6.69294V8.36621Z" fill="white"/>
<path d="M5.0196 10.0396H6.69287V8.36628H5.0196V10.0396Z" fill="white"/>
<path d="M3.34675 11.7129H5.02002V10.0396H3.34675V11.7129Z" fill="white"/>
<path d="M1.67341 15.0596H3.34668L3.34668 11.713H1.67341L1.67341 15.0596Z" fill="white"/>
<path d="M7.25985e-05 33.4653H1.67334L1.67334 15.0594H7.25985e-05L7.25985e-05 33.4653Z" fill="white"/>
<path d="M148.921 46.8516H21.7524V48.5248H148.921V46.8516Z" fill="white"/>
<path d="M153.941 45.1782H148.921V46.8515H153.941V45.1782Z" fill="white"/>
<path d="M157.287 43.5049H153.94V45.1782H157.287V43.5049Z" fill="white"/>
<path d="M160.634 41.8315H157.287V43.5048H160.634V41.8315Z" fill="white"/>
<path d="M162.307 40.1587H160.634V41.832H162.307V40.1587Z" fill="white"/>
<path d="M163.98 38.4854H162.307V40.1586H163.98V38.4854Z" fill="white"/>
<path d="M165.653 36.812H163.98V38.4853H165.653V36.812Z" fill="white"/>
<path d="M167.327 33.4653H165.653V36.8119H167.327V33.4653Z" fill="white"/>
<path d="M169 15.0596H167.327V33.4655H169V15.0596Z" fill="white"/>
<path d="M20.0792 48.5249L147.248 48.5249V46.8516L20.0792 46.8516V48.5249Z" fill="white"/>
<path d="M15.0593 46.8516H20.0791V45.1783H15.0593V46.8516Z" fill="white"/>
<path d="M11.713 45.1782H15.0596V43.505H11.713V45.1782Z" fill="white"/>
<path d="M8.36636 43.5049H11.7129V41.8316H8.36636V43.5049Z" fill="white"/>
<path d="M6.69294 41.8315H8.36621V40.1583H6.69294V41.8315Z" fill="white"/>
<path d="M5.0196 40.1587H6.69287V38.4854H5.0196V40.1587Z" fill="white"/>
<path d="M3.34675 38.4854H5.02002V36.8121H3.34675V38.4854Z" fill="white"/>
<path d="M1.67341 36.812H3.34668L3.34668 33.4655H1.67341L1.67341 36.812Z" fill="white"/>
<path d="M7.25985e-05 33.4653H1.67334L1.67334 15.0594H7.25985e-05L7.25985e-05 33.4653Z" fill="white"/>
<path d="M148.921 0H21.7524V1.67327H148.921V0Z" fill="white"/>
<path d="M153.941 1.67334H148.921V3.34661H153.941V1.67334Z" fill="white"/>
<path d="M157.287 3.34668H153.94V5.01995H157.287V3.34668Z" fill="white"/>
<path d="M160.634 5.02002H157.287V6.69329H160.634V5.02002Z" fill="white"/>
<path d="M162.307 6.69287H160.634V8.36614H162.307V6.69287Z" fill="white"/>
<path d="M163.98 8.36621H162.307V10.0395H163.98V8.36621Z" fill="white"/>
<path d="M165.653 10.0396H163.98V11.7128H165.653V10.0396Z" fill="white"/>
<path d="M167.327 11.7129H165.653V15.0594H167.327V11.7129Z" fill="white"/>
<path d="M169 15.0596H167.327V33.4655H169V15.0596Z" fill="white"/>
<path d="M20.0792 1.67334L147.248 1.67334V7.25985e-05L20.0792 7.25985e-05V1.67334Z" fill="white"/>
<path d="M15.0593 3.34668L20.0791 3.34668V1.67341L15.0593 1.67341V3.34668Z" fill="white"/>
<path d="M11.713 5.02002H15.0596V3.34675L11.713 3.34675V5.02002Z" fill="white"/>
<path d="M8.36636 6.69287H11.7129V5.0196H8.36636V6.69287Z" fill="white"/>
<path d="M6.69294 8.36621H8.36621V6.69294H6.69294V8.36621Z" fill="white"/>
<path d="M5.0196 10.0396H6.69287V8.36628H5.0196V10.0396Z" fill="white"/>
<path d="M3.34675 11.7129H5.02002V10.0396H3.34675V11.7129Z" fill="white"/>
<path d="M1.67341 15.0596H3.34668L3.34668 11.713H1.67341L1.67341 15.0596Z" fill="white"/>
<path d="M7.25985e-05 33.4653H1.67334L1.67334 15.0594H7.25985e-05L7.25985e-05 33.4653Z" fill="white"/>
<path d="M148.921 46.8516H21.7524V48.5248H148.921V46.8516Z" fill="white"/>
<path d="M153.941 45.1782H148.921V46.8515H153.941V45.1782Z" fill="white"/>
<path d="M157.287 43.5049H153.94V45.1782H157.287V43.5049Z" fill="white"/>
<path d="M160.634 41.8315H157.287V43.5048H160.634V41.8315Z" fill="white"/>
<path d="M162.307 40.1587H160.634V41.832H162.307V40.1587Z" fill="white"/>
<path d="M163.98 38.4854H162.307V40.1586H163.98V38.4854Z" fill="white"/>
<path d="M165.653 36.812H163.98V38.4853H165.653V36.812Z" fill="white"/>
<path d="M167.327 33.4653H165.653V36.8119H167.327V33.4653Z" fill="white"/>
<path d="M169 15.0596H167.327V33.4655H169V15.0596Z" fill="white"/>
<path d="M20.0792 48.5249L147.248 48.5249V46.8516L20.0792 46.8516V48.5249Z" fill="white"/>
<path d="M15.0593 46.8516H20.0791V45.1783H15.0593V46.8516Z" fill="white"/>
<path d="M11.713 45.1782H15.0596V43.505H11.713V45.1782Z" fill="white"/>
<path d="M8.36636 43.5049H11.7129V41.8316H8.36636V43.5049Z" fill="white"/>
<path d="M6.69294 41.8315H8.36621V40.1583H6.69294V41.8315Z" fill="white"/>
<path d="M5.0196 40.1587H6.69287V38.4854H5.0196V40.1587Z" fill="white"/>
<path d="M3.34675 38.4854H5.02002V36.8121H3.34675V38.4854Z" fill="white"/>
<path d="M1.67341 36.812H3.34668L3.34668 33.4655H1.67341L1.67341 36.812Z" fill="white"/>
<path d="M7.25985e-05 33.4653H1.67334L1.67334 15.0594H7.25985e-05L7.25985e-05 33.4653Z" fill="white"/>
</svg>
